<?xml version="1.0" encoding="UTF-8" standalone="no"?>
<!-- Generator: Adobe Illustrator 25.0.1, SVG Export Plug-In . SVG Version: 6.00 Build 0)  -->

<svg
   version="1.1"
   id="Layer_1"
   x="0px"
   y="0px"
   viewBox="0 0 595.3 841.9"
   style="enable-background:new 0 0 595.3 841.9;"
   xml:space="preserve"
   sodipodi:docname="intro-emblem2.svg"
   inkscape:version="1.3 (0e150ed6c4, 2023-07-21)"
   xmlns:inkscape="http://www.inkscape.org/namespaces/inkscape"
   xmlns:sodipodi="http://sodipodi.sourceforge.net/DTD/sodipodi-0.dtd"
   xmlns="http://www.w3.org/2000/svg"
   xmlns:svg="http://www.w3.org/2000/svg"><defs
   id="defs50" /><sodipodi:namedview
   id="namedview50"
   pagecolor="#ffffff"
   bordercolor="#000000"
   borderopacity="0.25"
   inkscape:showpageshadow="2"
   inkscape:pageopacity="0.0"
   inkscape:pagecheckerboard="0"
   inkscape:deskcolor="#d1d1d1"
   inkscape:zoom="0.49827769"
   inkscape:cx="-210.72587"
   inkscape:cy="631.17416"
   inkscape:window-width="1920"
   inkscape:window-height="1017"
   inkscape:window-x="1912"
   inkscape:window-y="-8"
   inkscape:window-maximized="1"
   inkscape:current-layer="Layer_1" />&#10;<style
   type="text/css"
   id="style1">&#10;	.st0{opacity:0.6;}&#10;	.st1{fill:#FFFFFF;}&#10;</style>&#10;<g
   id="g50"
   style="fill:none;stroke:#000000;stroke-width:4;stroke-opacity:1"
   transform="translate(909.13161,-166.57378)">&#10;	<g
   id="g49"
   style="fill:none;stroke:#000000;stroke-width:4;stroke-opacity:1">&#10;		<g
   class="st0"
   id="g7"
   style="fill:none;stroke:#000000;stroke-width:4;stroke-opacity:1">&#10;			<g
   id="g6"
   style="fill:none;stroke:#000000;stroke-width:4;stroke-opacity:1">&#10;				<g
   id="g1"
   style="fill:none;stroke:#000000;stroke-width:4;stroke-opacity:1">&#10;					<path
   class="st1"
   d="m -496.9,491.5 c -0.7,0 -1.3,-0.5 -1.4,-1.3 -0.1,-0.8 0.5,-1.5 1.3,-1.6 3.7,-0.4 7.3,-0.7 10.8,-0.9 0.8,-0.1 1.5,0.5 1.5,1.3 0.1,0.8 -0.5,1.5 -1.3,1.5 -3.5,0.2 -7.1,0.5 -10.7,0.9 -0.1,0.1 -0.2,0.1 -0.2,0.1 z"
   id="path1"
   style="fill:none;stroke:#000000;stroke-width:4;stroke-opacity:1" />&#10;				</g>&#10;				<g
   id="g2"
   style="fill:none;stroke:#000000;stroke-width:4;stroke-opacity:1">&#10;					<path
   class="st1"
   d="m -300.5,542.8 c -0.3,0 -0.6,-0.1 -0.8,-0.2 -3,-2 -6,-4.1 -9.1,-6 -0.7,-0.4 -0.9,-1.3 -0.4,-2 0.5,-0.7 1.3,-0.9 2,-0.4 3.1,2 6.2,4 9.2,6 0.6,0.4 0.8,1.3 0.4,2 -0.4,0.3 -0.8,0.6 -1.3,0.6 z m -18.4,-11.7 c -0.2,0 -0.5,-0.1 -0.7,-0.2 -3.1,-1.8 -6.3,-3.6 -9.5,-5.3 -0.7,-0.4 -0.9,-1.2 -0.6,-1.9 0.4,-0.7 1.2,-0.9 1.9,-0.6 3.2,1.7 6.4,3.5 9.6,5.4 0.7,0.4 0.9,1.3 0.5,1.9 -0.3,0.4 -0.7,0.7 -1.2,0.7 z m -19.3,-10.4 c -0.2,0 -0.4,0 -0.6,-0.1 -3.2,-1.6 -6.5,-3.1 -9.8,-4.6 -0.7,-0.3 -1,-1.2 -0.7,-1.9 0.3,-0.7 1.2,-1 1.9,-0.7 3.3,1.5 6.7,3.1 9.9,4.7 0.7,0.3 1,1.2 0.6,1.9 -0.2,0.4 -0.7,0.7 -1.3,0.7 z m -19.9,-8.9 c -0.2,0 -0.4,0 -0.5,-0.1 -3.3,-1.4 -6.8,-2.7 -10.1,-3.9 -0.7,-0.3 -1.1,-1.1 -0.8,-1.8 0.3,-0.7 1.1,-1.1 1.8,-0.8 3.4,1.2 6.9,2.6 10.2,3.9 0.7,0.3 1.1,1.1 0.8,1.8 -0.3,0.6 -0.8,0.9 -1.4,0.9 z m -20.5,-7.5 c -0.1,0 -0.3,0 -0.4,-0.1 -3.4,-1.1 -6.9,-2.2 -10.4,-3.1 -0.8,-0.2 -1.2,-1 -1,-1.7 0.2,-0.8 1,-1.2 1.7,-1 3.5,1 7,2.1 10.5,3.2 0.7,0.2 1.2,1 0.9,1.8 -0.2,0.6 -0.7,0.9 -1.3,0.9 z m -21,-5.9 c -0.1,0 -0.2,0 -0.3,0 -3.5,-0.8 -7.1,-1.6 -10.6,-2.4 -0.8,-0.2 -1.3,-0.9 -1.1,-1.7 0.2,-0.8 0.9,-1.3 1.7,-1.1 3.6,0.7 7.2,1.5 10.7,2.4 0.8,0.2 1.2,1 1,1.7 -0.2,0.7 -0.8,1.1 -1.4,1.1 z m -21.4,-4.3 c -0.1,0 -0.2,0 -0.2,0 -3.5,-0.6 -7.2,-1.1 -10.8,-1.6 -0.8,-0.1 -1.3,-0.8 -1.2,-1.6 0.1,-0.8 0.8,-1.3 1.6,-1.2 3.6,0.5 7.3,1 10.9,1.6 0.8,0.1 1.3,0.9 1.2,1.6 -0.2,0.7 -0.9,1.2 -1.5,1.2 z m -21.7,-2.8 c 0,0 -0.1,0 -0.1,0 -3.6,-0.3 -7.2,-0.6 -10.8,-0.8 -0.8,0 -1.4,-0.7 -1.3,-1.5 0,-0.8 0.7,-1.4 1.5,-1.3 3.6,0.2 7.3,0.5 10.9,0.8 0.8,0.1 1.4,0.8 1.3,1.5 -0.1,0.7 -0.8,1.3 -1.5,1.3 z"
   id="path2"
   style="fill:none;stroke:#000000;stroke-width:4;stroke-opacity:1" />&#10;				</g>&#10;				<g
   id="g3"
   style="fill:none;stroke:#000000;stroke-width:4;stroke-opacity:1">&#10;					<path
   class="st1"
   d="m -277.1,538.5 c -0.3,0 -0.6,-0.1 -0.8,-0.3 -0.6,-0.5 -0.8,-1.3 -0.3,-2 2.2,-3.1 4.4,-6.2 6.5,-9.4 0.4,-0.6 1.3,-0.8 2,-0.4 0.7,0.4 0.8,1.3 0.4,2 -2.2,3.2 -4.4,6.3 -6.6,9.4 -0.3,0.4 -0.8,0.7 -1.2,0.7 z m 12.9,-19 c -0.3,0 -0.5,-0.1 -0.8,-0.2 -0.7,-0.4 -0.8,-1.3 -0.4,-2 2.1,-3.2 4.2,-6.4 6.2,-9.6 0.4,-0.7 1.3,-0.9 2,-0.4 0.7,0.4 0.9,1.3 0.4,2 -2.1,3.2 -4.2,6.5 -6.2,9.6 -0.3,0.4 -0.7,0.6 -1.2,0.6 z m 12.3,-19.3 c -0.3,0 -0.5,-0.1 -0.7,-0.2 -0.7,-0.4 -0.9,-1.3 -0.5,-1.9 2,-3.2 4,-6.5 5.9,-9.8 0.4,-0.7 1.3,-0.9 1.9,-0.5 0.7,0.4 0.9,1.3 0.5,1.9 -1.9,3.3 -3.9,6.6 -5.9,9.8 -0.3,0.4 -0.7,0.7 -1.2,0.7 z m 11.6,-19.8 c -0.2,0 -0.5,-0.1 -0.7,-0.2 -0.7,-0.4 -0.9,-1.3 -0.5,-1.9 1.9,-3.3 3.8,-6.7 5.6,-10 0.4,-0.7 1.2,-0.9 1.9,-0.6 0.7,0.4 0.9,1.2 0.6,1.9 -1.8,3.3 -3.7,6.7 -5.6,10 -0.3,0.6 -0.8,0.8 -1.3,0.8 z m 11,-20.1 c -0.2,0 -0.4,-0.1 -0.7,-0.2 -0.7,-0.4 -1,-1.2 -0.6,-1.9 1.8,-3.4 3.5,-6.8 5.2,-10.2 0.4,-0.7 1.2,-1 1.9,-0.6 0.7,0.4 1,1.2 0.6,1.9 -1.7,3.4 -3.5,6.8 -5.2,10.2 -0.2,0.6 -0.7,0.8 -1.2,0.8 z m 10.3,-20.4 c -0.2,0 -0.4,0 -0.6,-0.1 -0.7,-0.3 -1,-1.2 -0.7,-1.9 1.6,-3.4 3.3,-6.9 4.9,-10.3 0.3,-0.7 1.2,-1 1.9,-0.7 0.7,0.3 1,1.2 0.7,1.9 -1.6,3.5 -3.3,7 -4.9,10.4 -0.3,0.4 -0.8,0.7 -1.3,0.7 z m 9.6,-20.8 c -0.2,0 -0.4,0 -0.6,-0.1 -0.7,-0.3 -1,-1.2 -0.7,-1.9 1.5,-3.4 3,-7 4.5,-10.5 0.3,-0.7 1.1,-1.1 1.9,-0.8 0.7,0.3 1.1,1.1 0.8,1.9 -1.5,3.5 -3,7.1 -4.5,10.5 -0.4,0.6 -0.9,0.9 -1.4,0.9 z m 8.9,-21.1 c -0.2,0 -0.4,0 -0.5,-0.1 -0.7,-0.3 -1.1,-1.1 -0.8,-1.8 1.4,-3.5 2.8,-7.1 4.2,-10.6 0.3,-0.7 1.1,-1.1 1.8,-0.8 0.7,0.3 1.1,1.1 0.8,1.8 -1.4,3.6 -2.8,7.2 -4.2,10.7 -0.2,0.4 -0.8,0.8 -1.3,0.8 z m 8.2,-21.4 c -0.2,0 -0.3,0 -0.5,-0.1 -0.7,-0.3 -1.1,-1.1 -0.8,-1.8 1.3,-3.6 2.6,-7.2 3.8,-10.8 0.3,-0.7 1.1,-1.1 1.8,-0.9 0.7,0.3 1.1,1.1 0.9,1.8 -1.2,3.6 -2.5,7.2 -3.8,10.8 -0.3,0.6 -0.9,1 -1.4,1 z m 7.4,-21.7 c -0.1,0 -0.3,0 -0.4,-0.1 -0.7,-0.2 -1.2,-1 -0.9,-1.8 1.2,-3.6 2.3,-7.3 3.5,-10.9 0.2,-0.7 1,-1.2 1.8,-0.9 0.7,0.2 1.2,1 0.9,1.8 -1.1,3.6 -2.3,7.3 -3.5,10.9 -0.2,0.6 -0.8,1 -1.4,1 z m 6.8,-21.9 c -0.1,0 -0.3,0 -0.4,-0.1 -0.8,-0.2 -1.2,-1 -1,-1.8 1,-3.6 2.1,-7.3 3.1,-11 0.2,-0.8 1,-1.2 1.7,-1 0.8,0.2 1.2,1 1,1.7 -1,3.7 -2,7.4 -3.1,11 -0.2,0.8 -0.7,1.2 -1.3,1.2 z m 6,-22.1 c -0.1,0 -0.2,0 -0.3,0 -0.8,-0.2 -1.2,-1 -1,-1.7 0.9,-3.7 1.9,-7.4 2.7,-11.1 0.2,-0.8 0.9,-1.2 1.7,-1.1 0.8,0.2 1.2,0.9 1.1,1.7 -0.9,3.7 -1.8,7.4 -2.7,11.1 -0.3,0.7 -0.9,1.1 -1.5,1.1 z m 5.2,-22.2 c -0.1,0 -0.2,0 -0.3,0 -0.8,-0.2 -1.2,-0.9 -1.1,-1.7 0.8,-3.7 1.6,-7.5 2.3,-11.2 0.2,-0.8 0.9,-1.3 1.7,-1.1 0.8,0.2 1.3,0.9 1.1,1.7 -0.8,3.7 -1.5,7.5 -2.4,11.2 0,0.6 -0.6,1.1 -1.3,1.1 z m 4.5,-22.5 c -0.1,0 -0.2,0 -0.3,0 -0.8,-0.1 -1.3,-0.9 -1.1,-1.6 0.7,-3.7 1.3,-7.5 2,-11.2 0.1,-0.8 0.9,-1.3 1.6,-1.2 0.8,0.1 1.3,0.9 1.2,1.6 -0.6,3.8 -1.3,7.6 -2,11.3 -0.1,0.6 -0.7,1.1 -1.4,1.1 z m 3.8,-22.6 c -0.1,0 -0.1,0 -0.2,0 -0.8,-0.1 -1.3,-0.8 -1.2,-1.6 0.6,-3.7 1.1,-7.5 1.6,-11.3 0.1,-0.8 0.8,-1.3 1.6,-1.2 0.8,0.1 1.3,0.8 1.2,1.6 -0.5,3.8 -1,7.6 -1.6,11.4 -0.1,0.6 -0.7,1.1 -1.4,1.1 z m 3,-22.6 c -0.1,0 -0.1,0 -0.2,0 -0.8,-0.1 -1.3,-0.8 -1.2,-1.6 0.4,-3.7 0.8,-7.6 1.2,-11.4 0.1,-0.8 0.8,-1.4 1.5,-1.3 0.8,0.1 1.3,0.8 1.3,1.5 -0.4,3.8 -0.8,7.6 -1.2,11.4 -0.1,0.8 -0.7,1.4 -1.4,1.4 z m 2.2,-22.8 c 0,0 -0.1,0 -0.1,0 -0.8,-0.1 -1.4,-0.7 -1.3,-1.5 0.3,-3.8 0.6,-7.6 0.8,-11.4 0.1,-0.8 0.7,-1.4 1.5,-1.3 0.8,0.1 1.4,0.7 1.3,1.5 -0.2,3.8 -0.5,7.6 -0.8,11.4 0,0.7 -0.6,1.3 -1.4,1.3 z m 1.5,-22.8 c 0,0 0,0 0,0 -0.9,0 -1.5,-0.7 -1.4,-1.5 0.2,-3.8 0.3,-7.6 0.5,-11.4 0,-0.8 0.7,-1.4 1.5,-1.4 0.8,0 1.4,0.7 1.4,1.5 -0.1,3.8 -0.3,7.6 -0.5,11.5 -0.1,0.7 -0.7,1.3 -1.5,1.3 z"
   id="path3"
   style="fill:none;stroke:#000000;stroke-width:4;stroke-opacity:1" />&#10;				</g>&#10;				<g
   id="g4"
   style="fill:none;stroke:#000000;stroke-width:4;stroke-opacity:1">&#10;					<path
   class="st1"
   d="m -511.1,476.4 c -0.1,0 -0.1,0 -0.2,0 -0.8,-0.1 -1.3,-0.8 -1.2,-1.6 0.5,-3.8 1.1,-7.6 1.7,-11.3 0.1,-0.8 0.8,-1.3 1.6,-1.2 0.8,0.1 1.3,0.9 1.2,1.6 -0.6,3.7 -1.2,7.5 -1.7,11.2 -0.1,0.8 -0.7,1.3 -1.4,1.3 z m 3.6,-22.5 c -0.1,0 -0.2,0 -0.3,0 -0.8,-0.1 -1.3,-0.9 -1.1,-1.7 0.7,-3.7 1.5,-7.5 2.3,-11.2 0.2,-0.8 0.9,-1.2 1.7,-1.1 0.8,0.2 1.2,0.9 1.1,1.7 -0.8,3.7 -1.6,7.4 -2.3,11.1 -0.1,0.7 -0.7,1.2 -1.4,1.2 z m 5,-22.3 c -0.1,0 -0.2,0 -0.4,0 -0.8,-0.2 -1.2,-1 -1,-1.7 0.9,-3.7 2,-7.4 3,-11 0.2,-0.8 1,-1.2 1.8,-1 0.8,0.2 1.2,1 1,1.8 -1.1,3.6 -2.1,7.3 -3,11 -0.2,0.5 -0.7,0.9 -1.4,0.9 z m 6.4,-21.9 c -0.1,0 -0.3,0 -0.4,-0.1 -0.7,-0.2 -1.2,-1 -0.9,-1.8 1.2,-3.6 2.4,-7.2 3.7,-10.8 0.3,-0.7 1.1,-1.1 1.8,-0.9 0.7,0.3 1.1,1.1 0.9,1.8 -1.3,3.6 -2.5,7.2 -3.6,10.7 -0.4,0.7 -0.9,1.1 -1.5,1.1 z m 7.6,-21.4 c -0.2,0 -0.3,0 -0.5,-0.1 -0.7,-0.3 -1.1,-1.1 -0.8,-1.8 1.4,-3.5 2.8,-7.1 4.3,-10.6 0.3,-0.7 1.1,-1.1 1.9,-0.7 0.7,0.3 1.1,1.1 0.8,1.9 -1.5,3.5 -2.9,7 -4.3,10.5 -0.3,0.5 -0.8,0.8 -1.4,0.8 z m 8.9,-20.9 c -0.2,0 -0.4,0 -0.6,-0.1 -0.7,-0.3 -1,-1.2 -0.7,-1.9 1.6,-3.4 3.3,-6.9 4.9,-10.3 0.3,-0.7 1.2,-1 1.9,-0.6 0.7,0.3 1,1.2 0.6,1.9 -1.7,3.4 -3.3,6.8 -4.9,10.2 -0.1,0.5 -0.7,0.8 -1.2,0.8 z m 10.2,-20.4 c -0.2,0 -0.5,-0.1 -0.7,-0.2 -0.7,-0.4 -0.9,-1.2 -0.6,-1.9 1.8,-3.3 3.7,-6.7 5.6,-10 0.4,-0.7 1.3,-0.9 1.9,-0.5 0.7,0.4 0.9,1.3 0.5,1.9 -1.9,3.3 -3.7,6.6 -5.5,9.9 -0.2,0.5 -0.7,0.8 -1.2,0.8 z m 11.3,-19.8 c -0.3,0 -0.5,-0.1 -0.7,-0.2 -0.7,-0.4 -0.9,-1.3 -0.5,-2 2,-3.2 4,-6.5 6.1,-9.6 0.4,-0.7 1.3,-0.8 2,-0.4 0.7,0.4 0.8,1.3 0.4,2 -2.1,3.2 -4.1,6.4 -6.1,9.6 -0.2,0.4 -0.7,0.6 -1.2,0.6 z m 12.5,-19 c -0.3,0 -0.6,-0.1 -0.8,-0.3 -0.6,-0.4 -0.8,-1.3 -0.3,-2 2.2,-3.1 4.4,-6.2 6.7,-9.3 0.5,-0.6 1.4,-0.8 2,-0.3 0.6,0.5 0.8,1.4 0.3,2 -2.2,3 -4.5,6.1 -6.7,9.2 -0.3,0.5 -0.7,0.7 -1.2,0.7 z m 13.7,-18.2 c -0.3,0 -0.6,-0.1 -0.9,-0.3 -0.6,-0.5 -0.7,-1.4 -0.2,-2 2.4,-3 4.8,-5.9 7.2,-8.9 0.5,-0.6 1.4,-0.7 2,-0.2 0.6,0.5 0.7,1.4 0.2,2 -2.4,2.9 -4.9,5.8 -7.2,8.8 -0.3,0.4 -0.7,0.6 -1.1,0.6 z m 14.7,-17.5 c -0.3,0 -0.7,-0.1 -0.9,-0.4 -0.6,-0.5 -0.6,-1.4 -0.1,-2 2.5,-2.8 5.1,-5.7 7.8,-8.4 0.5,-0.6 1.4,-0.6 2,0 0.6,0.5 0.6,1.4 0,2 -2.6,2.7 -5.2,5.5 -7.7,8.3 -0.3,0.4 -0.7,0.5 -1.1,0.5 z m 15.7,-16.5 c -0.4,0 -0.7,-0.1 -1,-0.4 -0.5,-0.6 -0.5,-1.5 0,-2 2.7,-2.7 5.5,-5.3 8.3,-7.9 0.6,-0.5 1.5,-0.5 2,0.1 0.5,0.6 0.5,1.5 -0.1,2 -2.8,2.6 -5.5,5.2 -8.2,7.9 -0.3,0.2 -0.6,0.3 -1,0.3 z m 16.7,-15.5 c -0.4,0 -0.8,-0.2 -1.1,-0.5 -0.5,-0.6 -0.5,-1.5 0.1,-2 2.8,-2.5 5.8,-5 8.7,-7.4 0.6,-0.5 1.5,-0.4 2,0.2 0.5,0.6 0.4,1.5 -0.2,2 -2.9,2.4 -5.8,4.9 -8.6,7.4 -0.2,0.1 -0.6,0.3 -0.9,0.3 z m 17.6,-14.6 c -0.4,0 -0.8,-0.2 -1.1,-0.5 -0.5,-0.6 -0.4,-1.5 0.2,-2 3,-2.3 6.1,-4.7 9.1,-6.9 0.6,-0.5 1.5,-0.3 2,0.3 0.5,0.6 0.3,1.5 -0.3,2 -3,2.2 -6.1,4.5 -9.1,6.8 -0.2,0.2 -0.5,0.3 -0.8,0.3 z m 18.4,-13.5 c -0.5,0 -0.9,-0.2 -1.2,-0.6 -0.4,-0.6 -0.3,-1.5 0.4,-2 3.1,-2.2 6.4,-4.3 9.5,-6.3 0.7,-0.4 1.5,-0.2 2,0.4 0.4,0.7 0.2,1.5 -0.4,2 -3.2,2 -6.4,4.2 -9.5,6.3 -0.2,0.2 -0.5,0.2 -0.8,0.2 z m 19.2,-12.3 c -0.5,0 -0.9,-0.2 -1.2,-0.7 -0.4,-0.7 -0.2,-1.5 0.5,-1.9 3.3,-2 6.6,-3.9 9.9,-5.8 0.7,-0.4 1.5,-0.1 1.9,0.5 0.4,0.7 0.1,1.5 -0.5,1.9 -3.3,1.8 -6.6,3.8 -9.8,5.7 -0.3,0.2 -0.6,0.3 -0.8,0.3 z m 19.9,-11.2 c -0.5,0 -1,-0.3 -1.3,-0.8 -0.4,-0.7 -0.1,-1.6 0.6,-1.9 3.4,-1.8 6.8,-3.5 10.2,-5.2 0.7,-0.3 1.6,0 1.9,0.7 0.3,0.7 0,1.6 -0.7,1.9 -3.4,1.6 -6.8,3.4 -10.2,5.1 0,0.2 -0.3,0.2 -0.5,0.2 z m 20.6,-10 c -0.5,0 -1.1,-0.3 -1.3,-0.8 -0.3,-0.7 0,-1.6 0.7,-1.9 3.5,-1.6 7,-3.1 10.5,-4.5 0.7,-0.3 1.6,0 1.9,0.8 0.3,0.7 0,1.6 -0.8,1.9 -3.5,1.4 -7,3 -10.5,4.5 -0.1,0 -0.3,0 -0.5,0 z m 21.1,-8.7 c -0.6,0 -1.1,-0.3 -1.3,-0.9 -0.3,-0.7 0.1,-1.6 0.8,-1.8 3.6,-1.3 7.2,-2.7 10.8,-3.9 0.7,-0.3 1.5,0.1 1.8,0.9 0.3,0.7 -0.1,1.5 -0.9,1.8 -3.6,1.2 -7.2,2.5 -10.7,3.9 -0.2,0 -0.3,0 -0.5,0 z m 21.6,-7.4 c -0.6,0 -1.2,-0.4 -1.4,-1 -0.2,-0.7 0.2,-1.5 0.9,-1.8 3.6,-1.1 7.3,-2.2 11,-3.2 0.8,-0.2 1.5,0.2 1.7,1 0.2,0.8 -0.2,1.5 -1,1.7 -3.6,1 -7.3,2.1 -10.9,3.2 0,0.1 -0.1,0.1 -0.3,0.1 z m 22,-6.1 c -0.6,0 -1.2,-0.4 -1.4,-1.1 -0.2,-0.8 0.3,-1.5 1,-1.7 3.7,-0.9 7.4,-1.8 11.2,-2.5 0.8,-0.2 1.5,0.3 1.7,1.1 0.2,0.8 -0.3,1.5 -1.1,1.7 -3.7,0.8 -7.4,1.6 -11.1,2.5 0,0 -0.1,0 -0.3,0 z M -202,152 c -0.7,0 -1.3,-0.5 -1.4,-1.2 -0.1,-0.8 0.4,-1.5 1.1,-1.6 3.7,-0.7 7.5,-1.3 11.3,-1.9 0.8,-0.1 1.5,0.4 1.6,1.2 0.1,0.8 -0.4,1.5 -1.2,1.6 -3.7,0.6 -7.5,1.2 -11.2,1.9 -0.1,0 -0.2,0 -0.2,0 z m 22.5,-3.4 c -0.7,0 -1.3,-0.5 -1.4,-1.2 -0.1,-0.8 0.5,-1.5 1.2,-1.6 3.8,-0.5 7.6,-0.9 11.4,-1.2 0.8,-0.1 1.5,0.5 1.5,1.3 0.1,0.8 -0.5,1.5 -1.3,1.5 -3.8,0.3 -7.6,0.7 -11.3,1.2 0,0 0,0 -0.1,0 z"
   id="path4"
   style="fill:none;stroke:#000000;stroke-width:4;stroke-opacity:1" />&#10;				</g>&#10;				<g
   id="g5"
   style="fill:none;stroke:#000000;stroke-width:4;stroke-opacity:1">&#10;					<path
   class="st1"
   d="M -286.9,552.9 -288,552 c -1.4,-1.1 -2.9,-2.2 -4.3,-3.3 -0.6,-0.5 -0.8,-1.4 -0.3,-2 0.5,-0.6 1.4,-0.8 2,-0.3 1.1,0.8 2.2,1.6 3.2,2.4 0.9,-1.1 1.7,-2.3 2.5,-3.5 0.5,-0.6 1.4,-0.8 2,-0.3 0.6,0.5 0.8,1.4 0.3,2 -1.1,1.5 -2.3,3.1 -3.4,4.6 z m -227.7,-59.2 0.2,-1.8 c 0.2,-1.9 0.3,-3.8 0.5,-5.7 0.1,-0.8 0.8,-1.3 1.6,-1.3 0.8,0.1 1.3,0.8 1.3,1.6 -0.1,1.3 -0.3,2.6 -0.4,3.9 1.2,-0.2 2.4,-0.3 3.6,-0.5 0.8,-0.1 1.5,0.4 1.6,1.2 0.1,0.8 -0.4,1.5 -1.2,1.6 -1.8,0.2 -3.6,0.5 -5.3,0.7 z m 39.2,-3.6 c -0.8,0 -1.4,-0.6 -1.4,-1.4 0,-0.8 0.6,-1.4 1.4,-1.4 3.6,-0.1 7.3,-0.1 10.9,0 0.8,0 1.4,0.7 1.4,1.4 0,0.8 -0.7,1.4 -1.4,1.4 -3.6,-0.1 -7.2,-0.1 -10.9,0 0.1,0 0.1,0 0,0 z M -151.1,152 c 0,0 -0.1,0 0,0 -0.8,0 -1.4,-0.7 -1.4,-1.4 0,-1.4 0,-2.8 0.1,-4.2 -1.4,0.1 -2.8,0.1 -4.2,0.2 -0.8,0 -1.5,-0.5 -1.5,-1.3 0,-0.8 0.5,-1.5 1.3,-1.5 1.9,-0.1 3.8,-0.2 5.7,-0.3 l 1.5,-0.1 v 1.5 c 0,1.9 0,3.8 -0.1,5.7 0,0.8 -0.7,1.4 -1.4,1.4 z"
   id="path5"
   style="fill:none;stroke:#000000;stroke-width:4;stroke-opacity:1" />&#10;				</g>&#10;			</g>&#10;		</g>&#10;		<g
   class="st0"
   id="g15"
   style="fill:none;stroke:#000000;stroke-width:4;stroke-opacity:1">&#10;			<g
   id="g14"
   style="fill:none;stroke:#000000;stroke-width:4;stroke-opacity:1">&#10;				<g
   id="g8"
   style="fill:none;stroke:#000000;stroke-width:4;stroke-opacity:1">&#10;					<path
   class="st1"
   d="m -756.3,761.4 c -0.1,0 -0.1,0 0,0 -0.9,0 -1.5,-0.7 -1.4,-1.5 0.2,-3.7 0.5,-7.4 0.8,-11.1 0.1,-0.8 0.8,-1.3 1.5,-1.3 0.8,0.1 1.4,0.8 1.3,1.5 -0.3,3.7 -0.6,7.4 -0.8,11 -0.1,0.9 -0.7,1.4 -1.4,1.4 z m 2,-22.1 c -0.1,0 -0.1,0 -0.2,0 -0.8,-0.1 -1.3,-0.8 -1.2,-1.6 0.5,-3.7 1.1,-7.4 1.7,-11 0.1,-0.8 0.9,-1.3 1.6,-1.2 0.8,0.1 1.3,0.9 1.2,1.6 -0.6,3.6 -1.2,7.3 -1.7,10.9 0,0.8 -0.7,1.3 -1.4,1.3 z m 3.8,-21.9 c -0.1,0 -0.2,0 -0.3,0 -0.8,-0.2 -1.3,-0.9 -1.1,-1.7 0.8,-3.6 1.6,-7.3 2.5,-10.9 0.2,-0.8 1,-1.2 1.7,-1 0.8,0.2 1.2,1 1,1.7 -0.9,3.6 -1.7,7.2 -2.5,10.8 -0.1,0.7 -0.6,1.1 -1.3,1.1 z m 5.4,-21.5 c -0.1,0 -0.3,0 -0.4,-0.1 -0.8,-0.2 -1.2,-1 -1,-1.8 1,-3.6 2.2,-7.1 3.3,-10.7 0.2,-0.7 1,-1.1 1.8,-0.9 0.7,0.2 1.1,1.1 0.9,1.8 -1.2,3.5 -2.3,7 -3.3,10.6 -0.1,0.7 -0.7,1.1 -1.3,1.1 z m 7.1,-21.1 c -0.2,0 -0.3,0 -0.5,-0.1 -0.7,-0.3 -1.1,-1.1 -0.8,-1.8 1.3,-3.5 2.7,-7 4.2,-10.4 0.3,-0.7 1.1,-1.1 1.9,-0.8 0.7,0.3 1.1,1.1 0.8,1.9 -1.4,3.4 -2.8,6.8 -4.1,10.3 -0.4,0.5 -0.9,0.9 -1.5,0.9 z m 8.7,-20.5 c -0.2,0 -0.4,0 -0.6,-0.1 -0.7,-0.3 -1,-1.2 -0.7,-1.9 1.6,-3.4 3.2,-6.7 4.9,-10 0.4,-0.7 1.2,-1 1.9,-0.6 0.7,0.4 1,1.2 0.6,1.9 -1.7,3.3 -3.3,6.6 -4.9,9.9 -0.2,0.5 -0.7,0.8 -1.2,0.8 z m 10.1,-19.8 c -0.2,0 -0.5,-0.1 -0.7,-0.2 -0.7,-0.4 -0.9,-1.2 -0.5,-1.9 1.8,-3.2 3.7,-6.5 5.7,-9.6 0.4,-0.7 1.3,-0.9 1.9,-0.5 0.7,0.4 0.9,1.3 0.5,2 -1.9,3.1 -3.8,6.3 -5.6,9.5 -0.3,0.4 -0.8,0.7 -1.3,0.7 z m 11.7,-18.9 c -0.3,0 -0.5,-0.1 -0.8,-0.2 -0.7,-0.4 -0.8,-1.3 -0.4,-2 2.1,-3.1 4.2,-6.2 6.4,-9.2 0.5,-0.6 1.3,-0.8 2,-0.3 0.6,0.5 0.8,1.3 0.3,2 -2.1,3 -4.3,6 -6.3,9.1 -0.3,0.4 -0.8,0.6 -1.2,0.6 z m 13,-18 c -0.3,0 -0.6,-0.1 -0.9,-0.3 -0.6,-0.5 -0.7,-1.4 -0.2,-2 2.3,-2.9 4.7,-5.8 7,-8.7 0.5,-0.6 1.4,-0.7 2,-0.2 0.6,0.5 0.7,1.4 0.2,2 -2.4,2.8 -4.7,5.7 -7,8.6 -0.2,0.4 -0.7,0.6 -1.1,0.6 z m 14.4,-17 c -0.3,0 -0.7,-0.1 -1,-0.4 -0.6,-0.5 -0.6,-1.4 -0.1,-2 2.5,-2.7 5.1,-5.5 7.7,-8.1 0.5,-0.6 1.4,-0.6 2,0 0.6,0.5 0.6,1.4 0,2 -2.6,2.6 -5.1,5.3 -7.6,8 -0.3,0.4 -0.6,0.5 -1,0.5 z m 15.5,-15.8 c -0.4,0 -0.8,-0.1 -1,-0.4 -0.5,-0.6 -0.5,-1.5 0.1,-2 2.7,-2.5 5.5,-5.1 8.3,-7.5 0.6,-0.5 1.5,-0.5 2,0.1 0.5,0.6 0.5,1.5 -0.1,2 -2.8,2.4 -5.5,4.9 -8.2,7.4 -0.4,0.3 -0.7,0.4 -1.1,0.4 z m 16.8,-14.6 c -0.4,0 -0.8,-0.2 -1.1,-0.5 -0.5,-0.6 -0.4,-1.5 0.2,-2 2.9,-2.3 5.8,-4.6 8.8,-6.9 0.6,-0.5 1.5,-0.3 2,0.3 0.5,0.6 0.3,1.5 -0.3,2 -2.9,2.2 -5.9,4.5 -8.7,6.8 -0.3,0.1 -0.6,0.3 -0.9,0.3 z m 17.7,-13.4 c -0.4,0 -0.9,-0.2 -1.2,-0.6 -0.4,-0.6 -0.3,-1.5 0.4,-2 3.1,-2.1 6.2,-4.2 9.3,-6.2 0.7,-0.4 1.5,-0.2 2,0.4 0.4,0.7 0.2,1.5 -0.4,2 -3.1,2 -6.2,4 -9.2,6.1 -0.3,0.2 -0.6,0.3 -0.9,0.3 z m 18.7,-12 c -0.5,0 -1,-0.2 -1.2,-0.7 -0.4,-0.7 -0.2,-1.5 0.5,-1.9 3.2,-1.9 6.5,-3.7 9.7,-5.5 0.7,-0.4 1.5,-0.1 1.9,0.6 0.4,0.7 0.1,1.5 -0.6,1.9 -3.2,1.7 -6.5,3.6 -9.6,5.4 -0.2,0.2 -0.5,0.2 -0.7,0.2 z m 19.5,-10.5 c -0.5,0 -1,-0.3 -1.3,-0.8 -0.3,-0.7 -0.1,-1.6 0.6,-1.9 3.3,-1.6 6.7,-3.2 10.1,-4.7 0.7,-0.3 1.6,0 1.9,0.7 0.3,0.7 0,1.6 -0.7,1.9 -3.4,1.5 -6.7,3.1 -10,4.7 -0.2,0.1 -0.4,0.1 -0.6,0.1 z"
   id="path7"
   style="fill:none;stroke:#000000;stroke-width:4;stroke-opacity:1" />&#10;				</g>&#10;				<g
   id="g9"
   style="fill:none;stroke:#000000;stroke-width:4;stroke-opacity:1">&#10;					<path
   class="st1"
   d="m -565.5,486 c 0,0 -0.1,0 -0.1,0 -0.8,-0.1 -1.4,-0.7 -1.3,-1.5 0.3,-3.8 0.6,-7.7 1,-11.5 0.1,-0.8 0.8,-1.3 1.6,-1.3 0.8,0.1 1.3,0.8 1.3,1.6 -0.4,3.8 -0.7,7.6 -1,11.4 -0.1,0.8 -0.8,1.3 -1.5,1.3 z m 2.4,-22.8 c -0.1,0 -0.1,0 -0.2,0 -0.8,-0.1 -1.3,-0.8 -1.2,-1.6 0.5,-3.8 1.1,-7.7 1.6,-11.4 0.1,-0.8 0.9,-1.3 1.6,-1.2 0.8,0.1 1.3,0.8 1.2,1.6 -0.6,3.7 -1.1,7.6 -1.6,11.3 -0.1,0.7 -0.7,1.3 -1.4,1.3 z m 3.6,-22.8 c -0.1,0 -0.2,0 -0.3,0 -0.8,-0.1 -1.3,-0.9 -1.1,-1.7 0.7,-3.8 1.5,-7.6 2.3,-11.3 0.2,-0.8 0.9,-1.3 1.7,-1.1 0.8,0.2 1.3,0.9 1.1,1.7 -0.8,3.7 -1.5,7.5 -2.2,11.2 -0.3,0.8 -0.9,1.2 -1.5,1.2 z m 4.8,-22.5 c -0.1,0 -0.2,0 -0.3,0 -0.8,-0.2 -1.2,-0.9 -1,-1.7 0.9,-3.7 1.9,-7.5 2.9,-11.2 0.2,-0.8 1,-1.2 1.7,-1 0.8,0.2 1.2,1 1,1.7 -1,3.7 -1.9,7.4 -2.8,11.1 -0.3,0.7 -0.9,1.1 -1.5,1.1 z m 6,-22.2 c -0.1,0 -0.3,0 -0.4,-0.1 -0.8,-0.2 -1.2,-1 -1,-1.8 1.1,-3.7 2.3,-7.4 3.5,-11 0.2,-0.7 1,-1.1 1.8,-0.9 0.7,0.2 1.1,1 0.9,1.8 -1.2,3.6 -2.4,7.3 -3.4,11 -0.2,0.6 -0.8,1 -1.4,1 z m 7.2,-21.9 c -0.2,0 -0.3,0 -0.5,-0.1 -0.7,-0.3 -1.1,-1.1 -0.9,-1.8 1.3,-3.6 2.7,-7.3 4.1,-10.8 0.3,-0.7 1.1,-1.1 1.8,-0.8 0.7,0.3 1.1,1.1 0.8,1.8 -1.4,3.6 -2.7,7.2 -4,10.8 -0.2,0.5 -0.7,0.9 -1.3,0.9 z m 8.4,-21.5 c -0.2,0 -0.4,0 -0.5,-0.1 -0.7,-0.3 -1.1,-1.1 -0.8,-1.9 1.5,-3.5 3,-7.1 4.6,-10.6 0.3,-0.7 1.2,-1 1.9,-0.7 0.7,0.3 1,1.2 0.7,1.9 -1.6,3.5 -3.1,7 -4.6,10.5 -0.3,0.6 -0.8,0.9 -1.3,0.9 z m 9.5,-21 c -0.2,0 -0.4,0 -0.6,-0.1 -0.7,-0.3 -1,-1.2 -0.7,-1.9 1.7,-3.5 3.4,-6.9 5.2,-10.3 0.4,-0.7 1.2,-1 1.9,-0.6 0.7,0.4 1,1.2 0.6,1.9 -1.8,3.4 -3.5,6.8 -5.2,10.3 -0.2,0.4 -0.7,0.7 -1.2,0.7 z m 10.6,-20.5 c -0.2,0 -0.5,-0.1 -0.7,-0.2 -0.7,-0.4 -0.9,-1.2 -0.6,-1.9 1.9,-3.4 3.8,-6.7 5.7,-10 0.4,-0.7 1.3,-0.9 1.9,-0.5 0.7,0.4 0.9,1.3 0.5,1.9 -1.9,3.3 -3.9,6.6 -5.7,10 -0.1,0.5 -0.6,0.7 -1.1,0.7 z m 11.7,-19.8 c -0.3,0 -0.5,-0.1 -0.8,-0.2 -0.7,-0.4 -0.9,-1.3 -0.5,-2 2,-3.3 4.1,-6.5 6.3,-9.7 0.4,-0.7 1.3,-0.8 2,-0.4 0.7,0.4 0.8,1.3 0.4,2 -2.1,3.2 -4.2,6.4 -6.2,9.6 -0.3,0.4 -0.8,0.7 -1.2,0.7 z m 12.7,-19.2 c -0.3,0 -0.6,-0.1 -0.8,-0.3 -0.6,-0.4 -0.8,-1.3 -0.3,-2 2.2,-3.1 4.5,-6.3 6.8,-9.4 0.5,-0.6 1.4,-0.8 2,-0.3 0.6,0.5 0.8,1.4 0.3,2 -2.3,3.1 -4.5,6.2 -6.7,9.3 -0.4,0.5 -0.9,0.7 -1.3,0.7 z m 13.7,-18.5 c -0.3,0 -0.6,-0.1 -0.9,-0.3 -0.6,-0.5 -0.7,-1.4 -0.2,-2 2.4,-3 4.8,-6 7.2,-9 0.5,-0.6 1.4,-0.7 2,-0.2 0.6,0.5 0.7,1.4 0.2,2 -2.4,2.9 -4.8,5.9 -7.2,8.9 -0.2,0.4 -0.7,0.6 -1.1,0.6 z m 14.7,-17.7 c -0.3,0 -0.7,-0.1 -0.9,-0.4 -0.6,-0.5 -0.7,-1.4 -0.1,-2 2.5,-2.9 5.1,-5.8 7.7,-8.6 0.5,-0.6 1.4,-0.6 2,-0.1 0.6,0.5 0.6,1.4 0.1,2 -2.6,2.8 -5.2,5.7 -7.7,8.5 -0.3,0.4 -0.7,0.6 -1.1,0.6 z m 15.6,-16.9 c -0.4,0 -0.7,-0.1 -1,-0.4 -0.6,-0.5 -0.6,-1.4 0,-2 2.7,-2.8 5.4,-5.5 8.1,-8.2 0.6,-0.5 1.5,-0.5 2,0 0.5,0.5 0.5,1.5 0,2 -2.7,2.7 -5.4,5.4 -8.1,8.1 -0.3,0.3 -0.7,0.5 -1,0.5 z m 16.4,-16.1 c -0.4,0 -0.8,-0.2 -1,-0.5 -0.5,-0.6 -0.5,-1.5 0.1,-2 2.8,-2.6 5.7,-5.2 8.6,-7.7 0.6,-0.5 1.5,-0.5 2,0.1 0.5,0.6 0.5,1.5 -0.1,2 -2.9,2.5 -5.7,5.1 -8.5,7.7 -0.4,0.3 -0.7,0.4 -1.1,0.4 z m 17.3,-15.2 c -0.4,0 -0.8,-0.2 -1.1,-0.5 -0.5,-0.6 -0.4,-1.5 0.2,-2 2.9,-2.5 6,-4.9 9,-7.3 0.6,-0.5 1.5,-0.4 2,0.2 0.5,0.6 0.4,1.5 -0.2,2 -3,2.4 -6,4.8 -8.9,7.2 -0.4,0.3 -0.7,0.4 -1,0.4 z m 18,-14.2 c -0.4,0 -0.9,-0.2 -1.1,-0.6 -0.5,-0.6 -0.3,-1.5 0.3,-2 3.1,-2.3 6.2,-4.6 9.3,-6.8 0.6,-0.5 1.5,-0.3 2,0.3 0.5,0.6 0.3,1.5 -0.3,2 -3.1,2.2 -6.2,4.5 -9.3,6.7 -0.3,0.3 -0.6,0.4 -0.9,0.4 z m 18.8,-13.3 c -0.5,0 -0.9,-0.2 -1.2,-0.6 -0.4,-0.7 -0.3,-1.5 0.4,-2 3.2,-2.1 6.4,-4.2 9.7,-6.3 0.7,-0.4 1.5,-0.2 2,0.4 0.4,0.7 0.2,1.5 -0.4,2 -3.2,2 -6.4,4.1 -9.6,6.2 -0.3,0.2 -0.6,0.3 -0.9,0.3 z m 19.4,-12.2 c -0.5,0 -1,-0.2 -1.2,-0.7 -0.4,-0.7 -0.2,-1.5 0.5,-1.9 3.3,-2 6.7,-3.9 10,-5.7 0.7,-0.4 1.5,-0.1 1.9,0.5 0.4,0.7 0.1,1.5 -0.5,1.9 -3.3,1.8 -6.6,3.8 -9.9,5.7 -0.3,0.1 -0.5,0.2 -0.8,0.2 z m 20.1,-11.2 c -0.5,0 -1,-0.3 -1.3,-0.8 -0.4,-0.7 -0.1,-1.6 0.6,-1.9 3.4,-1.8 6.8,-3.5 10.3,-5.2 0.7,-0.3 1.6,-0.1 1.9,0.6 0.3,0.7 0.1,1.6 -0.6,1.9 -3.4,1.7 -6.8,3.4 -10.2,5.2 -0.3,0.1 -0.5,0.2 -0.7,0.2 z m 20.6,-10.1 c -0.5,0 -1.1,-0.3 -1.3,-0.8 -0.3,-0.7 0,-1.6 0.7,-1.9 3.5,-1.6 7,-3.2 10.5,-4.7 0.7,-0.3 1.6,0 1.9,0.7 0.3,0.7 0,1.6 -0.7,1.9 -3.5,1.5 -7,3 -10.5,4.6 -0.2,0.1 -0.4,0.2 -0.6,0.2 z m 21.1,-9 c -0.6,0 -1.1,-0.3 -1.3,-0.9 -0.3,-0.7 0.1,-1.6 0.8,-1.8 3.5,-1.4 7.2,-2.8 10.8,-4.1 0.7,-0.3 1.5,0.1 1.8,0.8 0.3,0.7 -0.1,1.5 -0.8,1.8 -3.6,1.3 -7.2,2.7 -10.7,4.1 -0.3,0 -0.4,0.1 -0.6,0.1 z m 21.6,-7.9 c -0.6,0 -1.1,-0.4 -1.3,-1 -0.2,-0.7 0.2,-1.5 0.9,-1.8 3.6,-1.2 7.3,-2.4 11,-3.5 0.7,-0.2 1.5,0.2 1.8,0.9 0.2,0.7 -0.2,1.5 -0.9,1.8 -3.6,1.1 -7.3,2.3 -10.9,3.5 -0.3,0.1 -0.5,0.1 -0.6,0.1 z m 22,-6.7 c -0.6,0 -1.2,-0.4 -1.4,-1 -0.2,-0.8 0.2,-1.5 1,-1.7 3.7,-1 7.4,-2 11.2,-2.9 0.8,-0.2 1.5,0.3 1.7,1 0.2,0.8 -0.3,1.5 -1,1.7 -3.7,0.9 -7.4,1.9 -11.1,2.9 -0.2,0 -0.3,0 -0.4,0 z m 22.3,-5.6 c -0.7,0 -1.2,-0.5 -1.4,-1.1 -0.2,-0.8 0.3,-1.5 1.1,-1.7 3.7,-0.8 7.5,-1.6 11.3,-2.3 0.8,-0.1 1.5,0.4 1.7,1.1 0.1,0.8 -0.4,1.5 -1.1,1.7 -3.7,0.7 -7.5,1.5 -11.2,2.3 -0.2,0 -0.3,0 -0.4,0 z m 22.6,-4.3 c -0.7,0 -1.3,-0.5 -1.4,-1.2 -0.1,-0.8 0.4,-1.5 1.2,-1.6 3.8,-0.6 7.6,-1.2 11.4,-1.7 0.8,-0.1 1.5,0.4 1.6,1.2 0.1,0.8 -0.4,1.5 -1.2,1.6 -3.8,0.5 -7.6,1.1 -11.3,1.7 -0.2,0 -0.2,0 -0.3,0 z m 22.8,-3.1 c -0.7,0 -1.3,-0.5 -1.4,-1.3 -0.1,-0.8 0.5,-1.5 1.3,-1.6 3.8,-0.4 7.7,-0.8 11.5,-1.1 0.8,-0.1 1.5,0.5 1.5,1.3 0.1,0.8 -0.5,1.5 -1.3,1.5 -3.8,0.3 -7.6,0.7 -11.4,1.1 -0.1,0.1 -0.2,0.1 -0.2,0.1 z"
   id="path8"
   style="fill:none;stroke:#000000;stroke-width:4;stroke-opacity:1" />&#10;				</g>&#10;				<g
   id="g10"
   style="fill:none;stroke:#000000;stroke-width:4;stroke-opacity:1">&#10;					<path
   class="st1"
   d="m -154.5,71.1 c -0.7,0 -1.3,-0.5 -1.4,-1.3 -0.4,-3.6 -0.8,-7.3 -1.3,-11 -0.1,-0.8 0.4,-1.5 1.2,-1.6 0.8,-0.1 1.5,0.4 1.6,1.2 0.5,3.7 0.9,7.4 1.3,11 0.1,0.8 -0.5,1.5 -1.3,1.6 0,0.1 -0.1,0.1 -0.1,0.1 z m -2.8,-21.9 c -0.7,0 -1.3,-0.5 -1.4,-1.2 -0.5,-3.6 -1.1,-7.3 -1.7,-10.9 -0.1,-0.8 0.4,-1.5 1.2,-1.6 0.8,-0.1 1.5,0.4 1.6,1.2 0.6,3.6 1.1,7.3 1.7,10.9 0.1,0.8 -0.4,1.5 -1.2,1.6 -0.1,0 -0.2,0 -0.2,0 z"
   id="path9"
   style="fill:none;stroke:#000000;stroke-width:4;stroke-opacity:1" />&#10;				</g>&#10;				<g
   id="g11"
   style="fill:none;stroke:#000000;stroke-width:4;stroke-opacity:1">&#10;					<path
   class="st1"
   d="m -840,814.5 c 0,0 0,0 0,0 -4,-0.1 -8.1,-0.3 -12.1,-0.4 -0.8,0 -1.4,-0.7 -1.4,-1.5 0,-0.8 0.7,-1.4 1.5,-1.4 4,0.2 8,0.3 12,0.4 0.8,0 1.4,0.7 1.4,1.5 0,0.8 -0.6,1.4 -1.4,1.4 z m -24,-1.1 c -0.1,0 -0.1,0 0,0 -4.1,-0.3 -8.1,-0.6 -12.1,-0.9 -0.8,-0.1 -1.4,-0.7 -1.3,-1.5 0.1,-0.8 0.7,-1.4 1.5,-1.3 4,0.3 8,0.6 12,0.9 0.8,0.1 1.4,0.7 1.3,1.5 -0.1,0.8 -0.7,1.3 -1.4,1.3 z m -24,-1.9 c 0,0 -0.1,0 -0.1,0 -3.9,-0.4 -8,-0.8 -12,-1.3 -0.8,-0.1 -1.3,-0.8 -1.2,-1.6 0.1,-0.8 0.8,-1.3 1.6,-1.2 4,0.5 8,0.9 11.9,1.3 0.8,0.1 1.3,0.8 1.3,1.6 -0.1,0.6 -0.8,1.2 -1.5,1.2 z"
   id="path10"
   style="fill:none;stroke:#000000;stroke-width:4;stroke-opacity:1" />&#10;				</g>&#10;				<g
   id="g12"
   style="fill:none;stroke:#000000;stroke-width:4;stroke-opacity:1">&#10;					<path
   class="st1"
   d="m -805.2,814.6 c -0.8,0 -1.4,-0.6 -1.4,-1.4 0,-0.8 0.6,-1.4 1.4,-1.5 3.7,-0.1 7.5,-0.2 11.2,-0.4 0.8,0 1.4,0.6 1.5,1.4 0,0.8 -0.6,1.4 -1.4,1.5 -3.7,0.2 -7.5,0.3 -11.3,0.4 0.1,0 0.1,0 0,0 z m 22.5,-1 c -0.7,0 -1.4,-0.6 -1.4,-1.3 0,-0.8 0.6,-1.5 1.3,-1.5 3.7,-0.2 7.4,-0.5 11.2,-0.7 0.8,-0.1 1.5,0.5 1.5,1.3 0.1,0.8 -0.5,1.5 -1.3,1.5 -3.8,0.3 -7.6,0.5 -11.3,0.7 z"
   id="path11"
   style="fill:none;stroke:#000000;stroke-width:4;stroke-opacity:1" />&#10;				</g>&#10;				<g
   id="g13"
   style="fill:none;stroke:#000000;stroke-width:4;stroke-opacity:1">&#10;					<path
   class="st1"
   d="m -822,814.8 c -2,0 -4,0 -6,0 -0.8,0 -1.4,-0.6 -1.4,-1.4 0,-0.8 0.6,-1.4 1.4,-1.4 0,0 0,0 0,0 3.9,0 7.7,0 11.6,0 0,0 0,0 0,0 0.8,0 1.4,0.6 1.4,1.4 0,0.8 -0.6,1.4 -1.4,1.4 -1.8,0 -3.7,0 -5.6,0 z m 61.6,-2.8 c -0.7,0 -1.3,-0.6 -1.4,-1.3 -0.1,-0.8 0.5,-1.5 1.3,-1.5 1.4,-0.1 2.8,-0.3 4.1,-0.4 -0.3,-2.4 -0.5,-4.7 -0.7,-6.9 -0.1,-0.8 0.5,-1.5 1.3,-1.5 0.8,-0.1 1.5,0.5 1.5,1.3 0.2,2.7 0.5,5.5 0.8,8.3 l 0.2,1.4 -1.4,0.1 c -1.9,0.2 -3.7,0.4 -5.6,0.5 0,0 0,0 -0.1,0 z m 3.7,-25.6 c -0.8,0 -1.4,-0.6 -1.4,-1.4 -0.1,-2.8 -0.1,-5.7 -0.1,-8.4 0,-1.9 0,-3.7 0.1,-5.6 0,-0.8 0.6,-1.4 1.4,-1.4 0.8,0 1.4,0.7 1.4,1.4 0,1.8 -0.1,3.7 -0.1,5.5 0,2.7 0,5.5 0.1,8.3 0.1,1 -0.5,1.6 -1.4,1.6 0.1,0 0,0 0,0 z m 185.1,-281.1 c -0.6,0 -1.1,-0.3 -1.3,-0.9 -0.3,-0.7 0.1,-1.6 0.8,-1.8 1.4,-0.6 2.9,-1.1 4.3,-1.7 0.1,-1.6 0.1,-3.2 0.2,-4.8 0,-0.8 0.7,-1.4 1.5,-1.3 0.8,0 1.4,0.7 1.3,1.5 -0.1,1.9 -0.2,3.8 -0.3,5.7 v 0.9 l -0.9,0.3 c -1.7,0.7 -3.4,1.3 -5.1,2 -0.2,0.1 -0.4,0.1 -0.5,0.1 z M -158.7,87.9 c -0.7,0 -1.4,-0.6 -1.4,-1.3 0,-0.8 0.6,-1.5 1.3,-1.5 1.4,-0.1 2.9,-0.2 4.3,-0.2 -0.1,-1.3 -0.2,-2.7 -0.4,-4 -0.1,-0.8 0.5,-1.5 1.3,-1.5 0.8,-0.1 1.5,0.5 1.5,1.3 0.2,1.8 0.3,3.7 0.5,5.5 l 0.1,1.5 -1.5,0.1 c -1.8,-0.1 -3.7,0 -5.7,0.1 0.1,0 0.1,0 0,0 z"
   id="path12"
   style="fill:none;stroke:#000000;stroke-width:4;stroke-opacity:1" />&#10;				</g>&#10;			</g>&#10;		</g>&#10;		<g
   class="st0"
   id="g22"
   style="fill:none;stroke:#000000;stroke-width:4;stroke-opacity:1">&#10;			<g
   id="g21"
   style="fill:none;stroke:#000000;stroke-width:4;stroke-opacity:1">&#10;				<g
   id="g16"
   style="fill:none;stroke:#000000;stroke-width:4;stroke-opacity:1">&#10;					<path
   class="st1"
   d="m -669.9,846.9 c -0.6,0 -1.2,-0.4 -1.4,-1.1 -0.2,-0.8 0.3,-1.5 1.1,-1.7 3.7,-0.8 7.4,-1.7 11.1,-2.6 0.8,-0.2 1.5,0.3 1.7,1 0.2,0.8 -0.3,1.5 -1,1.7 -3.7,0.9 -7.4,1.8 -11.1,2.6 -0.2,0 -0.3,0.1 -0.4,0.1 z m 22.2,-5.4 c -0.6,0 -1.2,-0.4 -1.4,-1.1 -0.2,-0.8 0.3,-1.5 1,-1.7 3.6,-0.9 7.3,-1.9 11,-2.9 0.8,-0.2 1.5,0.2 1.7,1 0.2,0.8 -0.2,1.5 -1,1.7 -3.7,1 -7.4,2 -11,2.9 -0.1,0.1 -0.2,0.1 -0.3,0.1 z m 22,-6 c -0.6,0 -1.2,-0.4 -1.4,-1 -0.2,-0.8 0.2,-1.5 1,-1.8 3.7,-1.1 7.3,-2.2 10.9,-3.3 0.7,-0.2 1.5,0.2 1.8,0.9 0.2,0.7 -0.2,1.5 -0.9,1.8 -3.6,1.1 -7.3,2.2 -11,3.3 -0.1,0 -0.2,0.1 -0.4,0.1 z m 21.8,-6.7 c -0.6,0 -1.2,-0.4 -1.3,-1 -0.2,-0.7 0.2,-1.5 0.9,-1.8 3.6,-1.2 7.2,-2.4 10.8,-3.6 0.7,-0.3 1.5,0.1 1.8,0.9 0.3,0.7 -0.1,1.5 -0.9,1.8 -3.6,1.2 -7.2,2.4 -10.8,3.6 -0.2,0 -0.3,0.1 -0.5,0.1 z m 21.6,-7.4 c -0.6,0 -1.1,-0.4 -1.3,-0.9 -0.3,-0.7 0.1,-1.5 0.9,-1.8 3.5,-1.3 7.1,-2.6 10.7,-3.9 0.7,-0.3 1.6,0.1 1.8,0.8 0.3,0.7 -0.1,1.6 -0.8,1.8 -3.6,1.3 -7.2,2.7 -10.7,3.9 -0.2,0.1 -0.4,0.1 -0.6,0.1 z m 21.4,-8.1 c -0.6,0 -1.1,-0.3 -1.3,-0.9 -0.3,-0.7 0.1,-1.6 0.8,-1.8 3.5,-1.4 7.1,-2.8 10.6,-4.3 0.7,-0.3 1.6,0 1.9,0.8 0.3,0.7 0,1.6 -0.8,1.8 -3.5,1.4 -7.1,2.9 -10.6,4.3 -0.2,0.1 -0.4,0.1 -0.6,0.1 z m 21.1,-8.6 c -0.5,0 -1.1,-0.3 -1.3,-0.9 -0.3,-0.7 0,-1.6 0.7,-1.9 3.5,-1.5 7,-3 10.4,-4.6 0.7,-0.3 1.6,0 1.9,0.7 0.3,0.7 0,1.6 -0.7,1.9 -3.5,1.6 -7,3.1 -10.5,4.6 -0.1,0.1 -0.3,0.2 -0.5,0.2 z m 20.8,-9.4 c -0.5,0 -1,-0.3 -1.3,-0.8 -0.3,-0.7 0,-1.6 0.7,-1.9 3.4,-1.6 6.9,-3.2 10.3,-4.9 0.7,-0.3 1.6,0 1.9,0.7 0.3,0.7 0,1.6 -0.7,1.9 -3.4,1.7 -6.9,3.3 -10.3,4.9 -0.2,0.1 -0.4,0.1 -0.6,0.1 z m 20.6,-9.9 c -0.5,0 -1,-0.3 -1.3,-0.8 -0.4,-0.7 -0.1,-1.6 0.6,-1.9 3.4,-1.7 6.8,-3.4 10.1,-5.2 0.7,-0.4 1.5,-0.1 1.9,0.6 0.4,0.7 0.1,1.5 -0.6,1.9 -3.4,1.8 -6.8,3.5 -10.2,5.2 -0.1,0.1 -0.3,0.2 -0.5,0.2 z"
   id="path15"
   style="fill:none;stroke:#000000;stroke-width:4;stroke-opacity:1" />&#10;				</g>&#10;				<g
   id="g17"
   style="fill:none;stroke:#000000;stroke-width:4;stroke-opacity:1">&#10;					<path
   class="st1"
   d="m -478.6,1006.8 c 0,0 -0.1,0 -0.1,0 -3.7,-0.3 -7.5,-0.6 -11.2,-1.1 -0.8,-0.1 -1.3,-0.8 -1.2,-1.6 0.1,-0.8 0.8,-1.3 1.6,-1.2 3.7,0.4 7.4,0.8 11.1,1 0.8,0.1 1.4,0.7 1.3,1.5 -0.2,0.8 -0.8,1.4 -1.5,1.4 z m -22.3,-2.6 c -0.1,0 -0.2,0 -0.2,0 -3.7,-0.6 -7.4,-1.3 -11.1,-2.1 -0.8,-0.2 -1.3,-0.9 -1.1,-1.7 0.2,-0.8 0.9,-1.2 1.7,-1.1 3.6,0.8 7.3,1.5 10.9,2.1 0.8,0.1 1.3,0.9 1.2,1.6 -0.1,0.7 -0.7,1.2 -1.4,1.2 z m -21.9,-4.8 c -0.1,0 -0.2,0 -0.4,0 -3.6,-1 -7.2,-2 -10.8,-3.2 -0.7,-0.2 -1.2,-1 -0.9,-1.8 0.2,-0.7 1,-1.2 1.8,-0.9 3.5,1.1 7.1,2.2 10.7,3.1 0.8,0.2 1.2,1 1,1.7 -0.2,0.7 -0.8,1.1 -1.4,1.1 z m -21.3,-6.8 c -0.2,0 -0.3,0 -0.5,-0.1 -3.5,-1.3 -7,-2.7 -10.5,-4.2 -0.7,-0.3 -1.1,-1.1 -0.7,-1.9 0.3,-0.7 1.1,-1.1 1.9,-0.7 3.4,1.5 6.9,2.8 10.3,4.1 0.7,0.3 1.1,1.1 0.8,1.8 -0.2,0.7 -0.8,1 -1.3,1 z m -20.6,-8.7 c -0.2,0 -0.4,0 -0.6,-0.1 -3.4,-1.6 -6.7,-3.4 -10,-5.1 -0.7,-0.4 -0.9,-1.2 -0.6,-1.9 0.4,-0.7 1.2,-0.9 1.9,-0.6 3.3,1.8 6.6,3.5 9.9,5.1 0.7,0.3 1,1.2 0.7,1.9 -0.3,0.4 -0.8,0.7 -1.3,0.7 z m -19.7,-10.7 c -0.2,0 -0.5,-0.1 -0.7,-0.2 -3.2,-1.9 -6.4,-4 -9.5,-6.1 -0.6,-0.4 -0.8,-1.3 -0.4,-2 0.4,-0.7 1.3,-0.8 2,-0.4 3.1,2.1 6.2,4.1 9.4,6 0.7,0.4 0.9,1.3 0.5,1.9 -0.4,0.5 -0.8,0.8 -1.3,0.8 z M -603,960.7 c -0.3,0 -0.6,-0.1 -0.8,-0.3 -3,-2.2 -6,-4.6 -8.9,-6.9 -0.6,-0.5 -0.7,-1.4 -0.2,-2 0.5,-0.6 1.4,-0.7 2,-0.2 2.9,2.3 5.8,4.6 8.8,6.8 0.6,0.5 0.8,1.4 0.3,2 -0.4,0.4 -0.8,0.6 -1.2,0.6 z m -17.4,-14.2 c -0.3,0 -0.7,-0.1 -0.9,-0.4 -2.8,-2.5 -5.6,-5.1 -8.2,-7.7 -0.6,-0.5 -0.6,-1.4 0,-2 0.5,-0.6 1.4,-0.6 2,0 2.6,2.6 5.4,5.1 8.1,7.6 0.6,0.5 0.6,1.4 0.1,2 -0.4,0.4 -0.7,0.5 -1.1,0.5 z m -16.1,-15.7 c -0.4,0 -0.8,-0.2 -1,-0.5 -2.6,-2.7 -5.1,-5.6 -7.5,-8.4 -0.5,-0.6 -0.4,-1.5 0.2,-2 0.6,-0.5 1.5,-0.4 2,0.2 2.4,2.8 4.9,5.6 7.4,8.3 0.5,0.6 0.5,1.5 -0.1,2 -0.3,0.3 -0.6,0.4 -1,0.4 z m -14.5,-17 c -0.4,0 -0.8,-0.2 -1.1,-0.5 -2.3,-3 -4.6,-6 -6.7,-9.1 -0.5,-0.6 -0.3,-1.5 0.3,-2 0.6,-0.4 1.5,-0.3 2,0.3 2.1,3 4.4,6 6.6,9 0.5,0.6 0.4,1.5 -0.3,2 -0.2,0.2 -0.5,0.3 -0.8,0.3 z m -12.9,-18.4 c -0.5,0 -0.9,-0.2 -1.2,-0.7 -2,-3.2 -4,-6.4 -5.9,-9.6 -0.4,-0.7 -0.2,-1.5 0.5,-1.9 0.7,-0.4 1.5,-0.2 1.9,0.5 1.9,3.2 3.8,6.4 5.8,9.5 0.4,0.7 0.2,1.5 -0.4,2 -0.2,0.2 -0.5,0.2 -0.7,0.2 z M -675.1,876 c -0.5,0 -1,-0.3 -1.3,-0.8 -1.7,-3.3 -3.4,-6.7 -5,-10.1 -0.3,-0.7 0,-1.6 0.7,-1.9 0.7,-0.3 1.6,0 1.9,0.7 1.6,3.4 3.2,6.7 4.9,10 0.4,0.7 0.1,1.5 -0.6,1.9 -0.2,0.2 -0.4,0.2 -0.6,0.2 z"
   id="path16"
   style="fill:none;stroke:#000000;stroke-width:4;stroke-opacity:1" />&#10;				</g>&#10;				<g
   id="g18"
   style="fill:none;stroke:#000000;stroke-width:4;stroke-opacity:1">&#10;					<path
   class="st1"
   d="m -443.9,1006.8 c -0.7,0 -1.4,-0.6 -1.4,-1.3 -0.1,-0.8 0.5,-1.5 1.3,-1.5 3.9,-0.3 7.9,-0.7 11.8,-1.2 0.8,-0.1 1.5,0.5 1.6,1.2 0.1,0.8 -0.5,1.5 -1.2,1.6 -3.9,0.5 -7.9,0.9 -11.9,1.2 -0.1,-0.1 -0.2,0 -0.2,0 z m 23.6,-3 c -0.7,0 -1.3,-0.5 -1.4,-1.2 -0.1,-0.8 0.4,-1.5 1.1,-1.6 3.9,-0.7 7.8,-1.5 11.6,-2.4 0.8,-0.2 1.5,0.3 1.7,1.1 0.2,0.8 -0.3,1.5 -1.1,1.7 -3.9,0.9 -7.8,1.7 -11.7,2.4 0,0 -0.1,0 -0.2,0 z m 23.2,-5.3 c -0.6,0 -1.2,-0.4 -1.4,-1 -0.2,-0.8 0.2,-1.5 1,-1.8 3.8,-1.1 7.6,-2.3 11.3,-3.5 0.7,-0.2 1.5,0.1 1.8,0.9 0.3,0.7 -0.1,1.5 -0.9,1.8 -3.8,1.3 -7.6,2.5 -11.4,3.6 -0.1,-0.1 -0.3,0 -0.4,0 z m 22.5,-7.7 c -0.6,0 -1.1,-0.3 -1.3,-0.9 -0.3,-0.7 0.1,-1.6 0.8,-1.8 3.6,-1.4 7.3,-3 10.9,-4.6 0.7,-0.3 1.6,0 1.9,0.7 0.3,0.7 0,1.6 -0.7,1.9 -3.6,1.7 -7.3,3.2 -11,4.7 -0.2,0 -0.4,0 -0.6,0 z m 21.7,-9.8 c -0.5,0 -1,-0.3 -1.3,-0.8 -0.4,-0.7 -0.1,-1.5 0.6,-1.9 3.5,-1.8 7,-3.7 10.4,-5.7 0.7,-0.4 1.5,-0.2 1.9,0.5 0.4,0.7 0.2,1.5 -0.5,1.9 -3.4,2 -7,3.9 -10.5,5.8 -0.2,0.1 -0.4,0.2 -0.6,0.2 z m 20.6,-12 c -0.5,0 -0.9,-0.2 -1.2,-0.6 -0.4,-0.7 -0.2,-1.5 0.4,-2 3.3,-2.1 6.6,-4.4 9.8,-6.7 0.6,-0.5 1.5,-0.3 2,0.3 0.5,0.6 0.3,1.5 -0.3,2 -3.2,2.3 -6.5,4.6 -9.9,6.8 -0.3,0.1 -0.6,0.2 -0.8,0.2 z m 19.3,-13.9 c -0.4,0 -0.8,-0.2 -1.1,-0.5 -0.5,-0.6 -0.4,-1.5 0.2,-2 3.1,-2.5 6.1,-5 9.1,-7.6 0.6,-0.5 1.5,-0.5 2,0.1 0.5,0.6 0.5,1.5 -0.1,2 -3,2.6 -6.1,5.2 -9.2,7.7 -0.3,0.2 -0.6,0.3 -0.9,0.3 z m 17.8,-15.8 c -0.4,0 -0.7,-0.1 -1,-0.4 -0.5,-0.6 -0.5,-1.5 0,-2 2.8,-2.7 5.6,-5.6 8.3,-8.5 0.5,-0.6 1.4,-0.6 2,-0.1 0.6,0.5 0.6,1.4 0.1,2 -2.7,2.9 -5.5,5.8 -8.4,8.6 -0.3,0.3 -0.6,0.4 -1,0.4 z"
   id="path17"
   style="fill:none;stroke:#000000;stroke-width:4;stroke-opacity:1" />&#10;				</g>&#10;				<g
   id="g19"
   style="fill:none;stroke:#000000;stroke-width:4;stroke-opacity:1">&#10;					<path
   class="st1"
   d="m -290.9,911.1 c -0.2,0 -0.4,0 -0.5,-0.1 -3.5,-1.5 -7,-3 -10.4,-4.5 -0.7,-0.3 -1,-1.2 -0.7,-1.9 0.3,-0.7 1.2,-1 1.9,-0.7 3.4,1.5 6.9,3 10.4,4.5 0.7,0.3 1.1,1.1 0.8,1.9 -0.4,0.5 -1,0.8 -1.5,0.8 z m -20.7,-9.2 c -0.2,0 -0.4,0 -0.6,-0.1 -3.4,-1.6 -6.8,-3.3 -10.2,-5 -0.7,-0.4 -1,-1.2 -0.6,-1.9 0.4,-0.7 1.2,-1 1.9,-0.6 3.3,1.7 6.7,3.4 10.1,5 0.7,0.3 1,1.2 0.7,1.9 -0.2,0.4 -0.7,0.7 -1.3,0.7 z m -20.1,-10.2 c -0.2,0 -0.5,-0.1 -0.7,-0.2 -3.3,-1.8 -6.7,-3.7 -9.9,-5.5 -0.7,-0.4 -0.9,-1.3 -0.5,-1.9 0.4,-0.6 1.3,-0.9 1.9,-0.5 3.2,1.8 6.5,3.7 9.9,5.5 0.7,0.4 0.9,1.2 0.6,1.9 -0.4,0.4 -0.8,0.7 -1.3,0.7 z m -19.7,-11.2 c -0.3,0 -0.5,-0.1 -0.7,-0.2 -3.2,-2 -6.5,-4 -9.6,-6 -0.7,-0.4 -0.9,-1.3 -0.4,-2 0.4,-0.7 1.3,-0.8 2,-0.4 3.1,2 6.4,4 9.6,6 0.7,0.4 0.9,1.3 0.5,1.9 -0.4,0.4 -0.9,0.7 -1.4,0.7 z m -19,-12.2 c -0.3,0 -0.6,-0.1 -0.8,-0.2 -3.1,-2.1 -6.2,-4.3 -9.3,-6.5 -0.6,-0.5 -0.8,-1.3 -0.3,-2 0.5,-0.6 1.3,-0.8 2,-0.3 3,2.2 6.2,4.3 9.2,6.4 0.6,0.4 0.8,1.3 0.4,2 -0.3,0.3 -0.7,0.6 -1.2,0.6 z m -18.4,-13.2 c -0.3,0 -0.6,-0.1 -0.9,-0.3 -3,-2.3 -6,-4.6 -9,-6.9 -0.6,-0.5 -0.7,-1.4 -0.2,-2 0.5,-0.6 1.4,-0.7 2,-0.2 2.9,2.3 5.9,4.6 8.9,6.9 0.6,0.5 0.8,1.4 0.3,2 -0.2,0.3 -0.7,0.5 -1.1,0.5 z M -406.5,841 c -0.3,0 -0.6,-0.1 -0.9,-0.3 -2.9,-2.4 -5.8,-4.9 -8.6,-7.4 -0.6,-0.5 -0.6,-1.4 -0.1,-2 0.5,-0.6 1.4,-0.6 2,-0.1 2.8,2.5 5.7,4.9 8.6,7.3 0.6,0.5 0.7,1.4 0.2,2 -0.4,0.4 -0.8,0.5 -1.2,0.5 z m -17,-14.9 c -0.3,0 -0.7,-0.1 -1,-0.4 -2.8,-2.5 -5.5,-5.2 -8.2,-7.8 -0.6,-0.5 -0.6,-1.4 0,-2 0.5,-0.6 1.4,-0.6 2,0 2.7,2.6 5.4,5.2 8.2,7.8 0.6,0.5 0.6,1.4 0.1,2 -0.3,0.2 -0.7,0.4 -1.1,0.4 z m -16.2,-15.8 c -0.4,0 -0.7,-0.1 -1,-0.4 -2.6,-2.7 -5.3,-5.5 -7.8,-8.2 -0.5,-0.6 -0.5,-1.5 0.1,-2 0.6,-0.5 1.5,-0.5 2,0.1 2.5,2.7 5.2,5.5 7.8,8.2 0.5,0.6 0.5,1.5 0,2 -0.4,0.2 -0.7,0.3 -1.1,0.3 z m -15.4,-16.5 c -0.4,0 -0.8,-0.2 -1.1,-0.5 -2.5,-2.8 -5,-5.7 -7.4,-8.6 -0.5,-0.6 -0.4,-1.5 0.2,-2 0.6,-0.5 1.5,-0.4 2,0.2 2.4,2.8 4.9,5.7 7.4,8.5 0.5,0.6 0.5,1.5 -0.1,2 -0.3,0.3 -0.7,0.4 -1,0.4 z"
   id="path18"
   style="fill:none;stroke:#000000;stroke-width:4;stroke-opacity:1" />&#10;				</g>&#10;				<g
   id="g20"
   style="fill:none;stroke:#000000;stroke-width:4;stroke-opacity:1">&#10;					<path
   class="st1"
   d="m -461.8,1007.4 c -1.9,0 -3.8,0 -5.6,-0.1 -0.8,0 -1.4,-0.7 -1.4,-1.5 0,-0.8 0.7,-1.4 1.5,-1.4 3.8,0.1 7.7,0.1 11.5,0 0.8,0 1.4,0.6 1.5,1.4 0,0.8 -0.6,1.4 -1.4,1.5 -2,0.1 -4.1,0.1 -6.1,0.1 z m 182.9,-85.5 c -0.3,0 -0.6,-0.1 -0.9,-0.3 -0.6,-0.5 -0.7,-1.4 -0.2,-2 0.8,-1 1.7,-2 2.5,-3 -1.2,-0.4 -2.3,-0.9 -3.5,-1.3 -0.7,-0.3 -1.1,-1.1 -0.8,-1.8 0.3,-0.7 1.1,-1.1 1.8,-0.8 1.8,0.7 3.5,1.3 5.3,2 l 1.8,0.7 -1.2,1.5 c -1.2,1.5 -2.5,3.1 -3.8,4.6 -0.2,0.3 -0.6,0.4 -1,0.4 z m -405.7,-66.2 c -0.6,0 -1.1,-0.3 -1.3,-0.9 -0.7,-1.7 -1.4,-3.5 -2.1,-5.2 l -0.6,-1.6 1.6,-0.3 c 1.9,-0.4 3.7,-0.8 5.6,-1.1 0.8,-0.2 1.5,0.3 1.7,1.1 0.2,0.8 -0.3,1.5 -1.1,1.7 -1.3,0.3 -2.6,0.5 -4,0.8 0.5,1.2 1,2.4 1.4,3.6 0.3,0.7 -0.1,1.6 -0.8,1.8 0,0 -0.2,0.1 -0.4,0.1 z m 214.9,-79.2 c -0.4,0 -0.8,-0.2 -1.1,-0.5 -0.9,-1.2 -1.9,-2.3 -2.8,-3.5 -1.3,0.7 -2.6,1.4 -4,2.2 -0.7,0.4 -1.5,0.1 -1.9,-0.6 -0.4,-0.7 -0.1,-1.5 0.6,-1.9 1.7,-0.9 3.3,-1.8 5,-2.7 l 1.1,-0.6 0.7,1 c 1.2,1.5 2.3,3 3.5,4.4 0.5,0.6 0.4,1.5 -0.2,2 -0.3,0.1 -0.6,0.2 -0.9,0.2 z"
   id="path19"
   style="fill:none;stroke:#000000;stroke-width:4;stroke-opacity:1" />&#10;				</g>&#10;			</g>&#10;		</g>&#10;		<g
   class="st0"
   id="g29"
   style="fill:none;stroke:#000000;stroke-width:4;stroke-opacity:1">&#10;			<g
   id="g28"
   style="fill:none;stroke:#000000;stroke-width:4;stroke-opacity:1">&#10;				<g
   id="g23"
   style="fill:none;stroke:#000000;stroke-width:4;stroke-opacity:1">&#10;					<path
   class="st1"
   d="m -495.9,537.6 c -0.7,0 -1.3,-0.5 -1.4,-1.2 -0.1,-0.8 0.5,-1.5 1.2,-1.6 3.8,-0.5 7.7,-0.8 11.5,-1.1 0.8,0 1.5,0.5 1.5,1.3 0.1,0.8 -0.5,1.5 -1.3,1.5 -3.7,0.3 -7.5,0.7 -11.3,1.1 0,0 -0.1,0 -0.2,0 z"
   id="path22"
   style="fill:none;stroke:#000000;stroke-width:4;stroke-opacity:1" />&#10;				</g>&#10;				<g
   id="g24"
   style="fill:none;stroke:#000000;stroke-width:4;stroke-opacity:1">&#10;					<path
   class="st1"
   d="m -467.9,695.7 c -0.5,0 -1,-0.3 -1.3,-0.8 -1.7,-3.3 -3.4,-6.7 -5.1,-10.1 -0.3,-0.7 -0.1,-1.6 0.6,-1.9 0.7,-0.3 1.6,-0.1 1.9,0.6 1.6,3.4 3.3,6.7 5.1,10 0.4,0.7 0.1,1.5 -0.6,1.9 -0.2,0.3 -0.4,0.3 -0.6,0.3 z m -9.9,-20.2 c -0.5,0 -1.1,-0.3 -1.3,-0.8 -1.6,-3.4 -3.1,-6.9 -4.5,-10.3 -0.3,-0.7 0,-1.6 0.8,-1.9 0.7,-0.3 1.6,0 1.9,0.8 1.4,3.4 3,6.9 4.5,10.3 0.3,0.7 0,1.6 -0.7,1.9 -0.3,0 -0.5,0 -0.7,0 z m -8.8,-20.7 c -0.6,0 -1.1,-0.3 -1.3,-0.9 -1.4,-3.5 -2.7,-7.1 -4,-10.6 -0.3,-0.7 0.1,-1.5 0.9,-1.8 0.7,-0.3 1.5,0.1 1.8,0.9 1.2,3.5 2.6,7 3.9,10.5 0.3,0.7 -0.1,1.6 -0.8,1.8 -0.1,0.1 -0.3,0.1 -0.5,0.1 z m -7.6,-21.1 c -0.6,0 -1.2,-0.4 -1.3,-1 -1.2,-3.6 -2.3,-7.2 -3.4,-10.8 -0.2,-0.8 0.2,-1.5 1,-1.8 0.7,-0.2 1.5,0.2 1.8,1 1,3.5 2.2,7.1 3.3,10.7 0.2,0.7 -0.2,1.5 -0.9,1.8 -0.2,0 -0.3,0.1 -0.5,0.1 z m -6.3,-21.6 c -0.6,0 -1.2,-0.4 -1.4,-1.1 -1,-3.6 -1.9,-7.3 -2.7,-10.9 -0.2,-0.8 0.3,-1.5 1.1,-1.7 0.8,-0.2 1.5,0.3 1.7,1.1 0.9,3.6 1.8,7.3 2.7,10.9 0.2,0.8 -0.2,1.5 -1,1.7 -0.2,0 -0.3,0 -0.4,0 z m -5.2,-21.9 c -0.7,0 -1.2,-0.5 -1.4,-1.1 -0.8,-3.7 -1.5,-7.4 -2.1,-11.1 -0.1,-0.8 0.4,-1.5 1.1,-1.6 0.8,-0.1 1.5,0.4 1.6,1.1 0.7,3.7 1.4,7.4 2.1,11 0.2,0.8 -0.3,1.5 -1.1,1.7 0,0 -0.1,0 -0.2,0 z m -4,-22.1 c -0.7,0 -1.3,-0.5 -1.4,-1.2 -0.6,-3.7 -1.1,-7.5 -1.5,-11.2 -0.1,-0.8 0.5,-1.5 1.2,-1.6 0.8,-0.1 1.5,0.5 1.6,1.2 0.4,3.7 1,7.4 1.5,11.1 0.1,0.8 -0.4,1.5 -1.2,1.6 0,0.1 -0.1,0.1 -0.2,0.1 z"
   id="path23"
   style="fill:none;stroke:#000000;stroke-width:4;stroke-opacity:1" />&#10;				</g>&#10;				<g
   id="g25"
   style="fill:none;stroke:#000000;stroke-width:4;stroke-opacity:1">&#10;					<path
   class="st1"
   d="m -445.1,700.5 c -0.4,0 -0.9,-0.2 -1.2,-0.6 -0.4,-0.6 -0.3,-1.5 0.4,-2 3.2,-2.2 6.5,-4.5 9.7,-6.8 0.6,-0.5 1.5,-0.3 2,0.3 0.5,0.6 0.3,1.5 -0.3,2 -3.2,2.3 -6.5,4.6 -9.7,6.9 -0.3,0.1 -0.6,0.2 -0.9,0.2 z m 19.3,-13.9 c -0.4,0 -0.9,-0.2 -1.1,-0.6 -0.5,-0.6 -0.3,-1.5 0.3,-2 3.2,-2.3 6.3,-4.7 9.4,-7.1 0.6,-0.5 1.5,-0.4 2,0.3 0.5,0.6 0.4,1.5 -0.3,2 -3.1,2.4 -6.3,4.8 -9.5,7.2 -0.2,0.1 -0.5,0.2 -0.8,0.2 z m 18.8,-14.4 c -0.4,0 -0.8,-0.2 -1.1,-0.5 -0.5,-0.6 -0.4,-1.5 0.2,-2 3.1,-2.4 6.2,-5 9.2,-7.4 0.6,-0.5 1.5,-0.4 2,0.2 0.5,0.6 0.4,1.5 -0.2,2 -3,2.5 -6.2,5 -9.2,7.5 -0.3,0.1 -0.6,0.2 -0.9,0.2 z m 18.4,-15.1 c -0.4,0 -0.8,-0.2 -1.1,-0.5 -0.5,-0.6 -0.4,-1.5 0.2,-2 3,-2.5 6,-5.1 9,-7.7 0.6,-0.5 1.5,-0.5 2,0.1 0.5,0.6 0.5,1.5 -0.1,2 -3,2.6 -6,5.2 -9,7.8 -0.4,0.2 -0.7,0.3 -1,0.3 z m 17.8,-15.7 c -0.4,0 -0.8,-0.2 -1.1,-0.5 -0.5,-0.6 -0.5,-1.5 0.1,-2 2.9,-2.6 5.8,-5.3 8.7,-8 0.6,-0.5 1.5,-0.5 2,0.1 0.5,0.6 0.5,1.5 -0.1,2 -2.9,2.7 -5.8,5.4 -8.7,8.1 -0.2,0.2 -0.6,0.3 -0.9,0.3 z m 17.3,-16.2 c -0.4,0 -0.7,-0.1 -1,-0.4 -0.5,-0.6 -0.5,-1.5 0,-2 2.8,-2.7 5.7,-5.5 8.4,-8.3 0.6,-0.6 1.5,-0.6 2,0 0.6,0.6 0.6,1.5 0,2 -2.8,2.8 -5.6,5.6 -8.5,8.3 -0.2,0.3 -0.5,0.4 -0.9,0.4 z m 16.8,-16.7 c -0.4,0 -0.7,-0.1 -1,-0.4 -0.6,-0.5 -0.6,-1.4 0,-2 2.7,-2.8 5.5,-5.7 8.2,-8.6 0.5,-0.6 1.4,-0.6 2,-0.1 0.6,0.5 0.6,1.4 0.1,2 -2.7,2.9 -5.4,5.8 -8.2,8.6 -0.3,0.3 -0.7,0.5 -1.1,0.5 z"
   id="path24"
   style="fill:none;stroke:#000000;stroke-width:4;stroke-opacity:1" />&#10;				</g>&#10;				<g
   id="g26"
   style="fill:none;stroke:#000000;stroke-width:4;stroke-opacity:1">&#10;					<path
   class="st1"
   d="m -330.7,576.7 c -0.3,0 -0.5,-0.1 -0.8,-0.2 -3.2,-2.1 -6.5,-4.1 -9.8,-6.1 -0.7,-0.4 -0.9,-1.3 -0.5,-1.9 0.4,-0.7 1.3,-0.9 1.9,-0.5 3.3,2 6.6,4 9.9,6.2 0.7,0.4 0.8,1.3 0.4,2 -0.2,0.3 -0.6,0.5 -1.1,0.5 z M -350.6,565 c -0.2,0 -0.5,-0.1 -0.7,-0.2 -3.4,-1.8 -6.8,-3.5 -10.3,-5.2 -0.7,-0.3 -1,-1.2 -0.7,-1.9 0.3,-0.7 1.2,-1 1.9,-0.7 3.5,1.6 7,3.4 10.4,5.2 0.7,0.4 1,1.2 0.6,1.9 -0.2,0.6 -0.7,0.9 -1.2,0.9 z m -20.9,-10 c -0.2,0 -0.4,0 -0.5,-0.1 -3.5,-1.5 -7.1,-2.9 -10.7,-4.2 -0.7,-0.3 -1.1,-1.1 -0.8,-1.8 0.3,-0.7 1.1,-1.1 1.8,-0.8 3.6,1.3 7.3,2.8 10.8,4.2 0.7,0.3 1.1,1.1 0.8,1.9 -0.3,0.5 -0.8,0.8 -1.4,0.8 z m -21.7,-7.9 c -0.1,0 -0.3,0 -0.4,-0.1 -3.6,-1.1 -7.4,-2.2 -11.1,-3.2 -0.8,-0.2 -1.2,-1 -1,-1.7 0.2,-0.8 1,-1.2 1.7,-1 3.7,1 7.5,2.1 11.2,3.2 0.7,0.2 1.2,1 0.9,1.8 -0.1,0.6 -0.7,1 -1.3,1 z m -22.4,-5.9 c -0.1,0 -0.2,0 -0.3,0 -3.7,-0.8 -7.5,-1.5 -11.3,-2.1 -0.8,-0.1 -1.3,-0.9 -1.2,-1.6 0.1,-0.8 0.9,-1.3 1.6,-1.2 3.8,0.6 7.7,1.4 11.4,2.2 0.8,0.2 1.3,0.9 1.1,1.7 0,0.6 -0.6,1 -1.3,1 z m -22.8,-3.7 c -0.1,0 -0.1,0 -0.2,0 -3.8,-0.4 -7.6,-0.8 -11.4,-1.1 -0.8,-0.1 -1.4,-0.7 -1.3,-1.5 0.1,-0.8 0.7,-1.4 1.5,-1.3 3.9,0.3 7.8,0.6 11.6,1.1 0.8,0.1 1.3,0.8 1.2,1.6 0,0.6 -0.7,1.2 -1.4,1.2 z"
   id="path25"
   style="fill:none;stroke:#000000;stroke-width:4;stroke-opacity:1" />&#10;				</g>&#10;				<g
   id="g27"
   style="fill:none;stroke:#000000;stroke-width:4;stroke-opacity:1">&#10;					<path
   class="st1"
   d="m -460.3,711.1 -0.8,-1.3 c -0.9,-1.6 -1.9,-3.3 -2.8,-4.9 -0.4,-0.7 -0.1,-1.5 0.5,-1.9 0.7,-0.4 1.5,-0.1 1.9,0.5 0.7,1.2 1.3,2.4 2,3.6 1.2,-0.8 2.5,-1.6 3.7,-2.5 0.6,-0.4 1.5,-0.3 2,0.4 0.4,0.6 0.3,1.5 -0.4,2 -1.6,1.1 -3.3,2.2 -4.9,3.3 z m 139.9,-120 c -0.3,0 -0.7,-0.1 -1,-0.4 -0.6,-0.5 -0.6,-1.4 -0.1,-2 1,-1.1 2,-2.2 2.9,-3.3 -1.1,-0.8 -2.3,-1.7 -3.4,-2.5 -0.6,-0.5 -0.8,-1.3 -0.3,-2 0.5,-0.6 1.3,-0.8 2,-0.3 1.6,1.1 3.1,2.3 4.7,3.5 l 1.2,0.9 -1,1.1 c -1.3,1.5 -2.6,3 -4,4.4 -0.3,0.5 -0.7,0.6 -1,0.6 z m -192,-45.3 c -0.7,0 -1.3,-0.6 -1.4,-1.3 -0.2,-1.9 -0.3,-3.7 -0.5,-5.6 l -0.1,-1.3 1.3,-0.2 c 1.9,-0.3 3.8,-0.7 5.7,-1 0.8,-0.1 1.5,0.4 1.6,1.2 0.1,0.8 -0.4,1.5 -1.2,1.6 -1.5,0.2 -2.9,0.5 -4.4,0.8 0.1,1.4 0.2,2.9 0.4,4.3 0.1,0.8 -0.5,1.5 -1.3,1.5 z m 39.4,-9.9 c -0.8,0 -1.4,-0.6 -1.4,-1.4 0,-0.8 0.6,-1.4 1.4,-1.5 3.8,-0.1 7.7,-0.1 11.6,0 0.8,0 1.4,0.7 1.4,1.4 0,0.8 -0.6,1.4 -1.4,1.4 0,0 0,0 0,0 -3.9,0 -7.9,0 -11.6,0.1 z"
   id="path26"
   style="fill:none;stroke:#000000;stroke-width:4;stroke-opacity:1" />&#10;				</g>&#10;			</g>&#10;		</g>&#10;		<g
   class="st0"
   id="g35"
   style="fill:none;stroke:#000000;stroke-width:4;stroke-opacity:1">&#10;			<g
   id="g34"
   style="fill:none;stroke:#000000;stroke-width:4;stroke-opacity:1">&#10;				<g
   id="g30"
   style="fill:none;stroke:#000000;stroke-width:4;stroke-opacity:1">&#10;					<path
   class="st1"
   d="m -797.7,860.3 c -0.8,0 -1.4,-0.6 -1.4,-1.4 0,-0.8 0.6,-1.4 1.4,-1.4 3.6,-0.1 7.3,-0.2 10.9,-0.3 0.8,0 1.4,0.6 1.5,1.4 0,0.8 -0.6,1.4 -1.4,1.5 -3.7,0 -7.3,0.1 -11,0.2 z m 21.9,-0.8 c -0.8,0 -1.4,-0.6 -1.4,-1.3 0,-0.8 0.6,-1.4 1.3,-1.5 3.6,-0.2 7.2,-0.4 10.9,-0.6 0.8,-0.1 1.5,0.5 1.5,1.3 0,0.8 -0.5,1.5 -1.3,1.5 -3.7,0.2 -7.4,0.4 -11,0.6 z m 21.8,-1.4 c -0.7,0 -1.4,-0.6 -1.4,-1.3 -0.1,-0.8 0.5,-1.5 1.3,-1.5 3.6,-0.3 7.2,-0.6 10.9,-0.9 0.8,-0.1 1.5,0.5 1.5,1.3 0.1,0.8 -0.5,1.5 -1.3,1.5 -3.7,0.3 -7.3,0.6 -10.9,0.9 z"
   id="path29"
   style="fill:none;stroke:#000000;stroke-width:4;stroke-opacity:1" />&#10;				</g>&#10;				<g
   id="g31"
   style="fill:none;stroke:#000000;stroke-width:4;stroke-opacity:1">&#10;					<path
   class="st1"
   d="m -829.7,860.3 c 0,0 0,0 0,0 -3.5,-0.1 -7,-0.2 -10.4,-0.3 -0.8,0 -1.4,-0.7 -1.4,-1.5 0,-0.8 0.7,-1.4 1.5,-1.4 3.5,0.1 7,0.2 10.4,0.3 0.8,0 1.4,0.7 1.4,1.4 -0.1,0.9 -0.7,1.5 -1.5,1.5 z m -20.8,-0.7 c 0,0 0,0 0,0 -3.5,-0.2 -7,-0.4 -10.5,-0.6 -0.8,0 -1.4,-0.7 -1.3,-1.5 0,-0.8 0.7,-1.4 1.5,-1.3 3.4,0.2 6.9,0.4 10.4,0.6 0.8,0 1.4,0.7 1.3,1.5 0,0.7 -0.6,1.3 -1.4,1.3 z m -20.8,-1.3 c 0,0 -0.1,0 -0.1,0 -3.5,-0.3 -6.9,-0.5 -10.4,-0.9 -0.8,-0.1 -1.4,-0.8 -1.3,-1.5 0.1,-0.8 0.7,-1.4 1.5,-1.3 3.4,0.3 6.9,0.6 10.3,0.8 0.8,0.1 1.4,0.7 1.3,1.5 0.1,0.8 -0.5,1.4 -1.3,1.4 z m -20.7,-1.8 c 0,0 -0.1,0 -0.1,0 -3.5,-0.3 -6.9,-0.7 -10.4,-1.1 -0.8,-0.1 -1.3,-0.8 -1.2,-1.6 0.1,-0.8 0.8,-1.3 1.6,-1.2 3.4,0.4 6.9,0.8 10.3,1.1 0.8,0.1 1.3,0.8 1.3,1.6 -0.1,0.6 -0.8,1.2 -1.5,1.2 z"
   id="path30"
   style="fill:none;stroke:#000000;stroke-width:4;stroke-opacity:1" />&#10;				</g>&#10;				<g
   id="g32"
   style="fill:none;stroke:#000000;stroke-width:4;stroke-opacity:1">&#10;					<path
   class="st1"
   d="m -632.3,996.3 c -0.3,0 -0.7,-0.1 -0.9,-0.3 -3,-2.6 -5.9,-5.3 -8.8,-7.9 -0.6,-0.5 -0.6,-1.4 -0.1,-2 0.5,-0.6 1.4,-0.6 2,-0.1 2.9,2.7 5.8,5.3 8.8,7.9 0.6,0.5 0.7,1.4 0.1,2 -0.3,0.3 -0.7,0.4 -1.1,0.4 z m -17.3,-16.1 c -0.4,0 -0.7,-0.1 -1,-0.4 -2.8,-2.8 -5.5,-5.7 -8.2,-8.6 -0.5,-0.6 -0.5,-1.5 0.1,-2 0.6,-0.5 1.5,-0.5 2,0.1 2.7,2.9 5.4,5.7 8.2,8.5 0.6,0.6 0.6,1.5 0,2 -0.4,0.3 -0.8,0.4 -1.1,0.4 z m -16.1,-17.4 c -0.4,0 -0.8,-0.2 -1.1,-0.5 -2.6,-3 -5.1,-6.1 -7.6,-9.1 -0.5,-0.6 -0.4,-1.5 0.2,-2 0.6,-0.5 1.5,-0.4 2,0.2 2.4,3.1 5,6.1 7.5,9.1 0.5,0.6 0.4,1.5 -0.2,2 -0.1,0.2 -0.5,0.3 -0.8,0.3 z m -14.7,-18.5 c -0.4,0 -0.9,-0.2 -1.1,-0.6 -2.3,-3.2 -4.7,-6.4 -6.9,-9.7 -0.4,-0.6 -0.3,-1.5 0.4,-2 0.6,-0.4 1.5,-0.3 2,0.4 2.2,3.2 4.5,6.4 6.8,9.6 0.5,0.6 0.3,1.5 -0.3,2 -0.4,0.3 -0.7,0.3 -0.9,0.3 z m -13.4,-19.5 c -0.5,0 -0.9,-0.2 -1.2,-0.7 -2.1,-3.3 -4.2,-6.7 -6.2,-10.2 -0.4,-0.7 -0.2,-1.5 0.5,-1.9 0.7,-0.4 1.5,-0.2 1.9,0.5 2,3.4 4,6.8 6.1,10.1 0.4,0.7 0.2,1.5 -0.4,2 -0.2,0.2 -0.5,0.2 -0.7,0.2 z m -11.9,-20.4 c -0.5,0 -1,-0.3 -1.3,-0.8 -1.9,-3.5 -3.7,-7 -5.4,-10.6 -0.3,-0.7 -0.1,-1.6 0.7,-1.9 0.7,-0.3 1.6,-0.1 1.9,0.7 1.7,3.5 3.5,7 5.4,10.5 0.4,0.7 0.1,1.5 -0.6,1.9 -0.3,0.1 -0.5,0.2 -0.7,0.2 z m -10.4,-21.3 c -0.5,0 -1.1,-0.3 -1.3,-0.8 -1.6,-3.6 -3.1,-7.3 -4.6,-11 -0.3,-0.7 0.1,-1.6 0.8,-1.8 0.7,-0.3 1.6,0.1 1.8,0.8 1.4,3.6 3,7.3 4.6,10.9 0.3,0.7 0,1.6 -0.7,1.9 -0.2,0 -0.4,0 -0.6,0 z"
   id="path31"
   style="fill:none;stroke:#000000;stroke-width:4;stroke-opacity:1" />&#10;				</g>&#10;				<g
   id="g33"
   style="fill:none;stroke:#000000;stroke-width:4;stroke-opacity:1">&#10;					<path
   class="st1"
   d="m -724.8,861.1 c -0.6,0 -1.1,-0.4 -1.3,-0.9 -0.5,-1.5 -1.1,-3 -1.6,-4.5 -1.4,0.2 -2.9,0.3 -4.3,0.5 -0.8,0.1 -1.5,-0.5 -1.6,-1.3 -0.1,-0.8 0.5,-1.5 1.3,-1.6 1.8,-0.2 3.6,-0.4 5.4,-0.6 l 1.1,-0.1 0.4,1.1 c 0.6,1.9 1.3,3.7 1.9,5.6 0.3,0.7 -0.1,1.5 -0.9,1.8 -0.1,0 -0.3,0 -0.4,0 z m -89.3,-0.6 c -1.7,0 -3.5,0 -5.2,0 -0.8,0 -1.4,-0.6 -1.4,-1.4 0,-0.8 0.7,-1.4 1.4,-1.4 3.5,0 7.1,0 10.7,0 0,0 0,0 0,0 0.8,0 1.4,0.6 1.4,1.4 0,0.8 -0.6,1.4 -1.4,1.4 -1.8,0 -3.7,0 -5.5,0 z"
   id="path32"
   style="fill:none;stroke:#000000;stroke-width:4;stroke-opacity:1" />&#10;				</g>&#10;			</g>&#10;		</g>&#10;		<g
   class="st0"
   id="g41"
   style="fill:none;stroke:#000000;stroke-width:4;stroke-opacity:1">&#10;			<g
   id="g40"
   style="fill:none;stroke:#000000;stroke-width:4;stroke-opacity:1">&#10;				<g
   id="g36"
   style="fill:none;stroke:#000000;stroke-width:4;stroke-opacity:1">&#10;					<path
   class="st1"
   d="m -681,800.5 c -0.7,0 -1.2,-0.5 -1.4,-1.1 -0.2,-0.8 0.3,-1.5 1.1,-1.7 3.8,-0.8 7.6,-1.7 11.5,-2.6 0.8,-0.2 1.5,0.3 1.7,1.1 0.2,0.8 -0.3,1.5 -1.1,1.7 -3.8,0.9 -7.7,1.8 -11.5,2.6 -0.1,0 -0.2,0 -0.3,0 z m 23,-5.4 c -0.6,0 -1.2,-0.4 -1.4,-1.1 -0.2,-0.8 0.3,-1.5 1,-1.7 3.8,-1 7.6,-2 11.4,-3 0.8,-0.2 1.5,0.2 1.7,1 0.2,0.8 -0.2,1.5 -1,1.7 -3.8,1 -7.6,2 -11.4,3 -0.1,0.1 -0.2,0.1 -0.3,0.1 z m 22.7,-6.2 c -0.6,0 -1.2,-0.4 -1.4,-1 -0.2,-0.8 0.2,-1.5 1,-1.8 3.7,-1.1 7.5,-2.2 11.3,-3.3 0.7,-0.2 1.5,0.2 1.8,0.9 0.2,0.7 -0.2,1.5 -0.9,1.8 -3.8,1.1 -7.6,2.3 -11.3,3.4 -0.2,0 -0.4,0 -0.5,0 z m 22.5,-6.8 c -0.6,0 -1.2,-0.4 -1.3,-1 -0.2,-0.7 0.2,-1.5 0.9,-1.8 3.7,-1.2 7.5,-2.5 11.2,-3.7 0.7,-0.3 1.5,0.1 1.8,0.9 0.3,0.7 -0.1,1.5 -0.9,1.8 -3.7,1.3 -7.5,2.5 -11.2,3.7 -0.2,0 -0.3,0.1 -0.5,0.1 z m 22.3,-7.7 c -0.6,0 -1.1,-0.4 -1.3,-0.9 -0.3,-0.7 0.1,-1.5 0.9,-1.8 3.7,-1.3 7.4,-2.7 11,-4.1 0.7,-0.3 1.6,0.1 1.8,0.8 0.3,0.7 -0.1,1.5 -0.8,1.8 -3.6,1.4 -7.4,2.8 -11.1,4.1 -0.2,0.1 -0.3,0.1 -0.5,0.1 z m 22,-8.3 c -0.6,0 -1.1,-0.3 -1.3,-0.9 -0.3,-0.7 0.1,-1.6 0.8,-1.8 3.6,-1.4 7.3,-2.9 10.9,-4.4 0.7,-0.3 1.6,0 1.9,0.8 0.3,0.8 0,1.6 -0.8,1.9 -3.6,1.5 -7.3,3 -10.9,4.4 -0.2,0 -0.4,0 -0.6,0 z m 21.8,-9.1 c -0.5,0 -1.1,-0.3 -1.3,-0.9 -0.3,-0.7 0,-1.6 0.7,-1.9 3.5,-1.5 7.2,-3.2 10.7,-4.8 0.7,-0.3 1.6,0 1.9,0.7 0.3,0.7 0,1.6 -0.7,1.9 -3.6,1.6 -7.2,3.3 -10.8,4.8 -0.1,0.2 -0.3,0.2 -0.5,0.2 z m 21.4,-9.7 c -0.5,0 -1,-0.3 -1.3,-0.8 -0.3,-0.7 0,-1.6 0.7,-1.9 3.5,-1.7 7.1,-3.4 10.6,-5.1 0.7,-0.3 1.6,-0.1 1.9,0.6 0.3,0.7 0.1,1.6 -0.6,1.9 -3.5,1.7 -7.1,3.5 -10.6,5.2 -0.3,0 -0.5,0.1 -0.7,0.1 z"
   id="path35"
   style="fill:none;stroke:#000000;stroke-width:4;stroke-opacity:1" />&#10;				</g>&#10;				<g
   id="g37"
   style="fill:none;stroke:#000000;stroke-width:4;stroke-opacity:1">&#10;					<path
   class="st1"
   d="m -507.7,718.6 c -0.5,0 -1,-0.3 -1.2,-0.7 -1.9,-3.5 -3.7,-7 -5.5,-10.6 -0.4,-0.7 -0.1,-1.6 0.6,-1.9 0.7,-0.4 1.6,-0.1 1.9,0.6 1.8,3.5 3.6,7 5.5,10.5 0.4,0.7 0.1,1.5 -0.6,1.9 -0.2,0.1 -0.5,0.2 -0.7,0.2 z m -10.7,-21.2 c -0.5,0 -1,-0.3 -1.3,-0.8 -1.7,-3.6 -3.4,-7.2 -5,-10.8 -0.3,-0.7 0,-1.6 0.7,-1.9 0.7,-0.3 1.6,0 1.9,0.7 1.6,3.6 3.2,7.2 4.9,10.8 0.3,0.7 0,1.6 -0.7,1.9 -0.1,0.1 -0.3,0.1 -0.5,0.1 z m -9.6,-21.7 c -0.6,0 -1.1,-0.3 -1.3,-0.9 -1.5,-3.7 -3,-7.4 -4.4,-11.1 -0.3,-0.7 0.1,-1.6 0.8,-1.8 0.7,-0.3 1.6,0.1 1.8,0.8 1.4,3.7 2.9,7.4 4.4,11 0.3,0.7 0,1.6 -0.8,1.9 -0.1,0.1 -0.3,0.1 -0.5,0.1 z m -8.5,-22.2 c -0.6,0 -1.1,-0.4 -1.3,-0.9 -1.3,-3.7 -2.6,-7.5 -3.8,-11.3 -0.2,-0.7 0.2,-1.5 0.9,-1.8 0.7,-0.2 1.5,0.2 1.8,0.9 1.2,3.7 2.5,7.5 3.8,11.2 0.3,0.7 -0.1,1.5 -0.9,1.8 -0.2,0.1 -0.3,0.1 -0.5,0.1 z m -7.3,-22.5 c -0.6,0 -1.2,-0.4 -1.4,-1 -1.1,-3.8 -2.2,-7.6 -3.2,-11.5 -0.2,-0.8 0.2,-1.5 1,-1.7 0.8,-0.2 1.5,0.2 1.7,1 1,3.8 2.1,7.6 3.2,11.4 0.2,0.8 -0.2,1.5 -1,1.8 0,-0.1 -0.1,0 -0.3,0 z m -6.1,-23 c -0.6,0 -1.2,-0.4 -1.4,-1.1 -0.9,-3.8 -1.8,-7.8 -2.6,-11.6 -0.2,-0.8 0.3,-1.5 1.1,-1.7 0.8,-0.2 1.5,0.3 1.7,1.1 0.8,3.8 1.7,7.7 2.6,11.5 0.2,0.8 -0.3,1.5 -1.1,1.7 -0.1,0.1 -0.2,0.1 -0.3,0.1 z m -4.9,-23.2 c -0.7,0 -1.3,-0.5 -1.4,-1.2 -0.7,-3.9 -1.4,-7.8 -2,-11.7 -0.1,-0.8 0.4,-1.5 1.2,-1.6 0.8,-0.1 1.5,0.4 1.6,1.2 0.6,3.9 1.3,7.8 2,11.7 0.1,0.8 -0.4,1.5 -1.1,1.6 -0.1,0 -0.2,0 -0.3,0 z"
   id="path36"
   style="fill:none;stroke:#000000;stroke-width:4;stroke-opacity:1" />&#10;				</g>&#10;				<g
   id="g38"
   style="fill:none;stroke:#000000;stroke-width:4;stroke-opacity:1">&#10;					<path
   class="st1"
   d="m -699,760.7 c 0,0 -0.1,0 -0.1,0 -0.8,-0.1 -1.4,-0.7 -1.3,-1.5 0.3,-3.9 0.6,-7.7 1.1,-11.6 0.1,-0.8 0.8,-1.3 1.6,-1.2 0.8,0.1 1.3,0.8 1.2,1.6 -0.4,3.8 -0.8,7.6 -1.1,11.4 -0.1,0.7 -0.7,1.3 -1.4,1.3 z m 2.7,-23 c -0.1,0 -0.2,0 -0.2,0 -0.8,-0.1 -1.3,-0.9 -1.2,-1.6 0.6,-3.8 1.4,-7.6 2.2,-11.4 0.2,-0.8 0.9,-1.2 1.7,-1.1 0.8,0.2 1.3,0.9 1.1,1.7 -0.8,3.7 -1.5,7.5 -2.2,11.3 -0.2,0.6 -0.8,1.1 -1.4,1.1 z m 4.8,-22.6 c -0.1,0 -0.2,0 -0.4,0 -0.8,-0.2 -1.2,-1 -1,-1.7 1,-3.7 2.1,-7.5 3.2,-11.2 0.2,-0.7 1,-1.2 1.8,-0.9 0.7,0.2 1.2,1 0.9,1.8 -1.2,3.6 -2.2,7.3 -3.2,11 -0.1,0.6 -0.7,1 -1.3,1 z m 7,-22 c -0.2,0 -0.3,0 -0.5,-0.1 -0.7,-0.3 -1.1,-1.1 -0.8,-1.8 1.3,-3.6 2.8,-7.2 4.3,-10.8 0.3,-0.7 1.1,-1.1 1.9,-0.8 0.7,0.3 1.1,1.1 0.8,1.9 -1.5,3.5 -2.9,7.1 -4.2,10.7 -0.4,0.6 -0.9,0.9 -1.5,0.9 z m 9,-21.2 c -0.2,0 -0.4,0 -0.6,-0.1 -0.7,-0.3 -1,-1.2 -0.7,-1.9 1.7,-3.5 3.5,-7 5.3,-10.4 0.4,-0.7 1.2,-0.9 1.9,-0.6 0.7,0.4 0.9,1.2 0.6,1.9 -1.8,3.4 -3.6,6.8 -5.2,10.2 -0.2,0.6 -0.7,0.9 -1.3,0.9 z m 11,-20.4 c -0.2,0 -0.5,-0.1 -0.7,-0.2 -0.7,-0.4 -0.9,-1.3 -0.5,-1.9 2,-3.3 4.1,-6.6 6.2,-9.8 0.4,-0.6 1.3,-0.8 2,-0.4 0.7,0.4 0.8,1.3 0.4,2 -2.1,3.2 -4.2,6.4 -6.2,9.7 -0.2,0.4 -0.7,0.6 -1.2,0.6 z m 12.9,-19.2 c -0.3,0 -0.6,-0.1 -0.8,-0.3 -0.6,-0.5 -0.8,-1.4 -0.3,-2 2.3,-3.1 4.7,-6.2 7.1,-9.2 0.5,-0.6 1.4,-0.7 2,-0.2 0.6,0.5 0.7,1.4 0.2,2 -2.4,3 -4.8,6 -7,9.1 -0.4,0.4 -0.8,0.6 -1.2,0.6 z m 14.5,-17.9 c -0.3,0 -0.7,-0.1 -0.9,-0.4 -0.6,-0.5 -0.6,-1.4 -0.1,-2 2.6,-2.9 5.2,-5.7 7.9,-8.5 0.5,-0.6 1.4,-0.6 2,0 0.6,0.5 0.6,1.4 0,2 -2.7,2.7 -5.3,5.6 -7.8,8.4 -0.3,0.3 -0.7,0.5 -1.1,0.5 z m 16.2,-16.5 c -0.4,0 -0.8,-0.2 -1,-0.5 -0.5,-0.6 -0.5,-1.5 0.1,-2 2.8,-2.6 5.7,-5.2 8.7,-7.7 0.6,-0.5 1.5,-0.4 2,0.2 0.5,0.6 0.4,1.5 -0.2,2 -2.9,2.5 -5.8,5.1 -8.6,7.6 -0.3,0.2 -0.6,0.4 -1,0.4 z m 17.6,-15 c -0.4,0 -0.8,-0.2 -1.1,-0.5 -0.5,-0.6 -0.4,-1.5 0.3,-2 3.1,-2.4 6.2,-4.7 9.4,-6.9 0.6,-0.5 1.5,-0.3 2,0.3 0.5,0.6 0.3,1.5 -0.3,2 -3.1,2.2 -6.2,4.5 -9.3,6.8 -0.4,0.2 -0.7,0.3 -1,0.3 z m 18.9,-13.3 c -0.5,0 -0.9,-0.2 -1.2,-0.7 -0.4,-0.7 -0.2,-1.5 0.4,-2 3.2,-2.1 6.6,-4.1 10,-6 0.7,-0.4 1.5,-0.2 1.9,0.5 0.4,0.7 0.2,1.5 -0.5,1.9 -3.3,1.9 -6.6,3.9 -9.8,6 -0.2,0.2 -0.5,0.3 -0.8,0.3 z"
   id="path37"
   style="fill:none;stroke:#000000;stroke-width:4;stroke-opacity:1" />&#10;				</g>&#10;				<g
   id="g39"
   style="fill:none;stroke:#000000;stroke-width:4;stroke-opacity:1">&#10;					<path
   class="st1"
   d="m -699.5,804.3 -0.2,-1.5 c -0.2,-2.2 -0.4,-4.4 -0.6,-6.5 -0.1,-0.8 0.5,-1.5 1.3,-1.5 0.8,-0.1 1.5,0.5 1.5,1.3 0.1,1.6 0.3,3.2 0.4,4.9 1.4,-0.3 2.8,-0.6 4.2,-0.8 0.8,-0.2 1.5,0.3 1.7,1.1 0.2,0.8 -0.3,1.5 -1.1,1.7 -1.9,0.4 -3.9,0.8 -5.8,1.1 z m -0.1,-19.7 c -0.8,0 -1.4,-0.6 -1.4,-1.4 -0.1,-2.2 -0.1,-4.4 -0.1,-6.5 0,-1.9 0,-3.9 0.1,-5.8 0,-0.8 0.7,-1.4 1.5,-1.4 0.8,0 1.4,0.7 1.4,1.5 0,1.9 -0.1,3.8 -0.1,5.7 0,2.1 0,4.3 0.1,6.5 0,0.7 -0.7,1.4 -1.5,1.4 0.1,0 0,0 0,0 z m 195.4,-47.8 c -0.5,0 -1,-0.3 -1.3,-0.8 -0.4,-0.7 -0.1,-1.6 0.6,-1.9 1.3,-0.7 2.6,-1.3 3.9,-2 -0.8,-1.3 -1.5,-2.6 -2.2,-3.9 -0.4,-0.7 -0.2,-1.5 0.5,-1.9 0.7,-0.4 1.5,-0.2 1.9,0.5 1,1.7 2,3.4 3,5.1 l 0.8,1.3 -1.3,0.7 c -1.7,0.9 -3.5,1.8 -5.2,2.7 -0.2,0.2 -0.5,0.2 -0.7,0.2 z m -54.2,-175.4 c -0.7,0 -1.3,-0.5 -1.4,-1.2 -0.2,-1.3 -0.3,-2.6 -0.5,-3.9 -1.1,0.5 -2.2,1.1 -3.3,1.7 -0.7,0.4 -1.6,0.1 -1.9,-0.6 -0.4,-0.7 -0.1,-1.6 0.6,-1.9 1.7,-0.9 3.5,-1.8 5.2,-2.6 l 1.8,-0.9 0.2,2 c 0.2,2 0.5,3.9 0.7,5.9 0.1,0.8 -0.4,1.5 -1.2,1.6 -0.1,-0.1 -0.2,-0.1 -0.2,-0.1 z"
   id="path38"
   style="fill:none;stroke:#000000;stroke-width:4;stroke-opacity:1" />&#10;				</g>&#10;			</g>&#10;		</g>&#10;		<g
   class="st0"
   id="g48"
   style="fill:none;stroke:#000000;stroke-width:4;stroke-opacity:1">&#10;			<g
   id="g47"
   style="fill:none;stroke:#000000;stroke-width:4;stroke-opacity:1">&#10;				<g
   id="g42"
   style="fill:none;stroke:#000000;stroke-width:4;stroke-opacity:1">&#10;					<path
   class="st1"
   d="m -243.7,858.5 c -0.2,0 -0.3,0 -0.5,-0.1 -0.7,-0.3 -1.1,-1.1 -0.8,-1.8 1.2,-3.2 2.4,-6.5 3.4,-9.7 0.2,-0.7 1,-1.1 1.8,-0.9 0.7,0.2 1.1,1 0.9,1.8 -1.1,3.3 -2.2,6.6 -3.5,9.8 -0.2,0.6 -0.7,0.9 -1.3,0.9 z m 6.5,-19.6 c -0.1,0 -0.3,0 -0.4,-0.1 -0.8,-0.2 -1.2,-1 -1,-1.8 0.9,-3.3 1.8,-6.6 2.6,-10 0.2,-0.8 0.9,-1.2 1.7,-1.1 0.8,0.2 1.2,0.9 1.1,1.7 -0.8,3.3 -1.7,6.7 -2.6,10.1 -0.3,0.8 -0.8,1.2 -1.4,1.2 z m 4.7,-20.1 c -0.1,0 -0.2,0 -0.3,0 -0.8,-0.1 -1.3,-0.9 -1.1,-1.7 0.6,-3.4 1.2,-6.8 1.7,-10.1 0.1,-0.8 0.8,-1.3 1.6,-1.2 0.8,0.1 1.3,0.8 1.2,1.6 -0.5,3.4 -1.1,6.9 -1.8,10.3 0,0.6 -0.6,1.1 -1.3,1.1 z m 3.1,-20.5 c -0.1,0 -0.1,0 -0.2,0 -0.8,-0.1 -1.3,-0.8 -1.3,-1.6 0.4,-3.4 0.7,-6.8 0.9,-10.2 0,-0.8 0.7,-1.4 1.5,-1.3 0.8,0 1.4,0.7 1.3,1.5 -0.2,3.4 -0.5,6.9 -0.9,10.4 0,0.7 -0.6,1.2 -1.3,1.2 z"
   id="path41"
   style="fill:none;stroke:#000000;stroke-width:4;stroke-opacity:1" />&#10;				</g>&#10;				<g
   id="g43"
   style="fill:none;stroke:#000000;stroke-width:4;stroke-opacity:1">&#10;					<path
   class="st1"
   d="m -228.7,754.9 c -0.7,0 -1.4,-0.6 -1.4,-1.3 -0.3,-3.9 -0.7,-7.8 -1.1,-11.6 -0.1,-0.8 0.5,-1.5 1.2,-1.6 0.8,-0.1 1.5,0.5 1.6,1.2 0.5,3.9 0.8,7.9 1.1,11.8 0.1,0.8 -0.5,1.5 -1.3,1.5 0,0 0,0 -0.1,0 z m -2.8,-23.4 c -0.7,0 -1.3,-0.5 -1.4,-1.2 -0.7,-3.8 -1.4,-7.7 -2.2,-11.5 -0.2,-0.8 0.3,-1.5 1.1,-1.7 0.8,-0.2 1.5,0.3 1.7,1.1 0.8,3.8 1.6,7.7 2.3,11.6 0.1,0.8 -0.4,1.5 -1.2,1.6 -0.1,0.1 -0.2,0.1 -0.3,0.1 z m -5,-22.9 c -0.6,0 -1.2,-0.4 -1.4,-1 -1,-3.7 -2.1,-7.5 -3.3,-11.2 -0.2,-0.7 0.2,-1.5 0.9,-1.8 0.7,-0.2 1.5,0.2 1.8,0.9 1.2,3.7 2.3,7.5 3.4,11.3 0.2,0.8 -0.2,1.5 -1,1.7 -0.2,0 -0.3,0.1 -0.4,0.1 z m -7.3,-22.4 c -0.6,0 -1.1,-0.3 -1.3,-0.9 -1.4,-3.6 -2.8,-7.3 -4.4,-10.8 -0.3,-0.7 0,-1.6 0.7,-1.9 0.7,-0.3 1.6,0 1.9,0.7 1.6,3.6 3.1,7.3 4.4,11 0.3,0.7 -0.1,1.5 -0.8,1.8 -0.1,0 -0.3,0.1 -0.5,0.1 z m -9.3,-21.6 c -0.5,0 -1,-0.3 -1.3,-0.8 -1.7,-3.5 -3.5,-7 -5.4,-10.4 -0.4,-0.7 -0.1,-1.5 0.6,-1.9 0.7,-0.4 1.5,-0.1 1.9,0.6 1.9,3.4 3.7,7 5.5,10.5 0.3,0.7 0.1,1.6 -0.6,1.9 -0.3,0.1 -0.5,0.1 -0.7,0.1 z M -264.5,644 c -0.5,0 -0.9,-0.2 -1.2,-0.7 -2,-3.3 -4.2,-6.6 -6.4,-9.8 -0.4,-0.6 -0.3,-1.5 0.4,-2 0.6,-0.4 1.5,-0.3 2,0.4 2.2,3.3 4.4,6.6 6.4,9.9 0.4,0.7 0.2,1.5 -0.5,2 -0.2,0.1 -0.4,0.2 -0.7,0.2 z"
   id="path42"
   style="fill:none;stroke:#000000;stroke-width:4;stroke-opacity:1" />&#10;				</g>&#10;				<g
   id="g44"
   style="fill:none;stroke:#000000;stroke-width:4;stroke-opacity:1">&#10;					<path
   class="st1"
   d="m -419.5,739.7 c -0.5,0 -0.9,-0.2 -1.2,-0.6 -0.4,-0.6 -0.3,-1.5 0.4,-2 3,-2.1 6.1,-4.2 9.1,-6.3 0.6,-0.5 1.5,-0.3 2,0.3 0.5,0.6 0.3,1.5 -0.3,2 -3,2.1 -6.1,4.3 -9.2,6.3 -0.3,0.3 -0.6,0.3 -0.8,0.3 z m 18.1,-12.7 c -0.4,0 -0.9,-0.2 -1.1,-0.6 -0.5,-0.6 -0.3,-1.5 0.3,-2 3,-2.2 6,-4.4 8.9,-6.6 0.6,-0.5 1.5,-0.3 2,0.3 0.5,0.6 0.3,1.5 -0.3,2 -3,2.2 -6,4.4 -9,6.6 -0.2,0.2 -0.5,0.3 -0.8,0.3 z m 17.9,-13.3 c -0.4,0 -0.8,-0.2 -1.1,-0.6 -0.5,-0.6 -0.4,-1.5 0.3,-2 2.9,-2.2 5.9,-4.5 8.8,-6.8 0.6,-0.5 1.5,-0.4 2,0.2 0.5,0.6 0.4,1.5 -0.2,2 -2.9,2.3 -5.9,4.6 -8.8,6.8 -0.4,0.3 -0.7,0.4 -1,0.4 z m 17.4,-13.8 c -0.4,0 -0.8,-0.2 -1.1,-0.5 -0.5,-0.6 -0.4,-1.5 0.2,-2 2.9,-2.3 5.7,-4.7 8.6,-7.1 0.6,-0.5 1.5,-0.4 2,0.2 0.5,0.6 0.4,1.5 -0.2,2 -2.8,2.4 -5.7,4.8 -8.6,7.1 -0.3,0.2 -0.6,0.3 -0.9,0.3 z m 17.1,-14.2 c -0.4,0 -0.8,-0.2 -1.1,-0.5 -0.5,-0.6 -0.4,-1.5 0.1,-2 2.8,-2.4 5.6,-4.9 8.4,-7.3 0.6,-0.5 1.5,-0.5 2,0.1 0.5,0.6 0.5,1.5 -0.1,2 -2.8,2.4 -5.6,4.9 -8.4,7.3 -0.3,0.3 -0.6,0.4 -0.9,0.4 z m 16.6,-14.7 c -0.4,0 -0.8,-0.2 -1,-0.5 -0.5,-0.6 -0.5,-1.5 0.1,-2 2.7,-2.5 5.4,-5 8.1,-7.5 0.6,-0.5 1.5,-0.5 2,0.1 0.5,0.6 0.5,1.5 -0.1,2 -2.7,2.5 -5.5,5.1 -8.2,7.5 -0.2,0.2 -0.6,0.4 -0.9,0.4 z m 16.2,-15.2 c -0.4,0 -0.7,-0.1 -1,-0.4 -0.5,-0.6 -0.5,-1.5 0,-2 2.7,-2.6 5.3,-5.2 7.9,-7.8 0.6,-0.6 1.5,-0.5 2,0 0.6,0.6 0.5,1.5 0,2 -2.6,2.6 -5.3,5.2 -8,7.8 -0.2,0.2 -0.5,0.4 -0.9,0.4 z m 15.8,-15.7 c -0.4,0 -0.7,-0.1 -1,-0.4 -0.6,-0.5 -0.6,-1.4 0,-2 2.6,-2.6 5.2,-5.3 7.7,-8 0.5,-0.6 1.4,-0.6 2,0 0.6,0.5 0.6,1.4 0,2 -2.5,2.7 -5.1,5.4 -7.7,8 -0.3,0.3 -0.6,0.4 -1,0.4 z"
   id="path43"
   style="fill:none;stroke:#000000;stroke-width:4;stroke-opacity:1" />&#10;				</g>&#10;				<g
   id="g45"
   style="fill:none;stroke:#000000;stroke-width:4;stroke-opacity:1">&#10;					<path
   class="st1"
   d="m -265.5,867.4 c -0.2,0 -0.3,0 -0.5,-0.1 -3.5,-1.3 -7,-2.7 -10.5,-4.1 -0.7,-0.3 -1.1,-1.1 -0.8,-1.8 0.3,-0.7 1.1,-1.1 1.8,-0.8 3.4,1.4 7,2.7 10.4,4 0.7,0.3 1.1,1.1 0.8,1.8 -0.1,0.6 -0.7,1 -1.2,1 z m -20.9,-8.4 c -0.2,0 -0.4,0 -0.6,-0.1 -3.4,-1.5 -6.9,-3.1 -10.3,-4.6 -0.7,-0.3 -1,-1.2 -0.7,-1.9 0.3,-0.7 1.2,-1 1.9,-0.7 3.4,1.6 6.8,3.1 10.2,4.6 0.7,0.3 1,1.1 0.7,1.9 -0.1,0.5 -0.6,0.8 -1.2,0.8 z m -20.3,-9.6 c -0.2,0 -0.4,0 -0.6,-0.2 -3.3,-1.7 -6.7,-3.4 -10,-5.2 -0.7,-0.4 -0.9,-1.2 -0.6,-1.9 0.4,-0.7 1.2,-0.9 1.9,-0.6 3.3,1.8 6.6,3.5 9.9,5.2 0.7,0.4 1,1.2 0.6,1.9 -0.2,0.5 -0.7,0.8 -1.2,0.8 z m -19.8,-10.6 c -0.2,0 -0.5,-0.1 -0.7,-0.2 -3.2,-1.9 -6.5,-3.8 -9.7,-5.8 -0.7,-0.4 -0.9,-1.3 -0.5,-2 0.4,-0.7 1.3,-0.9 2,-0.5 3.2,1.9 6.4,3.9 9.6,5.7 0.7,0.4 0.9,1.3 0.5,1.9 -0.2,0.6 -0.7,0.9 -1.2,0.9 z M -345.6,827 c -0.3,0 -0.5,-0.1 -0.8,-0.2 -3.1,-2 -6.3,-4.2 -9.3,-6.3 -0.6,-0.4 -0.8,-1.3 -0.4,-2 0.4,-0.6 1.3,-0.8 2,-0.4 3.1,2.1 6.2,4.2 9.3,6.3 0.7,0.4 0.8,1.3 0.4,2 -0.3,0.4 -0.7,0.6 -1.2,0.6 z M -364,814.2 c -0.3,0 -0.6,-0.1 -0.8,-0.3 -3,-2.2 -6,-4.5 -9,-6.8 -0.6,-0.5 -0.7,-1.4 -0.2,-2 0.5,-0.6 1.4,-0.7 2,-0.2 2.9,2.3 5.9,4.6 8.9,6.8 0.6,0.5 0.8,1.4 0.3,2 -0.4,0.3 -0.8,0.5 -1.2,0.5 z m -17.7,-13.8 c -0.3,0 -0.6,-0.1 -0.9,-0.3 -2.9,-2.4 -5.8,-4.8 -8.6,-7.3 -0.6,-0.5 -0.6,-1.4 -0.1,-2 0.5,-0.6 1.4,-0.6 2,-0.1 2.8,2.5 5.7,4.9 8.5,7.3 0.6,0.5 0.7,1.4 0.2,2 -0.3,0.2 -0.7,0.4 -1.1,0.4 z m -16.9,-14.8 c -0.3,0 -0.7,-0.1 -1,-0.4 -2.7,-2.5 -5.5,-5.1 -8.2,-7.8 -0.6,-0.5 -0.6,-1.4 0,-2 0.5,-0.6 1.4,-0.6 2,0 2.7,2.6 5.4,5.2 8.1,7.7 0.6,0.5 0.6,1.4 0.1,2 -0.3,0.3 -0.6,0.5 -1,0.5 z m -16.1,-15.7 c -0.4,0 -0.7,-0.1 -1,-0.4 -2.6,-2.7 -5.2,-5.5 -7.7,-8.2 -0.5,-0.6 -0.5,-1.5 0.1,-2 0.6,-0.5 1.5,-0.5 2,0.1 2.5,2.8 5.1,5.5 7.7,8.2 0.5,0.6 0.5,1.5 0,2 -0.3,0.1 -0.7,0.3 -1.1,0.3 z"
   id="path44"
   style="fill:none;stroke:#000000;stroke-width:4;stroke-opacity:1" />&#10;				</g>&#10;				<g
   id="g46"
   style="fill:none;stroke:#000000;stroke-width:4;stroke-opacity:1">&#10;					<path
   class="st1"
   d="m -248.8,873.2 -1.2,-0.4 c -1.8,-0.6 -3.6,-1.2 -5.3,-1.8 -0.7,-0.3 -1.1,-1.1 -0.9,-1.8 0.3,-0.7 1.1,-1.1 1.8,-0.9 1.4,0.5 2.7,0.9 4.1,1.4 0.5,-1.2 1,-2.4 1.5,-3.5 0.3,-0.7 1.1,-1.1 1.9,-0.8 0.7,0.3 1.1,1.1 0.8,1.9 -0.7,1.6 -1.4,3.2 -2.1,4.8 z m 20.7,-95.5 c 0,0 0,0 0,0 -0.8,0 -1.4,-0.7 -1.4,-1.4 0,-1.7 0.1,-3.4 0.1,-5.1 0,-1.9 0,-3.9 -0.1,-5.8 0,-0.8 0.6,-1.4 1.4,-1.5 0,0 0,0 0,0 0.8,0 1.4,0.6 1.4,1.4 0,2 0.1,4 0.1,5.9 0,1.7 0,3.5 -0.1,5.2 0,0.7 -0.6,1.3 -1.4,1.3 z m -201.7,-24.4 c -0.4,0 -0.8,-0.2 -1.1,-0.5 -1.2,-1.4 -2.4,-2.9 -3.6,-4.3 l -1,-1.2 1.3,-0.9 c 1.5,-1 3.1,-2 4.6,-3 0.7,-0.4 1.5,-0.3 2,0.4 0.4,0.7 0.3,1.5 -0.4,2 -1.1,0.7 -2.2,1.5 -3.3,2.2 0.9,1 1.7,2 2.6,3 0.5,0.6 0.4,1.5 -0.1,2 -0.3,0.2 -0.6,0.3 -1,0.3 z m 152.1,-128.7 c -0.4,0 -0.9,-0.2 -1.1,-0.6 -0.8,-1.1 -1.7,-2.2 -2.5,-3.3 -0.9,1 -1.8,1.9 -2.6,2.9 -0.5,0.6 -1.4,0.6 -2,0.1 -0.6,-0.5 -0.6,-1.4 -0.1,-2 1.3,-1.4 2.5,-2.7 3.8,-4.1 l 1.1,-1.2 1,1.3 c 1.2,1.5 2.4,3.1 3.6,4.7 0.5,0.6 0.3,1.5 -0.3,2 -0.3,0.1 -0.6,0.2 -0.9,0.2 z"
   id="path45"
   style="fill:none;stroke:#000000;stroke-width:4;stroke-opacity:1" />&#10;				</g>&#10;			</g>&#10;		</g>&#10;	</g>&#10;</g>&#10;</svg>
