<?xml version="1.0" encoding="utf-8"?>
<!-- Generator: Adobe Illustrator 28.0.0, SVG Export Plug-In . SVG Version: 6.00 Build 0)  -->
<svg version="1.1" id="Layer_1" xmlns="http://www.w3.org/2000/svg" xmlns:xlink="http://www.w3.org/1999/xlink" x="0px" y="0px"
	 viewBox="0 0 3870.7 1126.2" style="enable-background:new 0 0 3870.7 1126.2;" xml:space="preserve">
<style type="text/css">
	.st0{fill:#06274A;}
	.st1{fill:none;stroke:#FFFFFF;stroke-width:3;stroke-miterlimit:10;}
	.st2{fill:none;stroke:#FFFFFF;stroke-width:3;stroke-miterlimit:10;stroke-dasharray:11.9889,11.9889;}
	.st3{fill:none;}
</style>
<path class="st0" d="M0,224.1l0,700.8h3870.7V224.1c-438.3,0-316.6,41.4-721,41.4s-482.5-35.2-675.5-35.2s-357.5,35.2-566.6,35.2
	s-326.3-29.1-537.7-29.1s-324.9,26-465.1,26S583.7,224.1,0,224.1L0,224.1z"/>
<g>
	<g>
		<path class="st1" d="M6,224.1c-2,0-4,0-6,0"/>
		<path class="st2" d="M3858.7,224.1c-424.1,0.7-308.3,41.3-709,41.3c-404.4,0-482.5-35.2-675.5-35.2s-357.5,35.2-566.6,35.2
			s-326.3-29.1-537.7-29.1s-324.9,26-465.1,26c-138.7,0-317.4-37.4-886.8-38.2"/>
		<path class="st1" d="M3870.7,224.1c-2,0-4,0-6,0"/>
	</g>
</g>
<g>
	<path class="st3" d="M0,925"/>
</g>
<g>
	<path class="st3" d="M3870.7,925"/>
</g>
</svg>
