<?xml version="1.0" encoding="utf-8"?>
<!-- Generator: Adobe Illustrator 25.0.1, SVG Export Plug-In . SVG Version: 6.00 Build 0)  -->
<svg version="1.1" id="Layer_1" xmlns="http://www.w3.org/2000/svg" xmlns:xlink="http://www.w3.org/1999/xlink" x="0px" y="0px"
	 viewBox="0 0 595.3 841.9" style="enable-background:new 0 0 595.3 841.9;" xml:space="preserve">
<style type="text/css">
	.st0{opacity:0.6;}
	.st1{fill:#FFFFFF;}
</style>
<g>
	<g>
		<g class="st0">
			<g>
				<g>
					<path class="st1" d="M-496.9,491.5c-0.7,0-1.3-0.5-1.4-1.3c-0.1-0.8,0.5-1.5,1.3-1.6c3.7-0.4,7.3-0.7,10.8-0.9
						c0.8-0.1,1.5,0.5,1.5,1.3c0.1,0.8-0.5,1.5-1.3,1.5c-3.5,0.2-7.1,0.5-10.7,0.9C-496.8,491.5-496.9,491.5-496.9,491.5z"/>
				</g>
				<g>
					<path class="st1" d="M-300.5,542.8c-0.3,0-0.6-0.1-0.8-0.2c-3-2-6-4.1-9.1-6c-0.7-0.4-0.9-1.3-0.4-2s1.3-0.9,2-0.4
						c3.1,2,6.2,4,9.2,6c0.6,0.4,0.8,1.3,0.4,2C-299.6,542.5-300,542.8-300.5,542.8z M-318.9,531.1c-0.2,0-0.5-0.1-0.7-0.2
						c-3.1-1.8-6.3-3.6-9.5-5.3c-0.7-0.4-0.9-1.2-0.6-1.9c0.4-0.7,1.2-0.9,1.9-0.6c3.2,1.7,6.4,3.5,9.6,5.4c0.7,0.4,0.9,1.3,0.5,1.9
						C-318,530.8-318.4,531.1-318.9,531.1z M-338.2,520.7c-0.2,0-0.4,0-0.6-0.1c-3.2-1.6-6.5-3.1-9.8-4.6c-0.7-0.3-1-1.2-0.7-1.9
						c0.3-0.7,1.2-1,1.9-0.7c3.3,1.5,6.7,3.1,9.9,4.7c0.7,0.3,1,1.2,0.6,1.9C-337.1,520.4-337.6,520.7-338.2,520.7z M-358.1,511.8
						c-0.2,0-0.4,0-0.5-0.1c-3.3-1.4-6.8-2.7-10.1-3.9c-0.7-0.3-1.1-1.1-0.8-1.8c0.3-0.7,1.1-1.1,1.8-0.8c3.4,1.2,6.9,2.6,10.2,3.9
						c0.7,0.3,1.1,1.1,0.8,1.8C-357,511.5-357.5,511.8-358.1,511.8z M-378.6,504.3c-0.1,0-0.3,0-0.4-0.1c-3.4-1.1-6.9-2.2-10.4-3.1
						c-0.8-0.2-1.2-1-1-1.7c0.2-0.8,1-1.2,1.7-1c3.5,1,7,2.1,10.5,3.2c0.7,0.2,1.2,1,0.9,1.8C-377.5,504-378,504.3-378.6,504.3z
						 M-399.6,498.4c-0.1,0-0.2,0-0.3,0c-3.5-0.8-7.1-1.6-10.6-2.4c-0.8-0.2-1.3-0.9-1.1-1.7c0.2-0.8,0.9-1.3,1.7-1.1
						c3.6,0.7,7.2,1.5,10.7,2.4c0.8,0.2,1.2,1,1,1.7C-398.4,498-399,498.4-399.6,498.4z M-421,494.1c-0.1,0-0.2,0-0.2,0
						c-3.5-0.6-7.2-1.1-10.8-1.6c-0.8-0.1-1.3-0.8-1.2-1.6s0.8-1.3,1.6-1.2c3.6,0.5,7.3,1,10.9,1.6c0.8,0.1,1.3,0.9,1.2,1.6
						C-419.7,493.6-420.4,494.1-421,494.1z M-442.7,491.3c0,0-0.1,0-0.1,0c-3.6-0.3-7.2-0.6-10.8-0.8c-0.8,0-1.4-0.7-1.3-1.5
						c0-0.8,0.7-1.4,1.5-1.3c3.6,0.2,7.3,0.5,10.9,0.8c0.8,0.1,1.4,0.8,1.3,1.5C-441.3,490.7-442,491.3-442.7,491.3z"/>
				</g>
				<g>
					<path class="st1" d="M-277.1,538.5c-0.3,0-0.6-0.1-0.8-0.3c-0.6-0.5-0.8-1.3-0.3-2c2.2-3.1,4.4-6.2,6.5-9.4
						c0.4-0.6,1.3-0.8,2-0.4s0.8,1.3,0.4,2c-2.2,3.2-4.4,6.3-6.6,9.4C-276.2,538.2-276.7,538.5-277.1,538.5z M-264.2,519.5
						c-0.3,0-0.5-0.1-0.8-0.2c-0.7-0.4-0.8-1.3-0.4-2c2.1-3.2,4.2-6.4,6.2-9.6c0.4-0.7,1.3-0.9,2-0.4c0.7,0.4,0.9,1.3,0.4,2
						c-2.1,3.2-4.2,6.5-6.2,9.6C-263.3,519.3-263.7,519.5-264.2,519.5z M-251.9,500.2c-0.3,0-0.5-0.1-0.7-0.2
						c-0.7-0.4-0.9-1.3-0.5-1.9c2-3.2,4-6.5,5.9-9.8c0.4-0.7,1.3-0.9,1.9-0.5c0.7,0.4,0.9,1.3,0.5,1.9c-1.9,3.3-3.9,6.6-5.9,9.8
						C-251,499.9-251.4,500.2-251.9,500.2z M-240.3,480.4c-0.2,0-0.5-0.1-0.7-0.2c-0.7-0.4-0.9-1.3-0.5-1.9c1.9-3.3,3.8-6.7,5.6-10
						c0.4-0.7,1.2-0.9,1.9-0.6c0.7,0.4,0.9,1.2,0.6,1.9c-1.8,3.3-3.7,6.7-5.6,10C-239.3,480.2-239.8,480.4-240.3,480.4z
						 M-229.3,460.3c-0.2,0-0.4-0.1-0.7-0.2c-0.7-0.4-1-1.2-0.6-1.9c1.8-3.4,3.5-6.8,5.2-10.2c0.4-0.7,1.2-1,1.9-0.6
						c0.7,0.4,1,1.2,0.6,1.9c-1.7,3.4-3.5,6.8-5.2,10.2C-228.3,460.1-228.8,460.3-229.3,460.3z M-219,439.9c-0.2,0-0.4,0-0.6-0.1
						c-0.7-0.3-1-1.2-0.7-1.9c1.6-3.4,3.3-6.9,4.9-10.3c0.3-0.7,1.2-1,1.9-0.7c0.7,0.3,1,1.2,0.7,1.9c-1.6,3.5-3.3,7-4.9,10.4
						C-218,439.6-218.5,439.9-219,439.9z M-209.4,419.1c-0.2,0-0.4,0-0.6-0.1c-0.7-0.3-1-1.2-0.7-1.9c1.5-3.4,3-7,4.5-10.5
						c0.3-0.7,1.1-1.1,1.9-0.8c0.7,0.3,1.1,1.1,0.8,1.9c-1.5,3.5-3,7.1-4.5,10.5C-208.4,418.8-208.9,419.1-209.4,419.1z M-200.5,398
						c-0.2,0-0.4,0-0.5-0.1c-0.7-0.3-1.1-1.1-0.8-1.8c1.4-3.5,2.8-7.1,4.2-10.6c0.3-0.7,1.1-1.1,1.8-0.8c0.7,0.3,1.1,1.1,0.8,1.8
						c-1.4,3.6-2.8,7.2-4.2,10.7C-199.4,397.6-200,398-200.5,398z M-192.3,376.6c-0.2,0-0.3,0-0.5-0.1c-0.7-0.3-1.1-1.1-0.8-1.8
						c1.3-3.6,2.6-7.2,3.8-10.8c0.3-0.7,1.1-1.1,1.8-0.9c0.7,0.3,1.1,1.1,0.9,1.8c-1.2,3.6-2.5,7.2-3.8,10.8
						C-191.2,376.2-191.8,376.6-192.3,376.6z M-184.9,354.9c-0.1,0-0.3,0-0.4-0.1c-0.7-0.2-1.2-1-0.9-1.8c1.2-3.6,2.3-7.3,3.5-10.9
						c0.2-0.7,1-1.2,1.8-0.9c0.7,0.2,1.2,1,0.9,1.8c-1.1,3.6-2.3,7.3-3.5,10.9C-183.7,354.5-184.3,354.9-184.9,354.9z M-178.1,333
						c-0.1,0-0.3,0-0.4-0.1c-0.8-0.2-1.2-1-1-1.8c1-3.6,2.1-7.3,3.1-11c0.2-0.8,1-1.2,1.7-1c0.8,0.2,1.2,1,1,1.7
						c-1,3.7-2,7.4-3.1,11C-177,332.6-177.5,333-178.1,333z M-172.1,310.9c-0.1,0-0.2,0-0.3,0c-0.8-0.2-1.2-1-1-1.7
						c0.9-3.7,1.9-7.4,2.7-11.1c0.2-0.8,0.9-1.2,1.7-1.1c0.8,0.2,1.2,0.9,1.1,1.7c-0.9,3.7-1.8,7.4-2.7,11.1
						C-170.9,310.5-171.5,310.9-172.1,310.9z M-166.9,288.7c-0.1,0-0.2,0-0.3,0c-0.8-0.2-1.2-0.9-1.1-1.7c0.8-3.7,1.6-7.5,2.3-11.2
						c0.2-0.8,0.9-1.3,1.7-1.1c0.8,0.2,1.3,0.9,1.1,1.7c-0.8,3.7-1.5,7.5-2.4,11.2C-165.6,288.2-166.2,288.7-166.9,288.7z
						 M-162.4,266.2c-0.1,0-0.2,0-0.3,0c-0.8-0.1-1.3-0.9-1.1-1.6c0.7-3.7,1.3-7.5,2-11.2c0.1-0.8,0.9-1.3,1.6-1.2
						c0.8,0.1,1.3,0.9,1.2,1.6c-0.6,3.8-1.3,7.6-2,11.3C-161.1,265.7-161.7,266.2-162.4,266.2z M-158.6,243.6c-0.1,0-0.1,0-0.2,0
						c-0.8-0.1-1.3-0.8-1.2-1.6c0.6-3.7,1.1-7.5,1.6-11.3c0.1-0.8,0.8-1.3,1.6-1.2c0.8,0.1,1.3,0.8,1.2,1.6c-0.5,3.8-1,7.6-1.6,11.4
						C-157.3,243.1-157.9,243.6-158.6,243.6z M-155.6,221c-0.1,0-0.1,0-0.2,0c-0.8-0.1-1.3-0.8-1.2-1.6c0.4-3.7,0.8-7.6,1.2-11.4
						c0.1-0.8,0.8-1.4,1.5-1.3c0.8,0.1,1.3,0.8,1.3,1.5c-0.4,3.8-0.8,7.6-1.2,11.4C-154.3,220.4-154.9,221-155.6,221z M-153.4,198.2
						c0,0-0.1,0-0.1,0c-0.8-0.1-1.4-0.7-1.3-1.5c0.3-3.8,0.6-7.6,0.8-11.4c0.1-0.8,0.7-1.4,1.5-1.3c0.8,0.1,1.4,0.7,1.3,1.5
						c-0.2,3.8-0.5,7.6-0.8,11.4C-152,197.6-152.6,198.2-153.4,198.2z M-151.9,175.4C-151.9,175.4-151.9,175.4-151.9,175.4
						c-0.9,0-1.5-0.7-1.4-1.5c0.2-3.8,0.3-7.6,0.5-11.4c0-0.8,0.7-1.4,1.5-1.4c0.8,0,1.4,0.7,1.4,1.5c-0.1,3.8-0.3,7.6-0.5,11.5
						C-150.5,174.8-151.1,175.4-151.9,175.4z"/>
				</g>
				<g>
					<path class="st1" d="M-511.1,476.4c-0.1,0-0.1,0-0.2,0c-0.8-0.1-1.3-0.8-1.2-1.6c0.5-3.8,1.1-7.6,1.7-11.3
						c0.1-0.8,0.8-1.3,1.6-1.2c0.8,0.1,1.3,0.9,1.2,1.6c-0.6,3.7-1.2,7.5-1.7,11.2C-509.8,475.9-510.4,476.4-511.1,476.4z
						 M-507.5,453.9c-0.1,0-0.2,0-0.3,0c-0.8-0.1-1.3-0.9-1.1-1.7c0.7-3.7,1.5-7.5,2.3-11.2c0.2-0.8,0.9-1.2,1.7-1.1
						c0.8,0.2,1.2,0.9,1.1,1.7c-0.8,3.7-1.6,7.4-2.3,11.1C-506.2,453.4-506.8,453.9-507.5,453.9z M-502.5,431.6c-0.1,0-0.2,0-0.4,0
						c-0.8-0.2-1.2-1-1-1.7c0.9-3.7,2-7.4,3-11c0.2-0.8,1-1.2,1.8-1c0.8,0.2,1.2,1,1,1.8c-1.1,3.6-2.1,7.3-3,11
						C-501.3,431.2-501.8,431.6-502.5,431.6z M-496.1,409.7c-0.1,0-0.3,0-0.4-0.1c-0.7-0.2-1.2-1-0.9-1.8c1.2-3.6,2.4-7.2,3.7-10.8
						c0.3-0.7,1.1-1.1,1.8-0.9c0.7,0.3,1.1,1.1,0.9,1.8c-1.3,3.6-2.5,7.2-3.6,10.7C-495,409.3-495.5,409.7-496.1,409.7z
						 M-488.5,388.3c-0.2,0-0.3,0-0.5-0.1c-0.7-0.3-1.1-1.1-0.8-1.8c1.4-3.5,2.8-7.1,4.3-10.6c0.3-0.7,1.1-1.1,1.9-0.7
						c0.7,0.3,1.1,1.1,0.8,1.9c-1.5,3.5-2.9,7-4.3,10.5C-487.4,388-487.9,388.3-488.5,388.3z M-479.6,367.4c-0.2,0-0.4,0-0.6-0.1
						c-0.7-0.3-1-1.2-0.7-1.9c1.6-3.4,3.3-6.9,4.9-10.3c0.3-0.7,1.2-1,1.9-0.6c0.7,0.3,1,1.2,0.6,1.9c-1.7,3.4-3.3,6.8-4.9,10.2
						C-478.5,367.1-479.1,367.4-479.6,367.4z M-469.4,347c-0.2,0-0.5-0.1-0.7-0.2c-0.7-0.4-0.9-1.2-0.6-1.9c1.8-3.3,3.7-6.7,5.6-10
						c0.4-0.7,1.3-0.9,1.9-0.5c0.7,0.4,0.9,1.3,0.5,1.9c-1.9,3.3-3.7,6.6-5.5,9.9C-468.4,346.7-468.9,347-469.4,347z M-458.1,327.2
						c-0.3,0-0.5-0.1-0.7-0.2c-0.7-0.4-0.9-1.3-0.5-2c2-3.2,4-6.5,6.1-9.6c0.4-0.7,1.3-0.8,2-0.4c0.7,0.4,0.8,1.3,0.4,2
						c-2.1,3.2-4.1,6.4-6.1,9.6C-457.1,327-457.6,327.2-458.1,327.2z M-445.6,308.2c-0.3,0-0.6-0.1-0.8-0.3c-0.6-0.4-0.8-1.3-0.3-2
						c2.2-3.1,4.4-6.2,6.7-9.3c0.5-0.6,1.4-0.8,2-0.3c0.6,0.5,0.8,1.4,0.3,2c-2.2,3-4.5,6.1-6.7,9.2
						C-444.7,308-445.1,308.2-445.6,308.2z M-431.9,290c-0.3,0-0.6-0.1-0.9-0.3c-0.6-0.5-0.7-1.4-0.2-2c2.4-3,4.8-5.9,7.2-8.9
						c0.5-0.6,1.4-0.7,2-0.2c0.6,0.5,0.7,1.4,0.2,2c-2.4,2.9-4.9,5.8-7.2,8.8C-431.1,289.8-431.5,290-431.9,290z M-417.2,272.5
						c-0.3,0-0.7-0.1-0.9-0.4c-0.6-0.5-0.6-1.4-0.1-2c2.5-2.8,5.1-5.7,7.8-8.4c0.5-0.6,1.4-0.6,2,0c0.6,0.5,0.6,1.4,0,2
						c-2.6,2.7-5.2,5.5-7.7,8.3C-416.4,272.4-416.8,272.5-417.2,272.5z M-401.5,256c-0.4,0-0.7-0.1-1-0.4c-0.5-0.6-0.5-1.5,0-2
						c2.7-2.7,5.5-5.3,8.3-7.9c0.6-0.5,1.5-0.5,2,0.1c0.5,0.6,0.5,1.5-0.1,2c-2.8,2.6-5.5,5.2-8.2,7.9
						C-400.8,255.9-401.1,256-401.5,256z M-384.8,240.5c-0.4,0-0.8-0.2-1.1-0.5c-0.5-0.6-0.5-1.5,0.1-2c2.8-2.5,5.8-5,8.7-7.4
						c0.6-0.5,1.5-0.4,2,0.2c0.5,0.6,0.4,1.5-0.2,2c-2.9,2.4-5.8,4.9-8.6,7.4C-384.1,240.3-384.5,240.5-384.8,240.5z M-367.2,225.9
						c-0.4,0-0.8-0.2-1.1-0.5c-0.5-0.6-0.4-1.5,0.2-2c3-2.3,6.1-4.7,9.1-6.9c0.6-0.5,1.5-0.3,2,0.3c0.5,0.6,0.3,1.5-0.3,2
						c-3,2.2-6.1,4.5-9.1,6.8C-366.6,225.8-366.9,225.9-367.2,225.9z M-348.8,212.4c-0.5,0-0.9-0.2-1.2-0.6c-0.4-0.6-0.3-1.5,0.4-2
						c3.1-2.2,6.4-4.3,9.5-6.3c0.7-0.4,1.5-0.2,2,0.4c0.4,0.7,0.2,1.5-0.4,2c-3.2,2-6.4,4.2-9.5,6.3
						C-348.2,212.4-348.5,212.4-348.8,212.4z M-329.6,200.1c-0.5,0-0.9-0.2-1.2-0.7c-0.4-0.7-0.2-1.5,0.5-1.9c3.3-2,6.6-3.9,9.9-5.8
						c0.7-0.4,1.5-0.1,1.9,0.5c0.4,0.7,0.1,1.5-0.5,1.9c-3.3,1.8-6.6,3.8-9.8,5.7C-329.1,200-329.4,200.1-329.6,200.1z
						 M-309.7,188.9c-0.5,0-1-0.3-1.3-0.8c-0.4-0.7-0.1-1.6,0.6-1.9c3.4-1.8,6.8-3.5,10.2-5.2c0.7-0.3,1.6,0,1.9,0.7
						c0.3,0.7,0,1.6-0.7,1.9c-3.4,1.6-6.8,3.4-10.2,5.1C-309.2,188.9-309.5,188.9-309.7,188.9z M-289.1,178.9
						c-0.5,0-1.1-0.3-1.3-0.8c-0.3-0.7,0-1.6,0.7-1.9c3.5-1.6,7-3.1,10.5-4.5c0.7-0.3,1.6,0,1.9,0.8c0.3,0.7,0,1.6-0.8,1.9
						c-3.5,1.4-7,3-10.5,4.5C-288.7,178.9-288.9,178.9-289.1,178.9z M-268,170.2c-0.6,0-1.1-0.3-1.3-0.9c-0.3-0.7,0.1-1.6,0.8-1.8
						c3.6-1.3,7.2-2.7,10.8-3.9c0.7-0.3,1.5,0.1,1.8,0.9c0.3,0.7-0.1,1.5-0.9,1.8c-3.6,1.2-7.2,2.5-10.7,3.9
						C-267.7,170.2-267.8,170.2-268,170.2z M-246.4,162.8c-0.6,0-1.2-0.4-1.4-1c-0.2-0.7,0.2-1.5,0.9-1.8c3.6-1.1,7.3-2.2,11-3.2
						c0.8-0.2,1.5,0.2,1.7,1c0.2,0.8-0.2,1.5-1,1.7c-3.6,1-7.3,2.1-10.9,3.2C-246.1,162.8-246.2,162.8-246.4,162.8z M-224.4,156.7
						c-0.6,0-1.2-0.4-1.4-1.1c-0.2-0.8,0.3-1.5,1-1.7c3.7-0.9,7.4-1.8,11.2-2.5c0.8-0.2,1.5,0.3,1.7,1.1c0.2,0.8-0.3,1.5-1.1,1.7
						c-3.7,0.8-7.4,1.6-11.1,2.5C-224.1,156.7-224.2,156.7-224.4,156.7z M-202,152c-0.7,0-1.3-0.5-1.4-1.2c-0.1-0.8,0.4-1.5,1.1-1.6
						c3.7-0.7,7.5-1.3,11.3-1.9c0.8-0.1,1.5,0.4,1.6,1.2c0.1,0.8-0.4,1.5-1.2,1.6c-3.7,0.6-7.5,1.2-11.2,1.9
						C-201.9,152-202,152-202,152z M-179.5,148.6c-0.7,0-1.3-0.5-1.4-1.2c-0.1-0.8,0.5-1.5,1.2-1.6c3.8-0.5,7.6-0.9,11.4-1.2
						c0.8-0.1,1.5,0.5,1.5,1.3c0.1,0.8-0.5,1.5-1.3,1.5c-3.8,0.3-7.6,0.7-11.3,1.2C-179.4,148.6-179.4,148.6-179.5,148.6z"/>
				</g>
				<g>
					<path class="st1" d="M-286.9,552.9l-1.1-0.9c-1.4-1.1-2.9-2.2-4.3-3.3c-0.6-0.5-0.8-1.4-0.3-2c0.5-0.6,1.4-0.8,2-0.3
						c1.1,0.8,2.2,1.6,3.2,2.4c0.9-1.1,1.7-2.3,2.5-3.5c0.5-0.6,1.4-0.8,2-0.3c0.6,0.5,0.8,1.4,0.3,2c-1.1,1.5-2.3,3.1-3.4,4.6
						L-286.9,552.9z M-514.6,493.7l0.2-1.8c0.2-1.9,0.3-3.8,0.5-5.7c0.1-0.8,0.8-1.3,1.6-1.3c0.8,0.1,1.3,0.8,1.3,1.6
						c-0.1,1.3-0.3,2.6-0.4,3.9c1.2-0.2,2.4-0.3,3.6-0.5c0.8-0.1,1.5,0.4,1.6,1.2c0.1,0.8-0.4,1.5-1.2,1.6c-1.8,0.2-3.6,0.5-5.3,0.7
						L-514.6,493.7z M-475.4,490.1c-0.8,0-1.4-0.6-1.4-1.4c0-0.8,0.6-1.4,1.4-1.4c3.6-0.1,7.3-0.1,10.9,0c0.8,0,1.4,0.7,1.4,1.4
						c0,0.8-0.7,1.4-1.4,1.4C-468.1,490-471.7,490-475.4,490.1C-475.3,490.1-475.3,490.1-475.4,490.1z M-151.1,152
						C-151.1,152-151.2,152-151.1,152c-0.8,0-1.4-0.7-1.4-1.4c0-1.4,0-2.8,0.1-4.2c-1.4,0.1-2.8,0.1-4.2,0.2c-0.8,0-1.5-0.5-1.5-1.3
						c0-0.8,0.5-1.5,1.3-1.5c1.9-0.1,3.8-0.2,5.7-0.3l1.5-0.1l0,1.5c0,1.9,0,3.8-0.1,5.7C-149.7,151.4-150.4,152-151.1,152z"/>
				</g>
			</g>
		</g>
		<g class="st0">
			<g>
				<g>
					<path class="st1" d="M-756.3,761.4C-756.4,761.4-756.4,761.4-756.3,761.4c-0.9,0-1.5-0.7-1.4-1.5c0.2-3.7,0.5-7.4,0.8-11.1
						c0.1-0.8,0.8-1.3,1.5-1.3c0.8,0.1,1.4,0.8,1.3,1.5c-0.3,3.7-0.6,7.4-0.8,11C-755,760.9-755.6,761.4-756.3,761.4z M-754.3,739.3
						c-0.1,0-0.1,0-0.2,0c-0.8-0.1-1.3-0.8-1.2-1.6c0.5-3.7,1.1-7.4,1.7-11c0.1-0.8,0.9-1.3,1.6-1.2c0.8,0.1,1.3,0.9,1.2,1.6
						c-0.6,3.6-1.2,7.3-1.7,10.9C-752.9,738.8-753.6,739.3-754.3,739.3z M-750.5,717.4c-0.1,0-0.2,0-0.3,0c-0.8-0.2-1.3-0.9-1.1-1.7
						c0.8-3.6,1.6-7.3,2.5-10.9c0.2-0.8,1-1.2,1.7-1c0.8,0.2,1.2,1,1,1.7c-0.9,3.6-1.7,7.2-2.5,10.8
						C-749.3,717-749.8,717.4-750.5,717.4z M-745.1,695.9c-0.1,0-0.3,0-0.4-0.1c-0.8-0.2-1.2-1-1-1.8c1-3.6,2.2-7.1,3.3-10.7
						c0.2-0.7,1-1.1,1.8-0.9c0.7,0.2,1.1,1.1,0.9,1.8c-1.2,3.5-2.3,7-3.3,10.6C-743.9,695.5-744.5,695.9-745.1,695.9z M-738,674.8
						c-0.2,0-0.3,0-0.5-0.1c-0.7-0.3-1.1-1.1-0.8-1.8c1.3-3.5,2.7-7,4.2-10.4c0.3-0.7,1.1-1.1,1.9-0.8c0.7,0.3,1.1,1.1,0.8,1.9
						c-1.4,3.4-2.8,6.8-4.1,10.3C-736.9,674.4-737.4,674.8-738,674.8z M-729.3,654.3c-0.2,0-0.4,0-0.6-0.1c-0.7-0.3-1-1.2-0.7-1.9
						c1.6-3.4,3.2-6.7,4.9-10c0.4-0.7,1.2-1,1.9-0.6c0.7,0.4,1,1.2,0.6,1.9c-1.7,3.3-3.3,6.6-4.9,9.9
						C-728.3,654-728.8,654.3-729.3,654.3z M-719.2,634.5c-0.2,0-0.5-0.1-0.7-0.2c-0.7-0.4-0.9-1.2-0.5-1.9c1.8-3.2,3.7-6.5,5.7-9.6
						c0.4-0.7,1.3-0.9,1.9-0.5c0.7,0.4,0.9,1.3,0.5,2c-1.9,3.1-3.8,6.3-5.6,9.5C-718.2,634.2-718.7,634.5-719.2,634.5z
						 M-707.5,615.6c-0.3,0-0.5-0.1-0.8-0.2c-0.7-0.4-0.8-1.3-0.4-2c2.1-3.1,4.2-6.2,6.4-9.2c0.5-0.6,1.3-0.8,2-0.3
						c0.6,0.5,0.8,1.3,0.3,2c-2.1,3-4.3,6-6.3,9.1C-706.6,615.4-707.1,615.6-707.5,615.6z M-694.5,597.6c-0.3,0-0.6-0.1-0.9-0.3
						c-0.6-0.5-0.7-1.4-0.2-2c2.3-2.9,4.7-5.8,7-8.7c0.5-0.6,1.4-0.7,2-0.2c0.6,0.5,0.7,1.4,0.2,2c-2.4,2.8-4.7,5.7-7,8.6
						C-693.6,597.4-694.1,597.6-694.5,597.6z M-680.1,580.6c-0.3,0-0.7-0.1-1-0.4c-0.6-0.5-0.6-1.4-0.1-2c2.5-2.7,5.1-5.5,7.7-8.1
						c0.5-0.6,1.4-0.6,2,0c0.6,0.5,0.6,1.4,0,2c-2.6,2.6-5.1,5.3-7.6,8C-679.4,580.5-679.7,580.6-680.1,580.6z M-664.6,564.8
						c-0.4,0-0.8-0.1-1-0.4c-0.5-0.6-0.5-1.5,0.1-2c2.7-2.5,5.5-5.1,8.3-7.5c0.6-0.5,1.5-0.5,2,0.1c0.5,0.6,0.5,1.5-0.1,2
						c-2.8,2.4-5.5,4.9-8.2,7.4C-663.9,564.7-664.2,564.8-664.6,564.8z M-647.8,550.2c-0.4,0-0.8-0.2-1.1-0.5
						c-0.5-0.6-0.4-1.5,0.2-2c2.9-2.3,5.8-4.6,8.8-6.9c0.6-0.5,1.5-0.3,2,0.3c0.5,0.6,0.3,1.5-0.3,2c-2.9,2.2-5.9,4.5-8.7,6.8
						C-647.2,550-647.5,550.2-647.8,550.2z M-630.1,536.8c-0.4,0-0.9-0.2-1.2-0.6c-0.4-0.6-0.3-1.5,0.4-2c3.1-2.1,6.2-4.2,9.3-6.2
						c0.7-0.4,1.5-0.2,2,0.4c0.4,0.7,0.2,1.5-0.4,2c-3.1,2-6.2,4-9.2,6.1C-629.5,536.7-629.8,536.8-630.1,536.8z M-611.4,524.8
						c-0.5,0-1-0.2-1.2-0.7c-0.4-0.7-0.2-1.5,0.5-1.9c3.2-1.9,6.5-3.7,9.7-5.5c0.7-0.4,1.5-0.1,1.9,0.6c0.4,0.7,0.1,1.5-0.6,1.9
						c-3.2,1.7-6.5,3.6-9.6,5.4C-610.9,524.8-611.2,524.8-611.4,524.8z M-591.9,514.3c-0.5,0-1-0.3-1.3-0.8
						c-0.3-0.7-0.1-1.6,0.6-1.9c3.3-1.6,6.7-3.2,10.1-4.7c0.7-0.3,1.6,0,1.9,0.7s0,1.6-0.7,1.9c-3.4,1.5-6.7,3.1-10,4.7
						C-591.5,514.3-591.7,514.3-591.9,514.3z"/>
				</g>
				<g>
					<path class="st1" d="M-565.5,486c0,0-0.1,0-0.1,0c-0.8-0.1-1.4-0.7-1.3-1.5c0.3-3.8,0.6-7.7,1-11.5c0.1-0.8,0.8-1.3,1.6-1.3
						c0.8,0.1,1.3,0.8,1.3,1.6c-0.4,3.8-0.7,7.6-1,11.4C-564.1,485.5-564.8,486-565.5,486z M-563.1,463.2c-0.1,0-0.1,0-0.2,0
						c-0.8-0.1-1.3-0.8-1.2-1.6c0.5-3.8,1.1-7.7,1.6-11.4c0.1-0.8,0.9-1.3,1.6-1.2c0.8,0.1,1.3,0.8,1.2,1.6
						c-0.6,3.7-1.1,7.6-1.6,11.3C-561.8,462.6-562.4,463.2-563.1,463.2z M-559.5,440.4c-0.1,0-0.2,0-0.3,0c-0.8-0.1-1.3-0.9-1.1-1.7
						c0.7-3.8,1.5-7.6,2.3-11.3c0.2-0.8,0.9-1.3,1.7-1.1c0.8,0.2,1.3,0.9,1.1,1.7c-0.8,3.7-1.5,7.5-2.2,11.2
						C-558.3,440-558.9,440.4-559.5,440.4z M-554.7,417.9c-0.1,0-0.2,0-0.3,0c-0.8-0.2-1.2-0.9-1-1.7c0.9-3.7,1.9-7.5,2.9-11.2
						c0.2-0.8,1-1.2,1.7-1c0.8,0.2,1.2,1,1,1.7c-1,3.7-1.9,7.4-2.8,11.1C-553.5,417.5-554.1,417.9-554.7,417.9z M-548.7,395.7
						c-0.1,0-0.3,0-0.4-0.1c-0.8-0.2-1.2-1-1-1.8c1.1-3.7,2.3-7.4,3.5-11c0.2-0.7,1-1.1,1.8-0.9c0.7,0.2,1.1,1,0.9,1.8
						c-1.2,3.6-2.4,7.3-3.4,11C-547.5,395.3-548.1,395.7-548.7,395.7z M-541.5,373.8c-0.2,0-0.3,0-0.5-0.1c-0.7-0.3-1.1-1.1-0.9-1.8
						c1.3-3.6,2.7-7.3,4.1-10.8c0.3-0.7,1.1-1.1,1.8-0.8c0.7,0.3,1.1,1.1,0.8,1.8c-1.4,3.6-2.7,7.2-4,10.8
						C-540.4,373.4-540.9,373.8-541.5,373.8z M-533.1,352.3c-0.2,0-0.4,0-0.5-0.1c-0.7-0.3-1.1-1.1-0.8-1.9c1.5-3.5,3-7.1,4.6-10.6
						c0.3-0.7,1.2-1,1.9-0.7c0.7,0.3,1,1.2,0.7,1.9c-1.6,3.5-3.1,7-4.6,10.5C-532.1,352-532.6,352.3-533.1,352.3z M-523.6,331.3
						c-0.2,0-0.4,0-0.6-0.1c-0.7-0.3-1-1.2-0.7-1.9c1.7-3.5,3.4-6.9,5.2-10.3c0.4-0.7,1.2-1,1.9-0.6c0.7,0.4,1,1.2,0.6,1.9
						c-1.8,3.4-3.5,6.8-5.2,10.3C-522.6,331-523.1,331.3-523.6,331.3z M-513,310.8c-0.2,0-0.5-0.1-0.7-0.2c-0.7-0.4-0.9-1.2-0.6-1.9
						c1.9-3.4,3.8-6.7,5.7-10c0.4-0.7,1.3-0.9,1.9-0.5c0.7,0.4,0.9,1.3,0.5,1.9c-1.9,3.3-3.9,6.6-5.7,10
						C-512,310.6-512.5,310.8-513,310.8z M-501.3,291c-0.3,0-0.5-0.1-0.8-0.2c-0.7-0.4-0.9-1.3-0.5-2c2-3.3,4.1-6.5,6.3-9.7
						c0.4-0.7,1.3-0.8,2-0.4c0.7,0.4,0.8,1.3,0.4,2c-2.1,3.2-4.2,6.4-6.2,9.6C-500.4,290.7-500.9,291-501.3,291z M-488.6,271.8
						c-0.3,0-0.6-0.1-0.8-0.3c-0.6-0.4-0.8-1.3-0.3-2c2.2-3.1,4.5-6.3,6.8-9.4c0.5-0.6,1.4-0.8,2-0.3c0.6,0.5,0.8,1.4,0.3,2
						c-2.3,3.1-4.5,6.2-6.7,9.3C-487.7,271.6-488.2,271.8-488.6,271.8z M-474.9,253.3c-0.3,0-0.6-0.1-0.9-0.3
						c-0.6-0.5-0.7-1.4-0.2-2c2.4-3,4.8-6,7.2-9c0.5-0.6,1.4-0.7,2-0.2c0.6,0.5,0.7,1.4,0.2,2c-2.4,2.9-4.8,5.9-7.2,8.9
						C-474,253.1-474.5,253.3-474.9,253.3z M-460.2,235.6c-0.3,0-0.7-0.1-0.9-0.4c-0.6-0.5-0.7-1.4-0.1-2c2.5-2.9,5.1-5.8,7.7-8.6
						c0.5-0.6,1.4-0.6,2-0.1c0.6,0.5,0.6,1.4,0.1,2c-2.6,2.8-5.2,5.7-7.7,8.5C-459.4,235.4-459.8,235.6-460.2,235.6z M-444.6,218.7
						c-0.4,0-0.7-0.1-1-0.4c-0.6-0.5-0.6-1.4,0-2c2.7-2.8,5.4-5.5,8.1-8.2c0.6-0.5,1.5-0.5,2,0s0.5,1.5,0,2
						c-2.7,2.7-5.4,5.4-8.1,8.1C-443.9,218.5-444.3,218.7-444.6,218.7z M-428.2,202.6c-0.4,0-0.8-0.2-1-0.5c-0.5-0.6-0.5-1.5,0.1-2
						c2.8-2.6,5.7-5.2,8.6-7.7c0.6-0.5,1.5-0.5,2,0.1c0.5,0.6,0.5,1.5-0.1,2c-2.9,2.5-5.7,5.1-8.5,7.7
						C-427.5,202.5-427.8,202.6-428.2,202.6z M-410.9,187.4c-0.4,0-0.8-0.2-1.1-0.5c-0.5-0.6-0.4-1.5,0.2-2c2.9-2.5,6-4.9,9-7.3
						c0.6-0.5,1.5-0.4,2,0.2c0.5,0.6,0.4,1.5-0.2,2c-3,2.4-6,4.8-8.9,7.2C-410.3,187.3-410.6,187.4-410.9,187.4z M-392.9,173.2
						c-0.4,0-0.9-0.2-1.1-0.6c-0.5-0.6-0.3-1.5,0.3-2c3.1-2.3,6.2-4.6,9.3-6.8c0.6-0.5,1.5-0.3,2,0.3c0.5,0.6,0.3,1.5-0.3,2
						c-3.1,2.2-6.2,4.5-9.3,6.7C-392.3,173.1-392.6,173.2-392.9,173.2z M-374.1,159.9c-0.5,0-0.9-0.2-1.2-0.6
						c-0.4-0.7-0.3-1.5,0.4-2c3.2-2.1,6.4-4.2,9.7-6.3c0.7-0.4,1.5-0.2,2,0.4c0.4,0.7,0.2,1.5-0.4,2c-3.2,2-6.4,4.1-9.6,6.2
						C-373.5,159.8-373.8,159.9-374.1,159.9z M-354.7,147.7c-0.5,0-1-0.2-1.2-0.7c-0.4-0.7-0.2-1.5,0.5-1.9c3.3-2,6.7-3.9,10-5.7
						c0.7-0.4,1.5-0.1,1.9,0.5c0.4,0.7,0.1,1.5-0.5,1.9c-3.3,1.8-6.6,3.8-9.9,5.7C-354.2,147.6-354.4,147.7-354.7,147.7z
						 M-334.6,136.5c-0.5,0-1-0.3-1.3-0.8c-0.4-0.7-0.1-1.6,0.6-1.9c3.4-1.8,6.8-3.5,10.3-5.2c0.7-0.3,1.6-0.1,1.9,0.6
						c0.3,0.7,0.1,1.6-0.6,1.9c-3.4,1.7-6.8,3.4-10.2,5.2C-334.2,136.4-334.4,136.5-334.6,136.5z M-314,126.4
						c-0.5,0-1.1-0.3-1.3-0.8c-0.3-0.7,0-1.6,0.7-1.9c3.5-1.6,7-3.2,10.5-4.7c0.7-0.3,1.6,0,1.9,0.7c0.3,0.7,0,1.6-0.7,1.9
						c-3.5,1.5-7,3-10.5,4.6C-313.6,126.3-313.8,126.4-314,126.4z M-292.9,117.4c-0.6,0-1.1-0.3-1.3-0.9c-0.3-0.7,0.1-1.6,0.8-1.8
						c3.5-1.4,7.2-2.8,10.8-4.1c0.7-0.3,1.5,0.1,1.8,0.8s-0.1,1.5-0.8,1.8c-3.6,1.3-7.2,2.7-10.7,4.1
						C-292.6,117.3-292.7,117.4-292.9,117.4z M-271.3,109.5c-0.6,0-1.1-0.4-1.3-1c-0.2-0.7,0.2-1.5,0.9-1.8c3.6-1.2,7.3-2.4,11-3.5
						c0.7-0.2,1.5,0.2,1.8,0.9c0.2,0.7-0.2,1.5-0.9,1.8c-3.6,1.1-7.3,2.3-10.9,3.5C-271,109.5-271.2,109.5-271.3,109.5z
						 M-249.3,102.8c-0.6,0-1.2-0.4-1.4-1c-0.2-0.8,0.2-1.5,1-1.7c3.7-1,7.4-2,11.2-2.9c0.8-0.2,1.5,0.3,1.7,1
						c0.2,0.8-0.3,1.5-1,1.7c-3.7,0.9-7.4,1.9-11.1,2.9C-249.1,102.8-249.2,102.8-249.3,102.8z M-227,97.2c-0.7,0-1.2-0.5-1.4-1.1
						c-0.2-0.8,0.3-1.5,1.1-1.7c3.7-0.8,7.5-1.6,11.3-2.3c0.8-0.1,1.5,0.4,1.7,1.1c0.1,0.8-0.4,1.5-1.1,1.7
						c-3.7,0.7-7.5,1.5-11.2,2.3C-226.8,97.2-226.9,97.2-227,97.2z M-204.4,92.9c-0.7,0-1.3-0.5-1.4-1.2c-0.1-0.8,0.4-1.5,1.2-1.6
						c3.8-0.6,7.6-1.2,11.4-1.7c0.8-0.1,1.5,0.4,1.6,1.2c0.1,0.8-0.4,1.5-1.2,1.6c-3.8,0.5-7.6,1.1-11.3,1.7
						C-204.3,92.9-204.3,92.9-204.4,92.9z M-181.6,89.8c-0.7,0-1.3-0.5-1.4-1.3c-0.1-0.8,0.5-1.5,1.3-1.6c3.8-0.4,7.7-0.8,11.5-1.1
						c0.8-0.1,1.5,0.5,1.5,1.3c0.1,0.8-0.5,1.5-1.3,1.5c-3.8,0.3-7.6,0.7-11.4,1.1C-181.5,89.8-181.6,89.8-181.6,89.8z"/>
				</g>
				<g>
					<path class="st1" d="M-154.5,71.1c-0.7,0-1.3-0.5-1.4-1.3c-0.4-3.6-0.8-7.3-1.3-11c-0.1-0.8,0.4-1.5,1.2-1.6
						c0.8-0.1,1.5,0.4,1.6,1.2c0.5,3.7,0.9,7.4,1.3,11c0.1,0.8-0.5,1.5-1.3,1.6C-154.4,71.1-154.5,71.1-154.5,71.1z M-157.3,49.2
						c-0.7,0-1.3-0.5-1.4-1.2c-0.5-3.6-1.1-7.3-1.7-10.9c-0.1-0.8,0.4-1.5,1.2-1.6c0.8-0.1,1.5,0.4,1.6,1.2
						c0.6,3.6,1.1,7.3,1.7,10.9c0.1,0.8-0.4,1.5-1.2,1.6C-157.2,49.2-157.3,49.2-157.3,49.2z"/>
				</g>
				<g>
					<path class="st1" d="M-840,814.5C-840,814.5-840,814.5-840,814.5c-4-0.1-8.1-0.3-12.1-0.4c-0.8,0-1.4-0.7-1.4-1.5
						s0.7-1.4,1.5-1.4c4,0.2,8,0.3,12,0.4c0.8,0,1.4,0.7,1.4,1.5C-838.6,813.9-839.2,814.5-840,814.5z M-864,813.4
						C-864.1,813.4-864.1,813.4-864,813.4c-4.1-0.3-8.1-0.6-12.1-0.9c-0.8-0.1-1.4-0.7-1.3-1.5s0.7-1.4,1.5-1.3c4,0.3,8,0.6,12,0.9
						c0.8,0.1,1.4,0.7,1.3,1.5C-862.7,812.9-863.3,813.4-864,813.4z M-888,811.5c0,0-0.1,0-0.1,0c-3.9-0.4-8-0.8-12-1.3
						c-0.8-0.1-1.3-0.8-1.2-1.6c0.1-0.8,0.8-1.3,1.6-1.2c4,0.5,8,0.9,11.9,1.3c0.8,0.1,1.3,0.8,1.3,1.6
						C-886.6,810.9-887.3,811.5-888,811.5z"/>
				</g>
				<g>
					<path class="st1" d="M-805.2,814.6c-0.8,0-1.4-0.6-1.4-1.4c0-0.8,0.6-1.4,1.4-1.5c3.7-0.1,7.5-0.2,11.2-0.4
						c0.8,0,1.4,0.6,1.5,1.4c0,0.8-0.6,1.4-1.4,1.5C-797.6,814.4-801.4,814.5-805.2,814.6C-805.1,814.6-805.1,814.6-805.2,814.6z
						 M-782.7,813.6c-0.7,0-1.4-0.6-1.4-1.3c0-0.8,0.6-1.5,1.3-1.5c3.7-0.2,7.4-0.5,11.2-0.7c0.8-0.1,1.5,0.5,1.5,1.3
						c0.1,0.8-0.5,1.5-1.3,1.5C-775.2,813.2-779,813.4-782.7,813.6C-782.7,813.6-782.7,813.6-782.7,813.6z"/>
				</g>
				<g>
					<path class="st1" d="M-822,814.8c-2,0-4,0-6,0c-0.8,0-1.4-0.6-1.4-1.4c0-0.8,0.6-1.4,1.4-1.4c0,0,0,0,0,0c3.9,0,7.7,0,11.6,0
						c0,0,0,0,0,0c0.8,0,1.4,0.6,1.4,1.4c0,0.8-0.6,1.4-1.4,1.4C-818.2,814.8-820.1,814.8-822,814.8z M-760.4,812
						c-0.7,0-1.3-0.6-1.4-1.3c-0.1-0.8,0.5-1.5,1.3-1.5c1.4-0.1,2.8-0.3,4.1-0.4c-0.3-2.4-0.5-4.7-0.7-6.9c-0.1-0.8,0.5-1.5,1.3-1.5
						c0.8-0.1,1.5,0.5,1.5,1.3c0.2,2.7,0.5,5.5,0.8,8.3l0.2,1.4l-1.4,0.1c-1.9,0.2-3.7,0.4-5.6,0.5C-760.3,812-760.3,812-760.4,812z
						 M-756.7,786.4c-0.8,0-1.4-0.6-1.4-1.4c-0.1-2.8-0.1-5.7-0.1-8.4c0-1.9,0-3.7,0.1-5.6c0-0.8,0.6-1.4,1.4-1.4
						c0.8,0,1.4,0.7,1.4,1.4c0,1.8-0.1,3.7-0.1,5.5c0,2.7,0,5.5,0.1,8.3C-755.2,785.8-755.8,786.4-756.7,786.4
						C-756.6,786.4-756.7,786.4-756.7,786.4z M-571.6,505.3c-0.6,0-1.1-0.3-1.3-0.9c-0.3-0.7,0.1-1.6,0.8-1.8
						c1.4-0.6,2.9-1.1,4.3-1.7c0.1-1.6,0.1-3.2,0.2-4.8c0-0.8,0.7-1.4,1.5-1.3c0.8,0,1.4,0.7,1.3,1.5c-0.1,1.9-0.2,3.8-0.3,5.7
						l0,0.9l-0.9,0.3c-1.7,0.7-3.4,1.3-5.1,2C-571.3,505.3-571.5,505.3-571.6,505.3z M-158.7,87.9c-0.7,0-1.4-0.6-1.4-1.3
						c0-0.8,0.6-1.5,1.3-1.5c1.4-0.1,2.9-0.2,4.3-0.2c-0.1-1.3-0.2-2.7-0.4-4c-0.1-0.8,0.5-1.5,1.3-1.5c0.8-0.1,1.5,0.5,1.5,1.3
						c0.2,1.8,0.3,3.7,0.5,5.5l0.1,1.5l-1.5,0.1C-154.8,87.7-156.7,87.8-158.7,87.9C-158.6,87.9-158.6,87.9-158.7,87.9z"/>
				</g>
			</g>
		</g>
		<g class="st0">
			<g>
				<g>
					<path class="st1" d="M-669.9,846.9c-0.6,0-1.2-0.4-1.4-1.1c-0.2-0.8,0.3-1.5,1.1-1.7c3.7-0.8,7.4-1.7,11.1-2.6
						c0.8-0.2,1.5,0.3,1.7,1c0.2,0.8-0.3,1.5-1,1.7c-3.7,0.9-7.4,1.8-11.1,2.6C-669.7,846.8-669.8,846.9-669.9,846.9z M-647.7,841.5
						c-0.6,0-1.2-0.4-1.4-1.1c-0.2-0.8,0.3-1.5,1-1.7c3.6-0.9,7.3-1.9,11-2.9c0.8-0.2,1.5,0.2,1.7,1c0.2,0.8-0.2,1.5-1,1.7
						c-3.7,1-7.4,2-11,2.9C-647.5,841.5-647.6,841.5-647.7,841.5z M-625.7,835.5c-0.6,0-1.2-0.4-1.4-1c-0.2-0.8,0.2-1.5,1-1.8
						c3.7-1.1,7.3-2.2,10.9-3.3c0.7-0.2,1.5,0.2,1.8,0.9c0.2,0.7-0.2,1.5-0.9,1.8c-3.6,1.1-7.3,2.2-11,3.3
						C-625.4,835.4-625.5,835.5-625.7,835.5z M-603.9,828.8c-0.6,0-1.2-0.4-1.3-1c-0.2-0.7,0.2-1.5,0.9-1.8
						c3.6-1.2,7.2-2.4,10.8-3.6c0.7-0.3,1.5,0.1,1.8,0.9c0.3,0.7-0.1,1.5-0.9,1.8c-3.6,1.2-7.2,2.4-10.8,3.6
						C-603.6,828.7-603.7,828.8-603.9,828.8z M-582.3,821.4c-0.6,0-1.1-0.4-1.3-0.9c-0.3-0.7,0.1-1.5,0.9-1.8
						c3.5-1.3,7.1-2.6,10.7-3.9c0.7-0.3,1.6,0.1,1.8,0.8c0.3,0.7-0.1,1.6-0.8,1.8c-3.6,1.3-7.2,2.7-10.7,3.9
						C-581.9,821.4-582.1,821.4-582.3,821.4z M-560.9,813.3c-0.6,0-1.1-0.3-1.3-0.9c-0.3-0.7,0.1-1.6,0.8-1.8
						c3.5-1.4,7.1-2.8,10.6-4.3c0.7-0.3,1.6,0,1.9,0.8c0.3,0.7,0,1.6-0.8,1.8c-3.5,1.4-7.1,2.9-10.6,4.3
						C-560.5,813.3-560.7,813.3-560.9,813.3z M-539.8,804.7c-0.5,0-1.1-0.3-1.3-0.9c-0.3-0.7,0-1.6,0.7-1.9c3.5-1.5,7-3,10.4-4.6
						c0.7-0.3,1.6,0,1.9,0.7s0,1.6-0.7,1.9c-3.5,1.6-7,3.1-10.5,4.6C-539.4,804.6-539.6,804.7-539.8,804.7z M-519,795.3
						c-0.5,0-1-0.3-1.3-0.8c-0.3-0.7,0-1.6,0.7-1.9c3.4-1.6,6.9-3.2,10.3-4.9c0.7-0.3,1.6,0,1.9,0.7c0.3,0.7,0,1.6-0.7,1.9
						c-3.4,1.7-6.9,3.3-10.3,4.9C-518.6,795.3-518.8,795.3-519,795.3z M-498.4,785.4c-0.5,0-1-0.3-1.3-0.8c-0.4-0.7-0.1-1.6,0.6-1.9
						c3.4-1.7,6.8-3.4,10.1-5.2c0.7-0.4,1.5-0.1,1.9,0.6c0.4,0.7,0.1,1.5-0.6,1.9c-3.4,1.8-6.8,3.5-10.2,5.2
						C-498,785.3-498.2,785.4-498.4,785.4z"/>
				</g>
				<g>
					<path class="st1" d="M-478.6,1006.8c0,0-0.1,0-0.1,0c-3.7-0.3-7.5-0.6-11.2-1.1c-0.8-0.1-1.3-0.8-1.2-1.6
						c0.1-0.8,0.8-1.3,1.6-1.2c3.7,0.4,7.4,0.8,11.1,1c0.8,0.1,1.4,0.7,1.3,1.5C-477.3,1006.2-477.9,1006.8-478.6,1006.8z
						 M-500.9,1004.2c-0.1,0-0.2,0-0.2,0c-3.7-0.6-7.4-1.3-11.1-2.1c-0.8-0.2-1.3-0.9-1.1-1.7c0.2-0.8,0.9-1.2,1.7-1.1
						c3.6,0.8,7.3,1.5,10.9,2.1c0.8,0.1,1.3,0.9,1.2,1.6C-499.6,1003.7-500.2,1004.2-500.9,1004.2z M-522.8,999.4
						c-0.1,0-0.2,0-0.4,0c-3.6-1-7.2-2-10.8-3.2c-0.7-0.2-1.2-1-0.9-1.8c0.2-0.7,1-1.2,1.8-0.9c3.5,1.1,7.1,2.2,10.7,3.1
						c0.8,0.2,1.2,1,1,1.7C-521.6,999-522.2,999.4-522.8,999.4z M-544.1,992.6c-0.2,0-0.3,0-0.5-0.1c-3.5-1.3-7-2.7-10.5-4.2
						c-0.7-0.3-1.1-1.1-0.7-1.9c0.3-0.7,1.1-1.1,1.9-0.7c3.4,1.5,6.9,2.8,10.3,4.1c0.7,0.3,1.1,1.1,0.8,1.8
						C-543,992.3-543.6,992.6-544.1,992.6z M-564.7,983.9c-0.2,0-0.4,0-0.6-0.1c-3.4-1.6-6.7-3.4-10-5.1c-0.7-0.4-0.9-1.2-0.6-1.9
						c0.4-0.7,1.2-0.9,1.9-0.6c3.3,1.8,6.6,3.5,9.9,5.1c0.7,0.3,1,1.2,0.7,1.9C-563.7,983.6-564.2,983.9-564.7,983.9z M-584.4,973.2
						c-0.2,0-0.5-0.1-0.7-0.2c-3.2-1.9-6.4-4-9.5-6.1c-0.6-0.4-0.8-1.3-0.4-2c0.4-0.7,1.3-0.8,2-0.4c3.1,2.1,6.2,4.1,9.4,6
						c0.7,0.4,0.9,1.3,0.5,1.9C-583.5,972.9-583.9,973.2-584.4,973.2z M-603,960.7c-0.3,0-0.6-0.1-0.8-0.3c-3-2.2-6-4.6-8.9-6.9
						c-0.6-0.5-0.7-1.4-0.2-2c0.5-0.6,1.4-0.7,2-0.2c2.9,2.3,5.8,4.6,8.8,6.8c0.6,0.5,0.8,1.4,0.3,2
						C-602.2,960.5-602.6,960.7-603,960.7z M-620.4,946.5c-0.3,0-0.7-0.1-0.9-0.4c-2.8-2.5-5.6-5.1-8.2-7.7c-0.6-0.5-0.6-1.4,0-2
						c0.5-0.6,1.4-0.6,2,0c2.6,2.6,5.4,5.1,8.1,7.6c0.6,0.5,0.6,1.4,0.1,2C-619.7,946.4-620,946.5-620.4,946.5z M-636.5,930.8
						c-0.4,0-0.8-0.2-1-0.5c-2.6-2.7-5.1-5.6-7.5-8.4c-0.5-0.6-0.4-1.5,0.2-2c0.6-0.5,1.5-0.4,2,0.2c2.4,2.8,4.9,5.6,7.4,8.3
						c0.5,0.6,0.5,1.5-0.1,2C-635.8,930.7-636.1,930.8-636.5,930.8z M-651,913.8c-0.4,0-0.8-0.2-1.1-0.5c-2.3-3-4.6-6-6.7-9.1
						c-0.5-0.6-0.3-1.5,0.3-2c0.6-0.4,1.5-0.3,2,0.3c2.1,3,4.4,6,6.6,9c0.5,0.6,0.4,1.5-0.3,2C-650.4,913.7-650.7,913.8-651,913.8z
						 M-663.9,895.4c-0.5,0-0.9-0.2-1.2-0.7c-2-3.2-4-6.4-5.9-9.6c-0.4-0.7-0.2-1.5,0.5-1.9c0.7-0.4,1.5-0.2,1.9,0.5
						c1.9,3.2,3.8,6.4,5.8,9.5c0.4,0.7,0.2,1.5-0.4,2C-663.4,895.4-663.7,895.4-663.9,895.4z M-675.1,876c-0.5,0-1-0.3-1.3-0.8
						c-1.7-3.3-3.4-6.7-5-10.1c-0.3-0.7,0-1.6,0.7-1.9c0.7-0.3,1.6,0,1.9,0.7c1.6,3.4,3.2,6.7,4.9,10c0.4,0.7,0.1,1.5-0.6,1.9
						C-674.7,876-674.9,876-675.1,876z"/>
				</g>
				<g>
					<path class="st1" d="M-443.9,1006.8c-0.7,0-1.4-0.6-1.4-1.3c-0.1-0.8,0.5-1.5,1.3-1.5c3.9-0.3,7.9-0.7,11.8-1.2
						c0.8-0.1,1.5,0.5,1.6,1.2c0.1,0.8-0.5,1.5-1.2,1.6c-3.9,0.5-7.9,0.9-11.9,1.2C-443.8,1006.7-443.9,1006.8-443.9,1006.8z
						 M-420.3,1003.8c-0.7,0-1.3-0.5-1.4-1.2c-0.1-0.8,0.4-1.5,1.1-1.6c3.9-0.7,7.8-1.5,11.6-2.4c0.8-0.2,1.5,0.3,1.7,1.1
						c0.2,0.8-0.3,1.5-1.1,1.7c-3.9,0.9-7.8,1.7-11.7,2.4C-420.1,1003.8-420.2,1003.8-420.3,1003.8z M-397.1,998.5
						c-0.6,0-1.2-0.4-1.4-1c-0.2-0.8,0.2-1.5,1-1.8c3.8-1.1,7.6-2.3,11.3-3.5c0.7-0.2,1.5,0.1,1.8,0.9c0.3,0.7-0.1,1.5-0.9,1.8
						c-3.8,1.3-7.6,2.5-11.4,3.6C-396.8,998.4-397,998.5-397.1,998.5z M-374.6,990.8c-0.6,0-1.1-0.3-1.3-0.9
						c-0.3-0.7,0.1-1.6,0.8-1.8c3.6-1.4,7.3-3,10.9-4.6c0.7-0.3,1.6,0,1.9,0.7c0.3,0.7,0,1.6-0.7,1.9c-3.6,1.7-7.3,3.2-11,4.7
						C-374.2,990.8-374.4,990.8-374.6,990.8z M-352.9,981c-0.5,0-1-0.3-1.3-0.8c-0.4-0.7-0.1-1.5,0.6-1.9c3.5-1.8,7-3.7,10.4-5.7
						c0.7-0.4,1.5-0.2,1.9,0.5c0.4,0.7,0.2,1.5-0.5,1.9c-3.4,2-7,3.9-10.5,5.8C-352.5,980.9-352.7,981-352.9,981z M-332.3,969
						c-0.5,0-0.9-0.2-1.2-0.6c-0.4-0.7-0.2-1.5,0.4-2c3.3-2.1,6.6-4.4,9.8-6.7c0.6-0.5,1.5-0.3,2,0.3c0.5,0.6,0.3,1.5-0.3,2
						c-3.2,2.3-6.5,4.6-9.9,6.8C-331.8,968.9-332.1,969-332.3,969z M-313,955.1c-0.4,0-0.8-0.2-1.1-0.5c-0.5-0.6-0.4-1.5,0.2-2
						c3.1-2.5,6.1-5,9.1-7.6c0.6-0.5,1.5-0.5,2,0.1c0.5,0.6,0.5,1.5-0.1,2c-3,2.6-6.1,5.2-9.2,7.7C-312.4,955-312.7,955.1-313,955.1
						z M-295.2,939.3c-0.4,0-0.7-0.1-1-0.4c-0.5-0.6-0.5-1.5,0-2c2.8-2.7,5.6-5.6,8.3-8.5c0.5-0.6,1.4-0.6,2-0.1
						c0.6,0.5,0.6,1.4,0.1,2c-2.7,2.9-5.5,5.8-8.4,8.6C-294.5,939.2-294.8,939.3-295.2,939.3z"/>
				</g>
				<g>
					<path class="st1" d="M-290.9,911.1c-0.2,0-0.4,0-0.5-0.1c-3.5-1.5-7-3-10.4-4.5c-0.7-0.3-1-1.2-0.7-1.9c0.3-0.7,1.2-1,1.9-0.7
						c3.4,1.5,6.9,3,10.4,4.5c0.7,0.3,1.1,1.1,0.8,1.9C-289.8,910.8-290.4,911.1-290.9,911.1z M-311.6,901.9c-0.2,0-0.4,0-0.6-0.1
						c-3.4-1.6-6.8-3.3-10.2-5c-0.7-0.4-1-1.2-0.6-1.9s1.2-1,1.9-0.6c3.3,1.7,6.7,3.4,10.1,5c0.7,0.3,1,1.2,0.7,1.9
						C-310.5,901.6-311,901.9-311.6,901.9z M-331.7,891.7c-0.2,0-0.5-0.1-0.7-0.2c-3.3-1.8-6.7-3.7-9.9-5.5
						c-0.7-0.4-0.9-1.3-0.5-1.9s1.3-0.9,1.9-0.5c3.2,1.8,6.5,3.7,9.9,5.5c0.7,0.4,0.9,1.2,0.6,1.9
						C-330.8,891.4-331.2,891.7-331.7,891.7z M-351.4,880.5c-0.3,0-0.5-0.1-0.7-0.2c-3.2-2-6.5-4-9.6-6c-0.7-0.4-0.9-1.3-0.4-2
						c0.4-0.7,1.3-0.8,2-0.4c3.1,2,6.4,4,9.6,6c0.7,0.4,0.9,1.3,0.5,1.9C-350.4,880.2-350.9,880.5-351.4,880.5z M-370.4,868.3
						c-0.3,0-0.6-0.1-0.8-0.2c-3.1-2.1-6.2-4.3-9.3-6.5c-0.6-0.5-0.8-1.3-0.3-2c0.5-0.6,1.3-0.8,2-0.3c3,2.2,6.2,4.3,9.2,6.4
						c0.6,0.4,0.8,1.3,0.4,2C-369.5,868-369.9,868.3-370.4,868.3z M-388.8,855.1c-0.3,0-0.6-0.1-0.9-0.3c-3-2.3-6-4.6-9-6.9
						c-0.6-0.5-0.7-1.4-0.2-2c0.5-0.6,1.4-0.7,2-0.2c2.9,2.3,5.9,4.6,8.9,6.9c0.6,0.5,0.8,1.4,0.3,2
						C-387.9,854.9-388.4,855.1-388.8,855.1z M-406.5,841c-0.3,0-0.6-0.1-0.9-0.3c-2.9-2.4-5.8-4.9-8.6-7.4c-0.6-0.5-0.6-1.4-0.1-2
						c0.5-0.6,1.4-0.6,2-0.1c2.8,2.5,5.7,4.9,8.6,7.3c0.6,0.5,0.7,1.4,0.2,2C-405.7,840.9-406.1,841-406.5,841z M-423.5,826.1
						c-0.3,0-0.7-0.1-1-0.4c-2.8-2.5-5.5-5.2-8.2-7.8c-0.6-0.5-0.6-1.4,0-2c0.5-0.6,1.4-0.6,2,0c2.7,2.6,5.4,5.2,8.2,7.8
						c0.6,0.5,0.6,1.4,0.1,2C-422.7,825.9-423.1,826.1-423.5,826.1z M-439.7,810.3c-0.4,0-0.7-0.1-1-0.4c-2.6-2.7-5.3-5.5-7.8-8.2
						c-0.5-0.6-0.5-1.5,0.1-2c0.6-0.5,1.5-0.5,2,0.1c2.5,2.7,5.2,5.5,7.8,8.2c0.5,0.6,0.5,1.5,0,2
						C-439,810.2-439.3,810.3-439.7,810.3z M-455.1,793.8c-0.4,0-0.8-0.2-1.1-0.5c-2.5-2.8-5-5.7-7.4-8.6c-0.5-0.6-0.4-1.5,0.2-2
						c0.6-0.5,1.5-0.4,2,0.2c2.4,2.8,4.9,5.7,7.4,8.5c0.5,0.6,0.5,1.5-0.1,2C-454.4,793.7-454.8,793.8-455.1,793.8z"/>
				</g>
				<g>
					<path class="st1" d="M-461.8,1007.4c-1.9,0-3.8,0-5.6-0.1c-0.8,0-1.4-0.7-1.4-1.5c0-0.8,0.7-1.4,1.5-1.4
						c3.8,0.1,7.7,0.1,11.5,0c0.8,0,1.4,0.6,1.5,1.4c0,0.8-0.6,1.4-1.4,1.5C-457.7,1007.4-459.8,1007.4-461.8,1007.4z M-278.9,921.9
						c-0.3,0-0.6-0.1-0.9-0.3c-0.6-0.5-0.7-1.4-0.2-2c0.8-1,1.7-2,2.5-3c-1.2-0.4-2.3-0.9-3.5-1.3c-0.7-0.3-1.1-1.1-0.8-1.8
						c0.3-0.7,1.1-1.1,1.8-0.8c1.8,0.7,3.5,1.3,5.3,2l1.8,0.7l-1.2,1.5c-1.2,1.5-2.5,3.1-3.8,4.6
						C-278.1,921.8-278.5,921.9-278.9,921.9z M-684.6,855.7c-0.6,0-1.1-0.3-1.3-0.9c-0.7-1.7-1.4-3.5-2.1-5.2l-0.6-1.6l1.6-0.3
						c1.9-0.4,3.7-0.8,5.6-1.1c0.8-0.2,1.5,0.3,1.7,1.1s-0.3,1.5-1.1,1.7c-1.3,0.3-2.6,0.5-4,0.8c0.5,1.2,1,2.4,1.4,3.6
						c0.3,0.7-0.1,1.6-0.8,1.8C-684.2,855.6-684.4,855.7-684.6,855.7z M-469.7,776.5c-0.4,0-0.8-0.2-1.1-0.5
						c-0.9-1.2-1.9-2.3-2.8-3.5c-1.3,0.7-2.6,1.4-4,2.2c-0.7,0.4-1.5,0.1-1.9-0.6c-0.4-0.7-0.1-1.5,0.6-1.9c1.7-0.9,3.3-1.8,5-2.7
						l1.1-0.6l0.7,1c1.2,1.5,2.3,3,3.5,4.4c0.5,0.6,0.4,1.5-0.2,2C-469.1,776.4-469.4,776.5-469.7,776.5z"/>
				</g>
			</g>
		</g>
		<g class="st0">
			<g>
				<g>
					<path class="st1" d="M-495.9,537.6c-0.7,0-1.3-0.5-1.4-1.2c-0.1-0.8,0.5-1.5,1.2-1.6c3.8-0.5,7.7-0.8,11.5-1.1
						c0.8,0,1.5,0.5,1.5,1.3c0.1,0.8-0.5,1.5-1.3,1.5c-3.7,0.3-7.5,0.7-11.3,1.1C-495.7,537.6-495.8,537.6-495.9,537.6z"/>
				</g>
				<g>
					<path class="st1" d="M-467.9,695.7c-0.5,0-1-0.3-1.3-0.8c-1.7-3.3-3.4-6.7-5.1-10.1c-0.3-0.7-0.1-1.6,0.6-1.9
						c0.7-0.3,1.6-0.1,1.9,0.6c1.6,3.4,3.3,6.7,5.1,10c0.4,0.7,0.1,1.5-0.6,1.9C-467.5,695.7-467.7,695.7-467.9,695.7z
						 M-477.8,675.5c-0.5,0-1.1-0.3-1.3-0.8c-1.6-3.4-3.1-6.9-4.5-10.3c-0.3-0.7,0-1.6,0.8-1.9c0.7-0.3,1.6,0,1.9,0.8
						c1.4,3.4,3,6.9,4.5,10.3c0.3,0.7,0,1.6-0.7,1.9C-477.4,675.5-477.6,675.5-477.8,675.5z M-486.6,654.8c-0.6,0-1.1-0.3-1.3-0.9
						c-1.4-3.5-2.7-7.1-4-10.6c-0.3-0.7,0.1-1.5,0.9-1.8c0.7-0.3,1.5,0.1,1.8,0.9c1.2,3.5,2.6,7,3.9,10.5c0.3,0.7-0.1,1.6-0.8,1.8
						C-486.2,654.8-486.4,654.8-486.6,654.8z M-494.2,633.7c-0.6,0-1.2-0.4-1.3-1c-1.2-3.6-2.3-7.2-3.4-10.8c-0.2-0.8,0.2-1.5,1-1.8
						c0.7-0.2,1.5,0.2,1.8,1c1,3.5,2.2,7.1,3.3,10.7c0.2,0.7-0.2,1.5-0.9,1.8C-493.9,633.6-494,633.7-494.2,633.7z M-500.5,612.1
						c-0.6,0-1.2-0.4-1.4-1.1c-1-3.6-1.9-7.3-2.7-10.9c-0.2-0.8,0.3-1.5,1.1-1.7c0.8-0.2,1.5,0.3,1.7,1.1c0.9,3.6,1.8,7.3,2.7,10.9
						c0.2,0.8-0.2,1.5-1,1.7C-500.3,612.1-500.4,612.1-500.5,612.1z M-505.7,590.2c-0.7,0-1.2-0.5-1.4-1.1
						c-0.8-3.7-1.5-7.4-2.1-11.1c-0.1-0.8,0.4-1.5,1.1-1.6c0.8-0.1,1.5,0.4,1.6,1.1c0.7,3.7,1.4,7.4,2.1,11c0.2,0.8-0.3,1.5-1.1,1.7
						C-505.5,590.2-505.6,590.2-505.7,590.2z M-509.7,568.1c-0.7,0-1.3-0.5-1.4-1.2c-0.6-3.7-1.1-7.5-1.5-11.2
						c-0.1-0.8,0.5-1.5,1.2-1.6c0.8-0.1,1.5,0.5,1.6,1.2c0.4,3.7,1,7.4,1.5,11.1c0.1,0.8-0.4,1.5-1.2,1.6
						C-509.5,568.1-509.6,568.1-509.7,568.1z"/>
				</g>
				<g>
					<path class="st1" d="M-445.1,700.5c-0.4,0-0.9-0.2-1.2-0.6c-0.4-0.6-0.3-1.5,0.4-2c3.2-2.2,6.5-4.5,9.7-6.8
						c0.6-0.5,1.5-0.3,2,0.3c0.5,0.6,0.3,1.5-0.3,2c-3.2,2.3-6.5,4.6-9.7,6.9C-444.5,700.4-444.8,700.5-445.1,700.5z M-425.8,686.6
						c-0.4,0-0.9-0.2-1.1-0.6c-0.5-0.6-0.3-1.5,0.3-2c3.2-2.3,6.3-4.7,9.4-7.1c0.6-0.5,1.5-0.4,2,0.3c0.5,0.6,0.4,1.5-0.3,2
						c-3.1,2.4-6.3,4.8-9.5,7.2C-425.2,686.5-425.5,686.6-425.8,686.6z M-407,672.2c-0.4,0-0.8-0.2-1.1-0.5c-0.5-0.6-0.4-1.5,0.2-2
						c3.1-2.4,6.2-5,9.2-7.4c0.6-0.5,1.5-0.4,2,0.2c0.5,0.6,0.4,1.5-0.2,2c-3,2.5-6.2,5-9.2,7.5C-406.4,672.1-406.7,672.2-407,672.2
						z M-388.6,657.1c-0.4,0-0.8-0.2-1.1-0.5c-0.5-0.6-0.4-1.5,0.2-2c3-2.5,6-5.1,9-7.7c0.6-0.5,1.5-0.5,2,0.1
						c0.5,0.6,0.5,1.5-0.1,2c-3,2.6-6,5.2-9,7.8C-388,657-388.3,657.1-388.6,657.1z M-370.8,641.4c-0.4,0-0.8-0.2-1.1-0.5
						c-0.5-0.6-0.5-1.5,0.1-2c2.9-2.6,5.8-5.3,8.7-8c0.6-0.5,1.5-0.5,2,0.1c0.5,0.6,0.5,1.5-0.1,2c-2.9,2.7-5.8,5.4-8.7,8.1
						C-370.1,641.3-370.5,641.4-370.8,641.4z M-353.5,625.2c-0.4,0-0.7-0.1-1-0.4c-0.5-0.6-0.5-1.5,0-2c2.8-2.7,5.7-5.5,8.4-8.3
						c0.6-0.6,1.5-0.6,2,0c0.6,0.6,0.6,1.5,0,2c-2.8,2.8-5.6,5.6-8.5,8.3C-352.8,625.1-353.1,625.2-353.5,625.2z M-336.7,608.5
						c-0.4,0-0.7-0.1-1-0.4c-0.6-0.5-0.6-1.4,0-2c2.7-2.8,5.5-5.7,8.2-8.6c0.5-0.6,1.4-0.6,2-0.1c0.6,0.5,0.6,1.4,0.1,2
						c-2.7,2.9-5.4,5.8-8.2,8.6C-335.9,608.3-336.3,608.5-336.7,608.5z"/>
				</g>
				<g>
					<path class="st1" d="M-330.7,576.7c-0.3,0-0.5-0.1-0.8-0.2c-3.2-2.1-6.5-4.1-9.8-6.1c-0.7-0.4-0.9-1.3-0.5-1.9
						c0.4-0.7,1.3-0.9,1.9-0.5c3.3,2,6.6,4,9.9,6.2c0.7,0.4,0.8,1.3,0.4,2C-329.8,576.5-330.2,576.7-330.7,576.7z M-350.6,565
						c-0.2,0-0.5-0.1-0.7-0.2c-3.4-1.8-6.8-3.5-10.3-5.2c-0.7-0.3-1-1.2-0.7-1.9s1.2-1,1.9-0.7c3.5,1.6,7,3.4,10.4,5.2
						c0.7,0.4,1,1.2,0.6,1.9C-349.6,564.7-350.1,565-350.6,565z M-371.5,555c-0.2,0-0.4,0-0.5-0.1c-3.5-1.5-7.1-2.9-10.7-4.2
						c-0.7-0.3-1.1-1.1-0.8-1.8c0.3-0.7,1.1-1.1,1.8-0.8c3.6,1.3,7.3,2.8,10.8,4.2c0.7,0.3,1.1,1.1,0.8,1.9
						C-370.4,554.7-370.9,555-371.5,555z M-393.2,547.1c-0.1,0-0.3,0-0.4-0.1c-3.6-1.1-7.4-2.2-11.1-3.2c-0.8-0.2-1.2-1-1-1.7
						c0.2-0.8,1-1.2,1.7-1c3.7,1,7.5,2.1,11.2,3.2c0.7,0.2,1.2,1,0.9,1.8C-392,546.7-392.6,547.1-393.2,547.1z M-415.6,541.2
						c-0.1,0-0.2,0-0.3,0c-3.7-0.8-7.5-1.5-11.3-2.1c-0.8-0.1-1.3-0.9-1.2-1.6c0.1-0.8,0.9-1.3,1.6-1.2c3.8,0.6,7.7,1.4,11.4,2.2
						c0.8,0.2,1.3,0.9,1.1,1.7C-414.3,540.8-414.9,541.2-415.6,541.2z M-438.4,537.5c-0.1,0-0.1,0-0.2,0c-3.8-0.4-7.6-0.8-11.4-1.1
						c-0.8-0.1-1.4-0.7-1.3-1.5c0.1-0.8,0.7-1.4,1.5-1.3c3.9,0.3,7.8,0.6,11.6,1.1c0.8,0.1,1.3,0.8,1.2,1.6
						C-437,536.9-437.7,537.5-438.4,537.5z"/>
				</g>
				<g>
					<path class="st1" d="M-460.3,711.1l-0.8-1.3c-0.9-1.6-1.9-3.3-2.8-4.9c-0.4-0.7-0.1-1.5,0.5-1.9c0.7-0.4,1.5-0.1,1.9,0.5
						c0.7,1.2,1.3,2.4,2,3.6c1.2-0.8,2.5-1.6,3.7-2.5c0.6-0.4,1.5-0.3,2,0.4c0.4,0.6,0.3,1.5-0.4,2c-1.6,1.1-3.3,2.2-4.9,3.3
						L-460.3,711.1z M-320.4,591.1c-0.3,0-0.7-0.1-1-0.4c-0.6-0.5-0.6-1.4-0.1-2c1-1.1,2-2.2,2.9-3.3c-1.1-0.8-2.3-1.7-3.4-2.5
						c-0.6-0.5-0.8-1.3-0.3-2c0.5-0.6,1.3-0.8,2-0.3c1.6,1.1,3.1,2.3,4.7,3.5l1.2,0.9l-1,1.1c-1.3,1.5-2.6,3-4,4.4
						C-319.7,591-320.1,591.1-320.4,591.1z M-512.4,545.8c-0.7,0-1.3-0.6-1.4-1.3c-0.2-1.9-0.3-3.7-0.5-5.6l-0.1-1.3l1.3-0.2
						c1.9-0.3,3.8-0.7,5.7-1c0.8-0.1,1.5,0.4,1.6,1.2c0.1,0.8-0.4,1.5-1.2,1.6c-1.5,0.2-2.9,0.5-4.4,0.8c0.1,1.4,0.2,2.9,0.4,4.3
						c0.1,0.8-0.5,1.5-1.3,1.5C-512.3,545.8-512.3,545.8-512.4,545.8z M-473,535.9c-0.8,0-1.4-0.6-1.4-1.4c0-0.8,0.6-1.4,1.4-1.5
						c3.8-0.1,7.7-0.1,11.6,0c0.8,0,1.4,0.7,1.4,1.4c0,0.8-0.6,1.4-1.4,1.4c0,0,0,0,0,0C-465.3,535.8-469.3,535.8-473,535.9
						C-473,535.9-473,535.9-473,535.9z"/>
				</g>
			</g>
		</g>
		<g class="st0">
			<g>
				<g>
					<path class="st1" d="M-797.7,860.3c-0.8,0-1.4-0.6-1.4-1.4c0-0.8,0.6-1.4,1.4-1.4c3.6-0.1,7.3-0.2,10.9-0.3
						c0.8,0,1.4,0.6,1.5,1.4c0,0.8-0.6,1.4-1.4,1.5C-790.4,860.1-794,860.2-797.7,860.3C-797.7,860.3-797.7,860.3-797.7,860.3z
						 M-775.8,859.5c-0.8,0-1.4-0.6-1.4-1.3c0-0.8,0.6-1.4,1.3-1.5c3.6-0.2,7.2-0.4,10.9-0.6c0.8-0.1,1.5,0.5,1.5,1.3
						s-0.5,1.5-1.3,1.5C-768.5,859.1-772.2,859.3-775.8,859.5C-775.8,859.5-775.8,859.5-775.8,859.5z M-754,858.1
						c-0.7,0-1.4-0.6-1.4-1.3c-0.1-0.8,0.5-1.5,1.3-1.5c3.6-0.3,7.2-0.6,10.9-0.9c0.8-0.1,1.5,0.5,1.5,1.3c0.1,0.8-0.5,1.5-1.3,1.5
						c-3.7,0.3-7.3,0.6-10.9,0.9C-753.9,858.1-754,858.1-754,858.1z"/>
				</g>
				<g>
					<path class="st1" d="M-829.7,860.3C-829.7,860.3-829.7,860.3-829.7,860.3c-3.5-0.1-7-0.2-10.4-0.3c-0.8,0-1.4-0.7-1.4-1.5
						c0-0.8,0.7-1.4,1.5-1.4c3.5,0.1,7,0.2,10.4,0.3c0.8,0,1.4,0.7,1.4,1.4C-828.3,859.7-828.9,860.3-829.7,860.3z M-850.5,859.6
						C-850.5,859.6-850.5,859.6-850.5,859.6c-3.5-0.2-7-0.4-10.5-0.6c-0.8,0-1.4-0.7-1.3-1.5c0-0.8,0.7-1.4,1.5-1.3
						c3.4,0.2,6.9,0.4,10.4,0.6c0.8,0,1.4,0.7,1.3,1.5C-849.1,859-849.7,859.6-850.5,859.6z M-871.3,858.3c0,0-0.1,0-0.1,0
						c-3.5-0.3-6.9-0.5-10.4-0.9c-0.8-0.1-1.4-0.8-1.3-1.5c0.1-0.8,0.7-1.4,1.5-1.3c3.4,0.3,6.9,0.6,10.3,0.8
						c0.8,0.1,1.4,0.7,1.3,1.5C-869.9,857.7-870.5,858.3-871.3,858.3z M-892,856.5c0,0-0.1,0-0.1,0c-3.5-0.3-6.9-0.7-10.4-1.1
						c-0.8-0.1-1.3-0.8-1.2-1.6c0.1-0.8,0.8-1.3,1.6-1.2c3.4,0.4,6.9,0.8,10.3,1.1c0.8,0.1,1.3,0.8,1.3,1.6
						C-890.6,855.9-891.3,856.5-892,856.5z"/>
				</g>
				<g>
					<path class="st1" d="M-632.3,996.3c-0.3,0-0.7-0.1-0.9-0.3c-3-2.6-5.9-5.3-8.8-7.9c-0.6-0.5-0.6-1.4-0.1-2
						c0.5-0.6,1.4-0.6,2-0.1c2.9,2.7,5.8,5.3,8.8,7.9c0.6,0.5,0.7,1.4,0.1,2C-631.5,996.2-631.9,996.3-632.3,996.3z M-649.6,980.2
						c-0.4,0-0.7-0.1-1-0.4c-2.8-2.8-5.5-5.7-8.2-8.6c-0.5-0.6-0.5-1.5,0.1-2c0.6-0.5,1.5-0.5,2,0.1c2.7,2.9,5.4,5.7,8.2,8.5
						c0.6,0.6,0.6,1.5,0,2C-648.9,980.1-649.3,980.2-649.6,980.2z M-665.7,962.8c-0.4,0-0.8-0.2-1.1-0.5c-2.6-3-5.1-6.1-7.6-9.1
						c-0.5-0.6-0.4-1.5,0.2-2c0.6-0.5,1.5-0.4,2,0.2c2.4,3.1,5,6.1,7.5,9.1c0.5,0.6,0.4,1.5-0.2,2
						C-665,962.7-665.4,962.8-665.7,962.8z M-680.4,944.3c-0.4,0-0.9-0.2-1.1-0.6c-2.3-3.2-4.7-6.4-6.9-9.7c-0.4-0.6-0.3-1.5,0.4-2
						c0.6-0.4,1.5-0.3,2,0.4c2.2,3.2,4.5,6.4,6.8,9.6c0.5,0.6,0.3,1.5-0.3,2C-679.9,944.3-680.2,944.3-680.4,944.3z M-693.8,924.8
						c-0.5,0-0.9-0.2-1.2-0.7c-2.1-3.3-4.2-6.7-6.2-10.2c-0.4-0.7-0.2-1.5,0.5-1.9c0.7-0.4,1.5-0.2,1.9,0.5c2,3.4,4,6.8,6.1,10.1
						c0.4,0.7,0.2,1.5-0.4,2C-693.3,924.8-693.6,924.8-693.8,924.8z M-705.7,904.4c-0.5,0-1-0.3-1.3-0.8c-1.9-3.5-3.7-7-5.4-10.6
						c-0.3-0.7-0.1-1.6,0.7-1.9c0.7-0.3,1.6-0.1,1.9,0.7c1.7,3.5,3.5,7,5.4,10.5c0.4,0.7,0.1,1.5-0.6,1.9
						C-705.3,904.3-705.5,904.4-705.7,904.4z M-716.1,883.1c-0.5,0-1.1-0.3-1.3-0.8c-1.6-3.6-3.1-7.3-4.6-11
						c-0.3-0.7,0.1-1.6,0.8-1.8c0.7-0.3,1.6,0.1,1.8,0.8c1.4,3.6,3,7.3,4.6,10.9c0.3,0.7,0,1.6-0.7,1.9
						C-715.7,883.1-715.9,883.1-716.1,883.1z"/>
				</g>
				<g>
					<path class="st1" d="M-724.8,861.1c-0.6,0-1.1-0.4-1.3-0.9c-0.5-1.5-1.1-3-1.6-4.5c-1.4,0.2-2.9,0.3-4.3,0.5
						c-0.8,0.1-1.5-0.5-1.6-1.3c-0.1-0.8,0.5-1.5,1.3-1.6c1.8-0.2,3.6-0.4,5.4-0.6l1.1-0.1l0.4,1.1c0.6,1.9,1.3,3.7,1.9,5.6
						c0.3,0.7-0.1,1.5-0.9,1.8C-724.5,861.1-724.7,861.1-724.8,861.1z M-814.1,860.5c-1.7,0-3.5,0-5.2,0c-0.8,0-1.4-0.6-1.4-1.4
						s0.7-1.4,1.4-1.4c3.5,0,7.1,0,10.7,0c0,0,0,0,0,0c0.8,0,1.4,0.6,1.4,1.4c0,0.8-0.6,1.4-1.4,1.4
						C-810.4,860.5-812.3,860.5-814.1,860.5z"/>
				</g>
			</g>
		</g>
		<g class="st0">
			<g>
				<g>
					<path class="st1" d="M-681,800.5c-0.7,0-1.2-0.5-1.4-1.1c-0.2-0.8,0.3-1.5,1.1-1.7c3.8-0.8,7.6-1.7,11.5-2.6
						c0.8-0.2,1.5,0.3,1.7,1.1c0.2,0.8-0.3,1.5-1.1,1.7c-3.8,0.9-7.7,1.8-11.5,2.6C-680.8,800.5-680.9,800.5-681,800.5z M-658,795.1
						c-0.6,0-1.2-0.4-1.4-1.1c-0.2-0.8,0.3-1.5,1-1.7c3.8-1,7.6-2,11.4-3c0.8-0.2,1.5,0.2,1.7,1c0.2,0.8-0.2,1.5-1,1.7
						c-3.8,1-7.6,2-11.4,3C-657.8,795.1-657.9,795.1-658,795.1z M-635.3,788.9c-0.6,0-1.2-0.4-1.4-1c-0.2-0.8,0.2-1.5,1-1.8
						c3.7-1.1,7.5-2.2,11.3-3.3c0.7-0.2,1.5,0.2,1.8,0.9c0.2,0.7-0.2,1.5-0.9,1.8c-3.8,1.1-7.6,2.3-11.3,3.4
						C-635,788.9-635.2,788.9-635.3,788.9z M-612.8,782.1c-0.6,0-1.2-0.4-1.3-1c-0.2-0.7,0.2-1.5,0.9-1.8c3.7-1.2,7.5-2.5,11.2-3.7
						c0.7-0.3,1.5,0.1,1.8,0.9c0.3,0.7-0.1,1.5-0.9,1.8c-3.7,1.3-7.5,2.5-11.2,3.7C-612.5,782-612.6,782.1-612.8,782.1z
						 M-590.5,774.4c-0.6,0-1.1-0.4-1.3-0.9c-0.3-0.7,0.1-1.5,0.9-1.8c3.7-1.3,7.4-2.7,11-4.1c0.7-0.3,1.6,0.1,1.8,0.8
						c0.3,0.7-0.1,1.5-0.8,1.8c-3.6,1.4-7.4,2.8-11.1,4.1C-590.2,774.4-590.3,774.4-590.5,774.4z M-568.5,766.1
						c-0.6,0-1.1-0.3-1.3-0.9c-0.3-0.7,0.1-1.6,0.8-1.8c3.6-1.4,7.3-2.9,10.9-4.4c0.7-0.3,1.6,0,1.9,0.8s0,1.6-0.8,1.9
						c-3.6,1.5-7.3,3-10.9,4.4C-568.1,766.1-568.3,766.1-568.5,766.1z M-546.7,757c-0.5,0-1.1-0.3-1.3-0.9c-0.3-0.7,0-1.6,0.7-1.9
						c3.5-1.5,7.2-3.2,10.7-4.8c0.7-0.3,1.6,0,1.9,0.7c0.3,0.7,0,1.6-0.7,1.9c-3.6,1.6-7.2,3.3-10.8,4.8
						C-546.3,757-546.5,757-546.7,757z M-525.3,747.3c-0.5,0-1-0.3-1.3-0.8c-0.3-0.7,0-1.6,0.7-1.9c3.5-1.7,7.1-3.4,10.6-5.1
						c0.7-0.3,1.6-0.1,1.9,0.6c0.3,0.7,0.1,1.6-0.6,1.9c-3.5,1.7-7.1,3.5-10.6,5.2C-524.9,747.2-525.1,747.3-525.3,747.3z"/>
				</g>
				<g>
					<path class="st1" d="M-507.7,718.6c-0.5,0-1-0.3-1.2-0.7c-1.9-3.5-3.7-7-5.5-10.6c-0.4-0.7-0.1-1.6,0.6-1.9
						c0.7-0.4,1.6-0.1,1.9,0.6c1.8,3.5,3.6,7,5.5,10.5c0.4,0.7,0.1,1.5-0.6,1.9C-507.2,718.5-507.5,718.6-507.7,718.6z
						 M-518.4,697.4c-0.5,0-1-0.3-1.3-0.8c-1.7-3.6-3.4-7.2-5-10.8c-0.3-0.7,0-1.6,0.7-1.9c0.7-0.3,1.6,0,1.9,0.7
						c1.6,3.6,3.2,7.2,4.9,10.8c0.3,0.7,0,1.6-0.7,1.9C-518,697.4-518.2,697.4-518.4,697.4z M-528,675.7c-0.6,0-1.1-0.3-1.3-0.9
						c-1.5-3.7-3-7.4-4.4-11.1c-0.3-0.7,0.1-1.6,0.8-1.8c0.7-0.3,1.6,0.1,1.8,0.8c1.4,3.7,2.9,7.4,4.4,11c0.3,0.7,0,1.6-0.8,1.9
						C-527.6,675.7-527.8,675.7-528,675.7z M-536.5,653.5c-0.6,0-1.1-0.4-1.3-0.9c-1.3-3.7-2.6-7.5-3.8-11.3
						c-0.2-0.7,0.2-1.5,0.9-1.8c0.7-0.2,1.5,0.2,1.8,0.9c1.2,3.7,2.5,7.5,3.8,11.2c0.3,0.7-0.1,1.5-0.9,1.8
						C-536.2,653.5-536.3,653.5-536.5,653.5z M-543.8,631c-0.6,0-1.2-0.4-1.4-1c-1.1-3.8-2.2-7.6-3.2-11.5c-0.2-0.8,0.2-1.5,1-1.7
						c0.8-0.2,1.5,0.2,1.7,1c1,3.8,2.1,7.6,3.2,11.4c0.2,0.8-0.2,1.5-1,1.8C-543.5,630.9-543.6,631-543.8,631z M-549.9,608
						c-0.6,0-1.2-0.4-1.4-1.1c-0.9-3.8-1.8-7.8-2.6-11.6c-0.2-0.8,0.3-1.5,1.1-1.7c0.8-0.2,1.5,0.3,1.7,1.1
						c0.8,3.8,1.7,7.7,2.6,11.5c0.2,0.8-0.3,1.5-1.1,1.7C-549.7,608-549.8,608-549.9,608z M-554.8,584.8c-0.7,0-1.3-0.5-1.4-1.2
						c-0.7-3.9-1.4-7.8-2-11.7c-0.1-0.8,0.4-1.5,1.2-1.6c0.8-0.1,1.5,0.4,1.6,1.2c0.6,3.9,1.3,7.8,2,11.7c0.1,0.8-0.4,1.5-1.1,1.6
						C-554.6,584.8-554.7,584.8-554.8,584.8z"/>
				</g>
				<g>
					<path class="st1" d="M-699,760.7c0,0-0.1,0-0.1,0c-0.8-0.1-1.4-0.7-1.3-1.5c0.3-3.9,0.6-7.7,1.1-11.6c0.1-0.8,0.8-1.3,1.6-1.2
						c0.8,0.1,1.3,0.8,1.2,1.6c-0.4,3.8-0.8,7.6-1.1,11.4C-697.7,760.1-698.3,760.7-699,760.7z M-696.3,737.7c-0.1,0-0.2,0-0.2,0
						c-0.8-0.1-1.3-0.9-1.2-1.6c0.6-3.8,1.4-7.6,2.2-11.4c0.2-0.8,0.9-1.2,1.7-1.1c0.8,0.2,1.3,0.9,1.1,1.7
						c-0.8,3.7-1.5,7.5-2.2,11.3C-695.1,737.2-695.7,737.7-696.3,737.7z M-691.5,715.1c-0.1,0-0.2,0-0.4,0c-0.8-0.2-1.2-1-1-1.7
						c1-3.7,2.1-7.5,3.2-11.2c0.2-0.7,1-1.2,1.8-0.9c0.7,0.2,1.2,1,0.9,1.8c-1.2,3.6-2.2,7.3-3.2,11
						C-690.3,714.7-690.9,715.1-691.5,715.1z M-684.5,693.1c-0.2,0-0.3,0-0.5-0.1c-0.7-0.3-1.1-1.1-0.8-1.8
						c1.3-3.6,2.8-7.2,4.3-10.8c0.3-0.7,1.1-1.1,1.9-0.8c0.7,0.3,1.1,1.1,0.8,1.9c-1.5,3.5-2.9,7.1-4.2,10.7
						C-683.4,692.8-683.9,693.1-684.5,693.1z M-675.5,671.9c-0.2,0-0.4,0-0.6-0.1c-0.7-0.3-1-1.2-0.7-1.9c1.7-3.5,3.5-7,5.3-10.4
						c0.4-0.7,1.2-0.9,1.9-0.6c0.7,0.4,0.9,1.2,0.6,1.9c-1.8,3.4-3.6,6.8-5.2,10.2C-674.4,671.6-674.9,671.9-675.5,671.9z
						 M-664.5,651.5c-0.2,0-0.5-0.1-0.7-0.2c-0.7-0.4-0.9-1.3-0.5-1.9c2-3.3,4.1-6.6,6.2-9.8c0.4-0.6,1.3-0.8,2-0.4
						c0.7,0.4,0.8,1.3,0.4,2c-2.1,3.2-4.2,6.4-6.2,9.7C-663.5,651.3-664,651.5-664.5,651.5z M-651.6,632.3c-0.3,0-0.6-0.1-0.8-0.3
						c-0.6-0.5-0.8-1.4-0.3-2c2.3-3.1,4.7-6.2,7.1-9.2c0.5-0.6,1.4-0.7,2-0.2c0.6,0.5,0.7,1.4,0.2,2c-2.4,3-4.8,6-7,9.1
						C-650.8,632.1-651.2,632.3-651.6,632.3z M-637.1,614.4c-0.3,0-0.7-0.1-0.9-0.4c-0.6-0.5-0.6-1.4-0.1-2c2.6-2.9,5.2-5.7,7.9-8.5
						c0.5-0.6,1.4-0.6,2,0c0.6,0.5,0.6,1.4,0,2c-2.7,2.7-5.3,5.6-7.8,8.4C-636.3,614.2-636.7,614.4-637.1,614.4z M-620.9,597.9
						c-0.4,0-0.8-0.2-1-0.5c-0.5-0.6-0.5-1.5,0.1-2c2.8-2.6,5.7-5.2,8.7-7.7c0.6-0.5,1.5-0.4,2,0.2c0.5,0.6,0.4,1.5-0.2,2
						c-2.9,2.5-5.8,5.1-8.6,7.6C-620.2,597.7-620.5,597.9-620.9,597.9z M-603.3,582.9c-0.4,0-0.8-0.2-1.1-0.5
						c-0.5-0.6-0.4-1.5,0.3-2c3.1-2.4,6.2-4.7,9.4-6.9c0.6-0.5,1.5-0.3,2,0.3c0.5,0.6,0.3,1.5-0.3,2c-3.1,2.2-6.2,4.5-9.3,6.8
						C-602.7,582.8-603,582.9-603.3,582.9z M-584.4,569.6c-0.5,0-0.9-0.2-1.2-0.7c-0.4-0.7-0.2-1.5,0.4-2c3.2-2.1,6.6-4.1,10-6
						c0.7-0.4,1.5-0.2,1.9,0.5c0.4,0.7,0.2,1.5-0.5,1.9c-3.3,1.9-6.6,3.9-9.8,6C-583.8,569.5-584.1,569.6-584.4,569.6z"/>
				</g>
				<g>
					<path class="st1" d="M-699.5,804.3l-0.2-1.5c-0.2-2.2-0.4-4.4-0.6-6.5c-0.1-0.8,0.5-1.5,1.3-1.5c0.8-0.1,1.5,0.5,1.5,1.3
						c0.1,1.6,0.3,3.2,0.4,4.9c1.4-0.3,2.8-0.6,4.2-0.8c0.8-0.2,1.5,0.3,1.7,1.1s-0.3,1.5-1.1,1.7c-1.9,0.4-3.9,0.8-5.8,1.1
						L-699.5,804.3z M-699.6,784.6c-0.8,0-1.4-0.6-1.4-1.4c-0.1-2.2-0.1-4.4-0.1-6.5c0-1.9,0-3.9,0.1-5.8c0-0.8,0.7-1.4,1.5-1.4
						c0.8,0,1.4,0.7,1.4,1.5c0,1.9-0.1,3.8-0.1,5.7c0,2.1,0,4.3,0.1,6.5C-698.1,783.9-698.8,784.6-699.6,784.6
						C-699.5,784.6-699.6,784.6-699.6,784.6z M-504.2,736.8c-0.5,0-1-0.3-1.3-0.8c-0.4-0.7-0.1-1.6,0.6-1.9c1.3-0.7,2.6-1.3,3.9-2
						c-0.8-1.3-1.5-2.6-2.2-3.9c-0.4-0.7-0.2-1.5,0.5-1.9c0.7-0.4,1.5-0.2,1.9,0.5c1,1.7,2,3.4,3,5.1l0.8,1.3l-1.3,0.7
						c-1.7,0.9-3.5,1.8-5.2,2.7C-503.7,736.8-504,736.8-504.2,736.8z M-558.4,561.4c-0.7,0-1.3-0.5-1.4-1.2
						c-0.2-1.3-0.3-2.6-0.5-3.9c-1.1,0.5-2.2,1.1-3.3,1.7c-0.7,0.4-1.6,0.1-1.9-0.6c-0.4-0.7-0.1-1.6,0.6-1.9
						c1.7-0.9,3.5-1.8,5.2-2.6l1.8-0.9l0.2,2c0.2,2,0.5,3.9,0.7,5.9c0.1,0.8-0.4,1.5-1.2,1.6C-558.3,561.4-558.4,561.4-558.4,561.4z
						"/>
				</g>
			</g>
		</g>
		<g class="st0">
			<g>
				<g>
					<path class="st1" d="M-243.7,858.5c-0.2,0-0.3,0-0.5-0.1c-0.7-0.3-1.1-1.1-0.8-1.8c1.2-3.2,2.4-6.5,3.4-9.7
						c0.2-0.7,1-1.1,1.8-0.9c0.7,0.2,1.1,1,0.9,1.8c-1.1,3.3-2.2,6.6-3.5,9.8C-242.6,858.2-243.1,858.5-243.7,858.5z M-237.2,838.9
						c-0.1,0-0.3,0-0.4-0.1c-0.8-0.2-1.2-1-1-1.8c0.9-3.3,1.8-6.6,2.6-10c0.2-0.8,0.9-1.2,1.7-1.1c0.8,0.2,1.2,0.9,1.1,1.7
						c-0.8,3.3-1.7,6.7-2.6,10.1C-236.1,838.5-236.6,838.9-237.2,838.9z M-232.5,818.8c-0.1,0-0.2,0-0.3,0c-0.8-0.1-1.3-0.9-1.1-1.7
						c0.6-3.4,1.2-6.8,1.7-10.1c0.1-0.8,0.8-1.3,1.6-1.2c0.8,0.1,1.3,0.8,1.2,1.6c-0.5,3.4-1.1,6.9-1.8,10.3
						C-231.2,818.3-231.8,818.8-232.5,818.8z M-229.4,798.3c-0.1,0-0.1,0-0.2,0c-0.8-0.1-1.3-0.8-1.3-1.6c0.4-3.4,0.7-6.8,0.9-10.2
						c0-0.8,0.7-1.4,1.5-1.3c0.8,0,1.4,0.7,1.3,1.5c-0.2,3.4-0.5,6.9-0.9,10.4C-228.1,797.8-228.7,798.3-229.4,798.3z"/>
				</g>
				<g>
					<path class="st1" d="M-228.7,754.9c-0.7,0-1.4-0.6-1.4-1.3c-0.3-3.9-0.7-7.8-1.1-11.6c-0.1-0.8,0.5-1.5,1.2-1.6
						c0.8-0.1,1.5,0.5,1.6,1.2c0.5,3.9,0.8,7.9,1.1,11.8c0.1,0.8-0.5,1.5-1.3,1.5C-228.6,754.9-228.6,754.9-228.7,754.9z
						 M-231.5,731.5c-0.7,0-1.3-0.5-1.4-1.2c-0.7-3.8-1.4-7.7-2.2-11.5c-0.2-0.8,0.3-1.5,1.1-1.7c0.8-0.2,1.5,0.3,1.7,1.1
						c0.8,3.8,1.6,7.7,2.3,11.6c0.1,0.8-0.4,1.5-1.2,1.6C-231.3,731.5-231.4,731.5-231.5,731.5z M-236.5,708.6c-0.6,0-1.2-0.4-1.4-1
						c-1-3.7-2.1-7.5-3.3-11.2c-0.2-0.7,0.2-1.5,0.9-1.8c0.7-0.2,1.5,0.2,1.8,0.9c1.2,3.7,2.3,7.5,3.4,11.3c0.2,0.8-0.2,1.5-1,1.7
						C-236.3,708.5-236.4,708.6-236.5,708.6z M-243.8,686.2c-0.6,0-1.1-0.3-1.3-0.9c-1.4-3.6-2.8-7.3-4.4-10.8
						c-0.3-0.7,0-1.6,0.7-1.9c0.7-0.3,1.6,0,1.9,0.7c1.6,3.6,3.1,7.3,4.4,11c0.3,0.7-0.1,1.5-0.8,1.8
						C-243.4,686.1-243.6,686.2-243.8,686.2z M-253.1,664.6c-0.5,0-1-0.3-1.3-0.8c-1.7-3.5-3.5-7-5.4-10.4c-0.4-0.7-0.1-1.5,0.6-1.9
						c0.7-0.4,1.5-0.1,1.9,0.6c1.9,3.4,3.7,7,5.5,10.5c0.3,0.7,0.1,1.6-0.6,1.9C-252.7,664.6-252.9,664.6-253.1,664.6z M-264.5,644
						c-0.5,0-0.9-0.2-1.2-0.7c-2-3.3-4.2-6.6-6.4-9.8c-0.4-0.6-0.3-1.5,0.4-2c0.6-0.4,1.5-0.3,2,0.4c2.2,3.3,4.4,6.6,6.4,9.9
						c0.4,0.7,0.2,1.5-0.5,2C-264,643.9-264.2,644-264.5,644z"/>
				</g>
				<g>
					<path class="st1" d="M-419.5,739.7c-0.5,0-0.9-0.2-1.2-0.6c-0.4-0.6-0.3-1.5,0.4-2c3-2.1,6.1-4.2,9.1-6.3
						c0.6-0.5,1.5-0.3,2,0.3c0.5,0.6,0.3,1.5-0.3,2c-3,2.1-6.1,4.3-9.2,6.3C-419,739.7-419.3,739.7-419.5,739.7z M-401.4,727
						c-0.4,0-0.9-0.2-1.1-0.6c-0.5-0.6-0.3-1.5,0.3-2c3-2.2,6-4.4,8.9-6.6c0.6-0.5,1.5-0.3,2,0.3s0.3,1.5-0.3,2c-3,2.2-6,4.4-9,6.6
						C-400.8,726.9-401.1,727-401.4,727z M-383.5,713.7c-0.4,0-0.8-0.2-1.1-0.6c-0.5-0.6-0.4-1.5,0.3-2c2.9-2.2,5.9-4.5,8.8-6.8
						c0.6-0.5,1.5-0.4,2,0.2c0.5,0.6,0.4,1.5-0.2,2c-2.9,2.3-5.9,4.6-8.8,6.8C-382.9,713.6-383.2,713.7-383.5,713.7z M-366.1,699.9
						c-0.4,0-0.8-0.2-1.1-0.5c-0.5-0.6-0.4-1.5,0.2-2c2.9-2.3,5.7-4.7,8.6-7.1c0.6-0.5,1.5-0.4,2,0.2c0.5,0.6,0.4,1.5-0.2,2
						c-2.8,2.4-5.7,4.8-8.6,7.1C-365.5,699.8-365.8,699.9-366.1,699.9z M-349,685.7c-0.4,0-0.8-0.2-1.1-0.5c-0.5-0.6-0.4-1.5,0.1-2
						c2.8-2.4,5.6-4.9,8.4-7.3c0.6-0.5,1.5-0.5,2,0.1c0.5,0.6,0.5,1.5-0.1,2c-2.8,2.4-5.6,4.9-8.4,7.3
						C-348.4,685.6-348.7,685.7-349,685.7z M-332.4,671c-0.4,0-0.8-0.2-1-0.5c-0.5-0.6-0.5-1.5,0.1-2c2.7-2.5,5.4-5,8.1-7.5
						c0.6-0.5,1.5-0.5,2,0.1c0.5,0.6,0.5,1.5-0.1,2c-2.7,2.5-5.5,5.1-8.2,7.5C-331.7,670.8-332.1,671-332.4,671z M-316.2,655.8
						c-0.4,0-0.7-0.1-1-0.4c-0.5-0.6-0.5-1.5,0-2c2.7-2.6,5.3-5.2,7.9-7.8c0.6-0.6,1.5-0.5,2,0c0.6,0.6,0.5,1.5,0,2
						c-2.6,2.6-5.3,5.2-8,7.8C-315.5,655.6-315.8,655.8-316.2,655.8z M-300.4,640.1c-0.4,0-0.7-0.1-1-0.4c-0.6-0.5-0.6-1.4,0-2
						c2.6-2.6,5.2-5.3,7.7-8c0.5-0.6,1.4-0.6,2,0c0.6,0.5,0.6,1.4,0,2c-2.5,2.7-5.1,5.4-7.7,8C-299.7,640-300,640.1-300.4,640.1z"/>
				</g>
				<g>
					<path class="st1" d="M-265.5,867.4c-0.2,0-0.3,0-0.5-0.1c-3.5-1.3-7-2.7-10.5-4.1c-0.7-0.3-1.1-1.1-0.8-1.8
						c0.3-0.7,1.1-1.1,1.8-0.8c3.4,1.4,7,2.7,10.4,4c0.7,0.3,1.1,1.1,0.8,1.8C-264.4,867-265,867.4-265.5,867.4z M-286.4,859
						c-0.2,0-0.4,0-0.6-0.1c-3.4-1.5-6.9-3.1-10.3-4.6c-0.7-0.3-1-1.2-0.7-1.9s1.2-1,1.9-0.7c3.4,1.6,6.8,3.1,10.2,4.6
						c0.7,0.3,1,1.1,0.7,1.9C-285.3,858.7-285.8,859-286.4,859z M-306.7,849.4c-0.2,0-0.4,0-0.6-0.2c-3.3-1.7-6.7-3.4-10-5.2
						c-0.7-0.4-0.9-1.2-0.6-1.9c0.4-0.7,1.2-0.9,1.9-0.6c3.3,1.8,6.6,3.5,9.9,5.2c0.7,0.4,1,1.2,0.6,1.9
						C-305.7,849.1-306.2,849.4-306.7,849.4z M-326.5,838.8c-0.2,0-0.5-0.1-0.7-0.2c-3.2-1.9-6.5-3.8-9.7-5.8
						c-0.7-0.4-0.9-1.3-0.5-2c0.4-0.7,1.3-0.9,2-0.5c3.2,1.9,6.4,3.9,9.6,5.7c0.7,0.4,0.9,1.3,0.5,1.9
						C-325.5,838.5-326,838.8-326.5,838.8z M-345.6,827c-0.3,0-0.5-0.1-0.8-0.2c-3.1-2-6.3-4.2-9.3-6.3c-0.6-0.4-0.8-1.3-0.4-2
						c0.4-0.6,1.3-0.8,2-0.4c3.1,2.1,6.2,4.2,9.3,6.3c0.7,0.4,0.8,1.3,0.4,2C-344.7,826.8-345.1,827-345.6,827z M-364,814.2
						c-0.3,0-0.6-0.1-0.8-0.3c-3-2.2-6-4.5-9-6.8c-0.6-0.5-0.7-1.4-0.2-2s1.4-0.7,2-0.2c2.9,2.3,5.9,4.6,8.9,6.8
						c0.6,0.5,0.8,1.4,0.3,2C-363.2,814-363.6,814.2-364,814.2z M-381.7,800.4c-0.3,0-0.6-0.1-0.9-0.3c-2.9-2.4-5.8-4.8-8.6-7.3
						c-0.6-0.5-0.6-1.4-0.1-2s1.4-0.6,2-0.1c2.8,2.5,5.7,4.9,8.5,7.3c0.6,0.5,0.7,1.4,0.2,2C-380.9,800.2-381.3,800.4-381.7,800.4z
						 M-398.6,785.6c-0.3,0-0.7-0.1-1-0.4c-2.7-2.5-5.5-5.1-8.2-7.8c-0.6-0.5-0.6-1.4,0-2c0.5-0.6,1.4-0.6,2,0
						c2.7,2.6,5.4,5.2,8.1,7.7c0.6,0.5,0.6,1.4,0.1,2C-397.9,785.4-398.2,785.6-398.6,785.6z M-414.7,769.9c-0.4,0-0.7-0.1-1-0.4
						c-2.6-2.7-5.2-5.5-7.7-8.2c-0.5-0.6-0.5-1.5,0.1-2c0.6-0.5,1.5-0.5,2,0.1c2.5,2.8,5.1,5.5,7.7,8.2c0.5,0.6,0.5,1.5,0,2
						C-413.9,769.7-414.3,769.9-414.7,769.9z"/>
				</g>
				<g>
					<path class="st1" d="M-248.8,873.2l-1.2-0.4c-1.8-0.6-3.6-1.2-5.3-1.8c-0.7-0.3-1.1-1.1-0.9-1.8c0.3-0.7,1.1-1.1,1.8-0.9
						c1.4,0.5,2.7,0.9,4.1,1.4c0.5-1.2,1-2.4,1.5-3.5c0.3-0.7,1.1-1.1,1.9-0.8c0.7,0.3,1.1,1.1,0.8,1.9c-0.7,1.6-1.4,3.2-2.1,4.8
						L-248.8,873.2z M-228.1,777.7C-228.1,777.7-228.1,777.7-228.1,777.7c-0.8,0-1.4-0.7-1.4-1.4c0-1.7,0.1-3.4,0.1-5.1
						c0-1.9,0-3.9-0.1-5.8c0-0.8,0.6-1.4,1.4-1.5c0,0,0,0,0,0c0.8,0,1.4,0.6,1.4,1.4c0,2,0.1,4,0.1,5.9c0,1.7,0,3.5-0.1,5.2
						C-226.7,777.1-227.3,777.7-228.1,777.7z M-429.8,753.3c-0.4,0-0.8-0.2-1.1-0.5c-1.2-1.4-2.4-2.9-3.6-4.3l-1-1.2l1.3-0.9
						c1.5-1,3.1-2,4.6-3c0.7-0.4,1.5-0.3,2,0.4c0.4,0.7,0.3,1.5-0.4,2c-1.1,0.7-2.2,1.5-3.3,2.2c0.9,1,1.7,2,2.6,3
						c0.5,0.6,0.4,1.5-0.1,2C-429.1,753.2-429.4,753.3-429.8,753.3z M-277.7,624.6c-0.4,0-0.9-0.2-1.1-0.6c-0.8-1.1-1.7-2.2-2.5-3.3
						c-0.9,1-1.8,1.9-2.6,2.9c-0.5,0.6-1.4,0.6-2,0.1c-0.6-0.5-0.6-1.4-0.1-2c1.3-1.4,2.5-2.7,3.8-4.1l1.1-1.2l1,1.3
						c1.2,1.5,2.4,3.1,3.6,4.7c0.5,0.6,0.3,1.5-0.3,2C-277.1,624.5-277.4,624.6-277.7,624.6z"/>
				</g>
			</g>
		</g>
	</g>
</g>
</svg>
