<?xml version="1.0" encoding="utf-8"?>
<!-- Generator: Adobe Illustrator 25.0.1, SVG Export Plug-In . SVG Version: 6.00 Build 0)  -->
<svg version="1.1" id="Layer_1" xmlns="http://www.w3.org/2000/svg" xmlns:xlink="http://www.w3.org/1999/xlink" x="0px" y="0px"
	 viewBox="0 0 5085.211 1325.059" style="enable-background:new 0 0 5085.211 1325.059;" xml:space="preserve">
<style type="text/css">
	.st0{fill:#102749;}
	.st1{fill:#FFFFFF;}
	.st2{fill:none;stroke:#FFFFFF;stroke-width:2.835;stroke-linecap:round;stroke-miterlimit:6;stroke-dasharray:11.293,11.293;}
</style>
<path class="st0" d="M5082.52,126.004v1199.055H0V126.004c767.008,0,1645.04,100.038,2542.451,100.038
	c897.408,0,1638.711-99.807,2542.76-99.807"/>
<g>
	<path class="st1" d="M2546.052,227.459c-0.783,0-1.417-0.634-1.418-1.417c0-0.782,0.634-1.417,1.417-1.417
		c3.766-0.001,7.53-0.004,11.291-0.009c0.783-0.001,1.418,0.633,1.419,1.416c0.001,0.782-0.633,1.418-1.416,1.419
		C2553.584,227.455,2549.82,227.458,2546.052,227.459z M2534.76,227.457C2534.76,227.457,2534.76,227.457,2534.76,227.457
		c-3.767-0.002-7.531-0.006-11.295-0.012c-0.783-0.001-1.417-0.637-1.416-1.419c0.001-0.782,0.636-1.416,1.417-1.416
		c0.001,0,0.001,0,0.002,0c3.763,0.006,7.527,0.01,11.291,0.012c0.783,0.001,1.417,0.636,1.417,1.418
		S2535.542,227.457,2534.76,227.457z M2568.637,227.432c-0.781,0-1.415-0.632-1.417-1.415s0.631-1.418,1.415-1.42
		c3.767-0.008,7.53-0.018,11.291-0.029c0.001,0,0.003,0,0.005,0c0.78,0,1.415,0.631,1.417,1.412c0.002,0.783-0.63,1.42-1.413,1.422
		c-3.762,0.012-7.526,0.022-11.294,0.03C2568.639,227.432,2568.638,227.432,2568.637,227.432z M2512.176,227.422
		c-0.001,0-0.002,0-0.003,0c-3.764-0.01-7.527-0.021-11.291-0.033c-0.783-0.002-1.416-0.64-1.414-1.422
		c0.003-0.782,0.637-1.413,1.418-1.413c0.001,0,0.003,0,0.005,0c3.762,0.013,7.525,0.023,11.289,0.033
		c0.783,0.001,1.417,0.638,1.414,1.421C2513.592,226.79,2512.957,227.422,2512.176,227.422z M2591.222,227.361
		c-0.781,0-1.415-0.63-1.417-1.411c-0.003-0.783,0.629-1.42,1.412-1.424c3.766-0.015,7.53-0.031,11.291-0.05
		c0.002,0,0.005,0,0.007,0c0.78,0,1.414,0.63,1.418,1.411c0.004,0.783-0.628,1.42-1.41,1.424c-3.763,0.019-7.527,0.035-11.294,0.05
		C2591.226,227.361,2591.224,227.361,2591.222,227.361z M2489.596,227.346c-0.002,0-0.004,0-0.006,0
		c-3.763-0.016-7.526-0.034-11.289-0.054c-0.783-0.004-1.415-0.642-1.41-1.425c0.004-0.78,0.638-1.41,1.417-1.41
		c0.002,0,0.005,0,0.008,0c3.762,0.02,7.524,0.038,11.287,0.054c0.782,0.003,1.414,0.641,1.411,1.423
		C2491.011,226.715,2490.376,227.346,2489.596,227.346z M2613.807,227.251c-0.779,0-1.413-0.629-1.417-1.409
		c-0.004-0.783,0.626-1.421,1.41-1.426c3.766-0.022,7.529-0.045,11.291-0.071c0.003,0,0.007,0,0.01,0
		c0.778,0,1.412,0.629,1.417,1.408c0.005,0.783-0.625,1.422-1.408,1.428c-3.761,0.025-7.526,0.048-11.293,0.07
		C2613.812,227.251,2613.81,227.251,2613.807,227.251z M2467.023,227.229c-0.003,0-0.006,0-0.009,0
		c-3.763-0.023-7.525-0.047-11.287-0.074c-0.783-0.006-1.413-0.645-1.407-1.428c0.005-0.779,0.639-1.407,1.416-1.407
		c0.004,0,0.007,0,0.011,0c3.762,0.026,7.523,0.05,11.284,0.074c0.783,0.005,1.414,0.643,1.41,1.426
		C2468.435,226.6,2467.801,227.229,2467.023,227.229z M2636.392,227.1c-0.777,0-1.411-0.627-1.417-1.407
		c-0.006-0.783,0.624-1.422,1.407-1.428l11.291-0.091c0.004,0,0.009,0,0.013,0c0.778,0,1.411,0.627,1.417,1.405
		c0.007,0.783-0.623,1.423-1.406,1.43l-11.293,0.09C2636.399,227.1,2636.395,227.1,2636.392,227.1z M2444.451,227.072
		c-0.003,0-0.007,0-0.01,0c-3.761-0.03-7.523-0.061-11.284-0.094c-0.783-0.007-1.412-0.647-1.405-1.43
		c0.007-0.783,0.644-1.443,1.43-1.406c3.76,0.033,7.521,0.064,11.282,0.094c0.783,0.006,1.413,0.646,1.406,1.428
		C2445.863,226.444,2445.23,227.072,2444.451,227.072z M2658.976,226.907c-0.777,0-1.41-0.626-1.417-1.404
		c-0.008-0.783,0.621-1.424,1.404-1.431l11.291-0.111c0.005,0,0.01,0,0.016,0c0.775,0,1.408,0.625,1.416,1.403
		c0.009,0.782-0.619,1.423-1.402,1.432l-11.293,0.111C2658.985,226.907,2658.98,226.907,2658.976,226.907z M2421.887,226.875
		c-0.004,0-0.009,0-0.014,0l-11.282-0.112c-0.782-0.008-1.411-0.649-1.402-1.432c0.008-0.778,0.641-1.403,1.417-1.403
		c0.005,0,0.01,0,0.015,0l11.279,0.113c0.783,0.007,1.411,0.648,1.404,1.43C2423.297,226.25,2422.664,226.875,2421.887,226.875z
		 M2681.56,226.675c-0.775,0-1.408-0.624-1.417-1.401c-0.009-0.783,0.618-1.425,1.401-1.434c3.766-0.042,7.529-0.086,11.289-0.131
		c0.006,0,0.012,0,0.018,0c0.774,0,1.408,0.623,1.417,1.4c0.01,0.783-0.617,1.425-1.399,1.435
		c-3.762,0.045-7.526,0.089-11.293,0.131C2681.57,226.675,2681.564,226.675,2681.56,226.675z M2399.327,226.64
		c-0.005,0-0.011,0-0.016,0c-3.761-0.042-7.52-0.086-11.279-0.131c-0.783-0.009-1.41-0.652-1.4-1.435
		c0.009-0.782,0.644-1.426,1.434-1.4c3.758,0.046,7.517,0.089,11.276,0.131c0.783,0.009,1.411,0.65,1.402,1.433
		C2400.735,226.016,2400.102,226.64,2399.327,226.64z M2704.144,226.402c-0.774,0-1.407-0.623-1.418-1.399
		c-0.01-0.783,0.616-1.426,1.399-1.436l11.29-0.151c0.007,0,0.014,0,0.02,0c0.774,0,1.406,0.622,1.418,1.398
		c0.011,0.783-0.616,1.426-1.398,1.437l-11.292,0.151C2704.156,226.402,2704.149,226.402,2704.144,226.402z M2376.772,226.368
		c-0.006,0-0.012,0-0.019,0l-11.277-0.151c-0.783-0.011-1.409-0.654-1.398-1.437c0.011-0.775,0.643-1.398,1.416-1.398
		c0.007,0,0.014,0,0.021,0l11.275,0.15c0.782,0.01,1.409,0.653,1.399,1.436C2378.18,225.745,2377.547,226.368,2376.772,226.368z
		 M2726.727,226.091c-0.773,0-1.405-0.621-1.417-1.397c-0.012-0.782,0.613-1.427,1.396-1.438c3.767-0.055,7.529-0.112,11.289-0.17
		c0.769-0.051,1.428,0.611,1.439,1.396c0.013,0.783-0.612,1.427-1.395,1.439c-3.762,0.059-7.526,0.115-11.293,0.17
		C2726.74,226.091,2726.733,226.091,2726.727,226.091z M2354.22,226.057c-0.007,0-0.014,0-0.021,0l-11.276-0.169
		c-0.783-0.012-1.408-0.656-1.396-1.439c0.012-0.782,0.69-1.387,1.439-1.396l11.274,0.169c0.783,0.012,1.408,0.655,1.396,1.438
		C2355.626,225.436,2354.994,226.057,2354.22,226.057z M2749.309,225.741c-0.772,0-1.404-0.62-1.418-1.395
		c-0.012-0.782,0.612-1.427,1.395-1.44c3.767-0.061,7.529-0.125,11.291-0.19c0.008,0,0.016,0,0.024,0
		c0.771,0,1.403,0.618,1.417,1.393c0.014,0.783-0.609,1.428-1.393,1.442c-3.762,0.065-7.526,0.128-11.293,0.19
		C2749.324,225.74,2749.316,225.741,2749.309,225.741z M2331.67,225.71c-0.008,0-0.016,0-0.023,0
		c-3.759-0.061-7.518-0.123-11.276-0.187c-0.783-0.013-1.407-0.659-1.393-1.441c0.013-0.783,0.642-1.373,1.441-1.393
		c3.757,0.063,7.515,0.126,11.273,0.187c0.783,0.012,1.407,0.657,1.395,1.44C2333.075,225.09,2332.442,225.71,2331.67,225.71z
		 M2771.892,225.351c-0.771,0-1.403-0.618-1.418-1.392c-0.014-0.782,0.609-1.429,1.393-1.442c3.765-0.068,7.528-0.138,11.29-0.209
		c0.756-0.007,1.429,0.608,1.443,1.391s-0.607,1.43-1.39,1.444c-3.763,0.071-7.526,0.141-11.293,0.209
		C2771.909,225.351,2771.9,225.351,2771.892,225.351z M2309.122,225.328c-0.009,0-0.017,0-0.025,0
		c-3.759-0.067-7.518-0.135-11.275-0.205c-0.783-0.014-1.406-0.661-1.392-1.444c0.014-0.782,0.647-1.406,1.444-1.391
		c3.757,0.07,7.515,0.138,11.272,0.205c0.783,0.014,1.406,0.66,1.393,1.442C2310.525,224.708,2309.893,225.328,2309.122,225.328z
		 M2794.472,224.924c-0.77,0-1.401-0.617-1.416-1.39c-0.016-0.783,0.606-1.429,1.389-1.445l11.29-0.227
		c0.829-0.008,1.431,0.605,1.446,1.388c0.017,0.782-0.605,1.43-1.388,1.446l-11.293,0.227
		C2794.491,224.924,2794.481,224.924,2794.472,224.924z M2286.575,224.909c-0.009,0-0.018,0-0.027,0l-11.274-0.222
		c-0.782-0.016-1.404-0.663-1.389-1.445c0.016-0.783,0.667-1.418,1.446-1.389l11.271,0.222c0.783,0.015,1.405,0.661,1.39,1.444
		C2287.977,224.292,2287.346,224.909,2286.575,224.909z M2817.053,224.46c-0.769,0-1.399-0.615-1.416-1.387
		c-0.017-0.783,0.604-1.431,1.387-1.447l11.288-0.246c0.752-0.033,1.432,0.603,1.448,1.386c0.018,0.783-0.604,1.431-1.386,1.449
		l-11.29,0.246C2817.074,224.46,2817.063,224.46,2817.053,224.46z M2264.029,224.456c-0.01,0-0.02,0-0.03,0l-11.273-0.239
		c-0.783-0.017-1.403-0.665-1.386-1.448c0.017-0.783,0.7-1.398,1.447-1.386l11.271,0.239c0.782,0.016,1.404,0.664,1.387,1.446
		C2265.43,223.841,2264.799,224.456,2264.029,224.456z M2241.486,223.97c-0.011,0-0.021,0-0.032,0l-11.272-0.256
		c-0.783-0.018-1.402-0.667-1.384-1.45c0.018-0.783,0.667-1.431,1.45-1.384l11.27,0.255c0.783,0.018,1.403,0.667,1.385,1.449
		C2242.885,223.356,2242.254,223.97,2241.486,223.97z M2839.631,223.96c-0.768,0-1.398-0.613-1.416-1.385
		c-0.019-0.783,0.602-1.432,1.384-1.45c3.766-0.086,7.528-0.174,11.289-0.265c0.011,0,0.021,0,0.033,0
		c0.768,0,1.398,0.612,1.417,1.384c0.019,0.783-0.601,1.432-1.383,1.451c-3.762,0.09-7.524,0.178-11.291,0.264
		C2839.653,223.96,2839.642,223.96,2839.631,223.96z M2218.944,223.45c-0.012,0-0.023,0-0.035,0l-11.271-0.272
		c-0.782-0.02-1.401-0.669-1.382-1.452c0.019-0.783,0.666-1.383,1.452-1.382l11.269,0.272c0.783,0.019,1.402,0.669,1.383,1.451
		C2220.342,222.837,2219.71,223.45,2218.944,223.45z M2862.211,223.422c-0.767,0-1.398-0.612-1.417-1.383
		c-0.02-0.782,0.6-1.432,1.382-1.452l11.288-0.283c0.763,0.017,1.434,0.599,1.453,1.381c0.02,0.783-0.599,1.433-1.381,1.453
		l-11.29,0.283C2862.234,223.422,2862.223,223.422,2862.211,223.422z M2196.404,222.897c-0.013,0-0.025,0-0.037,0l-11.271-0.288
		c-0.783-0.02-1.401-0.671-1.381-1.454c0.021-0.783,0.639-1.404,1.454-1.38l11.269,0.287c0.783,0.02,1.401,0.671,1.381,1.453
		C2197.801,222.286,2197.17,222.897,2196.404,222.897z M2884.788,222.85c-0.766,0-1.396-0.611-1.416-1.38
		c-0.021-0.783,0.597-1.434,1.38-1.455l11.287-0.299c0.789-0.006,1.435,0.597,1.455,1.379c0.021,0.782-0.597,1.435-1.379,1.455
		l-11.289,0.3C2884.813,222.85,2884.801,222.85,2884.788,222.85z M2173.865,222.313c-0.013,0-0.025,0-0.038,0l-11.27-0.305
		c-0.782-0.021-1.4-0.673-1.378-1.456c0.022-0.783,0.686-1.371,1.456-1.379l11.268,0.305c0.783,0.021,1.4,0.672,1.379,1.455
		C2175.261,221.703,2174.631,222.313,2173.865,222.313z M2907.364,222.242c-0.765,0-1.395-0.609-1.416-1.378
		c-0.021-0.783,0.596-1.435,1.378-1.457l11.287-0.317c0.792-0.009,1.435,0.594,1.457,1.377c0.021,0.783-0.595,1.435-1.377,1.457
		l-11.289,0.317C2907.392,222.242,2907.378,222.242,2907.364,222.242z M2151.329,221.696c-0.013,0-0.027,0-0.04,0l-11.269-0.319
		c-0.782-0.022-1.398-0.675-1.376-1.458c0.022-0.782,0.673-1.408,1.458-1.376l11.267,0.319c0.783,0.022,1.399,0.674,1.377,1.457
		C2152.724,221.088,2152.093,221.696,2151.329,221.696z M2929.94,221.599c-0.764,0-1.394-0.608-1.416-1.376
		c-0.022-0.782,0.593-1.435,1.376-1.458l11.287-0.333c0.791-0.022,1.436,0.592,1.459,1.374c0.023,0.783-0.592,1.436-1.374,1.459
		l-11.29,0.334C2929.969,221.599,2929.954,221.599,2929.94,221.599z M2128.793,221.052c-0.014,0-0.028,0-0.042-0.001l-11.268-0.335
		c-0.782-0.023-1.398-0.677-1.375-1.459c0.023-0.782,0.666-1.406,1.459-1.374l11.266,0.335c0.783,0.022,1.398,0.675,1.375,1.458
		C2130.187,220.443,2129.557,221.052,2128.793,221.052z M2952.515,220.923c-0.763,0-1.393-0.606-1.416-1.374
		c-0.023-0.782,0.591-1.436,1.374-1.46l11.284-0.351c0.816-0.003,1.438,0.59,1.462,1.373s-0.59,1.437-1.373,1.461l-11.286,0.351
		C2952.544,220.923,2952.529,220.923,2952.515,220.923z M2106.261,220.375c-0.015,0-0.03,0-0.045-0.001l-11.266-0.349
		c-0.783-0.024-1.397-0.679-1.373-1.461c0.024-0.783,0.661-1.394,1.461-1.373l11.265,0.35c0.782,0.023,1.397,0.677,1.373,1.46
		C2107.653,219.769,2107.023,220.375,2106.261,220.375z M2975.089,220.213c-0.762,0-1.391-0.604-1.416-1.372
		c-0.025-0.783,0.589-1.438,1.371-1.463l11.286-0.367c0.789-0.016,1.438,0.588,1.463,1.37s-0.588,1.438-1.371,1.463l-11.286,0.368
		C2975.12,220.213,2975.104,220.213,2975.089,220.213z M2083.73,219.668c-0.016,0-0.031,0-0.046,0l-11.266-0.364
		c-0.783-0.026-1.396-0.681-1.371-1.463c0.025-0.783,0.676-1.402,1.463-1.371l11.264,0.364c0.782,0.025,1.396,0.68,1.371,1.462
		C2085.122,219.063,2084.492,219.668,2083.73,219.668z M2997.66,219.471c-0.761,0-1.39-0.604-1.415-1.37
		c-0.027-0.783,0.586-1.438,1.368-1.464l11.285-0.384c0.757-0.029,1.439,0.586,1.466,1.368c0.026,0.783-0.586,1.439-1.368,1.466
		l-11.288,0.383C2997.692,219.471,2997.676,219.471,2997.66,219.471z M2061.201,218.935c-0.016,0-0.031,0-0.047-0.001l-11.264-0.378
		c-0.783-0.026-1.395-0.683-1.369-1.465c0.026-0.782,0.682-1.4,1.464-1.369l11.263,0.378c0.782,0.026,1.396,0.682,1.369,1.464
		C2062.592,218.331,2061.962,218.935,2061.201,218.935z M3020.232,218.697c-0.76,0-1.389-0.603-1.416-1.368
		c-0.027-0.782,0.585-1.439,1.367-1.466l11.284-0.399c0.758-0.034,1.439,0.584,1.468,1.366c0.027,0.783-0.584,1.439-1.366,1.467
		l-11.286,0.399C3020.266,218.697,3020.249,218.697,3020.232,218.697z M2038.674,218.172c-0.017,0-0.033,0-0.05-0.001l-11.263-0.391
		c-0.783-0.028-1.395-0.685-1.367-1.467s0.693-1.377,1.466-1.367l11.262,0.392c0.783,0.027,1.395,0.683,1.368,1.465
		C2040.064,217.569,2039.435,218.172,2038.674,218.172z M3042.804,217.891c-0.76,0-1.389-0.601-1.416-1.366
		c-0.029-0.783,0.582-1.44,1.364-1.468l11.284-0.415c0.019,0,0.036-0.001,0.054-0.001c0.758,0,1.388,0.601,1.415,1.366
		c0.029,0.782-0.581,1.44-1.363,1.469l-11.286,0.414C3042.838,217.891,3042.82,217.891,3042.804,217.891z M2016.15,217.382
		c-0.017,0-0.035,0-0.052-0.001l-11.263-0.405c-0.782-0.028-1.393-0.686-1.365-1.468c0.029-0.782,0.703-1.393,1.468-1.366
		l11.26,0.405c0.782,0.028,1.394,0.685,1.366,1.467C2017.539,216.78,2016.91,217.382,2016.15,217.382z M3065.372,217.055
		c-0.758,0-1.387-0.6-1.415-1.364c-0.03-0.782,0.58-1.44,1.362-1.47l11.283-0.429c0.781-0.021,1.44,0.58,1.471,1.362
		c0.03,0.782-0.579,1.44-1.361,1.47l-11.285,0.43C3065.408,217.055,3065.391,217.055,3065.372,217.055z M1993.628,216.566
		c-0.018,0-0.036,0-0.054-0.001l-11.261-0.417c-0.783-0.029-1.393-0.688-1.364-1.469c0.029-0.782,0.702-1.383,1.469-1.364
		l11.26,0.418c0.782,0.028,1.393,0.686,1.364,1.469C1995.015,215.965,1994.387,216.566,1993.628,216.566z M3087.94,216.189
		c-0.757,0-1.386-0.599-1.416-1.362c-0.029-0.782,0.58-1.441,1.361-1.472l11.284-0.444c0.745-0.04,1.44,0.577,1.473,1.36
		c0.03,0.782-0.578,1.441-1.361,1.473l-11.284,0.444C3087.978,216.189,3087.959,216.189,3087.94,216.189z M1971.106,215.724
		c-0.018,0-0.036,0-0.054-0.001l-11.26-0.431c-0.782-0.03-1.392-0.688-1.362-1.471s0.684-1.385,1.471-1.362l11.259,0.431
		c0.783,0.03,1.393,0.688,1.363,1.47C1972.494,215.124,1971.865,215.724,1971.106,215.724z M3110.509,215.294
		c-0.758,0-1.386-0.597-1.417-1.36c-0.031-0.782,0.577-1.442,1.359-1.474l11.283-0.458c0.788-0.017,1.442,0.577,1.474,1.358
		c0.032,0.782-0.576,1.442-1.358,1.474l-11.283,0.459C3110.547,215.294,3110.527,215.294,3110.509,215.294z M1948.589,214.856
		c-0.019,0-0.038,0-0.057-0.001l-11.259-0.442c-0.782-0.031-1.391-0.69-1.36-1.473c0.03-0.782,0.659-1.402,1.472-1.36l11.258,0.443
		c0.782,0.031,1.391,0.689,1.36,1.472C1949.974,214.257,1949.346,214.856,1948.589,214.856z M3133.073,214.371
		c-0.756,0-1.384-0.597-1.415-1.359c-0.033-0.783,0.575-1.443,1.357-1.476l11.281-0.472c0.773-0.022,1.442,0.575,1.476,1.356
		c0.033,0.783-0.574,1.443-1.356,1.476l-11.283,0.473C3133.113,214.371,3133.093,214.371,3133.073,214.371z M1926.072,213.964
		c-0.019,0-0.038,0-0.058-0.001l-11.259-0.455c-0.782-0.032-1.39-0.692-1.358-1.475c0.032-0.782,0.698-1.405,1.474-1.358
		l11.256,0.456c0.782,0.031,1.391,0.69,1.36,1.473C1927.458,213.366,1926.829,213.964,1926.072,213.964z M3155.637,213.42
		c-0.755,0-1.383-0.596-1.415-1.358c-0.034-0.782,0.573-1.443,1.355-1.476l11.281-0.486c0.795-0.012,1.443,0.574,1.478,1.355
		c0.034,0.782-0.572,1.444-1.354,1.478l-11.283,0.486C3155.678,213.419,3155.657,213.42,3155.637,213.42z M1903.559,213.048
		c-0.02,0-0.04,0-0.06-0.001l-11.257-0.467c-0.782-0.032-1.39-0.693-1.357-1.475c0.033-0.782,0.701-1.367,1.475-1.357l11.255,0.467
		c0.783,0.032,1.39,0.693,1.358,1.475C1904.942,212.451,1904.314,213.048,1903.559,213.048z M3178.254,212.439
		c-0.755,0-1.382-0.594-1.415-1.355c-0.035-0.782,0.571-1.444,1.354-1.478l11.332-0.501c0.76-0.043,1.444,0.571,1.479,1.354
		c0.034,0.782-0.571,1.443-1.353,1.479l-11.334,0.501C3178.296,212.439,3178.274,212.439,3178.254,212.439z M1881.046,212.108
		c-0.021,0-0.041,0-0.061-0.001l-11.256-0.478c-0.782-0.033-1.389-0.694-1.355-1.476c0.033-0.782,0.688-1.398,1.477-1.356
		l11.255,0.478c0.782,0.033,1.389,0.694,1.356,1.477C1882.429,211.512,1881.802,212.108,1881.046,212.108z M3200.917,211.431
		c-0.753,0-1.38-0.594-1.414-1.354c-0.035-0.782,0.57-1.445,1.353-1.48l11.329-0.514c0.807-0.034,1.445,0.569,1.48,1.352
		c0.035,0.782-0.569,1.444-1.352,1.48l-11.331,0.514C3200.961,211.43,3200.939,211.431,3200.917,211.431z M1858.537,211.146
		c-0.021,0-0.041,0-0.062-0.001l-11.255-0.49c-0.782-0.034-1.388-0.696-1.354-1.478s0.705-1.38,1.478-1.354l11.253,0.49
		c0.782,0.034,1.389,0.695,1.355,1.478C1859.919,210.551,1859.292,211.146,1858.537,211.146z M3223.578,210.396
		c-0.753,0-1.381-0.592-1.416-1.352c-0.036-0.782,0.569-1.445,1.351-1.481l11.326-0.527c0.79-0.042,1.446,0.567,1.482,1.35
		s-0.567,1.446-1.35,1.482l-11.328,0.527C3223.621,210.396,3223.6,210.396,3223.578,210.396z M1836.029,210.162
		c-0.021,0-0.042,0-0.063-0.001l-11.254-0.5c-0.782-0.035-1.387-0.698-1.353-1.479c0.035-0.782,0.706-1.38,1.479-1.353l11.252,0.5
		c0.783,0.034,1.388,0.697,1.354,1.479C1837.41,209.568,1836.783,210.162,1836.029,210.162z M3246.231,209.338
		c-0.752,0-1.379-0.591-1.415-1.351c-0.037-0.782,0.567-1.446,1.349-1.482l11.324-0.539c0.8-0.032,1.447,0.567,1.484,1.348
		c0.037,0.782-0.566,1.446-1.349,1.484l-11.325,0.539C3246.277,209.337,3246.254,209.338,3246.231,209.338z M1813.523,209.157
		c-0.022,0-0.043,0-0.065-0.001l-11.252-0.51c-0.782-0.036-1.387-0.699-1.352-1.481c0.036-0.782,0.687-1.386,1.481-1.352
		l11.251,0.51c0.782,0.035,1.388,0.698,1.352,1.48C1814.904,208.563,1814.277,209.157,1813.523,209.157z M3268.879,208.255
		c-0.751,0-1.377-0.59-1.414-1.35c-0.038-0.782,0.565-1.446,1.348-1.483l11.321-0.549c0.771-0.056,1.447,0.564,1.485,1.347
		c0.038,0.782-0.565,1.446-1.347,1.485l-11.323,0.549C3268.926,208.254,3268.902,208.255,3268.879,208.255z M1791.02,208.131
		c-0.022,0-0.044,0-0.066-0.001l-11.252-0.521c-0.782-0.036-1.386-0.699-1.35-1.481c0.036-0.783,0.71-1.392,1.482-1.351l11.25,0.521
		c0.782,0.036,1.386,0.699,1.351,1.481C1792.399,207.539,1791.773,208.131,1791.02,208.131z M3291.522,207.15
		c-0.751,0-1.378-0.589-1.415-1.348c-0.038-0.782,0.564-1.447,1.346-1.485l11.319-0.561c0.768-0.038,1.447,0.564,1.486,1.346
		c0.038,0.782-0.563,1.447-1.346,1.486l-11.319,0.561C3291.569,207.149,3291.546,207.15,3291.522,207.15z M1768.519,207.085
		c-0.023,0-0.045,0-0.068-0.001l-11.251-0.53c-0.782-0.037-1.385-0.7-1.349-1.482c0.037-0.782,0.711-1.384,1.483-1.349l11.249,0.53
		c0.782,0.037,1.386,0.7,1.35,1.482C1769.897,206.493,1769.271,207.085,1768.519,207.085z M3314.158,206.023
		c-0.75,0-1.376-0.588-1.413-1.346c-0.04-0.782,0.562-1.448,1.344-1.487l11.315-0.571c0.813-0.04,1.449,0.562,1.488,1.344
		c0.04,0.782-0.562,1.448-1.344,1.487l-11.317,0.571C3314.207,206.023,3314.183,206.023,3314.158,206.023z M1746.02,206.021
		c-0.023,0-0.046,0-0.069-0.001l-11.249-0.54c-0.783-0.038-1.386-0.702-1.348-1.484c0.039-0.782,0.72-1.392,1.484-1.347
		l11.248,0.539c0.782,0.038,1.386,0.702,1.348,1.484C1747.398,205.43,1746.771,206.021,1746.02,206.021z M1723.523,204.937
		c-0.023,0-0.046,0-0.07-0.001l-11.248-0.548c-0.782-0.039-1.385-0.703-1.347-1.486c0.039-0.781,0.697-1.381,1.485-1.346
		l11.247,0.548c0.782,0.038,1.385,0.703,1.347,1.485C1724.9,204.347,1724.274,204.937,1723.523,204.937z M3336.79,204.875
		c-0.749,0-1.375-0.588-1.413-1.345c-0.04-0.782,0.561-1.448,1.343-1.488l11.312-0.581c0.792-0.035,1.449,0.56,1.488,1.342
		c0.041,0.782-0.561,1.448-1.342,1.489l-11.314,0.582C3336.84,204.875,3336.814,204.875,3336.79,204.875z M1701.028,203.836
		c-0.023,0-0.047,0-0.071-0.002l-11.248-0.557c-0.782-0.039-1.384-0.705-1.345-1.486s0.721-1.376,1.486-1.346l11.246,0.558
		c0.782,0.039,1.385,0.704,1.346,1.485C1702.405,203.247,1701.778,203.836,1701.028,203.836z M3359.416,203.708
		c-0.749,0-1.374-0.587-1.414-1.344c-0.04-0.781,0.561-1.448,1.342-1.489l11.312-0.591c0.771-0.034,1.449,0.56,1.49,1.341
		c0.04,0.782-0.561,1.449-1.342,1.49l-11.312,0.591C3359.466,203.707,3359.441,203.708,3359.416,203.708z M1678.535,202.717
		c-0.024,0-0.048-0.001-0.072-0.002l-11.246-0.565c-0.782-0.04-1.384-0.706-1.345-1.488c0.04-0.782,0.707-1.383,1.488-1.344
		l11.245,0.566c0.782,0.039,1.384,0.705,1.345,1.487C1679.912,202.128,1679.286,202.717,1678.535,202.717z M3382.038,202.521
		c-0.749,0-1.375-0.586-1.415-1.343c-0.041-0.782,0.56-1.449,1.341-1.49l11.309-0.601c0.763-0.043,1.449,0.558,1.49,1.34
		c0.042,0.781-0.558,1.449-1.34,1.491l-11.309,0.6C3382.089,202.52,3382.063,202.521,3382.038,202.521z M1656.045,201.583
		c-0.024,0-0.048-0.001-0.073-0.002l-11.246-0.574c-0.782-0.04-1.383-0.707-1.343-1.488c0.041-0.782,0.723-1.372,1.488-1.343
		l11.245,0.573c0.782,0.04,1.383,0.706,1.344,1.488C1657.421,200.995,1656.795,201.583,1656.045,201.583z M3404.654,201.315
		c-0.748,0-1.374-0.585-1.415-1.341c-0.041-0.782,0.558-1.45,1.34-1.491l11.306-0.609c0.781-0.04,1.45,0.557,1.492,1.338
		c0.042,0.782-0.558,1.45-1.34,1.492l-11.306,0.609C3404.706,201.314,3404.68,201.315,3404.654,201.315z M1633.556,200.432
		c-0.024,0-0.049,0-0.073-0.002l-11.245-0.581c-0.781-0.041-1.382-0.707-1.342-1.489s0.715-1.364,1.489-1.343l11.243,0.582
		c0.782,0.04,1.383,0.707,1.343,1.488C1634.932,199.844,1634.306,200.432,1633.556,200.432z M3427.265,200.092
		c-0.748,0-1.373-0.585-1.414-1.341c-0.043-0.781,0.556-1.449,1.338-1.492l11.303-0.618c0.776-0.04,1.45,0.556,1.492,1.338
		c0.043,0.781-0.556,1.45-1.338,1.493l-11.303,0.618C3427.316,200.092,3427.291,200.092,3427.265,200.092z M1611.07,199.267
		c-0.025,0-0.05,0-0.075-0.002l-11.244-0.588c-0.782-0.042-1.382-0.708-1.341-1.49c0.042-0.782,0.711-1.374,1.49-1.341l11.243,0.588
		c0.781,0.041,1.382,0.708,1.342,1.489C1612.445,198.68,1611.819,199.267,1611.07,199.267z M3449.869,198.853
		c-0.747,0-1.373-0.584-1.414-1.339c-0.044-0.781,0.556-1.45,1.337-1.493l11.3-0.626c0.777-0.039,1.45,0.555,1.493,1.337
		c0.044,0.782-0.555,1.451-1.337,1.494l-11.3,0.626C3449.922,198.853,3449.896,198.853,3449.869,198.853z M1588.584,198.087
		c-0.025,0-0.051-0.001-0.076-0.002l-11.241-0.595c-0.782-0.042-1.382-0.709-1.34-1.491s0.716-1.376,1.49-1.34l11.242,0.595
		c0.782,0.042,1.382,0.709,1.34,1.491C1589.959,197.5,1589.333,198.087,1588.584,198.087z M3472.469,197.599
		c-0.747,0-1.372-0.584-1.414-1.338c-0.044-0.782,0.555-1.451,1.336-1.494l11.297-0.633c0.786-0.035,1.451,0.554,1.495,1.335
		c0.044,0.781-0.554,1.451-1.335,1.495l-11.299,0.634C3472.522,197.598,3472.495,197.599,3472.469,197.599z M1566.102,196.892
		c-0.025,0-0.051,0-0.076-0.002l-11.241-0.602c-0.782-0.042-1.381-0.709-1.339-1.491c0.042-0.783,0.736-1.385,1.491-1.339
		l11.24,0.601c0.781,0.042,1.381,0.709,1.34,1.491C1567.477,196.306,1566.851,196.892,1566.102,196.892z M3495.063,196.33
		c-0.745,0-1.371-0.583-1.413-1.337c-0.044-0.782,0.554-1.451,1.335-1.496l11.296-0.639c0.819-0.052,1.45,0.554,1.495,1.335
		c0.045,0.782-0.554,1.451-1.335,1.496l-11.296,0.639C3495.118,196.329,3495.091,196.33,3495.063,196.33z M1543.623,195.686
		c-0.026,0-0.051,0-0.077-0.002l-11.24-0.608c-0.781-0.043-1.38-0.711-1.338-1.492c0.042-0.781,0.718-1.389,1.492-1.339
		l11.239,0.608c0.782,0.042,1.381,0.71,1.339,1.492C1544.996,195.101,1544.371,195.686,1543.623,195.686z M3517.653,195.046
		c-0.746,0-1.371-0.582-1.414-1.337c-0.045-0.782,0.553-1.451,1.334-1.496l11.293-0.646c0.771-0.039,1.452,0.553,1.496,1.333
		c0.045,0.782-0.553,1.452-1.334,1.497l-11.293,0.646C3517.708,195.045,3517.681,195.046,3517.653,195.046z M1521.145,194.467
		c-0.026,0-0.052,0-0.078-0.002l-11.239-0.614c-0.782-0.043-1.38-0.711-1.338-1.493c0.043-0.782,0.706-1.373,1.493-1.337
		l11.237,0.614c0.782,0.042,1.381,0.71,1.339,1.492C1522.518,193.882,1521.892,194.467,1521.145,194.467z M3540.237,193.751
		c-0.746,0-1.371-0.582-1.414-1.336c-0.045-0.781,0.552-1.452,1.333-1.497l11.29-0.652c0.746-0.045,1.451,0.55,1.497,1.333
		c0.045,0.781-0.551,1.452-1.333,1.497l-11.291,0.652C3540.292,193.75,3540.265,193.751,3540.237,193.751z M1498.668,193.237
		c-0.026,0-0.053,0-0.08-0.002l-11.237-0.62c-0.782-0.043-1.38-0.712-1.337-1.493c0.043-0.782,0.721-1.379,1.494-1.337l11.237,0.62
		c0.782,0.042,1.381,0.711,1.337,1.493C1500.041,192.652,1499.416,193.237,1498.668,193.237z M3562.816,192.444
		c-0.745,0-1.37-0.581-1.414-1.335c-0.046-0.781,0.551-1.452,1.333-1.498l11.286-0.657c0.792-0.034,1.452,0.551,1.498,1.333
		s-0.551,1.452-1.332,1.498l-11.288,0.658C3562.872,192.444,3562.845,192.444,3562.816,192.444z M1476.193,191.996
		c-0.026,0-0.053,0-0.079-0.002l-11.237-0.625c-0.782-0.044-1.38-0.712-1.336-1.495c0.043-0.78,0.705-1.377,1.494-1.336
		l11.236,0.624c0.782,0.043,1.38,0.713,1.337,1.494C1477.565,191.412,1476.94,191.996,1476.193,191.996z M3585.39,191.127
		c-0.745,0-1.37-0.581-1.414-1.335c-0.046-0.781,0.551-1.452,1.332-1.497l11.285-0.663c0.815-0.051,1.452,0.551,1.498,1.332
		c0.046,0.782-0.551,1.453-1.332,1.499l-11.285,0.662C3585.445,191.126,3585.417,191.127,3585.39,191.127z M1453.721,190.745
		c-0.026,0-0.053-0.001-0.08-0.002l-11.236-0.629c-0.781-0.044-1.379-0.713-1.335-1.495c0.043-0.78,0.703-1.38,1.494-1.335
		l11.235,0.629c0.782,0.043,1.38,0.712,1.336,1.494C1455.093,190.16,1454.468,190.745,1453.721,190.745z M3607.958,189.8
		c-0.745,0-1.369-0.581-1.414-1.334c-0.046-0.781,0.55-1.452,1.331-1.499l11.283-0.667c0.776-0.04,1.452,0.55,1.499,1.331
		c0.046,0.781-0.55,1.453-1.331,1.499l-11.283,0.667C3608.015,189.799,3607.986,189.8,3607.958,189.8z M1431.252,189.483
		c-0.026,0-0.053-0.001-0.081-0.002l-11.235-0.634c-0.781-0.044-1.379-0.713-1.335-1.495c0.043-0.782,0.718-1.381,1.495-1.335
		l11.234,0.633c0.782,0.043,1.38,0.713,1.335,1.494C1432.624,188.899,1431.998,189.483,1431.252,189.483z M3630.521,188.464
		c-0.745,0-1.369-0.581-1.414-1.333c-0.047-0.781,0.55-1.453,1.331-1.499l11.28-0.671c0.764-0.056,1.452,0.549,1.499,1.331
		c0.046,0.782-0.549,1.453-1.33,1.5l-11.281,0.671C3630.578,188.463,3630.55,188.464,3630.521,188.464z M1408.783,188.214
		c-0.027,0-0.054,0-0.082-0.002l-11.234-0.638c-0.781-0.045-1.379-0.714-1.334-1.496c0.044-0.781,0.707-1.374,1.496-1.334
		l11.234,0.637c0.781,0.044,1.379,0.714,1.335,1.496C1410.154,187.631,1409.529,188.214,1408.783,188.214z M3653.081,187.121
		c-0.744,0-1.368-0.581-1.413-1.333c-0.046-0.782,0.549-1.453,1.33-1.499l11.277-0.674c0.785-0.061,1.453,0.549,1.5,1.33
		c0.047,0.781-0.549,1.453-1.33,1.5l-11.278,0.674C3653.139,187.12,3653.109,187.121,3653.081,187.121z M1386.316,186.937
		c-0.027,0-0.054-0.001-0.082-0.002l-11.232-0.642c-0.781-0.044-1.378-0.714-1.334-1.496c0.045-0.783,0.722-1.375,1.497-1.334
		l11.232,0.641c0.781,0.045,1.379,0.715,1.334,1.496C1387.687,186.355,1387.062,186.937,1386.316,186.937z M3675.635,185.77
		c-0.744,0-1.368-0.58-1.413-1.333c-0.047-0.781,0.549-1.452,1.33-1.499l11.275-0.678c0.804-0.033,1.452,0.549,1.5,1.33
		c0.047,0.781-0.549,1.453-1.33,1.5l-11.275,0.677C3675.692,185.769,3675.663,185.77,3675.635,185.77z M1363.851,185.653
		c-0.027,0-0.054-0.001-0.082-0.002l-11.232-0.645c-0.781-0.044-1.378-0.714-1.333-1.496s0.703-1.376,1.496-1.334l11.231,0.645
		c0.782,0.045,1.379,0.715,1.334,1.496C1365.222,185.07,1364.597,185.653,1363.851,185.653z M3698.185,184.415
		c-0.743,0-1.368-0.58-1.413-1.332c-0.047-0.781,0.548-1.453,1.329-1.5l11.272-0.68c0.793-0.047,1.453,0.549,1.501,1.33
		c0.047,0.781-0.548,1.453-1.33,1.5l-11.272,0.679C3698.242,184.414,3698.213,184.415,3698.185,184.415z M1341.389,184.362
		c-0.027,0-0.055-0.001-0.083-0.002l-11.231-0.647c-0.781-0.045-1.378-0.716-1.333-1.497c0.045-0.782,0.708-1.379,1.497-1.334
		l11.23,0.648c0.782,0.045,1.379,0.715,1.334,1.497C1342.76,183.779,1342.135,184.362,1341.389,184.362z M1318.928,183.064
		c-0.028,0-0.055,0-0.083-0.002l-11.23-0.65c-0.781-0.045-1.378-0.715-1.333-1.497c0.046-0.783,0.727-1.378,1.498-1.333
		l11.229,0.649c0.782,0.046,1.379,0.716,1.334,1.497C1320.297,182.482,1319.673,183.064,1318.928,183.064z M3720.729,183.054
		c-0.743,0-1.367-0.58-1.413-1.332c-0.047-0.781,0.548-1.453,1.329-1.5l11.271-0.681c0.761-0.058,1.453,0.547,1.501,1.329
		c0.048,0.781-0.548,1.453-1.329,1.5l-11.271,0.682C3720.787,183.053,3720.758,183.054,3720.729,183.054z M1296.467,181.763
		c-0.027,0-0.055,0-0.083-0.002l-11.229-0.652c-0.781-0.045-1.378-0.716-1.333-1.498c0.046-0.781,0.714-1.374,1.498-1.333
		l11.229,0.652c0.781,0.046,1.378,0.716,1.333,1.498C1297.837,181.182,1297.213,181.763,1296.467,181.763z M3743.269,181.69
		c-0.743,0-1.367-0.58-1.413-1.332c-0.047-0.781,0.548-1.453,1.329-1.5l11.269-0.683c0.778-0.057,1.453,0.547,1.501,1.329
		c0.048,0.781-0.548,1.453-1.329,1.501l-11.269,0.683C3743.327,181.689,3743.298,181.69,3743.269,181.69z M1274.009,180.458
		c-0.027,0-0.055-0.001-0.083-0.002l-11.229-0.654c-0.782-0.046-1.378-0.716-1.332-1.499c0.044-0.781,0.712-1.38,1.497-1.333
		l11.228,0.655c0.782,0.045,1.378,0.716,1.333,1.498C1275.38,179.877,1274.755,180.458,1274.009,180.458z M3765.806,180.324
		c-0.744,0-1.369-0.58-1.415-1.332c-0.047-0.781,0.548-1.453,1.329-1.501l11.266-0.684c0.811-0.053,1.453,0.548,1.501,1.329
		c0.047,0.781-0.548,1.453-1.329,1.501l-11.266,0.684C3765.862,180.323,3765.834,180.324,3765.806,180.324z M1251.554,179.149
		c-0.028,0-0.056,0-0.084-0.002l-11.228-0.656c-0.781-0.045-1.377-0.716-1.332-1.498c0.046-0.781,0.727-1.373,1.498-1.333
		l11.228,0.656c0.781,0.046,1.378,0.716,1.333,1.498C1252.924,178.567,1252.299,179.149,1251.554,179.149z M3788.336,178.955
		c-0.744,0-1.368-0.58-1.414-1.332c-0.047-0.781,0.548-1.453,1.329-1.501l11.264-0.684c0.776-0.049,1.453,0.546,1.501,1.329
		c0.047,0.781-0.548,1.453-1.329,1.5l-11.264,0.685C3788.394,178.954,3788.364,178.955,3788.336,178.955z M1229.1,177.837
		c-0.028,0-0.056,0-0.084-0.002l-11.227-0.657c-0.782-0.045-1.378-0.716-1.333-1.498c0.046-0.781,0.715-1.375,1.498-1.332
		l11.228,0.656c0.781,0.046,1.378,0.717,1.332,1.498C1230.47,177.256,1229.845,177.837,1229.1,177.837z M3810.861,177.586
		c-0.744,0-1.368-0.579-1.414-1.331c-0.048-0.782,0.548-1.454,1.329-1.501l11.26-0.685c0.771-0.035,1.455,0.548,1.502,1.329
		s-0.548,1.453-1.329,1.501l-11.261,0.685C3810.919,177.585,3810.89,177.586,3810.861,177.586z M1206.647,176.523
		c-0.028,0-0.056-0.001-0.084-0.002l-11.227-0.657c-0.782-0.046-1.378-0.717-1.333-1.499c0.047-0.781,0.721-1.363,1.499-1.333
		l11.226,0.658c0.781,0.045,1.377,0.716,1.332,1.498C1208.017,175.942,1207.392,176.523,1206.647,176.523z M3833.384,176.217
		c-0.744,0-1.368-0.579-1.414-1.332c-0.048-0.782,0.548-1.454,1.329-1.501l11.259-0.684c0.769-0.054,1.454,0.547,1.501,1.329
		c0.048,0.781-0.548,1.454-1.329,1.5l-11.259,0.685C3833.441,176.216,3833.412,176.217,3833.384,176.217z M1184.196,175.208
		c-0.028,0-0.056-0.001-0.084-0.002l-11.225-0.657c-0.782-0.046-1.378-0.717-1.333-1.498c0.045-0.782,0.71-1.379,1.498-1.333
		l11.225,0.658c0.781,0.045,1.378,0.716,1.333,1.498C1185.565,174.627,1184.941,175.208,1184.196,175.208z M3855.9,174.85
		c-0.743,0-1.367-0.58-1.413-1.332c-0.047-0.781,0.548-1.453,1.329-1.5l11.258-0.683c0.807-0.041,1.453,0.548,1.501,1.329
		c0.047,0.782-0.548,1.454-1.329,1.501l-11.258,0.683C3855.959,174.849,3855.93,174.85,3855.9,174.85z M1161.746,173.894
		c-0.028,0-0.057-0.001-0.085-0.002l-11.224-0.658c-0.782-0.045-1.378-0.716-1.333-1.498c0.047-0.781,0.7-1.374,1.499-1.332
		l11.224,0.658c0.781,0.045,1.377,0.716,1.332,1.498C1163.115,173.312,1162.491,173.894,1161.746,173.894z M3878.414,173.484
		c-0.743,0-1.367-0.58-1.413-1.332c-0.047-0.782,0.548-1.454,1.329-1.5l11.255-0.682c0.775-0.041,1.453,0.548,1.501,1.33
		c0.047,0.781-0.548,1.453-1.329,1.5l-11.255,0.681C3878.473,173.483,3878.443,173.484,3878.414,173.484z M1139.298,172.579
		c-0.028,0-0.057-0.001-0.085-0.002l-11.223-0.657c-0.782-0.046-1.378-0.716-1.333-1.499c0.045-0.781,0.706-1.375,1.498-1.333
		l11.224,0.658c0.781,0.045,1.378,0.717,1.332,1.498C1140.667,171.998,1140.042,172.579,1139.298,172.579z M3900.922,172.123
		c-0.743,0-1.367-0.58-1.413-1.332c-0.047-0.781,0.549-1.453,1.33-1.5l11.253-0.68c0.79-0.048,1.453,0.548,1.5,1.33
		c0.047,0.782-0.548,1.453-1.329,1.5l-11.254,0.679C3900.979,172.122,3900.951,172.123,3900.922,172.123z M1116.85,171.265
		c-0.028,0-0.056,0-0.084-0.002l-11.223-0.655c-0.782-0.046-1.378-0.716-1.333-1.499c0.045-0.781,0.71-1.376,1.498-1.333
		l11.223,0.656c0.781,0.046,1.377,0.716,1.332,1.498C1118.22,170.684,1117.595,171.265,1116.85,171.265z M3923.428,170.766
		c-0.744,0-1.368-0.58-1.414-1.332c-0.047-0.782,0.549-1.453,1.33-1.5l11.251-0.676c0.81-0.053,1.453,0.548,1.5,1.329
		c0.047,0.782-0.549,1.453-1.33,1.5l-11.251,0.677C3923.485,170.765,3923.456,170.766,3923.428,170.766z M1094.405,169.954
		c-0.028,0-0.056-0.001-0.084-0.002l-11.222-0.654c-0.781-0.046-1.378-0.716-1.333-1.498c0.046-0.782,0.713-1.382,1.498-1.333
		l11.222,0.654c0.781,0.045,1.378,0.716,1.333,1.498C1095.774,169.372,1095.15,169.954,1094.405,169.954z M3945.929,169.414
		c-0.745,0-1.369-0.58-1.414-1.333c-0.047-0.782,0.549-1.453,1.33-1.5l11.248-0.674c0.808-0.049,1.453,0.549,1.5,1.33
		c0.047,0.782-0.549,1.453-1.33,1.5l-11.248,0.674C3945.986,169.413,3945.957,169.414,3945.929,169.414z M1071.908,168.643
		c-0.028,0-0.056,0-0.084-0.002l-11.274-0.656c-0.781-0.045-1.378-0.715-1.333-1.498c0.045-0.781,0.712-1.374,1.497-1.333
		l11.274,0.657c0.782,0.045,1.378,0.715,1.333,1.497C1073.278,168.061,1072.653,168.643,1071.908,168.643z M3968.424,168.068
		c-0.744,0-1.369-0.58-1.414-1.333c-0.046-0.781,0.55-1.453,1.331-1.5l11.247-0.67c0.779-0.039,1.452,0.549,1.499,1.331
		c0.047,0.781-0.55,1.453-1.331,1.499l-11.247,0.67C3968.48,168.067,3968.452,168.068,3968.424,168.068z M1049.36,167.332
		c-0.028,0-0.056-0.001-0.084-0.002l-11.274-0.654c-0.782-0.045-1.378-0.716-1.333-1.497c0.045-0.781,0.709-1.376,1.497-1.333
		l11.275,0.654c0.782,0.045,1.379,0.716,1.333,1.497C1050.729,166.75,1050.105,167.332,1049.36,167.332z M3990.917,166.729
		c-0.745,0-1.369-0.581-1.414-1.333c-0.046-0.781,0.55-1.453,1.331-1.499l11.246-0.666c0.769-0.036,1.452,0.55,1.498,1.331
		c0.046,0.782-0.55,1.453-1.331,1.499l-11.245,0.666C3990.973,166.729,3990.944,166.729,3990.917,166.729z M1026.811,166.025
		c-0.027,0-0.055-0.001-0.083-0.002l-11.274-0.652c-0.782-0.045-1.378-0.715-1.333-1.497c0.045-0.781,0.714-1.374,1.497-1.333
		l11.274,0.651c0.782,0.045,1.379,0.715,1.334,1.497C1028.181,165.443,1027.557,166.025,1026.811,166.025z M4013.405,165.399
		c-0.745,0-1.37-0.581-1.414-1.334c-0.046-0.781,0.551-1.453,1.332-1.498l11.243-0.662c0.764-0.042,1.452,0.551,1.498,1.332
		s-0.551,1.452-1.332,1.498l-11.243,0.662C4013.462,165.399,4013.434,165.399,4013.405,165.399z M1004.263,164.724
		c-0.028,0-0.055-0.001-0.083-0.002l-11.275-0.648c-0.781-0.045-1.379-0.715-1.334-1.496s0.705-1.371,1.497-1.334l11.275,0.649
		c0.781,0.045,1.379,0.715,1.334,1.496C1005.633,164.142,1005.008,164.724,1004.263,164.724z M4035.891,164.079
		c-0.744,0-1.369-0.582-1.413-1.334c-0.046-0.782,0.551-1.453,1.332-1.498l11.241-0.657c0.812-0.043,1.452,0.552,1.498,1.333
		c0.046,0.782-0.551,1.453-1.332,1.499l-11.241,0.656C4035.947,164.078,4035.919,164.079,4035.891,164.079z M981.711,163.429
		c-0.027,0-0.054,0-0.082-0.002l-11.274-0.645c-0.782-0.045-1.379-0.715-1.334-1.497c0.044-0.782,0.712-1.396,1.496-1.334
		l11.275,0.645c0.781,0.045,1.379,0.715,1.334,1.497C983.083,162.847,982.458,163.429,981.711,163.429z M4058.372,162.768
		c-0.745,0-1.37-0.582-1.414-1.335c-0.045-0.781,0.551-1.452,1.333-1.498l11.238-0.65c0.79-0.049,1.452,0.552,1.497,1.333
		s-0.552,1.451-1.334,1.497l-11.237,0.651C4058.428,162.767,4058.4,162.768,4058.372,162.768z M959.163,162.141
		c-0.027,0-0.054,0-0.082-0.002l-11.275-0.642c-0.782-0.044-1.379-0.714-1.335-1.496c0.044-0.781,0.729-1.368,1.496-1.335
		l11.275,0.641c0.781,0.044,1.379,0.714,1.334,1.496C960.534,161.558,959.909,162.141,959.163,162.141z M4080.849,161.468
		c-0.746,0-1.37-0.582-1.414-1.336c-0.045-0.781,0.552-1.451,1.333-1.497l11.237-0.646c0.74-0.04,1.452,0.551,1.496,1.334
		c0.045,0.782-0.553,1.452-1.334,1.496l-11.236,0.646C4080.903,161.468,4080.876,161.468,4080.849,161.468z M936.611,160.861
		c-0.027,0-0.054-0.001-0.082-0.002l-11.274-0.637c-0.782-0.044-1.38-0.714-1.335-1.495c0.044-0.782,0.711-1.396,1.495-1.335
		l11.275,0.637c0.782,0.044,1.379,0.714,1.335,1.495C937.982,160.278,937.357,160.861,936.611,160.861z M4103.323,160.181
		c-0.746,0-1.371-0.583-1.414-1.336c-0.045-0.782,0.553-1.452,1.334-1.497l11.237-0.639c0.814-0.04,1.451,0.554,1.495,1.334
		c0.045,0.782-0.553,1.451-1.335,1.496l-11.236,0.639C4103.377,160.18,4103.351,160.181,4103.323,160.181z M914.061,159.589
		c-0.027,0-0.054-0.001-0.081-0.002l-11.275-0.632c-0.782-0.044-1.38-0.712-1.336-1.495c0.044-0.781,0.709-1.372,1.495-1.335
		l11.275,0.632c0.781,0.044,1.379,0.713,1.336,1.495C915.433,159.005,914.808,159.589,914.061,159.589z M4125.791,158.906
		c-0.746,0-1.371-0.583-1.413-1.337c-0.045-0.782,0.554-1.451,1.335-1.496l11.235-0.632c0.775-0.042,1.45,0.553,1.494,1.335
		s-0.554,1.451-1.336,1.495l-11.233,0.632C4125.846,158.905,4125.818,158.906,4125.791,158.906z M891.512,158.327
		c-0.027,0-0.054-0.001-0.081-0.002l-11.276-0.627c-0.782-0.043-1.38-0.712-1.337-1.494c0.044-0.782,0.72-1.373,1.494-1.337
		l11.276,0.627c0.782,0.043,1.38,0.712,1.337,1.494C892.883,157.743,892.258,158.327,891.512,158.327z M4148.259,157.645
		c-0.746,0-1.371-0.583-1.413-1.338c-0.044-0.782,0.555-1.451,1.336-1.495l11.231-0.625c0.812-0.039,1.451,0.555,1.494,1.337
		c0.044,0.782-0.555,1.451-1.337,1.494l-11.23,0.625C4148.312,157.645,4148.286,157.645,4148.259,157.645z M868.959,157.076
		c-0.026,0-0.053-0.001-0.079-0.002l-11.276-0.621c-0.781-0.043-1.38-0.712-1.337-1.493c0.043-0.781,0.687-1.391,1.493-1.337
		l11.277,0.621c0.781,0.043,1.38,0.712,1.337,1.494C870.332,156.492,869.707,157.076,868.959,157.076z M4170.721,156.399
		c-0.746,0-1.372-0.584-1.413-1.34c-0.044-0.781,0.556-1.45,1.337-1.493l11.23-0.617c0.78-0.033,1.451,0.556,1.493,1.338
		c0.043,0.782-0.556,1.45-1.338,1.493l-11.229,0.617C4170.773,156.398,4170.747,156.399,4170.721,156.399z M846.407,155.836
		c-0.026,0-0.052-0.001-0.078-0.002l-11.275-0.616c-0.781-0.042-1.381-0.71-1.338-1.492c0.043-0.781,0.71-1.372,1.493-1.338
		l11.275,0.615c0.782,0.043,1.381,0.711,1.338,1.493C847.781,155.251,847.154,155.836,846.407,155.836z M4193.181,155.169
		c-0.747,0-1.372-0.585-1.413-1.34c-0.043-0.782,0.557-1.45,1.338-1.493l11.229-0.609c0.778-0.042,1.449,0.558,1.491,1.339
		c0.042,0.782-0.557,1.45-1.338,1.492l-11.229,0.609C4193.233,155.168,4193.207,155.169,4193.181,155.169z M823.855,154.608
		c-0.025,0-0.051,0-0.077-0.002l-11.277-0.609c-0.782-0.042-1.381-0.709-1.339-1.491s0.718-1.378,1.492-1.339l11.278,0.609
		c0.782,0.042,1.381,0.71,1.338,1.492C825.229,154.023,824.603,154.608,823.855,154.608z M4215.638,153.956
		c-0.748,0-1.374-0.586-1.414-1.341c-0.043-0.782,0.558-1.449,1.339-1.492l11.228-0.6c0.792-0.043,1.448,0.56,1.491,1.34
		c0.041,0.781-0.559,1.449-1.341,1.491l-11.226,0.6C4215.688,153.956,4215.663,153.956,4215.638,153.956z M801.302,153.394
		c-0.025,0-0.051,0-0.077-0.002l-11.276-0.601c-0.782-0.042-1.382-0.709-1.34-1.492c0.042-0.781,0.695-1.385,1.491-1.34
		l11.277,0.602c0.782,0.042,1.382,0.71,1.34,1.491C802.675,152.808,802.05,153.394,801.302,153.394z M4238.091,152.76
		c-0.749,0-1.374-0.586-1.415-1.343c-0.041-0.782,0.56-1.449,1.342-1.49l11.226-0.591c0.8-0.046,1.449,0.56,1.489,1.341
		c0.042,0.782-0.559,1.449-1.341,1.49l-11.225,0.591C4238.142,152.759,4238.116,152.76,4238.091,152.76z M778.747,152.194
		c-0.025,0-0.051-0.001-0.076-0.002l-11.276-0.595c-0.782-0.041-1.382-0.708-1.341-1.49c0.041-0.782,0.703-1.383,1.489-1.341
		l11.278,0.595c0.782,0.042,1.382,0.709,1.341,1.491C780.122,151.607,779.496,152.194,778.747,152.194z M4260.593,151.579
		c-0.749,0-1.375-0.587-1.415-1.344c-0.04-0.782,0.561-1.449,1.343-1.489l11.277-0.584c0.783-0.037,1.449,0.56,1.488,1.343
		c0.041,0.782-0.561,1.448-1.342,1.489l-11.277,0.583C4260.643,151.579,4260.617,151.579,4260.593,151.579z M756.192,151.009
		c-0.025,0-0.05-0.001-0.075-0.002l-11.278-0.587c-0.782-0.041-1.382-0.707-1.342-1.489c0.04-0.782,0.719-1.368,1.489-1.343
		l11.279,0.587c0.782,0.041,1.383,0.708,1.342,1.49C757.567,150.422,756.941,151.009,756.192,151.009z M4283.146,150.416
		c-0.75,0-1.376-0.588-1.415-1.345c-0.04-0.782,0.562-1.448,1.344-1.488l11.279-0.575c0.744-0.029,1.447,0.562,1.487,1.345
		c0.039,0.782-0.562,1.447-1.345,1.487l-11.277,0.574C4283.195,150.416,4283.171,150.416,4283.146,150.416z M733.636,149.84
		c-0.025,0-0.05,0-0.075-0.002l-11.277-0.578c-0.782-0.04-1.383-0.706-1.343-1.488c0.04-0.781,0.708-1.369,1.488-1.344l11.278,0.578
		c0.782,0.041,1.383,0.707,1.343,1.489C735.011,149.252,734.385,149.84,733.636,149.84z M4305.703,149.272
		c-0.75,0-1.377-0.588-1.415-1.346c-0.039-0.782,0.562-1.448,1.345-1.487l11.279-0.564c0.804-0.042,1.447,0.564,1.486,1.346
		s-0.563,1.447-1.346,1.486l-11.277,0.564C4305.751,149.271,4305.727,149.272,4305.703,149.272z M711.08,148.688
		c-0.024,0-0.049-0.001-0.073-0.002l-11.279-0.569c-0.782-0.04-1.384-0.705-1.345-1.487c0.04-0.782,0.707-1.392,1.487-1.344
		l11.28,0.568c0.782,0.04,1.384,0.706,1.344,1.488C712.456,148.1,711.83,148.688,711.08,148.688z M4328.262,148.149
		c-0.752,0-1.378-0.589-1.416-1.348c-0.038-0.782,0.564-1.447,1.347-1.486l11.278-0.553c0.768-0.043,1.447,0.564,1.485,1.347
		c0.038,0.782-0.565,1.447-1.347,1.485l-11.277,0.553C4328.309,148.149,4328.284,148.149,4328.262,148.149z M688.521,147.555
		c-0.024,0-0.048,0-0.073-0.002l-11.278-0.56c-0.782-0.039-1.385-0.704-1.346-1.485c0.039-0.782,0.722-1.388,1.485-1.346
		l11.281,0.56c0.782,0.039,1.384,0.704,1.345,1.486C689.897,146.965,689.271,147.555,688.521,147.555z M4350.818,147.048
		c-0.751,0-1.377-0.591-1.414-1.349c-0.038-0.782,0.565-1.446,1.348-1.484l11.279-0.542c0.808-0.029,1.446,0.566,1.484,1.348
		c0.037,0.782-0.566,1.446-1.349,1.483l-11.278,0.542C4350.865,147.048,4350.842,147.048,4350.818,147.048z M665.96,146.439
		c-0.023,0-0.046,0-0.07-0.001l-11.278-0.55c-0.782-0.038-1.385-0.702-1.348-1.484c0.039-0.782,0.712-1.382,1.484-1.347
		l11.281,0.549c0.782,0.039,1.384,0.704,1.346,1.486C667.338,145.85,666.711,146.439,665.96,146.439z M4373.379,145.97
		c-0.752,0-1.379-0.592-1.415-1.351c-0.037-0.782,0.567-1.446,1.349-1.482l11.281-0.531c0.771-0.023,1.446,0.567,1.482,1.35
		c0.037,0.782-0.567,1.445-1.35,1.482l-11.28,0.53C4373.424,145.97,4373.401,145.97,4373.379,145.97z M643.4,145.345
		c-0.023,0-0.046,0-0.069-0.002l-11.28-0.539c-0.782-0.037-1.385-0.701-1.349-1.483c0.038-0.781,0.696-1.386,1.483-1.349
		l11.282,0.54c0.782,0.038,1.385,0.702,1.348,1.484C644.778,144.755,644.151,145.345,643.4,145.345z M4395.939,144.915
		c-0.753,0-1.38-0.592-1.415-1.352c-0.036-0.782,0.568-1.445,1.351-1.481l11.282-0.518c0.79-0.043,1.445,0.57,1.48,1.351
		c0.036,0.783-0.569,1.445-1.352,1.481l-11.28,0.518C4395.983,144.915,4395.961,144.915,4395.939,144.915z M620.839,144.271
		c-0.022,0-0.045,0-0.068-0.002l-11.28-0.528c-0.782-0.037-1.387-0.7-1.35-1.482c0.037-0.783,0.708-1.379,1.482-1.35l11.281,0.528
		c0.782,0.037,1.386,0.701,1.349,1.482C622.218,143.68,621.591,144.271,620.839,144.271z M4418.501,143.884
		c-0.754,0-1.381-0.593-1.415-1.354c-0.035-0.782,0.57-1.445,1.352-1.48l11.281-0.506c0.765-0.028,1.444,0.57,1.479,1.353
		c0.035,0.782-0.57,1.444-1.353,1.479l-11.279,0.506C4418.544,143.884,4418.522,143.884,4418.501,143.884z M598.278,143.22
		c-0.022,0-0.043,0-0.065-0.001l-11.281-0.517c-0.782-0.036-1.388-0.698-1.351-1.481c0.036-0.782,0.715-1.384,1.48-1.351
		l11.282,0.517c0.782,0.037,1.386,0.7,1.351,1.481C599.658,142.627,599.031,143.22,598.278,143.22z M4441.063,142.879
		c-0.754,0-1.382-0.595-1.415-1.355c-0.034-0.782,0.571-1.444,1.354-1.479l11.283-0.493c0.787-0.044,1.444,0.572,1.478,1.355
		c0.034,0.782-0.572,1.443-1.354,1.478l-11.281,0.493C4441.105,142.879,4441.084,142.879,4441.063,142.879z M575.715,142.192
		c-0.021,0-0.043,0-0.064-0.001l-11.281-0.505c-0.782-0.035-1.387-0.698-1.353-1.479c0.035-0.783,0.687-1.385,1.479-1.353
		l11.282,0.505c0.783,0.035,1.388,0.698,1.353,1.479C577.097,141.599,576.469,142.192,575.715,142.192z M4463.627,141.9
		c-0.756,0-1.384-0.596-1.416-1.357c-0.034-0.783,0.573-1.444,1.355-1.477l11.282-0.48c0.835-0.033,1.442,0.575,1.477,1.356
		c0.032,0.782-0.575,1.443-1.357,1.476l-11.28,0.48C4463.667,141.899,4463.647,141.9,4463.627,141.9z M553.152,141.188
		c-0.021,0-0.042,0-0.063-0.001l-11.281-0.493c-0.782-0.034-1.389-0.695-1.355-1.477c0.034-0.782,0.694-1.373,1.478-1.355
		l11.283,0.493c0.783,0.035,1.388,0.696,1.354,1.479C554.534,140.593,553.906,141.188,553.152,141.188z M4486.191,140.947
		c-0.756,0-1.384-0.597-1.415-1.359c-0.033-0.782,0.574-1.442,1.357-1.475l11.283-0.467c0.765-0.041,1.443,0.576,1.474,1.359
		c0.032,0.782-0.576,1.442-1.357,1.474l-11.281,0.466C4486.231,140.946,4486.212,140.947,4486.191,140.947z M530.587,140.209
		c-0.02,0-0.041,0-0.061-0.001l-11.282-0.479c-0.783-0.033-1.39-0.694-1.356-1.477c0.033-0.782,0.698-1.384,1.476-1.356
		l11.285,0.479c0.782,0.034,1.389,0.695,1.355,1.477C531.97,139.614,531.342,140.209,530.587,140.209z M4508.756,140.021
		c-0.756,0-1.384-0.598-1.414-1.36c-0.032-0.783,0.577-1.442,1.358-1.474l11.286-0.452c0.787-0.049,1.44,0.578,1.472,1.36
		c0.031,0.782-0.578,1.441-1.359,1.473l-11.284,0.452C4508.795,140.021,4508.775,140.021,4508.756,140.021z M508.021,139.257
		c-0.02,0-0.04,0-0.06-0.001l-11.282-0.467c-0.783-0.032-1.391-0.692-1.359-1.475c0.033-0.782,0.677-1.391,1.475-1.358l11.284,0.466
		c0.782,0.033,1.39,0.693,1.357,1.476C509.404,138.66,508.777,139.257,508.021,139.257z M4531.324,139.123
		c-0.757,0-1.386-0.599-1.416-1.361c-0.029-0.783,0.58-1.441,1.361-1.472l11.285-0.438c0.774-0.023,1.441,0.579,1.472,1.362
		c0.029,0.783-0.58,1.441-1.362,1.471l-11.284,0.438C4531.361,139.123,4531.343,139.123,4531.324,139.123z M485.452,138.332
		c-0.019,0-0.038,0-0.058-0.001l-11.283-0.452c-0.782-0.03-1.392-0.69-1.36-1.472c0.032-0.783,0.671-1.391,1.473-1.36l11.285,0.452
		c0.782,0.031,1.391,0.691,1.359,1.473C486.838,137.735,486.209,138.332,485.452,138.332z M4553.893,138.254
		c-0.758,0-1.387-0.6-1.415-1.364c-0.03-0.782,0.58-1.44,1.362-1.47l11.285-0.423c0.752-0.021,1.44,0.582,1.469,1.364
		c0.029,0.783-0.581,1.44-1.363,1.469l-11.283,0.423C4553.929,138.254,4553.911,138.254,4553.893,138.254z M462.884,137.436
		c-0.019,0-0.038,0-0.057-0.001l-11.284-0.437c-0.783-0.03-1.393-0.688-1.362-1.471c0.03-0.783,0.691-1.395,1.471-1.362
		l11.286,0.437c0.782,0.031,1.392,0.689,1.361,1.472C464.269,136.837,463.641,137.436,462.884,137.436z M4576.461,137.416
		c-0.76,0-1.388-0.601-1.416-1.366c-0.028-0.783,0.583-1.439,1.365-1.468l11.286-0.408c0.828-0.018,1.438,0.583,1.467,1.366
		c0.028,0.783-0.583,1.439-1.365,1.467l-11.284,0.408C4576.496,137.416,4576.479,137.416,4576.461,137.416z M4599.03,136.606
		c-0.76,0-1.389-0.603-1.416-1.367c-0.027-0.783,0.585-1.439,1.367-1.467l11.286-0.393c0.817-0.012,1.439,0.587,1.465,1.368
		c0.028,0.783-0.585,1.438-1.367,1.466l-11.284,0.393C4599.064,136.606,4599.047,136.606,4599.03,136.606z M440.313,136.57
		c-0.018,0-0.036,0-0.054-0.001l-11.285-0.422c-0.782-0.029-1.393-0.687-1.364-1.469c0.029-0.782,0.706-1.387,1.469-1.364
		l11.287,0.422c0.782,0.029,1.392,0.688,1.363,1.47C441.7,135.97,441.072,136.57,440.313,136.57z M4621.604,135.829
		c-0.761,0-1.39-0.603-1.416-1.37c-0.026-0.782,0.587-1.438,1.369-1.464l11.287-0.377c0.758-0.039,1.438,0.588,1.464,1.371
		c0.025,0.782-0.588,1.438-1.37,1.463l-11.285,0.376C4621.636,135.828,4621.62,135.829,4621.604,135.829z M417.743,135.734
		c-0.018,0-0.035,0-0.053-0.001l-11.285-0.406c-0.783-0.027-1.395-0.685-1.366-1.467s0.663-1.382,1.467-1.366l11.288,0.406
		c0.782,0.028,1.393,0.686,1.365,1.468C419.13,135.132,418.501,135.734,417.743,135.734z M4644.176,135.083
		c-0.761,0-1.391-0.605-1.415-1.372c-0.024-0.783,0.589-1.438,1.371-1.462l11.287-0.361c0.016,0,0.031-0.001,0.046-0.001
		c0.763,0,1.392,0.605,1.415,1.373c0.025,0.782-0.589,1.437-1.371,1.461l-11.285,0.361
		C4644.208,135.082,4644.192,135.083,4644.176,135.083z M395.17,134.931c-0.017,0-0.034,0-0.051-0.001l-11.284-0.389
		c-0.783-0.026-1.395-0.683-1.369-1.465c0.027-0.783,0.677-1.43,1.465-1.368l11.287,0.389c0.783,0.027,1.395,0.683,1.368,1.466
		C396.559,134.328,395.93,134.931,395.17,134.931z M4666.751,134.368c-0.763,0-1.393-0.606-1.417-1.374
		c-0.024-0.783,0.591-1.437,1.373-1.461l11.289-0.345c0.775-0.024,1.437,0.592,1.46,1.375c0.023,0.782-0.592,1.436-1.374,1.459
		l-11.287,0.345C4666.78,134.368,4666.766,134.368,4666.751,134.368z M372.597,134.161c-0.016,0-0.032,0-0.048-0.001l-11.286-0.372
		c-0.783-0.025-1.396-0.68-1.371-1.463c0.025-0.783,0.68-1.396,1.463-1.371l11.289,0.373c0.782,0.026,1.396,0.681,1.369,1.464
		C373.987,133.557,373.358,134.161,372.597,134.161z M4689.325,133.687c-0.764,0-1.394-0.607-1.416-1.375
		c-0.023-0.783,0.593-1.436,1.375-1.459l11.289-0.328c0.782-0.031,1.436,0.594,1.458,1.376s-0.594,1.435-1.377,1.458l-11.286,0.328
		C4689.354,133.687,4689.339,133.687,4689.325,133.687z M350.022,133.425c-0.015,0-0.031,0-0.046,0l-11.286-0.354
		c-0.783-0.024-1.397-0.679-1.373-1.461s0.668-1.375,1.46-1.373l11.288,0.354c0.783,0.025,1.397,0.68,1.372,1.462
		C351.414,132.82,350.784,133.425,350.022,133.425z M4711.901,133.039c-0.765,0-1.395-0.609-1.416-1.378
		c-0.021-0.783,0.595-1.435,1.378-1.457l11.288-0.312c0.014,0,0.026,0,0.039,0c0.766,0,1.396,0.609,1.417,1.379
		c0.021,0.783-0.596,1.434-1.378,1.456l-11.288,0.312C4711.928,133.039,4711.915,133.039,4711.901,133.039z M327.447,132.726
		c-0.015,0-0.029,0-0.044-0.001l-11.286-0.335c-0.782-0.023-1.398-0.676-1.375-1.459s0.683-1.411,1.458-1.375l11.289,0.336
		c0.782,0.023,1.397,0.677,1.374,1.459C328.84,132.119,328.21,132.726,327.447,132.726z M4734.478,132.425
		c-0.767,0-1.396-0.61-1.417-1.38c-0.021-0.783,0.597-1.434,1.379-1.455l11.291-0.294c0.012,0,0.024,0,0.037,0
		c0.766,0,1.396,0.611,1.416,1.381c0.02,0.782-0.599,1.433-1.381,1.453l-11.287,0.294
		C4734.503,132.425,4734.49,132.425,4734.478,132.425z M304.872,132.063c-0.014,0-0.028,0-0.042-0.001l-11.289-0.317
		c-0.782-0.021-1.399-0.673-1.377-1.456c0.021-0.783,0.687-1.394,1.457-1.378l11.29,0.317c0.782,0.022,1.398,0.675,1.376,1.458
		C306.266,131.455,305.636,132.063,304.872,132.063z M4757.057,131.846c-0.768,0-1.397-0.611-1.417-1.382
		c-0.02-0.782,0.599-1.433,1.382-1.452c3.761-0.094,7.523-0.187,11.29-0.276c0.824-0.034,1.433,0.602,1.451,1.383
		c0.019,0.782-0.601,1.432-1.383,1.451c-3.766,0.09-7.527,0.182-11.288,0.276C4757.08,131.846,4757.068,131.846,4757.057,131.846z
		 M282.294,131.438c-0.013,0-0.026,0-0.039,0c-3.765-0.101-7.527-0.2-11.288-0.297c-0.783-0.021-1.401-0.671-1.381-1.454
		c0.021-0.783,0.633-1.418,1.454-1.38c3.761,0.098,7.524,0.196,11.29,0.297c0.782,0.021,1.4,0.672,1.379,1.455
		C283.689,130.829,283.059,131.438,282.294,131.438z M4779.635,131.303c-0.768,0-1.399-0.614-1.417-1.385
		c-0.018-0.783,0.602-1.432,1.384-1.45l11.291-0.259c0.744-0.002,1.431,0.603,1.448,1.386c0.018,0.782-0.603,1.431-1.386,1.449
		l-11.287,0.259C4779.656,131.302,4779.646,131.303,4779.635,131.303z M259.714,130.854c-0.012,0-0.024,0-0.036,0l-11.288-0.277
		c-0.782-0.019-1.402-0.669-1.383-1.451c0.019-0.782,0.644-1.363,1.451-1.383l11.291,0.277c0.783,0.02,1.401,0.67,1.381,1.453
		C261.111,130.243,260.48,130.854,259.714,130.854z M4802.214,130.794c-0.769,0-1.4-0.615-1.417-1.387
		c-0.018-0.783,0.604-1.431,1.386-1.448l11.291-0.241c0.011,0,0.021,0,0.03,0c0.77,0,1.401,0.616,1.417,1.388
		c0.017,0.783-0.604,1.431-1.388,1.447l-11.288,0.241C4802.234,130.793,4802.224,130.794,4802.214,130.794z M4824.793,130.322
		c-0.77,0-1.401-0.616-1.416-1.389c-0.016-0.782,0.605-1.43,1.389-1.445c3.761-0.076,7.525-0.15,11.291-0.223
		c0.783,0.005,1.43,0.608,1.444,1.39c0.015,0.783-0.606,1.429-1.39,1.444c-3.766,0.072-7.528,0.147-11.289,0.223
		C4824.812,130.322,4824.803,130.322,4824.793,130.322z M237.135,130.31c-0.011,0-0.022,0-0.034,0l-11.288-0.255
		c-0.783-0.018-1.403-0.667-1.386-1.449c0.017-0.783,0.657-1.435,1.448-1.386l11.291,0.255c0.783,0.019,1.403,0.667,1.385,1.45
		C238.534,129.697,237.902,130.31,237.135,130.31z M4847.374,129.887c-0.771,0-1.402-0.618-1.416-1.392
		c-0.015-0.782,0.608-1.429,1.391-1.443l11.292-0.204c0.009,0,0.018,0,0.025,0c0.771,0,1.404,0.618,1.417,1.393
		c0.015,0.783-0.609,1.428-1.392,1.442l-11.29,0.204C4847.393,129.887,4847.383,129.887,4847.374,129.887z M214.554,129.81
		c-0.01,0-0.02,0-0.03,0c-3.765-0.081-7.528-0.159-11.289-0.235c-0.783-0.017-1.404-0.663-1.388-1.446
		c0.016-0.783,0.673-1.432,1.446-1.388c3.762,0.076,7.525,0.154,11.292,0.235c0.783,0.016,1.403,0.665,1.387,1.448
		C215.956,129.195,215.324,129.81,214.554,129.81z M4869.955,129.489c-0.771,0-1.403-0.619-1.417-1.394
		c-0.013-0.783,0.611-1.428,1.395-1.441l11.291-0.185c0.756-0.042,1.428,0.612,1.44,1.394c0.013,0.783-0.611,1.428-1.395,1.44
		l-11.29,0.185C4869.972,129.489,4869.964,129.489,4869.955,129.489z M191.974,129.351c-0.009,0-0.019,0-0.028,0
		c-3.766-0.073-7.529-0.144-11.29-0.212c-0.782-0.015-1.405-0.661-1.391-1.443c0.015-0.782,0.633-1.414,1.443-1.391
		c3.762,0.069,7.526,0.139,11.293,0.212c0.783,0.015,1.405,0.662,1.39,1.444C193.376,128.734,192.744,129.351,191.974,129.351z
		 M4892.538,129.129c-0.773,0-1.406-0.621-1.418-1.396c-0.013-0.783,0.612-1.427,1.396-1.439l11.292-0.166c0.007,0,0.014,0,0.021,0
		c0.773,0,1.405,0.621,1.416,1.397c0.012,0.783-0.614,1.426-1.396,1.438l-11.29,0.166
		C4892.552,129.129,4892.545,129.129,4892.538,129.129z M169.391,128.938c-0.008,0-0.017,0-0.025,0
		c-3.767-0.065-7.53-0.127-11.291-0.188c-0.782-0.013-1.407-0.658-1.394-1.441c0.012-0.782,0.688-1.426,1.44-1.394
		c3.762,0.061,7.526,0.124,11.293,0.189c0.783,0.013,1.406,0.659,1.393,1.442C170.794,128.319,170.162,128.938,169.391,128.938z
		 M4915.12,128.807c-0.774,0-1.406-0.622-1.417-1.399c-0.011-0.782,0.615-1.425,1.397-1.436l11.293-0.146c0.006,0,0.013,0,0.019,0
		c0.774,0,1.406,0.623,1.416,1.399c0.011,0.783-0.616,1.426-1.399,1.435l-11.29,0.147
		C4915.133,128.807,4915.127,128.807,4915.12,128.807z M146.807,128.571c-0.007,0-0.015,0-0.022,0
		c-3.766-0.057-7.529-0.112-11.291-0.165c-0.783-0.011-1.409-0.655-1.397-1.438c0.011-0.783,0.629-1.439,1.438-1.397
		c3.762,0.053,7.527,0.108,11.294,0.166c0.783,0.012,1.408,0.656,1.396,1.439C148.213,127.951,147.581,128.571,146.807,128.571z
		 M4937.701,128.523c-0.774,0-1.407-0.624-1.416-1.4c-0.01-0.783,0.618-1.425,1.4-1.435c3.763-0.044,7.526-0.086,11.294-0.127
		c0.825-0.022,1.424,0.62,1.432,1.402c0.009,0.783-0.619,1.424-1.402,1.433c-3.766,0.041-7.529,0.083-11.29,0.127
		C4937.713,128.523,4937.707,128.523,4937.701,128.523z M4960.286,128.279c-0.776,0-1.409-0.625-1.416-1.403
		c-0.009-0.783,0.62-1.424,1.402-1.431c3.763-0.038,7.526-0.074,11.294-0.107c0.004,0,0.009,0,0.014,0
		c0.776,0,1.41,0.626,1.417,1.405c0.007,0.782-0.622,1.423-1.405,1.43c-3.766,0.035-7.529,0.07-11.291,0.108
		C4960.296,128.279,4960.291,128.279,4960.286,128.279z M124.222,128.253c-0.006,0-0.013,0-0.019,0
		c-3.766-0.049-7.529-0.096-11.29-0.142c-0.783-0.009-1.41-0.651-1.401-1.434c0.009-0.783,0.631-1.418,1.435-1.4
		c3.762,0.044,7.527,0.091,11.294,0.141c0.782,0.01,1.409,0.653,1.398,1.436C125.629,127.63,124.997,128.253,124.222,128.253z
		 M4982.87,128.075c-0.777,0-1.411-0.627-1.417-1.406c-0.007-0.783,0.623-1.423,1.405-1.429c3.763-0.031,7.526-0.06,11.293-0.087
		c0.806,0,1.423,0.624,1.429,1.407c0.005,0.783-0.625,1.422-1.408,1.428c-3.766,0.027-7.529,0.057-11.29,0.087
		C4982.878,128.075,4982.874,128.075,4982.87,128.075z M101.638,127.983c-0.005,0-0.01,0-0.015,0
		c-3.767-0.041-7.53-0.079-11.292-0.116c-0.782-0.007-1.411-0.648-1.403-1.431c0.007-0.783,0.611-1.391,1.431-1.404
		c3.762,0.037,7.527,0.075,11.293,0.116c0.783,0.009,1.411,0.65,1.402,1.433C103.047,127.359,102.414,127.983,101.638,127.983z
		 M5005.456,127.91c-0.779,0-1.413-0.628-1.418-1.409c-0.005-0.782,0.626-1.421,1.409-1.426l11.293-0.067c0.003,0,0.006,0,0.008,0
		c0.779,0,1.413,0.629,1.417,1.409c0.005,0.783-0.626,1.421-1.409,1.426l-11.29,0.067
		C5005.462,127.91,5005.459,127.91,5005.456,127.91z M5027.998,127.786c-0.78,0-1.414-0.63-1.418-1.411
		c-0.003-0.783,0.628-1.421,1.411-1.424l11.261-0.047c0.001,0,0.003,0,0.004,0c0.781,0,1.416,0.631,1.418,1.412
		c0.003,0.783-0.629,1.42-1.411,1.423l-11.258,0.047C5028.002,127.786,5028,127.786,5027.998,127.786z M79.053,127.765
		c-0.004,0-0.008,0-0.012,0c-3.766-0.032-7.53-0.062-11.292-0.09c-0.782-0.005-1.412-0.645-1.407-1.428
		c0.006-0.779,0.64-1.407,1.418-1.407c0.003,0,0.007,0,0.01,0c3.762,0.028,7.527,0.058,11.294,0.09
		c0.783,0.007,1.412,0.647,1.406,1.43C80.464,127.139,79.831,127.765,79.053,127.765z M5050.525,127.703
		c-0.782,0-1.416-0.632-1.418-1.414c-0.003-0.783,0.63-1.419,1.413-1.421c3.756-0.01,7.516-0.019,11.276-0.027
		c0.002,0,0.003,0,0.004,0c0.781,0,1.415,0.633,1.416,1.415c0.002,0.783-0.632,1.418-1.414,1.42
		c-3.761,0.007-7.519,0.017-11.274,0.027C5050.527,127.703,5050.526,127.703,5050.525,127.703z M5073.085,127.66
		c-0.782,0-1.418-0.633-1.418-1.416c-0.001-0.783,0.633-1.418,1.415-1.419c3.763-0.004,7.527-0.006,11.295-0.006
		c0.783,0,1.418,0.635,1.418,1.417s-0.635,1.418-1.418,1.418C5080.609,127.654,5076.847,127.656,5073.085,127.66z M56.467,127.599
		c-0.003,0-0.006,0-0.009,0c-3.767-0.023-7.531-0.044-11.292-0.062c-0.783-0.004-1.414-0.642-1.411-1.425
		c0.004-0.78,0.637-1.41,1.417-1.41c0.002,0,0.005,0,0.008,0c3.763,0.018,7.528,0.039,11.295,0.062
		c0.783,0.005,1.414,0.644,1.409,1.426C57.879,126.97,57.246,127.599,56.467,127.599z M33.881,127.486c-0.002,0-0.004,0-0.006,0
		c-3.767-0.014-7.531-0.026-11.292-0.035c-0.783-0.002-1.417-0.638-1.414-1.421c0.001-0.782,0.636-1.414,1.417-1.414
		c0.001,0,0.002,0,0.003,0c3.763,0.009,7.527,0.021,11.295,0.035c0.783,0.003,1.415,0.64,1.412,1.422
		C35.295,126.854,34.661,127.486,33.881,127.486z M11.294,127.429c-0.001,0-0.001,0-0.002,0c-3.766-0.005-7.531-0.007-11.292-0.007
		c-0.782,0-1.417-0.635-1.417-1.417c0-0.783,0.635-1.417,1.417-1.417c3.763,0,7.528,0.001,11.296,0.007
		c0.782,0.001,1.417,0.637,1.416,1.419C12.71,126.796,12.076,127.429,11.294,127.429z"/>
</g>
<path class="st2" d="M5082.52,870.472"/>
</svg>
