<?xml version="1.0" encoding="UTF-8" standalone="no"?>
<!-- Generator: Adobe Illustrator 25.0.1, SVG Export Plug-In . SVG Version: 6.00 Build 0)  -->

<svg
   version="1.1"
   id="Layer_1"
   x="0px"
   y="0px"
   viewBox="0 0 3686400 2705803"
   xml:space="preserve"
   sodipodi:docname="překryv - kopie.svg"
   width="3686400"
   height="2705803"
   xmlns:inkscape="http://www.inkscape.org/namespaces/inkscape"
   xmlns:sodipodi="http://sodipodi.sourceforge.net/DTD/sodipodi-0.dtd"
   xmlns:xlink="http://www.w3.org/1999/xlink"
   xmlns="http://www.w3.org/2000/svg"
   xmlns:svg="http://www.w3.org/2000/svg"><defs
   id="defs21" /><sodipodi:namedview
   id="namedview21"
   pagecolor="#ffffff"
   bordercolor="#000000"
   borderopacity="0.25"
   inkscape:showpageshadow="2"
   inkscape:pageopacity="0.0"
   inkscape:pagecheckerboard="0"
   inkscape:deskcolor="#d1d1d1" />&#10;<style
   type="text/css"
   id="style1">&#10;	.st0{clip-path:url(#SVGID_2_);}&#10;	.st1{filter:url(#Adobe_OpacityMaskFilter);}&#10;	.st2{clip-path:url(#SVGID_4_);}&#10;	.st3{clip-path:url(#SVGID_4_);mask:url(#SVGID_5_);}&#10;	.st4{opacity:0.38;clip-path:url(#SVGID_9_);fill:#231F20;}&#10;	.st5{clip-path:url(#SVGID_4_);fill:#06274A;}&#10;	&#10;		.st6{clip-path:url(#SVGID_4_);fill:none;stroke:#FFFFFF;stroke-width:2.835;stroke-linecap:round;stroke-miterlimit:6;stroke-dasharray:11.267,11.267;}&#10;	&#10;		.st7{clip-path:url(#SVGID_4_);fill:none;stroke:#FFFFFF;stroke-width:2.835;stroke-linecap:round;stroke-miterlimit:6;stroke-dasharray:11.361,11.361;}&#10;	&#10;		.st8{clip-path:url(#SVGID_4_);fill:none;stroke:#FFFFFF;stroke-width:2.835;stroke-linecap:round;stroke-miterlimit:6;stroke-dasharray:11.284,11.284;}&#10;	&#10;		.st9{clip-path:url(#SVGID_4_);fill:none;stroke:#FFFFFF;stroke-width:2.835;stroke-linecap:round;stroke-miterlimit:6;stroke-dasharray:11.293,11.293;}&#10;	&#10;		.st10{clip-path:url(#SVGID_4_);fill:none;stroke:#FFFFFF;stroke-width:2.835;stroke-linecap:round;stroke-miterlimit:6;stroke-dasharray:11.321,11.321;}&#10;	.st11{clip-path:url(#SVGID_4_);fill:none;stroke:#FFFFFF;stroke-width:2.835;stroke-linecap:round;stroke-miterlimit:6;}&#10;	&#10;		.st12{clip-path:url(#SVGID_4_);fill:none;stroke:#FFFFFF;stroke-width:2.835;stroke-linecap:round;stroke-miterlimit:6;stroke-dasharray:11.278,11.278;}&#10;	&#10;		.st13{clip-path:url(#SVGID_4_);fill:none;stroke:#FFFFFF;stroke-width:2.835;stroke-linecap:round;stroke-miterlimit:6;stroke-dasharray:11.37,11.37;}&#10;</style>&#10;<g
   id="g21"
   transform="translate(0,-1254297)">&#10;	<defs
   id="defs1"><rect
     id="SVGID_1_"
     width="1920"
     height="1990"
     x="0"
     y="0" /></defs>&#10;	<clipPath
   id="SVGID_2_">&#10;		<use
   xlink:href="#SVGID_1_"
   style="overflow:visible"
   id="use1" />&#10;	</clipPath>&#10;	<g
   class="st0"
   clip-path="url(#SVGID_2_)"
   id="g20">&#10;		<defs
   id="defs2"><rect
     id="SVGID_3_"
     width="1920"
     height="1990"
     x="0"
     y="0" /></defs>&#10;		<clipPath
   id="SVGID_4_">&#10;			<use
   xlink:href="#SVGID_3_"
   style="overflow:visible"
   id="use2" />&#10;		</clipPath>&#10;		<defs
   id="defs3"><filter
     id="Adobe_OpacityMaskFilter"
     filterUnits="userSpaceOnUse"
     x="-63.400002"
     y="630.29999"
     width="2135.2"
     height="1441.8">&#10;				<feColorMatrix
   type="matrix"
   values="1 0 0 0 0  0 1 0 0 0  0 0 1 0 0  0 0 0 1 0"
   id="feColorMatrix2" />&#10;			</filter></defs>&#10;		<mask
   maskUnits="userSpaceOnUse"
   x="-63.4"
   y="630.3"
   width="2135.2"
   height="1441.8"
   id="SVGID_5_">&#10;			<g
   class="st1"
   id="g6">&#10;				<g
   id="g5">&#10;					<defs
   id="defs4"><rect
     id="SVGID_6_"
     x="-68.5"
     y="624.90002"
     width="2145.6001"
     height="1453" /></defs>&#10;					<clipPath
   id="SVGID_7_"
   class="st2"
   clip-path="url(#SVGID_4_)">&#10;						<use
   xlink:href="#SVGID_6_"
   style="overflow:visible"
   id="use4" />&#10;					</clipPath>&#10;					<g
   clip-path="url(#SVGID_7_)"
   id="g4">&#10;						&#10;							<image
   style="overflow:visible"
   width="5960"
   height="4036"
   xlink:href="../../../../Users/HorkyVlad/Downloads/64E66D2D.jpg"
   transform="matrix(0.36,0,0,0.36,-68.4647,624.9087)"
   id="image4">&#10;						</image>&#10;					</g>&#10;				</g>&#10;			</g>&#10;		</mask>&#10;		<g
   class="st3"
   mask="url(#SVGID_5_)"
   clip-path="url(#SVGID_4_)"
   id="g8">&#10;			<g
   id="g7">&#10;				<defs
   id="defs6"><rect
     id="SVGID_8_"
     x="-63.400002"
     y="630.29999"
     width="2135.2"
     height="1441.8" /></defs>&#10;				<clipPath
   id="SVGID_9_">&#10;					<use
   xlink:href="#SVGID_8_"
   style="overflow:visible"
   id="use6" />&#10;				</clipPath>&#10;				<rect
   x="-63.400002"
   y="630.29999"
   class="st4"
   width="2135.2"
   height="1441.8"
   clip-path="url(#SVGID_9_)"
   id="rect6" />&#10;			</g>&#10;		</g>&#10;		<path
   class="st5"
   d="M 2031,656.7 V 2031.3 H -36.7 v -1354 c 311.9,0 669,93.7 1033.9,93.7 364.9,0 666.3,-114.3 1033.8,-114.3"
   clip-path="url(#SVGID_4_)"
   id="path8" />&#10;		<line
   class="st6"
   x1="2031"
   y1="673.59998"
   x2="2031"
   y2="2020"
   clip-path="url(#SVGID_4_)"
   id="line8" />&#10;		<line
   class="st7"
   x1="2014"
   y1="2031.3"
   x2="-25.299999"
   y2="2031.3"
   clip-path="url(#SVGID_4_)"
   id="line9" />&#10;		<line
   class="st8"
   x1="-36.700001"
   y1="2014.4"
   x2="-36.700001"
   y2="688.59998"
   clip-path="url(#SVGID_4_)"
   id="line10" />&#10;		<path
   class="st9"
   d="m -19.7,677.4 c 304.6,3.2 651.3,91.8 1005.6,93.6"
   clip-path="url(#SVGID_4_)"
   id="path10" />&#10;		<path
   class="st10"
   d="M 1014.2,770.9 C 1367.8,767.5 1663,659 2019.8,656.7"
   clip-path="url(#SVGID_4_)"
   id="path11" />&#10;		<path
   class="st11"
   d="m 2025.4,656.7 c 1.9,0 3.8,0 5.7,0 v 5.6 M 991.5,771 c 1.9,0 3.8,0 5.6,0 1.9,0 3.8,0 5.7,0 M -36.7,682.9 v -5.6 c 1.9,0 3.8,0 5.6,0 m 0.1,1354 h -5.7 v -5.6 m 2067.7,0 v 5.6 h -5.7"
   clip-path="url(#SVGID_4_)"
   id="path12" />&#10;		<line
   class="st6"
   x1="2061"
   y1="662.59998"
   x2="2061"
   y2="2009"
   clip-path="url(#SVGID_4_)"
   id="line12" />&#10;		<line
   class="st7"
   x1="2044"
   y1="2020.3"
   x2="4.6999998"
   y2="2020.3"
   clip-path="url(#SVGID_4_)"
   id="line13" />&#10;		<line
   class="st8"
   x1="-6.6999998"
   y1="2003.4"
   x2="-6.6999998"
   y2="677.59998"
   clip-path="url(#SVGID_4_)"
   id="line14" />&#10;		<path
   class="st9"
   d="m 10.3,666.4 c 304.6,3.2 651.3,91.8 1005.6,93.6"
   clip-path="url(#SVGID_4_)"
   id="path14" />&#10;		<path
   class="st10"
   d="M 1044.2,759.9 C 1397.8,756.5 1693,648 2049.8,645.7"
   clip-path="url(#SVGID_4_)"
   id="path15" />&#10;		<path
   class="st11"
   d="m 2055.4,645.7 c 1.9,0 3.8,0 5.7,0 v 5.6 M 1021.5,760 c 1.9,0 3.8,0 5.6,0 1.9,0 3.8,0 5.7,0 M -6.7,671.9 v -5.6 c 1.9,0 3.8,0 5.6,0 m 0.1,1354 h -5.7 v -5.6 m 2067.7,0 v 5.6 h -5.7"
   clip-path="url(#SVGID_4_)"
   id="path16" />&#10;		<line
   class="st6"
   x1="2091"
   y1="651.59998"
   x2="2091"
   y2="1998"
   clip-path="url(#SVGID_4_)"
   id="line16" />&#10;		<line
   class="st12"
   x1="2074.1001"
   y1="2009.3"
   x2="4.5999999"
   y2="2009.3"
   clip-path="url(#SVGID_4_)"
   id="line17" />&#10;		<line
   class="st8"
   x1="-6.6999998"
   y1="1992.4"
   x2="-6.6999998"
   y2="666.59998"
   clip-path="url(#SVGID_4_)"
   id="line18" />&#10;		<path
   class="st13"
   d="M 10.4,655.4 C 316,658.6 690.9,747.1 1045.8,749"
   clip-path="url(#SVGID_4_)"
   id="path18" />&#10;		<path
   class="st10"
   d="M 1074.2,748.9 C 1427.8,745.5 1723,637 2079.8,634.7"
   clip-path="url(#SVGID_4_)"
   id="path19" />&#10;		<path
   class="st11"
   d="m 2085.4,634.7 c 1.9,0 3.8,0 5.7,0 v 5.6 M 1051.5,749 c 1.9,0 3.8,0 5.7,0 1.9,0 3.8,0 5.7,0 M -6.7,660.9 v -5.6 c 1.9,0 3.8,0 5.7,0 m 0,1354 h -5.6 v -5.6 m 2097.6,0 v 5.6 h -5.6"
   clip-path="url(#SVGID_4_)"
   id="path20" />&#10;	</g>&#10;</g>&#10;</svg>
