<?xml version="1.0" encoding="utf-8"?>
<!-- Generator: Adobe Illustrator 25.0.1, SVG Export Plug-In . SVG Version: 6.00 Build 0)  -->
<svg version="1.1" id="Layer_1" xmlns="http://www.w3.org/2000/svg" xmlns:xlink="http://www.w3.org/1999/xlink" x="0px" y="0px"
	 viewBox="0 0 1920 1990" style="enable-background:new 0 0 1920 1990;" xml:space="preserve">
<style type="text/css">
	.st0{clip-path:url(#SVGID_2_);}
	.st1{filter:url(#Adobe_OpacityMaskFilter);}
	.st2{clip-path:url(#SVGID_4_);}
	.st3{clip-path:url(#SVGID_4_);mask:url(#SVGID_5_);}
	.st4{opacity:0.38;clip-path:url(#SVGID_9_);fill:#231F20;}
	.st5{clip-path:url(#SVGID_4_);fill:#06274A;}
	
		.st6{clip-path:url(#SVGID_4_);fill:none;stroke:#FFFFFF;stroke-width:2.835;stroke-linecap:round;stroke-miterlimit:6;stroke-dasharray:11.267,11.267;}
	
		.st7{clip-path:url(#SVGID_4_);fill:none;stroke:#FFFFFF;stroke-width:2.835;stroke-linecap:round;stroke-miterlimit:6;stroke-dasharray:11.361,11.361;}
	
		.st8{clip-path:url(#SVGID_4_);fill:none;stroke:#FFFFFF;stroke-width:2.835;stroke-linecap:round;stroke-miterlimit:6;stroke-dasharray:11.284,11.284;}
	
		.st9{clip-path:url(#SVGID_4_);fill:none;stroke:#FFFFFF;stroke-width:2.835;stroke-linecap:round;stroke-miterlimit:6;stroke-dasharray:11.293,11.293;}
	
		.st10{clip-path:url(#SVGID_4_);fill:none;stroke:#FFFFFF;stroke-width:2.835;stroke-linecap:round;stroke-miterlimit:6;stroke-dasharray:11.321,11.321;}
	.st11{clip-path:url(#SVGID_4_);fill:none;stroke:#FFFFFF;stroke-width:2.835;stroke-linecap:round;stroke-miterlimit:6;}
	
		.st12{clip-path:url(#SVGID_4_);fill:none;stroke:#FFFFFF;stroke-width:2.835;stroke-linecap:round;stroke-miterlimit:6;stroke-dasharray:11.278,11.278;}
	
		.st13{clip-path:url(#SVGID_4_);fill:none;stroke:#FFFFFF;stroke-width:2.835;stroke-linecap:round;stroke-miterlimit:6;stroke-dasharray:11.37,11.37;}
</style>
<g>
	<defs>
		<rect id="SVGID_1_" width="1920" height="1990"/>
	</defs>
	<clipPath id="SVGID_2_">
		<use xlink:href="#SVGID_1_"  style="overflow:visible;"/>
	</clipPath>
	<g class="st0">
		<defs>
			<rect id="SVGID_3_" width="1920" height="1990"/>
		</defs>
		<clipPath id="SVGID_4_">
			<use xlink:href="#SVGID_3_"  style="overflow:visible;"/>
		</clipPath>
		<defs>
			<filter id="Adobe_OpacityMaskFilter" filterUnits="userSpaceOnUse" x="-63.4" y="630.3" width="2135.2" height="1441.8">
				<feColorMatrix  type="matrix" values="1 0 0 0 0  0 1 0 0 0  0 0 1 0 0  0 0 0 1 0"/>
			</filter>
		</defs>
		<mask maskUnits="userSpaceOnUse" x="-63.4" y="630.3" width="2135.2" height="1441.8" id="SVGID_5_">
			<g class="st1">
				<g>
					<defs>
						<rect id="SVGID_6_" x="-68.5" y="624.9" width="2145.6" height="1453"/>
					</defs>
					<clipPath id="SVGID_7_" class="st2">
						<use xlink:href="#SVGID_6_"  style="overflow:visible;"/>
					</clipPath>
					<g style="clip-path:url(#SVGID_7_);">
						
							<image style="overflow:visible;" width="5960" height="4036" xlink:href="64E66D2D.jpg"  transform="matrix(0.36 0 0 0.36 -68.4647 624.9087)">
						</image>
					</g>
				</g>
			</g>
		</mask>
		<g class="st3">
			<g>
				<defs>
					<rect id="SVGID_8_" x="-63.4" y="630.3" width="2135.2" height="1441.8"/>
				</defs>
				<clipPath id="SVGID_9_">
					<use xlink:href="#SVGID_8_"  style="overflow:visible;"/>
				</clipPath>
				<rect x="-63.4" y="630.3" class="st4" width="2135.2" height="1441.8"/>
			</g>
		</g>
		<path class="st5" d="M2031,656.7v1374.6H-36.7v-1354c311.9,0,669,93.7,1033.9,93.7C1362.1,771,1663.5,656.7,2031,656.7"/>
		<line class="st6" x1="2031" y1="673.6" x2="2031" y2="2020"/>
		<line class="st7" x1="2014" y1="2031.3" x2="-25.3" y2="2031.3"/>
		<line class="st8" x1="-36.7" y1="2014.4" x2="-36.7" y2="688.6"/>
		<path class="st9" d="M-19.7,677.4c304.6,3.2,651.3,91.8,1005.6,93.6"/>
		<path class="st10" d="M1014.2,770.9c353.6-3.4,648.8-111.9,1005.6-114.2"/>
		<path class="st11" d="M2025.4,656.7c1.9,0,3.8,0,5.7,0v5.6 M991.5,771c1.9,0,3.8,0,5.6,0c1.9,0,3.8,0,5.7,0 M-36.7,682.9v-5.6
			c1.9,0,3.8,0,5.6,0 M-31,2031.3h-5.7v-5.6 M2031,2025.7v5.6h-5.7"/>
		<line class="st6" x1="2061" y1="662.6" x2="2061" y2="2009"/>
		<line class="st7" x1="2044" y1="2020.3" x2="4.7" y2="2020.3"/>
		<line class="st8" x1="-6.7" y1="2003.4" x2="-6.7" y2="677.6"/>
		<path class="st9" d="M10.3,666.4c304.6,3.2,651.3,91.8,1005.6,93.6"/>
		<path class="st10" d="M1044.2,759.9c353.6-3.4,648.8-111.9,1005.6-114.2"/>
		<path class="st11" d="M2055.4,645.7c1.9,0,3.8,0,5.7,0v5.6 M1021.5,760c1.9,0,3.8,0,5.6,0c1.9,0,3.8,0,5.7,0 M-6.7,671.9v-5.6
			c1.9,0,3.8,0,5.6,0 M-1,2020.3h-5.7v-5.6 M2061,2014.7v5.6h-5.7"/>
		<line class="st6" x1="2091" y1="651.6" x2="2091" y2="1998"/>
		<line class="st12" x1="2074.1" y1="2009.3" x2="4.6" y2="2009.3"/>
		<line class="st8" x1="-6.7" y1="1992.4" x2="-6.7" y2="666.6"/>
		<path class="st13" d="M10.4,655.4c305.6,3.2,680.5,91.7,1035.4,93.6"/>
		<path class="st10" d="M1074.2,748.9c353.6-3.4,648.8-111.9,1005.6-114.2"/>
		<path class="st11" d="M2085.4,634.7c1.9,0,3.8,0,5.7,0v5.6 M1051.5,749c1.9,0,3.8,0,5.7,0c1.9,0,3.8,0,5.7,0 M-6.7,660.9v-5.6
			c1.9,0,3.8,0,5.7,0 M-1,2009.3h-5.6v-5.6 M2091,2003.7v5.6h-5.6"/>
	</g>
</g>
</svg>
