<?xml version="1.0" encoding="UTF-8" standalone="no"?>
<!-- Generator: Adobe Illustrator 28.0.0, SVG Export Plug-In . SVG Version: 6.00 Build 0)  -->

<svg
   version="1.1"
   id="Layer_1"
   x="0px"
   y="0px"
   viewBox="0 0 3870.7 1126.2"
   style="enable-background:new 0 0 3870.7 1126.2;"
   xml:space="preserve"
   sodipodi:docname="překryv vlnka - nová.svg"
   inkscape:version="1.3 (0e150ed6c4, 2023-07-21)"
   xmlns:inkscape="http://www.inkscape.org/namespaces/inkscape"
   xmlns:sodipodi="http://sodipodi.sourceforge.net/DTD/sodipodi-0.dtd"
   xmlns="http://www.w3.org/2000/svg"
   xmlns:svg="http://www.w3.org/2000/svg"><defs
   id="defs7" /><sodipodi:namedview
   id="namedview7"
   pagecolor="#ffffff"
   bordercolor="#000000"
   borderopacity="0.25"
   inkscape:showpageshadow="2"
   inkscape:pageopacity="0.0"
   inkscape:pagecheckerboard="0"
   inkscape:deskcolor="#d1d1d1"
   inkscape:zoom="0.33482316"
   inkscape:cx="1935.35"
   inkscape:cy="562.98375"
   inkscape:window-width="1920"
   inkscape:window-height="1017"
   inkscape:window-x="-8"
   inkscape:window-y="-8"
   inkscape:window-maximized="1"
   inkscape:current-layer="Layer_1" />&#10;<style
   type="text/css"
   id="style1">&#10;	.st0{fill:#06274A;}&#10;	.st1{fill:none;stroke:#FFFFFF;stroke-width:3;stroke-miterlimit:10;}&#10;	.st2{fill:none;stroke:#FFFFFF;stroke-width:3;stroke-miterlimit:10;stroke-dasharray:11.9889,11.9889;}&#10;	.st3{fill:none;}&#10;</style>&#10;<path
   class="st0"
   d="M3870.7,224.1c-583.7,0-764.6,38.3-904.8,38.3s-253.7-26-465.1-26s-328.6,29.1-537.7,29.1  s-373.6-35.2-566.6-35.2s-271.1,35.2-675.5,35.2S438.3,224.1,0,224.1v700.8h3870.7L3870.7,224.1L3870.7,224.1z"
   id="path1" />&#10;<g
   id="g5">&#10;	<g
   id="g4">&#10;		<path
   class="st1"
   d="M3870.7,224.1c-2,0-4,0-6,0"
   id="path2" />&#10;		<path
   class="st2"
   d="M3852.7,224.1c-569.4,0.8-748.1,38.2-886.8,38.2c-140.2,0-253.7-26-465.1-26s-328.6,29.1-537.7,29.1    s-373.6-35.2-566.6-35.2s-271.1,35.2-675.5,35.2c-400.7,0-284.9-40.6-709-41.3"
   id="path3" />&#10;		<path
   class="st1"
   d="M6,224.1c-2,0-4,0-6,0"
   id="path4" />&#10;	</g>&#10;</g>&#10;<g
   id="g6">&#10;	<path
   class="st3"
   d="M3870.7,925"
   id="path5" />&#10;</g>&#10;<g
   id="g7"
   inkscape:export-filename="..\..\..\MyStuff\Work\microsite2\images\overlay_medium.png"
   inkscape:export-xdpi="96"
   inkscape:export-ydpi="96">&#10;	<path
   class="st3"
   d="M0,925"
   id="path6" />&#10;</g>&#10;</svg>
