<svg xmlns="http://www.w3.org/2000/svg" viewBox="0 0 38.62956 38.86274"><defs><style>.cls-1{fill:none;stroke:#fff;stroke-linecap:round;stroke-linejoin:round;stroke-width:0.7px;}.cls-2{fill:#fff;}</style></defs><g id="Layer_2" data-name="Layer 2"><g id="Layer_1-2" data-name="Layer 1"><line class="cls-1" x1="26.64951" y1="18.45119" x2="28.43412" y2="18.45119"/><line class="cls-1" x1="26.64951" y1="20.13194" x2="28.43412" y2="20.13194"/><path class="cls-1" d="M26.808,16.77044a1.27315,1.27315,0,0,1-1.27314-1.27314V14.42186h7.22939V15.4973a1.14743,1.14743,0,0,1-1.11464,1.27314v5.95578l6.27967,11.5645a2.85836,2.85836,0,0,1-2.51186,4.222H22.88169a2.85792,2.85792,0,0,1-2.51156-4.22194l6.27938-11.56458V16.77044h-.03482"/><line class="cls-1" x1="26.64951" y1="16.77044" x2="29.14954" y2="16.77044"/><path class="cls-1" d="M23.80539,24.52011A13.95269,13.95269,0,1,1,23.09629,3.469"/><path class="cls-2" d="M13.68052,2.2713a12.06457,12.06457,0,0,0,4.39207,7.01287,12.06516,12.06516,0,0,0,8.1033,2.41177A12.16789,12.16789,0,0,0,13.68052,2.2713Z"/><path class="cls-2" d="M4.95663,22.23174c.169.20248.3457.39632.526.5862a8.62632,8.62632,0,0,0,2.46679-7.43858A8.62777,8.62777,0,0,0,3.29526,9.2362,12.19332,12.19332,0,0,0,4.95663,22.23174Z"/></g></g></svg>