<svg xmlns="http://www.w3.org/2000/svg" viewBox="0 0 38.62956 40.33483">
    <defs>
        <style>
            .cls-1{
                fill:#ffc20e;
            }
            .cls-2{
                fill:none;
                stroke:#fff;
                stroke-linecap:round;
                stroke-linejoin:round;
                stroke-width:0.7px;
            }
        </style>
    </defs>
    <g id="Layer_2" data-name="Layer 2">
        <g id="Layer_1-2" data-name="Layer 1">
            <polygon class="cls-1"
                points="22.59 32.096 23.332 30.78 35.036 30.78 36.856 34.083 37.765 35.95 38.028 37.195 37.813 38.416 36.951 39.349 35.659 39.804 22.882 39.804 21.967 39.708 20.868 39.156 20.22 37.602 20.22 36.309 22.59 32.096" />
            <path class="cls-2"
                d="M31.081,13.39141A3.06428,3.06428,0,0,0,32.78244,7.9243,3.95962,3.95962,0,1,0,27.333,3.31672a3.06537,3.06537,0,0,0-.641,5.88166A2.4221,2.4221,0,0,0,28.04773,13.834" />
            <path class="cls-2" d="M27.333,3.31672a2.71543,2.71543,0,0,0,1.16641,2.809" />
            <path class="cls-2" d="M26.692,9.19838a1.92508,1.92508,0,0,1,2.289,1.12621" />
            <line class="cls-2" x1="26.64951" y1="19.92329" x2="28.43412" y2="19.92329" />
            <line class="cls-2" x1="26.64951" y1="21.60404" x2="28.43412" y2="21.60404" />
            <path class="cls-2"
                d="M26.808,18.24253a1.27314,1.27314,0,0,1-1.27314-1.27313V15.894h7.22939V16.9694a1.14742,1.14742,0,0,1-1.11464,1.27313v5.95579l6.27967,11.56449a2.85836,2.85836,0,0,1-2.51186,4.222H22.88169a2.85791,2.85791,0,0,1-2.51156-4.22193l6.27938-11.56458V18.24253h-.03482" />
            <line class="cls-2" x1="26.64951" y1="18.24253" x2="29.14954" y2="18.24253" />
            <path class="cls-2" d="M23.80539,25.99221a13.95269,13.95269,0,1,1-.7091-21.05109" />
            <path class="cls-1"
                d="M4.56608,8.46791a12.06464,12.06464,0,0,0,8.19847,1.12056A12.06516,12.06516,0,0,0,19.80784,4.9117,12.16787,12.16787,0,0,0,4.56608,8.46791Z" />
            <path class="cls-1"
                d="M14.30307,27.95422c.26371,0,.52578-.01153.78706-.02829A8.6263,8.6263,0,0,0,10.959,21.26625a8.62774,8.62774,0,0,0-7.69858-.36215A12.19332,12.19332,0,0,0,14.30307,27.95422Z" />
        </g>
    </g>
</svg>