<?xml version="1.0" encoding="utf-8"?>
<!-- Generator: Adobe Illustrator 25.0.1, SVG Export Plug-In . SVG Version: 6.00 Build 0)  -->
<svg version="1.1" id="Vrstva_1" xmlns="http://www.w3.org/2000/svg" xmlns:xlink="http://www.w3.org/1999/xlink" x="0px" y="0px"
	 viewBox="0 0 841.89 595.28" style="enable-background:new 0 0 841.89 595.28;" xml:space="preserve">
<style type="text/css">
	.st0{fill:#FFFFFF;}
</style>
<g>
	<g>
		<path class="st0" d="M178.569,287.249c1.693-0.244,3.407-0.413,5.167-0.413c8.25,0,15.837,2.804,21.934,7.469
			c10.161-13.61,16.213-30.45,16.343-48.671C199.094,246.649,180.529,264.585,178.569,287.249z"/>
		<path class="st0" d="M147.79,327.13c-0.151-1.349-0.249-2.712-0.249-4.1c0-15.439,9.736-28.616,23.377-33.805
			c1.025-27.649,23.191-49.923,50.794-51.128c-0.232-2.734-0.607-5.426-1.096-8.08h-92.851v96.674
			c3.846,0.552,7.773,0.854,11.769,0.854C142.322,327.544,145.076,327.403,147.79,327.13z"/>
		<path class="st0" d="M182.379,324.235c-7.818,4.243-16.335,7.355-25.327,9.136c4.162,10.691,14.541,18.302,26.683,18.302
			c8.914,0,16.887-4.095,22.145-10.501C196.555,337.771,188.445,331.867,182.379,324.235z"/>
		<path class="st0" d="M211.184,299.506c5.437,6.332,8.746,14.544,8.746,23.524c0,4.7-0.927,9.182-2.564,13.305
			c2.185,0.323,4.404,0.545,6.677,0.545c9.395,0,18.134-2.855,25.401-7.738v-75.817c-5.827-3.914-12.588-6.543-19.886-7.427
			C229.37,266.02,222.557,284.58,211.184,299.506z"/>
		<path class="st0" d="M183.735,294.388c-1.77,0-3.498,0.184-5.181,0.493c0.559,6.966,2.684,13.486,6.031,19.224
			c6.016-3.94,11.496-8.636,16.29-13.968C196.088,296.544,190.166,294.388,183.735,294.388z"/>
		<path class="st0" d="M213.635,343.395c-2.174,3.179-4.879,5.953-7.927,8.3h43.735v-13.726c-7.555,4.116-16.209,6.462-25.401,6.462
			C220.477,344.431,217,344.065,213.635,343.395z"/>
		<path class="st0" d="M149.448,334.54c-3.256,0.358-6.561,0.556-9.912,0.556c-3.993,0-7.913-0.288-11.769-0.794v17.393h33.953
			C156.094,347.353,151.763,341.41,149.448,334.54z"/>
		<path class="st0" d="M155.093,323.03c0,1.012,0.056,2.01,0.158,2.996c8.096-1.573,15.773-4.327,22.844-8.078
			c-3.621-6.202-6.041-13.171-6.898-20.629C161.678,301.982,155.093,311.738,155.093,323.03z"/>
		<path class="st0" d="M228.281,230.017c0.457,2.705,0.801,5.448,1.012,8.228c7.246,0.713,14.045,2.926,20.15,6.257v-14.485H228.281
			z"/>
		<path class="st0" d="M209.909,334.614c1.577-3.544,2.469-7.46,2.469-11.584c0-6.642-2.29-12.742-6.097-17.606
			c-5.135,5.672-10.987,10.674-17.403,14.892C194.335,326.897,201.606,331.906,209.909,334.614z"/>
	</g>
	<g>
		<g>
			<path class="st0" d="M143.284,389.95v0.4c0,1.749-0.235,2.929-0.825,3.989c-1.275,2.311-3.867,3.801-6.631,3.801
				c-4.411,0-8.067-3.685-8.067-8.12c0-4.507,3.681-8.163,8.211-8.163c1.746,0,3.467,0.565,4.812,1.605
				c0.615,0.446,1.061,0.896,1.819,1.815l-1.299,1.181c-1.56-2.055-3.161-2.95-5.311-2.95c-3.587,0-6.463,2.926-6.463,6.536
				c0,3.491,2.901,6.441,6.322,6.441c1.96,0,3.941-1.085,4.91-2.69c0.4-0.636,0.562-1.25,0.636-2.216h-4.675v-1.63H143.284z"/>
			<path class="st0" d="M161.071,397.856h-2.15l-4.741-6.892h-0.45v6.892h-1.77v-15.739h2.55c1.794,0,2.88,0.235,3.775,0.847
				c1.085,0.734,1.746,2.079,1.746,3.565c0,2.385-1.556,4.081-3.962,4.295L161.071,397.856z M154.84,389.409
				c2.22,0,3.47-1.04,3.47-2.88c0-0.966-0.425-1.816-1.159-2.266c-0.562-0.355-1.271-0.52-2.381-0.52h-1.04v5.665H154.84z"/>
			<path class="st0" d="M171.158,393.395l-1.89,4.461h-1.911l7.243-16.494l7.081,16.494h-1.932l-1.869-4.461H171.158z
				 M174.579,385.469l-2.69,6.301h5.311L174.579,385.469z"/>
			<path class="st0" d="M189.316,381.454l12.251,12.861v-12.198h1.771v16.448l-12.251-12.837v12.128h-1.77V381.454z"/>
			<path class="st0" d="M216.684,397.856h-1.771v-14.112h-3.8v-1.627h9.392v1.627h-3.821V397.856z"/>
			<path class="st0" d="M242.931,389.999c0,4.507-3.706,8.142-8.257,8.142c-2.241,0-4.531-1.04-6.09-2.761
				c-1.321-1.489-2.03-3.354-2.03-5.476c0-4.341,3.779-8.047,8.212-8.047C239.226,381.857,242.931,385.539,242.931,389.999z
				 M228.324,389.904c0,1.936,0.685,3.54,2.009,4.791c1.201,1.131,2.807,1.791,4.362,1.791c3.589,0,6.47-2.877,6.47-6.487
				c0-3.59-2.859-6.49-6.421-6.49C231.228,383.509,228.324,386.409,228.324,389.904z"/>
			<path class="st0" d="M255.621,394.105l4.46-11.988h1.911l-6.396,16.659l-6.371-16.659h1.935L255.621,394.105z"/>
			<path class="st0" d="M270.45,393.395l-1.886,4.461h-1.914l7.246-16.494l7.081,16.494h-1.935l-1.865-4.461H270.45z
				 M273.871,385.469l-2.69,6.301h5.31L273.871,385.469z M273.611,380.863l-1.012-0.751l2.807-3.07l1.584,1.061L273.611,380.863z"/>
			<path class="st0" d="M301.856,393.395l-1.89,4.461h-1.911l7.243-16.494l7.081,16.494h-1.932l-1.869-4.461H301.856z
				 M305.277,385.469l-2.69,6.301h5.311L305.277,385.469z"/>
			<path class="st0" d="M334.081,389.95v0.4c0,1.749-0.235,2.929-0.825,3.989c-1.275,2.311-3.871,3.801-6.631,3.801
				c-4.411,0-8.071-3.685-8.071-8.12c0-4.507,3.681-8.163,8.212-8.163c1.746,0,3.47,0.565,4.812,1.605
				c0.618,0.446,1.064,0.896,1.819,1.815l-1.3,1.181c-1.556-2.055-3.161-2.95-5.307-2.95c-3.586,0-6.466,2.926-6.466,6.536
				c0,3.491,2.901,6.441,6.322,6.441c1.96,0,3.941-1.085,4.91-2.69c0.4-0.636,0.566-1.25,0.64-2.216h-4.675v-1.63H334.081z"/>
			<path class="st0" d="M344.523,383.744v4.695h6.21v1.63h-6.21v6.157h6.372v1.63h-8.142v-15.739h8.142v1.627H344.523z"/>
			<path class="st0" d="M359.57,381.454l12.244,12.861v-12.198h1.77v16.448l-12.244-12.837v12.128h-1.77V381.454z"/>
			<path class="st0" d="M386.935,397.856h-1.771v-14.112h-3.797v-1.627h9.392v1.627h-3.825V397.856z"/>
			<path class="st0" d="M400.348,391.77c0,1.626,0.12,2.336,0.52,3.021c0.611,0.99,1.981,1.696,3.326,1.696
				c1.32,0,2.69-0.706,3.305-1.696c0.4-0.685,0.52-1.395,0.52-3.021v-9.652h1.767v10.123c0,1.699-0.281,2.761-1.036,3.727
				c-1.039,1.345-2.761,2.174-4.555,2.174c-1.795,0-3.561-0.829-4.577-2.174c-0.755-0.966-1.04-2.006-1.04-3.727v-10.123h1.77
				V391.77z"/>
			<path class="st0" d="M428.442,397.856h-2.146l-4.746-6.892h-0.45v6.892h-1.767v-15.739h2.546c1.794,0,2.88,0.235,3.776,0.847
				c1.085,0.734,1.745,2.079,1.745,3.565c0,2.385-1.556,4.081-3.961,4.295L428.442,397.856z M422.212,389.409
				c2.22,0,3.47-1.04,3.47-2.88c0-0.966-0.425-1.816-1.155-2.266c-0.569-0.355-1.275-0.52-2.385-0.52h-1.04v5.665H422.212z"/>
			<path class="st0" d="M438.529,393.395l-1.89,4.461h-1.91l7.246-16.494l7.077,16.494h-1.936l-1.861-4.461H438.529z
				 M441.95,385.469l-2.69,6.301h5.31L441.95,385.469z"/>
			<path class="st0" d="M480.034,385.584c-1.531-1.439-2.996-2.075-4.767-2.075c-3.466,0-6.346,2.975-6.346,6.561
				c0,3.516,2.88,6.417,6.371,6.417c1.745,0,3.23-0.636,4.741-2.051v2.17c-1.556,1.06-3.042,1.535-4.741,1.535
				c-4.437,0-8.142-3.685-8.142-8.096c0-4.506,3.705-8.188,8.236-8.188c1.745,0,3.066,0.446,4.646,1.557V385.584z M475.317,380.843
				l-3.33-2.81l1.251-0.966l2.079,1.77l2.051-1.77l1.229,0.966L475.317,380.843z"/>
			<path class="st0" d="M490.477,383.744v4.695h6.206v1.63h-6.206v6.157h6.374v1.63h-8.141v-15.739h8.141v1.627H490.477z"/>
			<path class="st0" d="M512.529,385.208c-0.801-1.274-1.485-1.699-2.715-1.699c-1.461,0-2.596,1.039-2.596,2.431
				c0,0.685,0.331,1.25,0.991,1.699c0.568,0.376,0.568,0.376,2.715,1.321c2.525,1.109,3.564,2.359,3.564,4.341
				c0,2.715-2.194,4.84-5.005,4.84c-2.476,0-4.246-1.489-4.836-4.061l1.7-0.471c0.186,0.801,0.33,1.181,0.636,1.606
				c0.565,0.801,1.534,1.271,2.57,1.271c1.749,0,3.165-1.366,3.165-3.091c0-0.966-0.425-1.7-1.3-2.241
				c-0.59-0.379-0.59-0.379-2.785-1.369c-2.266-1.016-3.186-2.146-3.186-3.871c0-2.311,1.89-4.057,4.415-4.057
				c1.77,0,3.115,0.826,4.057,2.452L512.529,385.208z"/>
			<path class="st0" d="M531.633,382.117h2.357l-7.387,7.338l7.625,8.401h-2.409l-6.441-7.222l-0.45,0.449v6.772h-1.767v-15.739
				h1.767v6.747L531.633,382.117z"/>
			<path class="st0" d="M543.796,383.744v4.695h6.206v1.63h-6.206v6.157h6.371v1.63h-8.138v-15.739h8.138v1.627H543.796z
				 M545.71,380.863l-1.015-0.751l2.807-3.07l1.58,1.061L545.71,380.863z"/>
			<path class="st0" d="M579.284,397.856h-2.146l-4.745-6.892h-0.449v6.892h-1.767v-15.739h2.546c1.795,0,2.881,0.235,3.776,0.847
				c1.085,0.734,1.745,2.079,1.745,3.565c0,2.385-1.556,4.081-3.962,4.295L579.284,397.856z M573.054,389.409
				c2.22,0,3.47-1.04,3.47-2.88c0-0.966-0.425-1.816-1.155-2.266c-0.569-0.355-1.275-0.52-2.385-0.52h-1.04v5.665H573.054z"/>
			<path class="st0" d="M589.227,383.744v4.695h6.206v1.63h-6.206v6.157h6.374v1.63h-8.141v-15.739h8.141v1.627H589.227z"/>
			<path class="st0" d="M606.041,397.856h-1.768v-15.739h2.856c1.933,0,3.042,0.306,3.962,1.107c0.921,0.78,1.465,2.006,1.465,3.33
				c0,1.226-0.495,2.431-1.3,3.207c-0.85,0.779-2.1,1.204-3.681,1.204h-1.534V397.856z M607.46,389.36
				c2.145,0,3.371-1.036,3.371-2.831c0-0.851-0.33-1.605-0.871-2.076c-0.59-0.495-1.345-0.709-2.62-0.709h-1.299v5.616H607.46z"/>
			<path class="st0" d="M622.26,391.77c0,1.626,0.12,2.336,0.521,3.021c0.614,0.99,1.984,1.696,3.329,1.696
				c1.321,0,2.69-0.706,3.302-1.696c0.4-0.685,0.52-1.395,0.52-3.021v-9.652h1.771v10.123c0,1.699-0.284,2.761-1.04,3.727
				c-1.036,1.345-2.76,2.174-4.552,2.174c-1.795,0-3.565-0.829-4.58-2.174c-0.755-0.966-1.036-2.006-1.036-3.727v-10.123h1.767
				V391.77z"/>
			<path class="st0" d="M641.251,382.117h2.855c1.651,0,2.736,0.306,3.562,0.991c0.92,0.73,1.465,1.98,1.465,3.28
				c0,1.345-0.475,2.266-1.56,3.041c1.865,0.545,2.975,2.03,2.975,3.99c0,1.346-0.568,2.547-1.58,3.375
				c-0.97,0.776-2.009,1.062-3.801,1.062h-3.916V382.117z M644.342,389.055c1.155,0,1.696-0.141,2.217-0.615
				c0.544-0.471,0.85-1.201,0.85-2.03c0-0.846-0.306-1.602-0.825-2.075c-0.495-0.425-1.11-0.59-2.195-0.59h-1.37v5.31H644.342z
				 M645.026,396.227c1.437,0,2.101-0.165,2.761-0.682c0.636-0.52,1.016-1.324,1.016-2.174c0-0.966-0.521-1.911-1.324-2.336
				c-0.611-0.352-1.416-0.495-2.69-0.495h-1.771v5.686H645.026z"/>
			<path class="st0" d="M660.962,396.227h4.32v1.63h-6.087v-15.739h1.767V396.227z"/>
			<path class="st0" d="M674.85,397.856h-1.767v-15.739h1.767V397.856z"/>
			<path class="st0" d="M692.84,382.117h2.357l-7.387,7.338l7.625,8.401h-2.409l-6.441-7.222l-0.449,0.449v6.772h-1.767v-15.739
				h1.767v6.747L692.84,382.117z"/>
			<path class="st0" d="M701.346,382.117h2.03l4.011,7.032l4.061-7.032h2.051l-5.236,8.967v6.772h-1.77v-6.772L701.346,382.117z"/>
		</g>
	</g>
	<g>
		<path class="st0" d="M401.205,293.376c0,15.7-1.644,23.553-6.757,32.317c-9.676,16.799-30.49,28.119-51.669,28.119
			c-34.508,0-62.993-28.302-62.993-62.445c0-34.691,28.484-62.991,63.537-62.991c13.881,0,27.389,4.564,38.164,13.146
			c4.928,3.834,8.398,7.669,14.604,15.336l-6.389,4.93c-5.114-6.754-7.85-9.859-11.685-12.962
			c-9.315-8.217-22.458-12.963-35.056-12.963c-29.942,0-55.14,25.561-55.14,55.687c0,29.946,25.015,54.777,54.774,54.777
			c17.712,0,36.335-9.862,44.55-23.37c3.649-5.845,5.11-11.872,5.476-22.276h-42.723v-7.304H401.205z"/>
		<path class="st0" d="M433.9,311.816l-16.251,39.986h-8.76l51.121-125.435l50.756,125.435h-8.942l-16.072-39.986H433.9z
			 M460.011,246.818l-23.188,57.696h46.012L460.011,246.818z"/>
		<path class="st0" d="M626.903,255.035c-5.661-6.208-8.584-8.765-14.246-11.868c-8.397-4.749-18.073-7.304-26.837-7.304
			c-29.577,0-54.773,25.743-54.773,55.687c0,16.069,6.754,30.311,18.987,40.714c10.589,8.949,23.553,14.062,35.786,14.062
			c9.677,0,21.361-3.47,30.49-9.314c3.835-2.191,6.027-4.2,10.593-8.945v10.589c-13.515,10.59-25.928,15.156-40.538,15.156
			c-34.322,0-63.537-28.664-63.537-62.627c0-34.143,28.85-62.809,63.175-62.809c15.338,0,28.116,4.93,40.9,15.702V255.035z
			 M585.82,221.438l-22.826-19.17l6.575-5.114l16.251,13.512l16.251-13.512l6.39,5.114L585.82,221.438z"/>
		<path class="st0" d="M713.453,351.803h-9.673l-39.078-57.513h-3.648v57.513h-7.851V230.02h17.161
			c12.416,0,19.353,1.644,25.745,6.208c7.85,5.477,12.233,14.788,12.233,26.108c0,12.599-5.658,22.64-15.338,27.937
			c-4.749,2.555-9.677,3.468-19.354,4.016L713.453,351.803z M672.738,286.986c17.526,0,27.571-9.129,27.571-24.832
			c0-9.494-4.2-17.528-10.775-21.179c-4.562-2.557-10.586-3.651-18.44-3.651h-10.041v49.662H672.738z"/>
	</g>
</g>
</svg>
