<?xml version="1.0" encoding="utf-8"?>
<!-- Generator: Adobe Illustrator 25.0.1, SVG Export Plug-In . SVG Version: 6.00 Build 0)  -->
<svg version="1.1" id="Layer_1" xmlns="http://www.w3.org/2000/svg" xmlns:xlink="http://www.w3.org/1999/xlink" x="0px" y="0px"
	 viewBox="0 0 3870.7 1126.2" style="enable-background:new 0 0 3870.7 1126.2;" xml:space="preserve">
<style type="text/css">
	.st0{fill:#06274A;}
	.st1{fill:none;stroke:#FFFFFF;stroke-width:3;stroke-miterlimit:10;}
	.st2{fill:none;stroke:#FFFFFF;stroke-width:3;stroke-miterlimit:10;stroke-dasharray:11.9889,11.9889;}
	.st3{fill:none;}
</style>
<path class="st0" d="M3870.7,224.1c-583.7,0-764.6,86.1-904.8,86.1s-253.7-58.6-465.1-58.6s-328.6,65.5-537.7,65.5
	s-373.6-79.3-566.6-79.3s-271.1,79.3-675.5,79.3s-282.7-93-721-93v902h3870.7V224.1z"/>
<g>
	<g>
		<path class="st1" d="M3870.7,224.1c-2,0-4,0-6,0"/>
		<path class="st2" d="M3852.7,224.2c-569.4,1.7-748.1,86-886.8,86c-140.2,0-253.7-58.6-465.1-58.6s-328.6,65.5-537.7,65.5
			s-373.6-79.3-566.6-79.3s-271.1,79.3-675.5,79.3c-400.7,0-284.9-91.3-709-92.9"/>
		<path class="st1" d="M6,224.1c-2,0-4,0-6,0"/>
	</g>
</g>
<g>
	<path class="st3" d="M3870.7,1126.2"/>
</g>
<g>
	<path class="st3" d="M0,1126.2"/>
</g>
</svg>
