<?xml version="1.0" encoding="utf-8"?>
<!-- Generator: Adobe Illustrator 28.0.0, SVG Export Plug-In . SVG Version: 6.00 Build 0)  -->
<svg version="1.1" id="Layer_1" xmlns="http://www.w3.org/2000/svg" xmlns:xlink="http://www.w3.org/1999/xlink" x="0px" y="0px"
	 viewBox="0 0 38.6 40.3" style="enable-background:new 0 0 38.6 40.3;" xml:space="preserve">
<style type="text/css">
	.st0{fill:#FFC20E;}
	.st1{fill:none;stroke:#FFFFFF;stroke-width:0.7002;stroke-linecap:round;stroke-linejoin:round;stroke-miterlimit:10;}
</style>
<polygon class="st0" points="6.9,28.1 19.4,21.2 31.8,28.1 "/>
<polygon class="st1" points="19.4,21 6.5,28.1 32.2,28.1 "/>
<g>
	<line class="st1" x1="9.2" y1="28.1" x2="9.2" y2="36.1"/>
	<line class="st1" x1="11.8" y1="28.1" x2="11.8" y2="36.1"/>
</g>
<line class="st1" x1="18" y1="28.1" x2="18" y2="36.1"/>
<line class="st1" x1="20.7" y1="28.1" x2="20.7" y2="36.1"/>
<line class="st1" x1="26.9" y1="28.1" x2="26.9" y2="36.1"/>
<line class="st1" x1="29.6" y1="28.1" x2="29.6" y2="36.1"/>
<path id="XMLID_550_" class="st1" d="M9.2,26.5v-11c0-0.6,0.5-1.1,1.1-1.1h18c0.6,0,1.1,0.5,1.1,1.1v11"/>
<path class="st1" d="M15.4,14.4v-4.1c0-0.7,0.6-1.4,1.4-1.4h5.1c0.7,0,1.4,0.6,1.4,1.4v4.1"/>
<path class="st1" d="M19.4,8.9V5.5V1.2c0.4,0.4,1.1,0.5,1.6,0.4c0.6-0.1,1.1-0.3,1.7-0.5c0.5-0.2,1.1-0.4,1.7-0.4
	c0.5,0,1.1,0.2,1.6,0.4v4.3c-0.5-0.2-1-0.4-1.6-0.4c-0.6,0-1.1,0.2-1.7,0.4c-0.5,0.2-1.1,0.4-1.7,0.5"/>
<path class="st1" d="M29.5,19h6.3c0.9,0,1.7,0.8,1.7,1.7v15.4"/>
<path class="st1" d="M9.2,19H2.9c-0.9,0-1.7,0.8-1.7,1.7v15.4"/>
<line class="st1" x1="6.9" y1="36.1" x2="31.8" y2="36.1"/>
<line class="st1" x1="12.6" y1="38.8" x2="26" y2="38.8"/>
</svg>
