<?xml version="1.0" encoding="utf-8"?>
<!-- Generator: Adobe Illustrator 28.0.0, SVG Export Plug-In . SVG Version: 6.00 Build 0)  -->
<svg version="1.1" id="Layer_1" xmlns="http://www.w3.org/2000/svg" xmlns:xlink="http://www.w3.org/1999/xlink" x="0px" y="0px"
	 viewBox="0 0 118.5 137.8" style="enable-background:new 0 0 118.5 137.8;" xml:space="preserve">
<style type="text/css">
	
		.st0{clip-path:url(#SVGID_00000067953402390791684840000016058006014600623542_);fill:none;stroke:#FFFFFF;stroke-width:3;stroke-linecap:round;stroke-linejoin:round;stroke-miterlimit:10;}
</style>
<g>
	<defs>
		<rect id="SVGID_1_" width="118.5" height="137.8"/>
	</defs>
	<clipPath id="SVGID_00000057129089026119490010000005128777840098189969_">
		<use xlink:href="#SVGID_1_"  style="overflow:visible;"/>
	</clipPath>
	
		<path style="clip-path:url(#SVGID_00000057129089026119490010000005128777840098189969_);fill:none;stroke:#FFFFFF;stroke-width:3;stroke-linecap:round;stroke-linejoin:round;stroke-miterlimit:10;" d="
		M41.3,136.3c1.5-4.5,1.4-10.1,0.3-15.1c-0.6-2.9-2.9-5.3-5.8-6c-2.7-0.7-5.5-1-8.3-0.9c-2.9,0-5.7,0.5-8.6,0.2
		c-6.6-0.6-10.6-5-7.8-11.9c1.5-3.3-0.1-5.4-1.1-7.3c-3.1-5.6,1.5-6.8,1.5-10.7c0-1.7-1.4-3.1-3.1-3.3c-2.5-0.3-4.7-1.3-6-2.7
		c-1.2-1.2-1.3-3-0.5-4.4c11.5-18.7,9.1-13.8,13.1-40c2.6-17.2,21.7-37.6,60-31.3C83.2,4,91.2,6.4,98,11
		c15.6,10.7,24,33.1,15.8,59.2c-4.6,14.7-14.8,30.4-11.7,46.8l4.5,18.3"/>
	
		<path style="clip-path:url(#SVGID_00000057129089026119490010000005128777840098189969_);fill:none;stroke:#FFFFFF;stroke-width:3;stroke-linecap:round;stroke-linejoin:round;stroke-miterlimit:10;" d="
		M51.9,83.4v1.8c0,6.2,5.1,11.3,11.3,11.3H68c6.2,0,11.3-5.1,11.3-11.3v-1.8l-0.2-6.2V77c0-3.9,1.5-7.6,4.3-10.4
		c4.6-4.6,7.5-10.9,7.5-18c0-14.6-12.3-26.3-27.1-25.2c-12.4,0.9-22.4,10.8-23.4,23.1c-0.6,7.8,2.2,14.9,7.2,19.9
		C50.4,69.3,52,73.1,52,77v0.1h13.6"/>
	
		<path style="clip-path:url(#SVGID_00000057129089026119490010000005128777840098189969_);fill:none;stroke:#FFFFFF;stroke-width:3;stroke-linecap:round;stroke-linejoin:round;stroke-miterlimit:10;" d="
		M57.6,96.1v2.8c0,4.4,3.6,8,8,8c4.4,0,8-3.6,8-8v-2.8"/>
	
		<line style="clip-path:url(#SVGID_00000057129089026119490010000005128777840098189969_);fill:none;stroke:#FFFFFF;stroke-width:3;stroke-linecap:round;stroke-linejoin:round;stroke-miterlimit:10;" x1="65.6" y1="17.5" x2="65.6" y2="11.7"/>
	
		<line style="clip-path:url(#SVGID_00000057129089026119490010000005128777840098189969_);fill:none;stroke:#FFFFFF;stroke-width:3;stroke-linecap:round;stroke-linejoin:round;stroke-miterlimit:10;" x1="54.9" y1="19.6" x2="52.9" y2="14.1"/>
	
		<line style="clip-path:url(#SVGID_00000057129089026119490010000005128777840098189969_);fill:none;stroke:#FFFFFF;stroke-width:3;stroke-linecap:round;stroke-linejoin:round;stroke-miterlimit:10;" x1="45.6" y1="25.2" x2="41.9" y2="20.8"/>
	
		<line style="clip-path:url(#SVGID_00000057129089026119490010000005128777840098189969_);fill:none;stroke:#FFFFFF;stroke-width:3;stroke-linecap:round;stroke-linejoin:round;stroke-miterlimit:10;" x1="38.8" y1="33.7" x2="33.7" y2="30.8"/>
	
		<line style="clip-path:url(#SVGID_00000057129089026119490010000005128777840098189969_);fill:none;stroke:#FFFFFF;stroke-width:3;stroke-linecap:round;stroke-linejoin:round;stroke-miterlimit:10;" x1="76.3" y1="19.6" x2="78.3" y2="14.1"/>
	
		<line style="clip-path:url(#SVGID_00000057129089026119490010000005128777840098189969_);fill:none;stroke:#FFFFFF;stroke-width:3;stroke-linecap:round;stroke-linejoin:round;stroke-miterlimit:10;" x1="85.6" y1="25.2" x2="89.3" y2="20.8"/>
	
		<line style="clip-path:url(#SVGID_00000057129089026119490010000005128777840098189969_);fill:none;stroke:#FFFFFF;stroke-width:3;stroke-linecap:round;stroke-linejoin:round;stroke-miterlimit:10;" x1="92.4" y1="33.7" x2="97.5" y2="30.8"/>
	
		<line style="clip-path:url(#SVGID_00000057129089026119490010000005128777840098189969_);fill:none;stroke:#FFFFFF;stroke-width:3;stroke-linecap:round;stroke-linejoin:round;stroke-miterlimit:10;" x1="65.6" y1="106.9" x2="65.6" y2="136.3"/>
</g>
</svg>
