<?xml version="1.0" encoding="utf-8"?>
<!-- Generator: Adobe Illustrator 28.0.0, SVG Export Plug-In . SVG Version: 6.00 Build 0)  -->
<svg version="1.1" id="Layer_1" xmlns="http://www.w3.org/2000/svg" xmlns:xlink="http://www.w3.org/1999/xlink" x="0px" y="0px"
	 viewBox="0 0 38.6 40.3" style="enable-background:new 0 0 38.6 40.3;" xml:space="preserve">
<style type="text/css">
	.st0{fill:#FFFFFF;}
	.st1{fill:none;stroke:#FFFFFF;stroke-width:0.7;stroke-linecap:round;stroke-linejoin:round;}
</style>
<g id="Layer_2_00000132794504692817663290000016007816124756669347_">
	<g id="Layer_1-2">
		<polygon class="st0" points="22.6,32.1 23.3,30.8 35,30.8 36.9,34.1 37.8,36 38,37.2 37.8,38.4 37,39.3 35.7,39.8 22.9,39.8 
			22,39.7 20.9,39.2 20.2,37.6 20.2,36.3 		"/>
		<path class="st1" d="M31.1,13.4c1.7-0.1,3-1.6,2.9-3.3c-0.1-0.9-0.5-1.7-1.2-2.2c2-0.9,2.9-3.2,2-5.2s-3.2-2.9-5.2-2
			c-1.1,0.5-1.9,1.5-2.2,2.6c-1.7,0.3-2.8,1.8-2.5,3.5c0.2,1.1,0.9,2,1.9,2.4c-1.3,0.5-1.9,1.9-1.4,3.1c0.4,1.1,1.6,1.8,2.8,1.5"/>
		<path class="st1" d="M27.3,3.3c-0.2,1.1,0.2,2.2,1.2,2.8"/>
		<path class="st1" d="M26.7,9.2c0.9-0.3,1.9,0.2,2.3,1.1"/>
		<line class="st1" x1="26.6" y1="19.9" x2="28.4" y2="19.9"/>
		<line class="st1" x1="26.6" y1="21.6" x2="28.4" y2="21.6"/>
		<path class="st1" d="M26.8,18.2c-0.7,0-1.3-0.6-1.3-1.3v-1.1h7.2V17c0.1,0.6-0.4,1.2-1,1.3c0,0-0.1,0-0.1,0v6l6.3,11.6
			c0.8,1.4,0.2,3.1-1.1,3.9c-0.4,0.2-0.9,0.3-1.4,0.3H22.9c-1.6,0-2.9-1.3-2.9-2.9c0-0.5,0.1-0.9,0.3-1.4l6.3-11.6v-6h0"/>
		<line class="st1" x1="26.6" y1="18.2" x2="29.1" y2="18.2"/>
		<path class="st1" d="M23.8,26c-5.6,5.2-14.5,4.9-19.7-0.7S-0.8,10.8,4.8,5.6c5.1-4.7,12.9-5,18.3-0.6"/>
		<path class="st0" d="M4.6,8.5c2.5,1.3,5.4,1.7,8.2,1.1c2.8-0.7,5.3-2.3,7-4.7C14.5,2.2,8.1,3.7,4.6,8.5z"/>
		<path class="st0" d="M14.3,28c0.3,0,0.5,0,0.8,0c-0.2-2.8-1.8-5.2-4.1-6.7c-2.4-1.3-5.2-1.5-7.7-0.4C5.3,25.2,9.6,27.9,14.3,28z"
			/>
	</g>
</g>
</svg>
