<?xml version="1.0" encoding="utf-8"?>
<!-- Generator: Adobe Illustrator 28.0.0, SVG Export Plug-In . SVG Version: 6.00 Build 0)  -->
<svg version="1.1" id="Layer_1" xmlns="http://www.w3.org/2000/svg" xmlns:xlink="http://www.w3.org/1999/xlink" x="0px" y="0px"
	 viewBox="0 0 38.6 40.3" style="enable-background:new 0 0 38.6 40.3;" xml:space="preserve">
<style type="text/css">
	.st0{fill:#FFC20E;}
	.st1{fill:none;stroke:#FFFFFF;stroke-width:0.7002;stroke-linecap:round;stroke-linejoin:round;stroke-miterlimit:10;}
</style>
<rect x="21" y="31.6" class="st0" width="6" height="1.9"/>
<rect x="34.8" y="32.5" class="st0" width="2.5" height="4"/>
<line class="st1" x1="27.8" y1="35.6" x2="20.2" y2="35.6"/>
<polyline class="st1" points="20.7,33.6 20.7,31.6 27.2,31.6 27.2,33.6 "/>
<rect x="34.8" y="16.3" transform="matrix(-1 -1.224647e-16 1.224647e-16 -1 72.1554 48.5288)" class="st1" width="2.7" height="16"/>
<path class="st1" d="M34.8,32.3V36c0,0.5,0.4,0.8,0.8,0.8h1c0.5,0,0.8-0.4,0.8-0.8v-3.8"/>
<line class="st1" x1="36.1" y1="36.9" x2="36.1" y2="39.5"/>
<path class="st1" d="M37.4,16.3v-1.8c0-0.5-0.4-0.8-0.8-0.8h-1c-0.5,0-0.8,0.4-0.8,0.8v1.8"/>
<g>
	<path class="st1" d="M11.9,21.3c-0.4-1.6-0.6-3.4-0.6-5.3c0-6.4,2.3-11.5,5.2-11.5s5.2,5.2,5.2,11.5c0,6.4-2.3,11.5-5.2,11.5
		c-0.3,0-0.6-0.1-1-0.2"/>
	<path class="st1" d="M25.8,9.4c-1.1-0.8-3-1-5.2-0.5"/>
	<path class="st1" d="M9.7,23.3c-1.5-0.1-2.6-0.6-3.1-1.5c-0.8-1.4-0.1-3.6,1.8-5.8"/>
	<g>
		<path class="st0" d="M28,13.2c0-0.9-0.8-1.7-1.7-1.7c-0.9,0-1.7,0.8-1.7,1.7c0,0.9,0.8,1.7,1.7,1.7C27.2,14.9,28,14.1,28,13.2z"/>
	</g>
	<g>
		<path class="st0" d="M10.8,8.8c0-0.9-0.8-1.7-1.7-1.7S7.5,7.8,7.5,8.8c0,0.9,0.8,1.7,1.7,1.7S10.8,9.7,10.8,8.8z"/>
	</g>
	<g>
		<path class="st0" d="M14.7,24.6c0-0.9-0.8-1.7-1.7-1.7c-0.9,0-1.7,0.8-1.7,1.7c0,0.9,0.8,1.7,1.7,1.7
			C13.9,26.3,14.7,25.6,14.7,24.6z"/>
	</g>
	<path class="st1" d="M11.5,18.9c-3.4-2.5-5.5-5.5-5.3-7.6"/>
	<path class="st1" d="M21.6,13.1c4,3,6.2,6.6,5,8.7c-0.8,1.4-3.1,1.9-5.9,1.3c-1.1-0.2-2.4-0.6-3.7-1.1"/>
</g>
<path class="st1" d="M12.4,8.9c0,0,1.9,0.3,4.3,1.5"/>
<path class="st1" d="M6.8,35.3v1.1c0,1.5,1.2,2.6,2.6,2.6h21.2V1.2H3.1v31.5c0,1.5,1.2,2.6,2.6,2.6H6.8z"/>
<polyline class="st1" points="30.6,3.4 33.2,3.4 33.2,11.7 "/>
</svg>
