<?xml version="1.0" encoding="utf-8"?>
<!-- Generator: Adobe Illustrator 28.0.0, SVG Export Plug-In . SVG Version: 6.00 Build 0)  -->
<svg version="1.1" id="Layer_1" xmlns="http://www.w3.org/2000/svg" xmlns:xlink="http://www.w3.org/1999/xlink" x="0px" y="0px"
	 viewBox="0 0 118.5 137.8" style="enable-background:new 0 0 118.5 137.8;" xml:space="preserve">
<style type="text/css">
	.st0{fill:#FFC20E;}
	
		.st1{clip-path:url(#SVGID_00000174586185534711250930000011143772425581587385_);fill:none;stroke:#FFFFFF;stroke-width:3;stroke-linecap:round;stroke-linejoin:round;stroke-miterlimit:10;}
	
		.st2{clip-path:url(#SVGID_00000023255371718235954070000005950478124650359958_);fill:none;stroke:#FFFFFF;stroke-width:3;stroke-linecap:round;stroke-linejoin:round;stroke-miterlimit:10;}
	
		.st3{clip-path:url(#SVGID_00000013871313632151924270000008299772134656839320_);fill:none;stroke:#FFFFFF;stroke-width:3;stroke-linecap:round;stroke-linejoin:round;stroke-miterlimit:10;}
	
		.st4{clip-path:url(#SVGID_00000103952262644846326880000004334305724078268349_);fill:none;stroke:#FFFFFF;stroke-width:3;stroke-linecap:round;stroke-linejoin:round;stroke-miterlimit:10;}
	
		.st5{clip-path:url(#SVGID_00000032633350445092489970000000069756157283138956_);fill:none;stroke:#FFFFFF;stroke-width:3;stroke-linecap:round;stroke-linejoin:round;stroke-miterlimit:10;}
	
		.st6{clip-path:url(#SVGID_00000120531740727237384710000012268996872391398284_);fill:none;stroke:#FFFFFF;stroke-width:3;stroke-linecap:round;stroke-linejoin:round;stroke-miterlimit:10;}
	
		.st7{clip-path:url(#SVGID_00000121974870158504881590000007619398435913777289_);fill:none;stroke:#FFFFFF;stroke-width:3;stroke-linecap:round;stroke-linejoin:round;stroke-miterlimit:10;}
	
		.st8{clip-path:url(#SVGID_00000124135137733608645450000011755273256803802502_);fill:none;stroke:#FFFFFF;stroke-width:3;stroke-linecap:round;stroke-linejoin:round;stroke-miterlimit:10;}
	
		.st9{clip-path:url(#SVGID_00000067202529356224196720000014635764719227174590_);fill:none;stroke:#FFFFFF;stroke-width:3;stroke-linecap:round;stroke-linejoin:round;stroke-miterlimit:10;}
	
		.st10{clip-path:url(#SVGID_00000048462045788065634360000000403401558906014375_);fill:none;stroke:#FFFFFF;stroke-width:3;stroke-linecap:round;stroke-linejoin:round;stroke-miterlimit:10;}
	
		.st11{clip-path:url(#SVGID_00000176032625907855918020000015357849008779975870_);fill:none;stroke:#FFFFFF;stroke-width:3;stroke-linecap:round;stroke-linejoin:round;stroke-miterlimit:10;}
</style>
<circle class="st0" cx="65.5" cy="48.3" r="18.3"/>
<g>
	<g>
		<defs>
			<rect id="SVGID_1_" x="0" y="0" width="118.5" height="137.8"/>
		</defs>
		<clipPath id="SVGID_00000161604986375005047380000016663861952551770017_">
			<use xlink:href="#SVGID_1_"  style="overflow:visible;"/>
		</clipPath>
		
			<path style="clip-path:url(#SVGID_00000161604986375005047380000016663861952551770017_);fill:none;stroke:#FFFFFF;stroke-width:3;stroke-linecap:round;stroke-linejoin:round;stroke-miterlimit:10;" d="
			M41.3,136.3c1.5-4.5,1.4-10.1,0.3-15.1c-0.6-2.9-2.9-5.3-5.8-6c-2.7-0.7-5.5-1-8.3-0.9c-2.9,0-5.7,0.5-8.6,0.2
			c-6.6-0.6-10.6-5-7.8-11.9c1.5-3.3-0.1-5.4-1.1-7.3c-3.1-5.6,1.5-6.8,1.5-10.7c0-1.7-1.4-3.1-3.1-3.3c-2.5-0.3-4.7-1.3-6-2.7
			c-1.2-1.2-1.3-3-0.5-4.4C13.4,55.5,11,60.4,15,34.2C17.6,17,36.7-3.4,75,2.9C83.2,4,91.2,6.4,98,11c15.6,10.7,24,33.1,15.8,59.2
			c-4.6,14.7-14.8,30.4-11.7,46.8l4.5,18.3"/>
	</g>
	<g>
		<defs>
			<rect id="SVGID_00000155113065717391303190000016150741282869802916_" x="0" y="0" width="118.5" height="137.8"/>
		</defs>
		<clipPath id="SVGID_00000071518389509213934980000007305549151911689896_">
			<use xlink:href="#SVGID_00000155113065717391303190000016150741282869802916_"  style="overflow:visible;"/>
		</clipPath>
		
			<path style="clip-path:url(#SVGID_00000071518389509213934980000007305549151911689896_);fill:none;stroke:#FFFFFF;stroke-width:3;stroke-linecap:round;stroke-linejoin:round;stroke-miterlimit:10;" d="
			M51.9,83.4v1.8c0,6.2,5.1,11.3,11.3,11.3H68c6.2,0,11.3-5.1,11.3-11.3v-1.8l-0.2-6.2V77c0-3.9,1.5-7.6,4.3-10.4
			c4.6-4.6,7.5-10.9,7.5-18c0-14.6-12.3-26.3-27.1-25.2c-12.4,0.9-22.4,10.8-23.4,23.1c-0.6,7.8,2.2,14.9,7.2,19.9
			C50.4,69.3,52,73.1,52,77v0.1h13.6"/>
	</g>
	<g>
		<defs>
			<rect id="SVGID_00000026127179433359284380000006068482247337255848_" x="0" y="0" width="118.5" height="137.8"/>
		</defs>
		<clipPath id="SVGID_00000181800149177655331280000015697792292694884509_">
			<use xlink:href="#SVGID_00000026127179433359284380000006068482247337255848_"  style="overflow:visible;"/>
		</clipPath>
		
			<path style="clip-path:url(#SVGID_00000181800149177655331280000015697792292694884509_);fill:none;stroke:#FFFFFF;stroke-width:3;stroke-linecap:round;stroke-linejoin:round;stroke-miterlimit:10;" d="
			M57.6,96.1v2.8c0,4.4,3.6,8,8,8s8-3.6,8-8v-2.8"/>
	</g>
	<g>
		<defs>
			<rect id="SVGID_00000164515264702797001380000009501940257410785959_" x="0" y="0" width="118.5" height="137.8"/>
		</defs>
		<clipPath id="SVGID_00000183957883754400690530000002532933465664097215_">
			<use xlink:href="#SVGID_00000164515264702797001380000009501940257410785959_"  style="overflow:visible;"/>
		</clipPath>
		
			<line style="clip-path:url(#SVGID_00000183957883754400690530000002532933465664097215_);fill:none;stroke:#FFFFFF;stroke-width:3;stroke-linecap:round;stroke-linejoin:round;stroke-miterlimit:10;" x1="65.6" y1="17.5" x2="65.6" y2="11.7"/>
	</g>
	<g>
		<defs>
			<rect id="SVGID_00000120520373215854300740000012276997934953680014_" x="0" y="0" width="118.5" height="137.8"/>
		</defs>
		<clipPath id="SVGID_00000103224481533097640080000000408235395684143283_">
			<use xlink:href="#SVGID_00000120520373215854300740000012276997934953680014_"  style="overflow:visible;"/>
		</clipPath>
		
			<line style="clip-path:url(#SVGID_00000103224481533097640080000000408235395684143283_);fill:none;stroke:#FFFFFF;stroke-width:3;stroke-linecap:round;stroke-linejoin:round;stroke-miterlimit:10;" x1="54.9" y1="19.6" x2="52.9" y2="14.1"/>
	</g>
	<g>
		<defs>
			<rect id="SVGID_00000013162343419184329820000012747946106246496425_" x="0" y="0" width="118.5" height="137.8"/>
		</defs>
		<clipPath id="SVGID_00000164471502837631745200000010655915312697841047_">
			<use xlink:href="#SVGID_00000013162343419184329820000012747946106246496425_"  style="overflow:visible;"/>
		</clipPath>
		
			<line style="clip-path:url(#SVGID_00000164471502837631745200000010655915312697841047_);fill:none;stroke:#FFFFFF;stroke-width:3;stroke-linecap:round;stroke-linejoin:round;stroke-miterlimit:10;" x1="45.6" y1="25.2" x2="41.9" y2="20.8"/>
	</g>
	<g>
		<defs>
			<rect id="SVGID_00000000902692099692947870000003950205258830934664_" x="0" y="0" width="118.5" height="137.8"/>
		</defs>
		<clipPath id="SVGID_00000112614592112599621990000013692201189632401823_">
			<use xlink:href="#SVGID_00000000902692099692947870000003950205258830934664_"  style="overflow:visible;"/>
		</clipPath>
		
			<line style="clip-path:url(#SVGID_00000112614592112599621990000013692201189632401823_);fill:none;stroke:#FFFFFF;stroke-width:3;stroke-linecap:round;stroke-linejoin:round;stroke-miterlimit:10;" x1="38.8" y1="33.7" x2="33.7" y2="30.8"/>
	</g>
	<g>
		<defs>
			<rect id="SVGID_00000065055359781041554190000008088653407935947405_" x="0" y="0" width="118.5" height="137.8"/>
		</defs>
		<clipPath id="SVGID_00000173139612509223534280000007293729361278874267_">
			<use xlink:href="#SVGID_00000065055359781041554190000008088653407935947405_"  style="overflow:visible;"/>
		</clipPath>
		
			<line style="clip-path:url(#SVGID_00000173139612509223534280000007293729361278874267_);fill:none;stroke:#FFFFFF;stroke-width:3;stroke-linecap:round;stroke-linejoin:round;stroke-miterlimit:10;" x1="76.3" y1="19.6" x2="78.3" y2="14.1"/>
	</g>
	<g>
		<defs>
			<rect id="SVGID_00000087384413857710641930000006126588545671755172_" x="0" y="0" width="118.5" height="137.8"/>
		</defs>
		<clipPath id="SVGID_00000099622695420852927070000015291299507954534839_">
			<use xlink:href="#SVGID_00000087384413857710641930000006126588545671755172_"  style="overflow:visible;"/>
		</clipPath>
		
			<line style="clip-path:url(#SVGID_00000099622695420852927070000015291299507954534839_);fill:none;stroke:#FFFFFF;stroke-width:3;stroke-linecap:round;stroke-linejoin:round;stroke-miterlimit:10;" x1="85.6" y1="25.2" x2="89.3" y2="20.8"/>
	</g>
	<g>
		<defs>
			<rect id="SVGID_00000001624316527220803210000004999386136543926182_" x="0" y="0" width="118.5" height="137.8"/>
		</defs>
		<clipPath id="SVGID_00000142171457610727553010000002369108217869231542_">
			<use xlink:href="#SVGID_00000001624316527220803210000004999386136543926182_"  style="overflow:visible;"/>
		</clipPath>
		
			<line style="clip-path:url(#SVGID_00000142171457610727553010000002369108217869231542_);fill:none;stroke:#FFFFFF;stroke-width:3;stroke-linecap:round;stroke-linejoin:round;stroke-miterlimit:10;" x1="92.4" y1="33.7" x2="97.5" y2="30.8"/>
	</g>
	<g>
		<defs>
			<rect id="SVGID_00000172421254219024593760000010989835165381082546_" x="0" y="0" width="118.5" height="137.8"/>
		</defs>
		<clipPath id="SVGID_00000034793751690070110190000011638188166416809868_">
			<use xlink:href="#SVGID_00000172421254219024593760000010989835165381082546_"  style="overflow:visible;"/>
		</clipPath>
		
			<line style="clip-path:url(#SVGID_00000034793751690070110190000011638188166416809868_);fill:none;stroke:#FFFFFF;stroke-width:3;stroke-linecap:round;stroke-linejoin:round;stroke-miterlimit:10;" x1="65.6" y1="106.9" x2="65.6" y2="136.3"/>
	</g>
</g>
</svg>
